<svg xmlns="http://www.w3.org/2000/svg" xmlns:xlink="http://www.w3.org/1999/xlink" width="280" height="160" viewBox="0 0 280 160">
  <defs>
    <clipPath id="clip-cnn-spanish">
      <rect width="280" height="160"/>
    </clipPath>
  </defs>
  <g id="cnn-spanish" clip-path="url(#clip-cnn-spanish)">
    <rect width="280" height="160" fill="#ee1b2e"/>
    <g id="CNN_en_Español" transform="translate(66.912 29)">
      <path id="Path_511" data-name="Path 511" d="M301.642,0h3.233c6.378.256,12.508,2.276,18.409,4.567,3.75,1.386,7.453,2.89,11.172,4.354a34.155,34.155,0,0,0,9.87,2.117,17.175,17.175,0,0,0,9.968-2.543c2.564-1.7,4.148-4.449,5.509-7.129,1.12-.006,2.239-.013,3.359,0a21.78,21.78,0,0,1-5.32,8.81,19.6,19.6,0,0,1-7.7,4.686A28.459,28.459,0,0,1,338.9,15.978,40.78,40.78,0,0,1,328.68,13.57c-3.585-1.277-7.1-2.747-10.639-4.13-4.673-1.833-9.474-3.568-14.514-3.987-5.321-.476-10.9.171-15.633,2.791a22.956,22.956,0,0,0-10.671,13.468q-1.626,0-3.253,0c1.753-5.735,4.8-11.255,9.553-15.038A32.115,32.115,0,0,1,301.642,0Z" transform="translate(-222.302)" fill="#fff"/>
      <path id="Path_512" data-name="Path 512" d="M387.256,7.336c1.071,0,2.145-.013,3.218.009-1.791,5.85-4.943,11.477-9.855,15.257A31.92,31.92,0,0,1,363.05,29a40.681,40.681,0,0,1-12.427-1.355,58.472,58.472,0,0,1-7.972-2.506c-3.572-1.368-7.1-2.845-10.66-4.239a40.649,40.649,0,0,0-9.522-2.714c-4.148-.534-8.626-.039-12.2,2.276-2.636,1.69-4.245,4.5-5.635,7.218-1.108.007-2.217,0-3.325,0a20.734,20.734,0,0,1,9.613-11.957c4.684-2.578,10.228-3.053,15.462-2.491,5.175.563,10.05,2.51,14.856,4.4,4.221,1.648,8.4,3.442,12.754,4.708a35.162,35.162,0,0,0,13.142,1.325,23.759,23.759,0,0,0,10.313-3.307A23.207,23.207,0,0,0,387.256,7.336Z" transform="translate(-244.573 -5.974)" fill="#fff"/>
      <path id="Path_513" data-name="Path 513" d="M105.943,178.378a12.088,12.088,0,0,1,7.653.949,16.348,16.348,0,0,1,5.876,4.9,44.59,44.59,0,0,1,3.079,4.918c4.1,7.07,8.228,14.128,12.284,21.225.041-5.374,0-10.749.017-16.122.05-2.3-.2-4.643.408-6.892a12.163,12.163,0,0,1,6.15-7.9,11.732,11.732,0,0,1,8.6-.869,14.833,14.833,0,0,1,7.029,4.61,38.32,38.32,0,0,1,4.243,6.478c4.015,6.9,8.069,13.785,12.085,20.688.028-10.66,0-21.321.013-31.982,2.867-.017,5.737-.011,8.6,0q0,27.02,0,54.043a4.186,4.186,0,0,1-.443,2.519,1.4,1.4,0,0,1-1.8.408,2.606,2.606,0,0,1-1.083-1.127c-9.3-14.929-18.636-29.833-27.854-44.812a4.2,4.2,0,0,0-3.322-2.109,3.707,3.707,0,0,0-3.536,2.119,6.563,6.563,0,0,0-.5,3.16q.006,20.383,0,40.769a2.09,2.09,0,0,1-1.071,2.089,1.766,1.766,0,0,1-1.976-.943q-14.141-22.671-28.219-45.381a4.091,4.091,0,0,0-3.449-1.822,3.674,3.674,0,0,0-3.147,1.956,6.394,6.394,0,0,0-.586,3.325q0,20.3-.006,40.606a2.421,2.421,0,0,1-2.376,2.226c-6.243.013-12.484,0-18.727.006a33.513,33.513,0,0,1-7.611-.658,22.091,22.091,0,0,1-12.445-7.3,24.235,24.235,0,0,1,1.283-31.8A22.243,22.243,0,0,1,78.7,189.286a50.32,50.32,0,0,1,5.935-.182c3.1,0,6.2,0,9.294,0,.032,2.838.007,5.677.013,8.515-3.1.006-6.2,0-9.3,0a32.484,32.484,0,0,0-5.166.222,14.484,14.484,0,0,0-8.219,4.141,14.96,14.96,0,0,0-4.211,10.406,14.036,14.036,0,0,0,3.006,8.86,14.294,14.294,0,0,0,6.571,4.543,20.733,20.733,0,0,0,6.354,1.086q5.563,0,11.125,0a2.2,2.2,0,0,0,2.07-1.3,4.356,4.356,0,0,0,.217-1.874q-.006-16.588,0-33.179a12.894,12.894,0,0,1,2.919-8.141A11.8,11.8,0,0,1,105.943,178.378Z" transform="translate(-46.784 -145.112)" fill="#fff"/>
      <path id="Path_514" data-name="Path 514" d="M31.383,179.709a92.609,92.609,0,0,1,10.195-.293c1.861.009,3.724-.02,5.585.015-.011,2.864,0,5.728-.006,8.591q-5.855,0-11.711,0a28.941,28.941,0,0,0-9.335,1.411A23.36,23.36,0,0,0,14.456,198,26.628,26.628,0,0,0,9.8,216.567a25.03,25.03,0,0,0,7.094,14.9,24.428,24.428,0,0,0,13.171,6.608,35.972,35.972,0,0,0,6.691.5q8.9,0,17.805,0a7.908,7.908,0,0,0,2.753-.259,4.554,4.554,0,0,0,3.044-4.1q0-20.769,0-41.538a2.245,2.245,0,0,1,1.018-2.076,1.848,1.848,0,0,1,2.289.754Q77.653,214.029,91.8,236.606a3.884,3.884,0,0,0,4.291,1.939,4.037,4.037,0,0,0,2.7-3.963q.008-20.853,0-41.7a2.455,2.455,0,0,1,.868-2.176,1.8,1.8,0,0,1,2.393.6q14,22.679,28.148,45.266a4.291,4.291,0,0,0,2.728,2.043,3.45,3.45,0,0,0,3.312-1.123,4.59,4.59,0,0,0,1.079-3.1q.006-27.487,0-54.97c2.851-.013,5.7-.007,8.551,0q.011,27.4,0,54.8a23.318,23.318,0,0,1-.169,3.905,11.613,11.613,0,0,1-4.417,7.761,11.994,11.994,0,0,1-9.481,1.961,14.937,14.937,0,0,1-9.753-7.032q-7.3-12.084-14.584-24.172,0,8.044,0,16.085a26.926,26.926,0,0,1-.45,6.664,11.259,11.259,0,0,1-4.254,6.549,11.961,11.961,0,0,1-9.325,1.909,14.957,14.957,0,0,1-9.85-7.1c-4.849-8.044-9.731-16.07-14.549-24.133-.05,5.92,0,11.842-.026,17.763a14.225,14.225,0,0,1-2.627,8.345,11.438,11.438,0,0,1-6.736,4.145,31.061,31.061,0,0,1-6.968.415c-5.416-.007-10.834.013-16.252-.011a38.642,38.642,0,0,1-19.679-5.31A32.019,32.019,0,0,1,5.908,230.942a35.471,35.471,0,0,1-.254-35.261,31.351,31.351,0,0,1,13.931-12.745A37.392,37.392,0,0,1,31.383,179.709Z" transform="translate(0 -146.157)" fill="#fff"/>
    </g>
  </g>
</svg>
