<svg xmlns="http://www.w3.org/2000/svg" xmlns:xlink="http://www.w3.org/1999/xlink" viewBox="0 0 280 160">
  <defs>
    <style>
      .cls-1 {
        clip-path: url(#clip-google-sheet);
      }

      .cls-2 {
        fill: #22a466;
      }

      .cls-3 {
        fill: #fff;
      }

      .cls-4 {
        fill: #eee;
      }

      .cls-5 {
        fill: #8eceaf;
      }
    </style>
    <clipPath id="clip-google-sheet">
      <rect width="280" height="160"/>
    </clipPath>
  </defs>
  <g id="google-sheet" class="cls-1">
    <rect class="cls-3" width="280" height="160"/>
    <g id="image">
      <path id="Path_394" data-name="Path 394" class="cls-2" d="M0,0H280V160H0Z"/>
    </g>
    <g id="Group_492" data-name="Group 492" transform="translate(24 9)">
      <path id="Path_546" data-name="Path 546" class="cls-3" d="M57.525,73.581a4.55,4.55,0,0,1-4.615,4.485H4.615A4.55,4.55,0,0,1,0,73.581v-69A4.55,4.55,0,0,1,4.615.1H35.652L57.525,21.906Z" transform="translate(45 31.933)"/>
      <path id="Path_547" data-name="Path 547" class="cls-3" d="M203.324,65.457h-8.092v2.4h5.752c-.26,3.38-3.055,4.81-5.752,4.81a6.435,6.435,0,1,1,0-12.87,6.142,6.142,0,0,1,4.322,1.755l1.69-1.755a8.482,8.482,0,0,0-6.077-2.4,8.809,8.809,0,0,0-.325,17.615h.423a7.754,7.754,0,0,0,8.157-8.06A8.22,8.22,0,0,0,203.324,65.457Z" transform="translate(-68.682 -6.742)"/>
      <path id="Path_548" data-name="Path 548" class="cls-3" d="M247.623,79.042a3.445,3.445,0,1,1-3.217,3.672v-.227a3.347,3.347,0,0,1,3.12-3.445Zm0-2.242a5.607,5.607,0,1,0,.163,0Z" transform="translate(-106.351 -19.84)"/>
      <path id="Path_549" data-name="Path 549" class="cls-3" d="M285.788,79.042a3.445,3.445,0,1,1-3.282,3.607v-.163a3.347,3.347,0,0,1,3.12-3.445Zm-.065-2.242a5.607,5.607,0,1,0,.162,0Z" transform="translate(-132.068 -19.84)"/>
      <path id="Path_550" data-name="Path 550" class="cls-3" d="M323.753,79.042a3.58,3.58,0,1,1-3.152,3.607v-.1a3.274,3.274,0,0,1,3.185-3.51Zm-.227-2.242a5.7,5.7,0,0,0-.065,11.375,3.8,3.8,0,0,0,3.12-1.365v1.1a2.828,2.828,0,0,1-2.958,3.12,3.088,3.088,0,0,1-2.86-1.982l-2.177.942a5.557,5.557,0,0,0,5.1,3.347c3.022,0,5.362-1.917,5.362-5.915V77.189h-2.4v.975a4.127,4.127,0,0,0-3.12-1.365Z" transform="translate(-157.716 -19.839)"/>
      <path id="Path_551" data-name="Path 551" class="cls-3" d="M373.155,78.977a2.178,2.178,0,0,1,2.08,1.2l-5.1,2.145A3.217,3.217,0,0,1,373.155,78.977ZM373.09,76.8a5.387,5.387,0,0,0-5.3,5.655,5.492,5.492,0,0,0,5.265,5.687h.325a5.752,5.752,0,0,0,4.777-2.5l-1.918-1.3a3.088,3.088,0,0,1-2.795,1.527,2.958,2.958,0,0,1-2.8-1.69l7.6-3.217-.39-.942a5.428,5.428,0,0,0-4.745-3.217Z" transform="translate(-191.258 -19.84)"/>
      <rect id="Rectangle_43" data-name="Rectangle 43" class="cls-3" width="2.502" height="16.698" transform="translate(172.927 51.272)"/>
      <path id="Path_552" data-name="Path 552" class="cls-3" d="M196.987,143.313a4.225,4.225,0,0,1-1.527,3.38,5.947,5.947,0,0,1-3.77,1.268,5.72,5.72,0,0,1-3.51-1.137,5.915,5.915,0,0,1-2.08-3.185l1.982-.812a6.694,6.694,0,0,0,.553,1.3,3.575,3.575,0,0,0,.812.975,4.161,4.161,0,0,0,1.04.65,3.12,3.12,0,0,0,1.2.227,3.478,3.478,0,0,0,2.307-.715,2.145,2.145,0,0,0,.878-1.917,2.242,2.242,0,0,0-.78-1.69,6.759,6.759,0,0,0-2.567-1.3,25.568,25.568,0,0,1-2.4-.942,4.1,4.1,0,0,1-2.5-3.835,3.867,3.867,0,0,1,1.43-3.022,5.492,5.492,0,0,1,3.51-1.267,5.037,5.037,0,0,1,3.185.942,4.68,4.68,0,0,1,1.82,2.307l-1.917.813a2.828,2.828,0,0,0-1.04-1.463,3.445,3.445,0,0,0-3.933.065,1.95,1.95,0,0,0-.812,1.657,1.755,1.755,0,0,0,.65,1.43,10.888,10.888,0,0,0,3.12,1.462,7.605,7.605,0,0,1,3.445,2.015A4.16,4.16,0,0,1,196.987,143.313Z" transform="translate(-68.618 -56.616)"/>
      <path id="Path_553" data-name="Path 553" class="cls-3" d="M225.1,132.4h2.08v5.037l-.1,1.527h.1a3.8,3.8,0,0,1,1.43-1.365,4.322,4.322,0,0,1,2.015-.552,4,4,0,0,1,3.055,1.137,4.778,4.778,0,0,1,1.1,3.282v6.89H232.7v-6.5q0-2.957-2.632-2.957a2.8,2.8,0,0,0-2.145,1.04,3.673,3.673,0,0,0-.878,2.47v5.915H225V132.4Z" transform="translate(-94.875 -57.37)"/>
      <path id="Path_554" data-name="Path 554" class="cls-3" d="M262.235,151.322h6.24a2.893,2.893,0,0,0-.943-1.917,3.283,3.283,0,0,0-2.242-.78,2.925,2.925,0,0,0-1.983.715A3.705,3.705,0,0,0,262.235,151.322Zm3.282,7.117a5.1,5.1,0,0,1-3.932-1.657,6.175,6.175,0,0,1-1.592-4.16,5.882,5.882,0,0,1,1.527-4.16,5.46,5.46,0,0,1,7.735-.1h0a6.157,6.157,0,0,1,1.43,4.387v.228h-8.612a3.51,3.51,0,0,0,5.98,2.5,3.607,3.607,0,0,0,.65-.942l1.82.877a5.2,5.2,0,0,1-2.015,2.178A5.59,5.59,0,0,1,265.518,158.44Z" transform="translate(-118.493 -67.095)"/>
      <path id="Path_555" data-name="Path 555" class="cls-3" d="M298.635,151.322h6.24a2.892,2.892,0,0,0-.943-1.917,3.282,3.282,0,0,0-2.242-.78,2.925,2.925,0,0,0-1.982.715,3.7,3.7,0,0,0-1.072,1.982Zm3.282,7.117a5.1,5.1,0,0,1-3.932-1.657,6.175,6.175,0,0,1-1.592-4.16,5.883,5.883,0,0,1,1.527-4.16,5.46,5.46,0,0,1,7.735-.1h0a6.157,6.157,0,0,1,1.43,4.387v.227h-8.612a3.51,3.51,0,0,0,5.98,2.5,3.608,3.608,0,0,0,.65-.942l1.82.877a5.2,5.2,0,0,1-2.015,2.178A5.59,5.59,0,0,1,301.918,158.44Z" transform="translate(-143.063 -67.095)"/>
      <path id="Path_556" data-name="Path 556" class="cls-3" d="M336.337,152.062a3.088,3.088,0,0,1-2.242-.812,2.957,2.957,0,0,1-.877-2.307V142.8H331.3v-1.852h1.918V137.6h2.08v3.347h2.7V142.8h-2.7v5.427a2.048,2.048,0,0,0,.422,1.463,1.332,1.332,0,0,0,.975.39,1.527,1.527,0,0,0,.487-.065l.423-.162.65,1.82A5.233,5.233,0,0,1,336.337,152.062Z" transform="translate(-166.628 -60.88)"/>
      <path id="Path_557" data-name="Path 557" class="cls-3" d="M364.6,155a3.023,3.023,0,0,1-1.268,2.4,4.94,4.94,0,0,1-3.12.975,5.038,5.038,0,0,1-2.892-.877,5.167,5.167,0,0,1-1.82-2.242l1.82-.78a3.575,3.575,0,0,0,1.137,1.527,2.73,2.73,0,0,0,1.69.552,2.86,2.86,0,0,0,1.657-.423,1.2,1.2,0,0,0,.65-.975c0-.715-.552-1.2-1.592-1.527l-1.852-.487c-2.145-.552-3.217-1.527-3.217-3.055a2.99,2.99,0,0,1,1.2-2.4,5.557,5.557,0,0,1,5.752-.228,3.64,3.64,0,0,1,1.657,1.852l-1.82.78a2.048,2.048,0,0,0-1.04-1.1,3.25,3.25,0,0,0-1.592-.39,2.665,2.665,0,0,0-1.43.39,1.17,1.17,0,0,0-.65.975c0,.617.617,1.1,1.755,1.3l1.658.423Q364.6,152.562,364.6,155Z" transform="translate(-182.963 -67.067)"/>
      <path id="Path_558" data-name="Path 558" class="cls-4" d="M117.1,65.5l19.467,18.1L136.5,66.02Z" transform="translate(-34.043 -12.213)"/>
      <path id="Path_559" data-name="Path 559" class="cls-5" d="M131.5,21.807h-17.29a4.55,4.55,0,0,1-4.615-4.485V0Z" transform="translate(-28.98 32)"/>
      <path id="Path_560" data-name="Path 560" class="cls-2" d="M59.3,139.612v-3.9h9.392v3.9Zm-13.13-3.9h9.392v3.9H46.172Zm9.425-2.7H46.2v-4.192H55.6Zm0-11.407v4.485H46.2v-4.485Zm3.7,7.215h9.392v4.192H59.3Zm9.392-2.73H59.3v-4.485h9.392ZM42.5,118v25.252H72.432V118Z" transform="translate(16.312 -47.65)"/>
    </g>
  </g>
</svg>
