<svg xmlns="http://www.w3.org/2000/svg" xmlns:xlink="http://www.w3.org/1999/xlink" width="280" height="160" viewBox="0 0 280 160">
  <defs>
    <clipPath id="clip-path">
      <rect id="Rectangle_66" data-name="Rectangle 66" width="250" height="104"/>
    </clipPath>
    <clipPath id="clip-one-India-app-logo">
      <rect width="280" height="160"/>
    </clipPath>
  </defs>
  <g id="one-India-app-logo" clip-path="url(#clip-one-India-app-logo)">
    <rect width="280" height="160" fill="#fff"/>
    <g id="one-India" transform="translate(15 28)" clip-path="url(#clip-path)">
      <g id="kannada-oneindia-logo_1_" data-name="kannada-oneindia-logo (1)" transform="translate(7.5 -13.436)">
        <path id="Path_703" data-name="Path 703" d="M124.8,113.2h2.144v27.306H124.8Z" transform="translate(-32.88 -27.309)" fill="#354395" fill-rule="evenodd"/>
        <path id="Path_704" data-name="Path 704" d="M139.023,128.2h-3.5l-7.72,7.72,8.935,8.935h3.86l-8.935-8.935Z" transform="translate(-33.736 -31.587)" fill="#354395" fill-rule="evenodd"/>
        <path id="Path_705" data-name="Path 705" d="M156.42,126.7c-4.932,0-6.862,2.716-6.862,2.716l1.644,1.644s1.215-1.93,4.861-1.93c3.574,0,4.646,2.645,4.646,4.932a32.413,32.413,0,0,0-5.647,0c-2.788.286-6.362,1.859-6.362,5.719,0,3.789,3.646,4.861,6.362,4.861s5.647-2.287,5.647-3v2.716h2.43v-9.293c-.071-4.575-.858-8.364-6.719-8.364Zm4.146,11.223c0,1.215-1.144,4.146-4,4.36s-4.861-.715-4.789-2.788c.072-2.145,2-3.5,4.861-3.5h3.932v1.93Z" transform="translate(-39.696 -31.159)" fill="#354395" fill-rule="evenodd"/>
        <path id="Path_706" data-name="Path 706" d="M241.42,126.7c-4.932,0-6.862,2.716-6.862,2.716l1.644,1.644s1.215-1.93,4.861-1.93c3.574,0,4.646,2.645,4.646,4.932a32.413,32.413,0,0,0-5.647,0c-2.788.286-6.362,1.859-6.362,5.719,0,3.789,3.646,4.861,6.362,4.861s5.647-2.287,5.647-3v2.716h2.43v-9.293c0-4.575-.858-8.364-6.719-8.364Zm4.146,11.223c0,1.215-1.144,4.146-4,4.36s-4.861-.715-4.789-2.788c.071-2.145,2-3.5,4.861-3.5h3.932v1.93Z" transform="translate(-63.935 -31.159)" fill="#354395" fill-rule="evenodd"/>
        <path id="Path_707" data-name="Path 707" d="M299.12,126.7c-4.932,0-6.862,2.716-6.862,2.716l1.644,1.644s1.215-1.93,4.861-1.93c3.574,0,4.646,2.645,4.646,4.932a32.413,32.413,0,0,0-5.647,0c-2.788.286-6.362,1.859-6.362,5.719,0,3.789,3.646,4.861,6.362,4.861s5.647-2.287,5.647-3v2.716h2.43v-9.293c0-4.575-.858-8.364-6.719-8.364Zm4.146,11.223c0,1.215-1.144,4.146-4,4.36s-4.861-.715-4.789-2.788c.071-2.145,2-3.5,4.861-3.5h3.932v1.93Z" transform="translate(-80.389 -31.159)" fill="#354395" fill-rule="evenodd"/>
        <path id="Path_708" data-name="Path 708" d="M177.371,127.929h2.073V131a7.037,7.037,0,0,1,5.933-3.5c4.075,0,6.433,2.931,6.433,8.221v9.007h-2.287V135.65c0-3.5-1.787-5.862-4.217-5.862s-5.5.572-5.5,8.006v6.862h-2.5V127.929Z" transform="translate(-47.852 -31.387)" fill="#354395" fill-rule="evenodd"/>
        <path id="Path_709" data-name="Path 709" d="M206.5,127.929h2.073V131a7.037,7.037,0,0,1,5.933-3.5c4.075,0,6.5,2.931,6.5,8.221v9.007h-2.287V135.65c0-3.5-1.787-5.862-4.217-5.862s-5.5.572-5.5,8.006v6.862h-2.5V127.929Z" transform="translate(-56.178 -31.387)" fill="#354395" fill-rule="evenodd"/>
        <path id="Path_710" data-name="Path 710" d="M269.021,127.6a8.721,8.721,0,1,0,0,17.442,8.632,8.632,0,0,0,6.719-3.145V130.745a8.632,8.632,0,0,0-6.719-3.145Zm0,15.3a6.559,6.559,0,1,1,4.655-1.921,6.576,6.576,0,0,1-4.655,1.921Z" transform="translate(-71.521 -31.415)" fill="#354395" fill-rule="evenodd"/>
        <path id="Path_711" data-name="Path 711" d="M281.9,113.5v13.224a8.845,8.845,0,0,1,2,5.576,8.593,8.593,0,0,1-2,5.576v3h2.287V113.643H281.9Z" transform="translate(-77.68 -27.395)" fill="#354395" fill-rule="evenodd"/>
        <path id="Path_712" data-name="Path 712" d="M281.9,132v11.08a8.667,8.667,0,0,0,0-11.08Z" transform="translate(-77.68 -32.67)" fill="#354395" fill-rule="evenodd"/>
        <path id="Path_713" data-name="Path 713" d="M159.744,28.061a38.7,38.7,0,0,1,8.506-3.789c2.788-.929,3.932-.5,6.791-1.287,1.358-.357,9.364-2.287,12.009-3.074a53.489,53.489,0,0,1,10.579-1.5c4.289-.357,10.294-.786,13.224-.858a113.077,113.077,0,0,1,12.938.143c3.646.357,3.288.286,4.146.858.786.643,1.144.429,1.287.286.143-.214-.786-.715-.786-.715l2.573.572a23.429,23.429,0,0,0,2.716.357c.357.143.286.572.715.572a7.081,7.081,0,0,1,2.788.286c1.072.357,1.787.286,2.287.5.5.286.5.429.786.429.357,0,.286-.286,1,0,.643.286,2,.572,3.5,1.072,1.573.5,2.287.572,3.074.929.858.357,1.287,1.072,1.716,1.215l-2-.143c-1-.071-3.789-.214-4.289-.286-.786-.143-1.644-.929-2.788-1.072s-1.5.357-2.287.357-.286-.715-1.358-.643-1.5.143-1.787.143c-.214-.071.071.5-.072.5a35.044,35.044,0,0,1-3.574-.143,24.334,24.334,0,0,0-3.5-.786,14.3,14.3,0,0,0-4.5.643c-1.573.429-4.217,0-7.649.286-3.36.214-9.436,1-13.439,1.716-4,.786-5.433.429-8.649,1.144-3.288.715-4,.786-5.576,1.072a54.638,54.638,0,0,0-7.22,2.5,13.08,13.08,0,0,1-5,1.072c-1.072,0-1.787-.357-3.217-.357-1.358,0-5.218.786-5.147,2.216a5.632,5.632,0,0,0-1.43.214c-.786.286-2.5.786-3.431,1.215a3.423,3.423,0,0,1-2.43,0,1.294,1.294,0,0,0-1.144.071.85.85,0,0,0-.143-.643,3.236,3.236,0,0,1-.858-1.787,3.82,3.82,0,0,1,1.644-3.288Z" transform="translate(-42.376)" fill="#f37321" fill-rule="evenodd"/>
        <path id="Path_714" data-name="Path 714" d="M262.755,38.619a12.7,12.7,0,0,1,1.716,1.215s.286.214-1.787-.286c-.929-.286-3.86-.357-4.289-.5-1.358-.286-2.073-1-2.859-1.144-1.215-.143-1.787.429-2.216.357-.929-.071-.143-.715-1.144-.643-1.072,0-1.716.071-1.859.071-.214-.071-.143.5-.286.572-.214,0-2.716-.286-3.431-.286a21.406,21.406,0,0,0-3.789-.858,16.594,16.594,0,0,0-4.36.429c-1.716.286-4.289-.143-7.863-.071-3.431.143-9.579.572-13.725,1.144-4.146.5-5.576.143-8.935.715-3.288.5-4.075.572-5.719.786a49.837,49.837,0,0,0-7.363,2,15.849,15.849,0,0,1-5.218.786c-1.072-.071-1.787-.357-3.217-.429s-5.647.5-5.576,1.787a4.621,4.621,0,0,0-1.5.143,26.228,26.228,0,0,0-3.288.929,4.369,4.369,0,0,1-2.5-.143,2.069,2.069,0,0,0-1.144,0,.725.725,0,0,0-.143-.572,2.6,2.6,0,0,1-.858-1.573,3.26,3.26,0,0,1,1.787-2.788,44.085,44.085,0,0,1,8.721-3.145c2.859-.786,4.075-.357,6.862-.929,1.43-.286,9.65-1.787,12.438-2.359a69.12,69.12,0,0,1,10.865-.929c4.36-.143,10.508-.5,13.51-.5a131.2,131.2,0,0,1,13.582.643c3.717.429,3.288.286,4.146.858a1.385,1.385,0,0,0,1.644.286c.214-.214-.715-.643-.715-.643a14.927,14.927,0,0,0,1.93.572c1.287.286,2.788.572,3.145.715.357.071.286.5.715.5a6.663,6.663,0,0,1,2.359.286c1.072.357,1.787.286,2.287.5.429.286.5.5.786.572.357,0,.286-.286,1,0,.643.286,1.644.429,3.217.929.357.143,1.287.643,1.573.715a2.584,2.584,0,0,1,1.5.286Z" transform="translate(-46.169 -4.267)" fill="#449d46" fill-rule="evenodd"/>
        <path id="Path_715" data-name="Path 715" d="M290,26.043c.071.143,0,.286.214.286.214.071.286,0,.5.071s.214.071.286.214c.072.214.214.286.357.214.214,0,.286-.286.143-.286a.644.644,0,0,0-.357-.071c-.214,0-.214.071-.286-.071a.749.749,0,0,1-.214-.286c-.143-.143-.143-.214-.357-.214-.357.071-.286.143-.286.143Z" transform="translate(-79.988 -2.414)" fill="#f37321" fill-rule="evenodd"/>
        <path id="Path_716" data-name="Path 716" d="M294.394,27.771c.143.214-.143.286.072.286.214.071.143,0,.286.214.072.143.143.143.214.143.143-.071.214.071.286-.071,0-.214,0-.357-.143-.429-.214,0-.143.071-.214,0-.071-.143,0-.214-.214-.214-.143.071-.357,0-.286.071Z" transform="translate(-81.239 -2.927)" fill="#f37321" fill-rule="evenodd"/>
        <path id="Path_717" data-name="Path 717" d="M282.093,27.73c0,.214-.072.286.071.357.214.071.357.071.643.143a5.8,5.8,0,0,0,.786.214c.286.071.5.214.786.286s.357.071.786.143c.357.143.357.143.572.214.286.071.429.214.786.286a3.146,3.146,0,0,1,.715.143,1.708,1.708,0,0,1,.643.214,2.54,2.54,0,0,0,.715.143h.357s-.214-.143-.214-.286a.9.9,0,0,0-.786-.572,6.164,6.164,0,0,1-1.215-.071c-.286-.071-.572-.071-.786-.143a2.1,2.1,0,0,1-.572-.286c-.143-.071-.286-.286-.429-.429s-.143-.286-.357-.286a2.611,2.611,0,0,0-1.072-.214,5.361,5.361,0,0,0-1.072,0c-.286,0-.286,0-.357.143" transform="translate(-77.73 -2.886)" fill="none" stroke="#fff" stroke-miterlimit="2.613" stroke-width="1.217"/>
        <path id="Path_718" data-name="Path 718" d="M292.07,30.643c.286-.071.214-.143.572-.143a9.932,9.932,0,0,1,1.072.143,1.711,1.711,0,0,1,.929.286,1.618,1.618,0,0,0,.715.357c.214.214.429.286.286.286a1.1,1.1,0,0,1-.786-.143c-.286-.071-.715-.214-1-.286a5.8,5.8,0,0,1-.786-.214,2.114,2.114,0,0,1-.715-.143c-.214.071-.5-.071-.286-.143Z" transform="translate(-80.559 -3.725)" fill="#f37321" fill-rule="evenodd"/>
        <path id="Path_719" data-name="Path 719" d="M302.8,32.692c-.071.071.286.429.715.643a1.614,1.614,0,0,1,.786.572,6.22,6.22,0,0,0,.786.643c.286.214.286.143.643.286.286.214.643.357.786.286.072-.071,0-.214-.286-.429a11.257,11.257,0,0,0-1.358-1.072c-.357-.214-.858-.572-1.144-.715a1.6,1.6,0,0,0-.929-.214Z" transform="translate(-83.637 -4.345)" fill="#f37321" fill-rule="evenodd"/>
        <path id="Path_720" data-name="Path 720" d="M26.8,62.1C16,62.1,9.5,69.534,9.5,78.613c0,9.007,6.648,16.37,17.3,16.37,10.079,0,16.941-7.363,16.941-16.37C43.74,69.534,36.664,62.1,26.8,62.1Zm-.143,26.091h0a9.618,9.618,0,1,1,9.364-9.579,9.618,9.618,0,0,1-9.364,9.579Z" transform="translate(0 -12.737)" fill="#354395" fill-rule="evenodd"/>
        <path id="Path_721" data-name="Path 721" d="M61.3,62.772h7.291v5.361S70.45,62.2,78.6,62.2c8.078,0,11.151,5.29,11.151,11.938v20.3H82.173V77.5c0-3.646-1-8.435-6-8.435-5.075-.071-7.22,3.574-7.22,8.006V94.3H61.3Z" transform="translate(-14.772 -12.765)" fill="#354395" fill-rule="evenodd"/>
        <path id="Path_722" data-name="Path 722" d="M121.441,88.849c-8.006-.071-8.721-7.792-8.721-7.792h24.161c0-5.29,0-7.291-1.215-10.222-1.287-2.931-4.36-8.935-13.51-8.935S105,67.976,105,78.341c0,10.294,8.006,16.727,17.227,16.727,9.293,0,13.367-6.291,13.367-6.291l-5.576-4.289a10.958,10.958,0,0,1-8.578,4.36Zm-.429-21.087h0c8.364,0,8.078,7.577,8.078,7.577H112.863S113.506,67.833,121.012,67.762Z" transform="translate(-27.234 -12.68)" fill="#354395" fill-rule="evenodd"/>
        <path id="Path_723" data-name="Path 723" d="M159.017,94.781H154.8V63.9h4.217Z" transform="translate(-41.435 -13.25)" fill="#354395" fill-rule="evenodd"/>
        <path id="Path_724" data-name="Path 724" d="M183.054,66.86c8.864,0,7.863,9.364,7.863,12.867v14.8h4.289V75.438c0-4.075-.286-6.719-3.36-9.793a12.942,12.942,0,0,0-15.083-.429,10.518,10.518,0,0,0-3.574,3.574V63.715H168.9V94.524h4.217V80.513c0-3.789.071-6.362,1.787-9.15a8.97,8.97,0,0,1,8.149-4.5Z" transform="translate(-45.456 -12.993)" fill="#354395" fill-rule="evenodd"/>
        <path id="Path_725" data-name="Path 725" d="M238.622,45.1V63.9a15.018,15.018,0,0,0-12.51-6.076c-7.363,0-16.012,5.5-16.012,16.012,0,10.437,7.649,16.37,16.227,16.37,8.649,0,12.367-5.862,12.367-5.862v5.147h4.217V45.171h-4.289ZM226.827,86.417h0c-7.148,0-12.009-5.433-12.009-12.152,0-7.363,4.861-12.581,12.009-12.581,6.719,0,12.152,5.862,12.152,12.581a12.234,12.234,0,0,1-12.152,12.152Z" transform="translate(-57.205 -7.889)" fill="#354395" fill-rule="evenodd"/>
        <path id="Path_726" data-name="Path 726" d="M268.346,94.866H264.2V64.2h4.146Z" transform="translate(-72.633 -13.336)" fill="#354395" fill-rule="evenodd"/>
        <path id="Path_727" data-name="Path 727" d="M268.848,49.788a3.324,3.324,0,1,1-3.324-3.324,3.324,3.324,0,0,1,3.324,3.324Z" transform="translate(-72.062 -8.288)" fill="#354395" fill-rule="evenodd"/>
        <path id="Path_728" data-name="Path 728" d="M159.676,49.788a3.235,3.235,0,0,1-3.288,3.288,3.279,3.279,0,0,1-3.288-3.288,3.326,3.326,0,0,1,3.288-3.288,3.279,3.279,0,0,1,3.288,3.288Z" transform="translate(-40.95 -8.288)" fill="#354395" fill-rule="evenodd"/>
        <path id="Path_729" data-name="Path 729" d="M301.219,86.556V73.618c0-2.073-.214-6.934-5.576-9.579-5.361-2.573-15.011-.572-18.514,3.288l2.573,3.217A15.245,15.245,0,0,1,284.85,67.4c2.788-.929,9.436-1.144,11.294,2.931a13.107,13.107,0,0,1,1,5.433s-5.361.071-7.863.214c-2.287.143-13.582.715-13.582,10.937,0,2.144,1.287,8.364,11.08,8.364,7.72,0,10.437-5.647,10.437-5.647s.286,5,.786,5l3.789-.143a45.768,45.768,0,0,1-.572-7.935Zm-13.367,4.932h0c-9.579,0-10.222-10.365-.286-11.652,0,0,6.862-1.072,9.579-.5C297.145,79.336,298.36,91.488,287.852,91.488Z" transform="translate(-75.912 -12.96)" fill="#354395" fill-rule="evenodd"/>
        <path id="Path_730" data-name="Path 730" d="M297.5,43.9c0,.214.214.214.643.286.5.143,1.5.357,1.859.5a11.54,11.54,0,0,0,1.5.643c.572.214.214,0-.357-.286-.643-.357-.786-.357-.929-.786-.214-.286-.214-.5-.858-.5A11.918,11.918,0,0,0,298,43.689c-.143-.071-.5,0-.5.214Z" transform="translate(-82.129 -7.479)" fill="#449d46" fill-rule="evenodd"/>
      </g>
    </g>
  </g>
</svg>
