<svg xmlns="http://www.w3.org/2000/svg" xmlns:xlink="http://www.w3.org/1999/xlink" viewBox="0 0 280 160">
  <defs>
    <style>
      .cls-1 {
        clip-path: url(#clip-twitter);
      }

      .cls-2 {
        fill: #55abe1;
      }

      .cls-3 {
        fill: #fff;
      }
    </style>
    <clipPath id="clip-twitter">
      <rect width="280" height="160"/>
    </clipPath>
  </defs>
  <g id="twitter" class="cls-1">
    <rect class="cls-3" width="280" height="160"/>
    <g id="Apps" transform="translate(-147 -196.333)">
      <g id="image" transform="translate(147 196.333)">
        <path id="Path_394" data-name="Path 394" class="cls-2" d="M0,0H280V160H0Z"/>
      </g>
      <path id="twitter-2" data-name="twitter" class="cls-3" d="M95.169,43.849A38.293,38.293,0,0,1,88.5,46.1a20.79,20.79,0,0,0,5.488-8.74h0a1.09,1.09,0,0,0-1.595-1.27h0A38.476,38.476,0,0,1,82.2,40.3a2.6,2.6,0,0,1-.637.079,2.7,2.7,0,0,1-1.785-.682,20.849,20.849,0,0,0-13.8-5.206,22.291,22.291,0,0,0-6.605,1.02A20.2,20.2,0,0,0,45.765,50.064a22.241,22.241,0,0,0-.494,7.677.747.747,0,0,1-.188.585.773.773,0,0,1-.575.261c-.024,0-.049,0-.074,0A54.669,54.669,0,0,1,6.859,38.509h0a1.09,1.09,0,0,0-1.787.14h0A20.873,20.873,0,0,0,8.464,63.992a18.684,18.684,0,0,1-4.755-1.841h0a1.09,1.09,0,0,0-1.619.94h0A20.875,20.875,0,0,0,14.266,82.323q-.222.005-.445.005a18.76,18.76,0,0,1-3.513-.335h0a1.09,1.09,0,0,0-1.243,1.4h0A20.9,20.9,0,0,0,25.571,97.609a38.472,38.472,0,0,1-21.548,6.544H1.612a1.6,1.6,0,0,0-1.561,1.2,1.652,1.652,0,0,0,.791,1.825A57.224,57.224,0,0,0,29.6,114.933a58.009,58.009,0,0,0,24.573-5.213A54.263,54.263,0,0,0,72.148,96.247,59.067,59.067,0,0,0,83.157,77.809,58.246,58.246,0,0,0,86.9,57.629v-.317a3.548,3.548,0,0,1,1.328-2.761,41.209,41.209,0,0,0,8.29-9.1h0a1.09,1.09,0,0,0-1.348-1.6Z" transform="translate(239 201.842)"/>
    </g>
  </g>
</svg>
