<svg xmlns="http://www.w3.org/2000/svg" xmlns:xlink="http://www.w3.org/1999/xlink" viewBox="0 0 280 160">
  <defs>
    <style>
      .cls-1 {
        clip-path: url(#clip-webapp);
      }

      .cls-2 {
        fill: #e9e7e7;
      }

      .cls-3 {
        fill: #f2f2f2;
      }

      .cls-4 {
        fill: #e64c18;
      }

      .cls-5 {
        fill: #f36518;
      }

      .cls-6 {
        fill: #fff;
      }
    </style>
    <clipPath id="clip-webapp">
      <rect width="280" height="160"/>
    </clipPath>
  </defs>
  <g id="webapp" class="cls-1">
    <rect class="cls-6" width="280" height="160"/>
    <g id="image">
      <path id="Path_394" data-name="Path 394" class="cls-2" d="M0,0H280V160H0Z"/>
    </g>
    <g id="html-5" transform="translate(78.061 18.061)">
      <path id="Path_603" data-name="Path 603" class="cls-3" d="M123.878,61.939A61.939,61.939,0,1,1,61.939,0,61.837,61.837,0,0,1,123.878,61.939Z"/>
      <path id="Path_604" data-name="Path 604" class="cls-4" d="M160.841,119.474l-7.071,82a61.947,61.947,0,0,1-75.576.217l-7.089-82.22Z" transform="translate(-53.901 -90.567)"/>
      <path id="Path_605" data-name="Path 605" class="cls-5" d="M256.546,151.249v85.389l29.5-8.327,6.58-77.061Z" transform="translate(-194.475 -114.654)"/>
      <path id="Path_606" data-name="Path 606" class="cls-6" d="M140.9,195.528l2.893,34.251h38.447l-1.258,14.148-12.1,3.277-12.6-3.531-.316-8.821h-11.74l1.47,17.391,23.189,6.554,23.189-6.554,2.874-34.029H154.458l-1-11.091h0L195.9,206.9l.96-11.373Z" transform="translate(-106.812 -148.22)"/>
      <path id="Path_607" data-name="Path 607" d="M117.156,16.8V22.68h-5.622V16.8H106.3V33.664h5.23V28.172h5.622v5.492h5.23V16.8Z" transform="translate(-80.583 -12.732)"/>
      <path id="Path_608" data-name="Path 608" d="M199.129,16.8H183.045V22.68h5.23V33.8H193.9V22.68h5.23Z" transform="translate(-138.757 -12.732)"/>
      <path id="Path_609" data-name="Path 609" d="M355.667,28.844V17.337h-5.623V34.205h13.73V28.844Z" transform="translate(-265.351 -13.142)"/>
      <path id="Path_610" data-name="Path 610" d="M272.717,17.337l-3.923,6.015-3.923-6.015h-5.623V34.205h5.623V25.836l3.923,6.015,3.923-6.015v8.369h5.623V17.337Z" transform="translate(-196.524 -13.142)"/>
    </g>
  </g>
</svg>
