<?xml version="1.0" encoding="UTF-8"?>
<svg width="280px" height="160px" viewBox="0 0 280 160" version="1.1" xmlns="http://www.w3.org/2000/svg" xmlns:xlink="http://www.w3.org/1999/xlink">
    <!-- Generator: Sketch 54.1 (76490) - https://sketchapp.com -->
    <title>Artboard Copy</title>
    <desc>Created with Sketch.</desc>
    <g id="Artboard-Copy" stroke="none" stroke-width="1" fill="none" fill-rule="evenodd">
        <rect fill="#000000" x="0" y="0" width="280" height="160"></rect>
        <path d="M187.148858,126.809132 C187.255389,127.353663 187.024058,127.908842 186.562391,128.216618 C186.100723,128.524393 185.499277,128.524393 185.037609,128.216618 C184.575942,127.908842 184.344611,127.353663 184.451142,126.809132 C184.344611,126.264602 184.575942,125.709422 185.037609,125.401647 C185.499277,125.093872 186.100723,125.093872 186.562391,125.401647 C187.024058,125.709422 187.255389,126.264602 187.148858,126.809132 L187.148858,126.809132 Z" id="Path" fill="#FFFFFF" fill-rule="nonzero"></path>
        <path d="M156.56621,57.0237443 L144.611872,57.0237443 L144.611872,56.1223744 L145.251142,56.1223744 C146.043836,56.1223744 146.52968,55.7324201 146.52968,54.7415525 L146.52968,35.2821918 C146.52968,34.2913242 146.063014,33.9013699 145.251142,33.9013699 L144.611872,33.9013699 L144.611872,33 L156.56621,33 L156.56621,41.2593607 L155.773516,41.2593607 L155.773516,41.169863 C155.773516,36.2730594 154.322374,34.0420091 151.675799,34.0420091 L149.713242,34.0420091 L149.713242,44.0210046 L150.211872,44.0210046 C151.707763,44.0210046 152.410959,42.5506849 152.410959,39.456621 L152.410959,39.3671233 L153.203653,39.3671233 L153.203653,49.7552511 L152.404566,49.7552511 L152.404566,49.6977169 C152.404566,46.6675799 151.733333,45.1013699 150.205479,45.1013699 L149.706849,45.1013699 L149.706849,55.9689498 L151.528767,55.9689498 C154.149772,55.9689498 155.747945,53.3543379 155.747945,48.8794521 L155.747945,48.7899543 L156.540639,48.7899543 L156.56621,57.0237443 Z" id="Path" fill="#FFFFFF" fill-rule="nonzero"></path>
        <path d="M143.825571,57.0237443 L136.825571,57.0237443 L136.825571,56.1223744 L137.413699,56.1223744 C138.206393,56.1223744 138.692237,55.7324201 138.692237,54.7415525 L138.692237,45.3123288 L133.578082,45.3123288 L133.578082,54.7415525 C133.578082,55.7388128 134.076712,56.1223744 134.856621,56.1223744 L135.49589,56.1223744 L135.49589,57.0237443 L128.463927,57.0237443 L128.463927,56.1223744 L129.103196,56.1223744 C129.89589,56.1223744 130.381735,55.7324201 130.381735,54.7415525 L130.381735,35.2821918 C130.381735,34.2913242 129.883105,33.9013699 129.103196,33.9013699 L128.463927,33.9013699 L128.463927,33 L135.49589,33 L135.49589,33.9013699 L134.856621,33.9013699 C134.063927,33.9013699 133.578082,34.2913242 133.578082,35.2821918 L133.578082,44.0210046 L138.692237,44.0210046 L138.692237,35.2821918 C138.692237,34.2913242 138.193607,33.9013699 137.413699,33.9013699 L136.825571,33.9013699 L136.825571,33 L143.857534,33 L143.857534,33.9013699 L143.218265,33.9013699 C142.425571,33.9013699 141.939726,34.2913242 141.939726,35.2821918 L141.939726,54.7415525 C141.939726,55.7388128 142.438356,56.1223744 143.218265,56.1223744 L143.857534,56.1223744 L143.825571,57.0237443 Z" id="Path" fill="#FFFFFF" fill-rule="nonzero"></path>
        <path d="M128.061187,41.316895 L127.274886,41.316895 L127.274886,41.2273973 C127.274886,37.3534247 125.842922,34.0420091 124.168037,34.0420091 L123.46484,34.0420091 L123.46484,54.7415525 C123.46484,55.7388128 123.96347,56.1223744 124.743379,56.1223744 L125.478539,56.1223744 L125.478539,57.0237443 L118.286758,57.0237443 L118.286758,56.1223744 L118.926027,56.1223744 C119.718721,56.1223744 120.204566,55.7324201 120.204566,54.7415525 L120.204566,34.0420091 L119.565297,34.0420091 C117.947945,34.0420091 116.522374,37.1424658 116.522374,41.2273973 L116.522374,41.316895 L115.72968,41.316895 L115.72968,33 L128.061187,33 L128.061187,41.316895 Z" id="Path" fill="#FFFFFF" fill-rule="nonzero"></path>
        <path d="M125.19726,91.8995434 L113.389954,91.8995434 L113.389954,90.9981735 L114.227397,90.9981735 C115.020091,90.9981735 115.505936,90.6401826 115.505936,89.6429224 L115.505936,70.1260274 C115.505936,69.1351598 115.007306,68.7771689 114.227397,68.7771689 L113.588128,68.7771689 L113.588128,67.8757991 L120.562557,67.8757991 L120.562557,68.7771689 L119.980822,68.7771689 C119.188128,68.7771689 118.702283,69.1351598 118.702283,70.1260274 L118.702283,90.8511416 L120.428311,90.8511416 C123.586301,90.8511416 124.410959,87.1561644 124.410959,83.7296804 L124.410959,83.6210046 L125.203653,83.6210046 L125.19726,91.8995434 Z" id="Path" fill="#FFFFFF" fill-rule="nonzero"></path>
        <path d="M112.948858,91.8995434 L101.173516,91.8995434 L101.640183,90.9981735 L101.991781,90.9981735 C102.784475,90.9981735 103.27032,90.6401826 103.27032,89.6429224 L103.27032,70.1260274 C103.27032,69.1351598 102.771689,68.7771689 101.991781,68.7771689 L101.352511,68.7771689 L101.352511,67.8757991 L108.326941,67.8757991 L108.326941,68.7771689 L107.770776,68.7771689 C106.978082,68.7771689 106.492237,69.1351598 106.492237,70.1260274 L106.492237,90.8511416 L108.218265,90.8511416 C111.376256,90.8511416 112.200913,87.1881279 112.200913,83.7041096 L112.200913,83.6210046 L112.948858,83.6210046 L112.948858,91.8995434 Z" id="Path" fill="#FFFFFF" fill-rule="nonzero"></path>
        <path d="M91.8018265,68.7771689 L91.5652968,68.7771689 C90.4401826,68.7771689 89.8584475,68.9881279 89.4557078,70.969863 L85.1789954,92.0657534 L83.8621005,92.0657534 L81.196347,78.2575342 L78.4283105,92.0785388 L77.1497717,92.0785388 L72.9305936,70.4328767 C72.6621005,69.0520548 72.2913242,68.7771689 71.0894977,68.7771689 L71,68.7771689 L71,67.8757991 L77.3543379,67.8757991 L77.3543379,68.7771689 L77.2392694,68.7771689 C76.3251142,68.7771689 76.0949772,69.109589 76.0949772,69.7360731 C76.0803836,69.914771 76.0803836,70.0943614 76.0949772,70.2730594 L78.7926941,84.8995434 L78.8502283,84.8995434 L80.5762557,75.3105023 L79.6748858,70.4328767 C79.4447489,69.2310502 79.1826484,68.7771689 78.2429224,68.7771689 L78.0958904,68.7771689 L78.0958904,67.8757991 L84.3671233,67.8757991 L84.3671233,68.7771689 L84.2520548,68.7771689 C83.0821918,68.7771689 82.8456621,69.1799087 82.8456621,70.0045662 C82.8424855,70.2572191 82.8617391,70.5096555 82.9031963,70.7589041 L85.5881279,84.7525114 L85.6456621,84.7525114 L88.1643836,70.7333333 C88.1998374,70.5456836 88.2190864,70.3553322 88.2219178,70.1643836 C88.2219178,69.2054795 87.9086758,68.7835616 86.6684932,68.7835616 L86.4958904,68.7835616 L86.4958904,67.8757991 L91.7954338,67.8757991 L91.8018265,68.7771689 Z" id="Path" fill="#FFFFFF" fill-rule="nonzero"></path>
        <path d="M101.72968,91.8995434 L95.0493151,91.8995434 L95.0493151,90.9981735 L95.2219178,90.9981735 C96.4365297,90.9981735 96.8009132,90.6657534 96.8009132,89.9753425 C96.7898821,89.7325925 96.759959,89.4910705 96.7114155,89.252968 L96.1552511,86.056621 L92.1726027,86.056621 L91.6164384,89.252968 C91.5662229,89.4907939 91.5362828,89.7324526 91.5269406,89.9753425 C91.5269406,90.716895 91.8146119,90.9981735 93.0228311,90.9981735 L93.1378995,90.9981735 L93.1378995,91.8995434 L88.1643836,91.8995434 L88.1643836,90.9981735 L88.426484,90.9981735 C89.4557078,90.9981735 90.0374429,90.7552511 90.2995434,89.3488584 L94.3716895,67.6136986 L95.8675799,67.6136986 L100.054795,89.2273973 C100.30411,90.5059361 100.962557,90.9726027 101.518721,90.9726027 L101.723288,90.9726027 L101.72968,91.8995434 Z M95.9762557,84.9634703 L94.2182648,74.3324201 L94.1607306,74.3324201 L92.3835616,84.9634703 L95.9762557,84.9634703 Z M208.072146,76.1926941 L207.279452,76.1926941 L207.279452,76.1031963 C207.279452,72.2292237 205.853881,68.9178082 204.172603,68.9178082 L203.469406,68.9178082 L203.469406,89.6173516 C203.469406,90.6146119 203.968037,90.9981735 204.747945,90.9981735 L205.476712,90.9981735 L205.476712,91.8995434 L198.284932,91.8995434 L198.284932,90.9981735 L198.956164,90.9981735 C199.748858,90.9981735 200.234703,90.6082192 200.234703,89.6173516 L200.234703,68.9178082 L199.595434,68.9178082 C197.920548,68.9178082 196.488584,72.0054795 196.488584,76.090411 L196.488584,76.1799087 L195.69589,76.1799087 L195.69589,67.8757991 L208.072146,67.8757991 L208.072146,76.1926941 Z M194.711416,91.8995434 L182.757078,91.8995434 L182.757078,90.9981735 L183.396347,90.9981735 C184.189041,90.9981735 184.674886,90.6082192 184.674886,89.6173516 L184.674886,70.1579909 C184.674886,69.1671233 184.208219,68.7771689 183.396347,68.7771689 L182.757078,68.7771689 L182.757078,67.8757991 L194.711416,67.8757991 L194.711416,76.1351598 L193.918721,76.1351598 L193.918721,76.0456621 C193.925114,71.1488584 192.473973,68.9178082 189.821005,68.9178082 L187.858447,68.9178082 L187.858447,78.8968037 L188.382648,78.8968037 C189.872146,78.8968037 190.581735,77.426484 190.581735,74.3324201 L190.581735,74.2429224 L191.374429,74.2429224 L191.374429,84.6310502 L190.556164,84.6310502 L190.556164,84.573516 C190.556164,81.543379 189.878539,79.9771689 188.357078,79.9771689 L187.858447,79.9771689 L187.858447,90.8447489 L189.705936,90.8447489 C192.326941,90.8447489 193.925114,88.230137 193.925114,83.7552511 L193.925114,83.6657534 L194.717808,83.6657534 L194.711416,91.8995434 Z M181.938813,91.8995434 L169.984475,91.8995434 L169.984475,90.9981735 L170.623744,90.9981735 C171.416438,90.9981735 171.902283,90.6082192 171.902283,89.6173516 L171.902283,70.1579909 C171.902283,69.1671233 171.435616,68.7771689 170.623744,68.7771689 L169.984475,68.7771689 L169.984475,67.8757991 L181.964384,67.8757991 L181.964384,76.1351598 L181.171689,76.1351598 L181.171689,76.0456621 C181.171689,71.1552511 179.720548,68.9305936 177.06758,68.9305936 L175.085845,68.9305936 L175.085845,78.8968037 L175.59726,78.8968037 C177.086758,78.8968037 177.796347,77.426484 177.796347,74.3324201 L177.796347,74.2429224 L178.589041,74.2429224 L178.589041,84.6310502 L177.796347,84.6310502 L177.796347,84.573516 C177.796347,81.543379 177.118721,79.9771689 175.59726,79.9771689 L175.09863,79.9771689 L175.09863,90.8447489 L176.946119,90.8447489 C179.567123,90.8447489 181.165297,88.230137 181.165297,83.7552511 L181.165297,83.6657534 L181.957991,83.6657534 L181.938813,91.8995434 Z M154.961644,76.1926941 L154.16895,76.1926941 L154.16895,76.1031963 C154.16895,72.2292237 152.736986,68.9305936 151.0621,68.9305936 L150.358904,68.9305936 L150.358904,89.6173516 C150.358904,90.6146119 150.857534,90.9981735 151.637443,90.9981735 L152.372603,90.9981735 L152.372603,91.8995434 L145.174429,91.8995434 L145.174429,90.9981735 L145.852055,90.9981735 C146.644749,90.9981735 147.130594,90.6082192 147.130594,89.6173516 L147.130594,68.9178082 L146.491324,68.9178082 C144.816438,68.9178082 143.384475,72.0054795 143.384475,76.090411 L143.384475,76.1799087 L142.591781,76.1799087 L142.591781,67.8757991 L154.923288,67.8757991 L154.961644,76.1926941 Z M142.598174,86.0694064 C142.598174,90.3205479 140.085845,92.0721461 137.151598,92.0721461 C135.648318,92.1166346 134.180286,91.6121406 133.021918,90.652968 L132.465753,91.9315068 L131.826484,91.9315068 L131.826484,83.6210046 L132.619178,83.6210046 L132.619178,83.8639269 C132.619178,89.6557078 135.463927,90.9789954 136.89589,90.9789954 C139.069406,90.9789954 140.034703,89.7004566 140.034703,87.143379 C140.034703,84.3817352 138.340639,82.3680365 135.905023,80.4757991 C133.693151,78.7625571 131.660274,76.6401826 131.660274,73.1497717 C131.660274,69.5315068 133.83379,67.6520548 136.435616,67.6520548 C137.825151,67.5898143 139.179348,68.1005267 140.181735,69.0648402 L140.769863,67.8949772 L141.357991,67.8949772 L141.357991,76.2054795 L140.565297,76.2054795 L140.565297,75.9689498 C140.565297,71.4940639 139.248402,68.7643836 136.640183,68.7643836 C134.990868,68.7643836 134.121461,69.9598174 134.121461,71.8584475 C134.121461,74.1150685 135.4,75.4 137.842009,77.3242009 C140.526941,79.452968 142.591781,81.6968037 142.591781,86.056621 L142.598174,86.0694064 Z M169.786301,88.6200913 C169.786301,90.63379 169.044749,92.0721461 167.120548,92.0721461 C165.196347,92.0721461 164.384475,90.6146119 164.250228,87.6292237 L164.045662,83.1543379 C163.936986,80.7890411 163.054795,80.1561644 161.731507,80.1561644 L160.894064,80.1561644 L160.894064,89.6173516 C160.894064,90.6082192 161.277626,90.9981735 162.063927,90.9981735 L162.882192,90.9981735 L162.882192,91.8995434 L155.722374,91.8995434 L155.722374,90.9981735 L156.419178,90.9981735 C157.211872,90.9981735 157.697717,90.6082192 157.697717,89.6173516 L157.697717,70.1579909 C157.697717,69.1671233 157.199087,68.7771689 156.419178,68.7771689 L155.747945,68.7771689 L155.747945,67.8757991 L162.140639,67.8757991 C166.014612,67.8757991 168.437443,69.9086758 168.437443,73.6995434 C168.437443,77.6630137 165.746119,79.1652968 163.368037,79.6447489 L163.368037,79.7022831 C165.455201,79.883898 167.090549,81.5737576 167.203653,83.6657534 L167.465753,88.9205479 C167.516895,89.9625571 167.644749,90.2757991 168.105023,90.2757991 C168.693151,90.2757991 168.808219,89.8219178 168.808219,88.2621005 L168.808219,87.3926941 L169.779909,87.3926941 L169.786301,88.6200913 Z M165.068493,73.7634703 C165.068493,70.0109589 163.623744,68.9305936 161.642009,68.9305936 L160.894064,68.9305936 L160.894064,79.0502283 L161.776256,79.0502283 C163.841096,79.0502283 165.087671,77.6118721 165.087671,73.7634703 L165.068493,73.7634703 Z M183.07032,128.285845 L171.269406,128.285845 L171.736073,127.384475 L172.087671,127.384475 C172.880365,127.384475 173.36621,127.026484 173.36621,126.029224 L173.36621,106.518721 C173.36621,105.527854 172.86758,105.16347 172.087671,105.16347 L171.448402,105.16347 L171.448402,104.2621 L178.422831,104.2621 L178.422831,105.16347 L177.866667,105.16347 C177.073973,105.16347 176.588128,105.527854 176.588128,106.518721 L176.588128,127.237443 L178.314155,127.237443 C181.472146,127.237443 182.296804,123.574429 182.296804,120.115982 L182.296804,120.007306 L183.089498,120.007306 L183.07032,128.285845 Z M159.4621,105.16347 L158.822831,105.16347 C158.094064,105.16347 157.505936,105.73242 157.505936,106.902283 L157.505936,128.375342 L156.361644,128.375342 L149.061187,109.459361 L149.003653,109.459361 L149.003653,125.639269 C149.003653,126.815525 149.585388,127.384475 150.320548,127.384475 L150.908676,127.384475 L150.908676,128.285845 L145.954338,128.285845 L145.954338,127.384475 L146.631963,127.384475 C147.367123,127.384475 147.948858,126.815525 147.948858,125.639269 L147.948858,106.665753 C147.948858,105.821918 147.629224,105.16347 146.804566,105.16347 L145.954338,105.16347 L145.954338,104.2621 L150.46758,104.2621 L156.412785,119.726027 L156.47032,119.726027 L156.47032,106.908676 C156.47032,105.726027 155.882192,105.169863 155.153425,105.169863 L154.514155,105.169863 L154.514155,104.2621 L159.43653,104.2621 L159.4621,105.16347 Z M132.542466,105.16347 L131.315068,105.16347 C130.579909,105.16347 130.145205,105.80274 130.145205,106.902283 L130.145205,122.884018 C130.145205,126.080365 129.109589,128.432877 125.747032,128.432877 C122.179909,128.432877 120.089498,126.189041 120.089498,122.884018 L120.089498,106.544292 C120.089498,105.553425 119.622831,105.16347 118.810959,105.16347 L118.171689,105.16347 L118.171689,104.2621 L125.024658,104.2621 L125.024658,105.16347 L124.583562,105.16347 C123.790868,105.16347 123.305023,105.553425 123.305023,106.544292 L123.305023,123.120548 C123.305023,125.83105 124.347032,127.384475 126.117808,127.384475 C127.888584,127.384475 129.020091,126.06758 129.020091,123.120548 L129.020091,106.908676 C129.020091,105.796347 128.610959,105.169863 127.875799,105.169863 L127.204566,105.169863 L127.204566,104.2621 L132.510502,104.2621 L132.542466,105.16347 Z M106.057534,105.16347 L105.469406,105.16347 C104.676712,105.16347 104.190868,105.553425 104.190868,106.544292 L104.190868,123.299543 C104.190868,127.058447 101.889498,128.46484 98.9488584,128.46484 C96.8456621,128.46484 94.7296804,126.700457 94.7296804,123.299543 C94.7296804,121.471233 95.8356164,120.691324 96.7178082,120.691324 C97.6,120.691324 98.3031963,121.330594 98.3031963,122.494064 C98.3581473,123.046515 98.1840397,123.597319 97.8215426,124.017815 C97.4590454,124.438312 96.9399061,124.691675 96.3853881,124.718721 C96.3529729,126.148339 97.4750735,127.338791 98.9041096,127.390868 C100.431963,127.390868 100.956164,126.527854 100.956164,123.938813 L100.956164,106.544292 C100.956164,105.553425 100.489498,105.16347 99.6776256,105.16347 L99.0383562,105.16347 L99.0383562,104.2621 L106.012785,104.2621 L106.057534,105.16347 Z" id="Shape" fill="#FFFFFF" fill-rule="nonzero"></path>
        <path d="M171.825571,128.285845 L165.177169,128.285845 L165.177169,127.384475 L165.356164,127.384475 C166.570776,127.384475 166.93516,127.052055 166.93516,126.361644 C166.924797,126.118838 166.894868,125.877263 166.845662,125.639269 L166.289498,122.442922 L162.300457,122.442922 L161.744292,125.639269 C161.694077,125.877095 161.664137,126.118754 161.654795,126.361644 C161.654795,127.103196 161.936073,127.384475 163.150685,127.384475 L163.265753,127.384475 L163.265753,128.285845 L158.253881,128.285845 L158.253881,127.384475 L158.528767,127.384475 C159.551598,127.384475 160.139726,127.141553 160.408219,125.73516 L164.480365,104 L165.976256,104 L170.169863,125.613699 C170.419178,126.892237 171.077626,127.358904 171.63379,127.358904 L171.838356,127.358904 L171.825571,128.285845 Z M166.072146,121.349772 L164.282192,110.718721 L164.224658,110.718721 L162.479452,121.349772 L166.072146,121.349772 Z M145.896804,125.006393 C145.896804,127.020091 145.148858,128.458447 143.23105,128.458447 C141.313242,128.458447 140.494977,127.000913 140.360731,124.015525 L140.156164,119.540639 C140.047489,117.162557 139.165297,116.542466 137.842009,116.542466 L136.991781,116.542466 L136.991781,126.003653 C136.991781,126.994521 137.36895,127.384475 138.168037,127.384475 L138.986301,127.384475 L138.986301,128.285845 L131.839269,128.285845 L131.839269,127.384475 L132.516895,127.384475 C133.309589,127.384475 133.795434,126.994521 133.795434,126.003653 L133.795434,106.544292 C133.795434,105.553425 133.296804,105.16347 132.516895,105.16347 L131.839269,105.16347 L131.839269,104.2621 L138.231963,104.2621 C142.105936,104.2621 144.528767,106.294977 144.528767,110.085845 C144.528767,114.049315 141.837443,115.551598 139.459361,116.03105 L139.459361,116.088584 C141.549071,116.264842 143.187311,117.95769 143.294977,120.052055 L143.557078,125.306849 C143.608219,126.355251 143.736073,126.6621 144.196347,126.6621 C144.784475,126.6621 144.899543,126.208219 144.899543,124.648402 L144.899543,123.778995 L145.871233,123.778995 L145.896804,125.006393 Z M141.178995,110.149772 C141.178995,106.39726 139.734247,105.316895 137.752511,105.316895 L136.991781,105.316895 L136.991781,115.43653 L137.873973,115.43653 C139.938813,115.43653 141.185388,113.998174 141.185388,110.149772 L141.178995,110.149772 Z M118.254795,116.216438 C118.254795,123.037443 116.074886,128.46484 112.073059,128.46484 C108.071233,128.46484 105.980822,123.037443 105.980822,116.216438 C105.980822,109.395434 108.077626,104.07032 112.073059,104.07032 C116.068493,104.07032 118.254795,109.369863 118.254795,116.216438 L118.254795,116.216438 Z M114.610959,121.925114 L114.610959,110.571689 C114.610959,106.422831 113.709589,105.169863 112.053881,105.169863 C110.398174,105.169863 109.560731,106.365297 109.560731,110.635616 L109.560731,121.886758 C109.560731,125.888584 110.315068,127.384475 112.053881,127.384475 C113.792694,127.384475 114.610959,125.799087 114.610959,121.918721 L114.610959,121.925114 Z" id="Shape" fill="#FFFFFF" fill-rule="nonzero"></path>
    </g>
</svg>