<svg xmlns="http://www.w3.org/2000/svg" xmlns:xlink="http://www.w3.org/1999/xlink" viewBox="0 0 280 160">
  <defs>
    <style>
      .cls-1 {
        clip-path: url(#clip-youtube);
      }

      .cls-2 {
        fill: #f14336;
      }

      .cls-3 {
        fill: #fff;
      }
    </style>
    <clipPath id="clip-youtube">
      <rect width="280" height="160"/>
    </clipPath>
  </defs>
  <g id="youtube" class="cls-1">
    <rect class="cls-3" width="280" height="160"/>
    <g id="Apps" transform="translate(-147 -196.333)">
      <g id="image" transform="translate(147 196.333)">
        <path id="Path_394" data-name="Path 394" class="cls-2" d="M0,0H280V160H0Z"/>
      </g>
      <g id="youtube-2" data-name="youtube" transform="translate(213.788 222.097)">
        <path id="Path_446" data-name="Path 446" class="cls-2" d="M0,0H147.212V109.083H0Z"/>
        <g id="Group_434" data-name="Group 434" transform="translate(4.958 28.096)">
          <path id="Path_442" data-name="Path 442" class="cls-3" d="M198.073,361.037a4.17,4.17,0,0,0-.331-1.468,1.58,1.58,0,0,0-1.422-.972,2.475,2.475,0,0,0-1.941.728,1.289,1.289,0,0,0-.325.484l.012,15.658v.386s.133.18.154.2a3.108,3.108,0,0,0,1.657,1.018,1.6,1.6,0,0,0,2.118-1.268,3.8,3.8,0,0,0,.087-.789C198.087,370.356,198.1,365.7,198.073,361.037Zm0,0a4.17,4.17,0,0,0-.331-1.468,1.58,1.58,0,0,0-1.422-.972,2.475,2.475,0,0,0-1.941.728,1.289,1.289,0,0,0-.325.484l.012,15.658v.386s.133.18.154.2a3.108,3.108,0,0,0,1.657,1.018,1.6,1.6,0,0,0,2.118-1.268,3.8,3.8,0,0,0,.087-.789C198.087,370.356,198.1,365.7,198.073,361.037Zm17.533-23.614q-27.8-.6-55.6,0a11.827,11.827,0,0,0-11.57,11.826v28.944A11.827,11.827,0,0,0,160,390.021q27.8.6,55.6,0a11.828,11.828,0,0,0,11.573-11.829V349.249A11.828,11.828,0,0,0,215.605,337.423ZM165.445,380.83H160.1V350.619h-5.533v-5.054h16.421v5.043h-5.544Zm19.125-12.54v12.542h-4.732v-2.867c-.171.183-.267.281-.357.383a8.68,8.68,0,0,1-3.647,2.614,4.426,4.426,0,0,1-2.217.2,2.726,2.726,0,0,1-2.144-1.706,6.622,6.622,0,0,1-.49-2.73c-.012-3.453-.006-21.725-.006-21.9h4.72c.009.16.026,13.276.029,19.674a5.228,5.228,0,0,0,.073,1.044,1.154,1.154,0,0,0,1.66.926,5.159,5.159,0,0,0,2.286-1.79.828.828,0,0,0,.09-.479V354.8l4.735-.012Zm18,10.036a3.88,3.88,0,0,1-4.027,2.852,5.346,5.346,0,0,1-4.036-1.842l-.458-.487v1.979h-4.741V345.561h4.741v11.608a4.765,4.765,0,0,1,.511-.809,5.443,5.443,0,0,1,2.73-1.735,4.11,4.11,0,0,1,4.915,2.234,9.161,9.161,0,0,1,.754,3.96q.013,7.394,0,14.788A8.649,8.649,0,0,1,202.573,378.326Zm17.509-.992a5.8,5.8,0,0,1-5.008,4.105,7.923,7.923,0,0,1-4.52-.461,6.276,6.276,0,0,1-3.586-4.567,13.773,13.773,0,0,1-.345-2.945c-.038-3.862-.02-7.726-.012-11.588a7.8,7.8,0,0,1,1.868-5.428,6.9,6.9,0,0,1,5.9-2.278,8.265,8.265,0,0,1,2.06.374,5.74,5.74,0,0,1,3.911,4.645,13.993,13.993,0,0,1,.261,2.629c.038,2.06-.014,6.6-.014,6.6h-9.078v6.508a2.114,2.114,0,1,0,4.227,0v-3.345h4.877A23.637,23.637,0,0,1,220.082,377.334Zm-4.332-16.6a2.114,2.114,0,1,0-4.227,0v3.653h4.227Zm-18.008-1.163a1.58,1.58,0,0,0-1.422-.972,2.475,2.475,0,0,0-1.941.728,1.289,1.289,0,0,0-.325.485l.012,15.658v.386s.133.18.154.2a3.107,3.107,0,0,0,1.657,1.018,1.6,1.6,0,0,0,2.118-1.268,3.8,3.8,0,0,0,.087-.789c.006-4.662.015-9.322-.009-13.981A4.167,4.167,0,0,0,197.742,359.569Z" transform="translate(-89.883 -337.125)"/>
          <g id="Group_435" data-name="Group 435" transform="translate(0 8.265)">
            <path id="Path_443" data-name="Path 443" class="cls-3" d="M427.178,152.991l0,26.183h-4.852l.006-2.813c-.536.528-.994,1.022-1.5,1.465a6.553,6.553,0,0,1-3.084,1.6c-1.814.355-3.359-.219-3.938-2.1a6.912,6.912,0,0,1-.314-1.954V152.991h4.815v19.967a4.517,4.517,0,0,0,.068.792,1.094,1.094,0,0,0,1.547.935,5.175,5.175,0,0,0,2.328-1.791.863.863,0,0,0,.073-.488V152.991Z" transform="translate(-378.269 -143.73)"/>
            <path id="Path_444" data-name="Path 444" class="cls-3" d="M226.717,115.391c-1.053-4.439-3.26-13.811-3.26-13.811h-5.521s4.242,14.068,6.139,20.341a2.5,2.5,0,0,1,.1.711l0,14.386h5.091l0-14.386a2.5,2.5,0,0,1,.1-.711c1.9-6.274,6.139-20.341,6.139-20.341h-5.521s-2.207,9.372-3.26,13.811Z" transform="translate(-217.937 -101.58)"/>
            <path id="Path_445" data-name="Path 445" class="cls-3" d="M320.7,149.352h0a6.947,6.947,0,0,0-6.947,6.947v13.6a6.947,6.947,0,0,0,6.947,6.947h0a6.947,6.947,0,0,0,6.947-6.947V156.3A6.947,6.947,0,0,0,320.7,149.352Zm2,20.817a2,2,0,0,1-4.009,0V156.025a2,2,0,0,1,4.009,0Z" transform="translate(-296.497 -140.747)"/>
          </g>
        </g>
      </g>
    </g>
  </g>
</svg>
