<?xml version="1.0" encoding="UTF-8"?>
<svg width="553px" height="80px" viewBox="0 0 553 80" version="1.1" xmlns="http://www.w3.org/2000/svg" xmlns:xlink="http://www.w3.org/1999/xlink">
    <!-- Generator: Sketch 52.2 (67145) - http://www.bohemiancoding.com/sketch -->
    <title>Group 59</title>
    <desc>Created with Sketch.</desc>
    <defs>
        <path d="M0.431,5.569 C0.431,2.498 2.929,0 6,0 C9.071,0 11.568,2.498 11.568,5.57 C11.568,8.64 9.071,11.138 6,11.138 C2.929,11.138 0.431,8.64 0.431,5.569 Z M2.432,5.57 C2.432,7.537 4.032,9.138 6,9.138 C7.967,9.138 9.569,7.536 9.569,5.569 C9.569,3.602 7.967,2 6,2 C4.032,2 2.432,3.603 2.432,5.57 Z" id="path-1"></path>
        <path d="M34.955,0.001 C34.964,0.001 34.973,0.001 34.982,0.001 C35.235,0.001 35.486,0.09 35.674,0.263 L47.675,11.264 C48.083,11.636 48.11,12.269 47.737,12.676 C47.364,13.083 46.731,13.11 46.324,12.738 L35.063,2.415 L25.882,12.47 L30.689,17.276 C31.08,17.667 31.08,18.299 30.689,18.689 C30.298,19.081 29.666,19.081 29.275,18.689 L18.973,8.389 L2.66,22.751 C2.47,22.918 2.234,23 2,23 C1.723,23 1.447,22.886 1.249,22.661 C0.884,22.246 0.924,21.614 1.339,21.249 L18.356,6.266 C18.752,5.918 19.35,5.937 19.724,6.31 L24.467,11.053 L34.262,0.326 C34.44,0.13 34.69,0.014 34.955,0.001 Z" id="path-3"></path>
    </defs>
    <g id="Page-1" stroke="none" stroke-width="1" fill="none" fill-rule="evenodd" opacity="0.548293341">
        <g id="Artboard" transform="translate(-123.000000, -267.000000)">
            <g id="Group-59" transform="translate(124.000000, 268.000000)">
                <path d="M7,0 L544,0 C547.866,0 551,3.134 551,7 L551,71 C551,74.866 547.866,78 544,78 L7,78 C3.134,78 0,74.866 0,71 L0,7 C0,3.134 3.134,0 7,0 Z" id="Stroke-1" stroke="#000000" stroke-dasharray="8,8"></path>
                <path d="M206.064,39.0723 L210.108,39.0723 L208.092,34.3563 L206.064,39.0723 Z M211.368,42.0003 L210.396,39.7193 L205.788,39.7193 L204.804,42.0003 L204.036,42.0003 L207.756,33.4563 L208.428,33.4563 L212.136,42.0003 L211.368,42.0003 Z" id="Fill-3" fill="#000000"></path>
                <g id="Group-58" transform="translate(38.000000, 18.000000)">
                    <path d="M179.2959,22.7881 C179.6399,22.3561 179.8119,21.7481 179.8119,20.9641 C179.8119,20.1801 179.6399,19.5701 179.2959,19.1341 C178.9519,18.6981 178.4679,18.4801 177.8439,18.4801 C177.2039,18.4801 176.7079,18.6961 176.3559,19.1281 C176.0039,19.5591 175.8279,20.1641 175.8279,20.9401 C175.8279,21.7251 176.0039,22.3361 176.3559,22.7761 C176.7079,23.2161 177.1999,23.4351 177.8319,23.4351 C178.4639,23.4351 178.9519,23.2201 179.2959,22.7881 Z M180.5439,15.1681 L180.5439,24.0001 L179.8119,24.0001 L179.8119,22.8481 C179.6359,23.2481 179.3699,23.5541 179.0139,23.7661 C178.6579,23.9781 178.2319,24.0841 177.7359,24.0841 C177.2079,24.0841 176.7419,23.9541 176.3379,23.6941 C175.9339,23.4341 175.6199,23.0661 175.3959,22.5901 C175.1719,22.1141 175.0599,21.5641 175.0599,20.9401 C175.0599,20.3161 175.1699,19.7691 175.3899,19.3021 C175.6099,18.8341 175.9219,18.4741 176.3259,18.2221 C176.7299,17.9701 177.1999,17.8441 177.7359,17.8441 C178.2239,17.8441 178.6459,17.9481 179.0019,18.1561 C179.3579,18.3641 179.6279,18.6681 179.8119,19.0681 L179.8119,15.1681 L180.5439,15.1681 Z" id="Fill-4" fill="#000000"></path>
                    <path d="M186.3877,22.7881 C186.7317,22.3561 186.9037,21.7481 186.9037,20.9641 C186.9037,20.1801 186.7317,19.5701 186.3877,19.1341 C186.0437,18.6981 185.5597,18.4801 184.9357,18.4801 C184.2957,18.4801 183.7997,18.6961 183.4477,19.1281 C183.0957,19.5591 182.9197,20.1641 182.9197,20.9401 C182.9197,21.7251 183.0957,22.3361 183.4477,22.7761 C183.7997,23.2161 184.2917,23.4351 184.9237,23.4351 C185.5557,23.4351 186.0437,23.2201 186.3877,22.7881 Z M187.6357,15.1681 L187.6357,24.0001 L186.9037,24.0001 L186.9037,22.8481 C186.7277,23.2481 186.4617,23.5541 186.1057,23.7661 C185.7497,23.9781 185.3237,24.0841 184.8277,24.0841 C184.2997,24.0841 183.8337,23.9541 183.4297,23.6941 C183.0257,23.4341 182.7117,23.0661 182.4877,22.5901 C182.2637,22.1141 182.1517,21.5641 182.1517,20.9401 C182.1517,20.3161 182.2617,19.7691 182.4817,19.3021 C182.7017,18.8341 183.0137,18.4741 183.4177,18.2221 C183.8217,17.9701 184.2917,17.8441 184.8277,17.8441 C185.3157,17.8441 185.7377,17.9481 186.0937,18.1561 C186.4497,18.3641 186.7197,18.6681 186.9037,19.0681 L186.9037,15.1681 L187.6357,15.1681 Z" id="Fill-6" fill="#000000"></path>
                    <path d="M196.5396,22.7881 C196.8836,22.3561 197.0556,21.7481 197.0556,20.9641 C197.0556,20.1721 196.8836,19.5591 196.5396,19.1281 C196.1956,18.6961 195.7076,18.4801 195.0756,18.4801 C194.4436,18.4801 193.9516,18.7021 193.5996,19.1461 C193.2476,19.5901 193.0716,20.2041 193.0716,20.9881 C193.0716,21.7641 193.2476,22.3661 193.5996,22.7941 C193.9516,23.2221 194.4476,23.4351 195.0876,23.4351 C195.7116,23.4351 196.1956,23.2201 196.5396,22.7881 Z M197.7876,17.9881 L197.7876,24.0001 L197.0556,24.0001 L197.0556,22.8481 C196.8796,23.2481 196.6136,23.5541 196.2576,23.7661 C195.9016,23.9781 195.4756,24.0841 194.9796,24.0841 C194.4436,24.0841 193.9736,23.9581 193.5696,23.7061 C193.1656,23.4541 192.8536,23.0941 192.6336,22.6261 C192.4136,22.1581 192.3036,21.6121 192.3036,20.9881 C192.3036,20.3641 192.4156,19.8141 192.6396,19.3381 C192.8636,18.8621 193.1776,18.4941 193.5816,18.2341 C193.9856,17.9751 194.4516,17.8441 194.9796,17.8441 C195.4676,17.8441 195.8896,17.9481 196.2456,18.1561 C196.6016,18.3641 196.8716,18.6681 197.0556,19.0681 L197.0556,17.9881 L197.7876,17.9881 Z" id="Fill-8" fill="#000000"></path>
                    <path d="M199.4194,23.2803 L199.6834,22.7163 C200.0024,22.9803 200.3254,23.1683 200.6494,23.2803 C200.9734,23.3923 201.3474,23.4483 201.7714,23.4483 C202.2674,23.4483 202.6454,23.3623 202.9054,23.1903 C203.1654,23.0173 203.2954,22.7683 203.2954,22.4403 C203.2954,22.1683 203.2094,21.9543 203.0374,21.7983 C202.8654,21.6413 202.5834,21.5153 202.1914,21.4203 L201.1714,21.1923 C200.6914,21.0803 200.3134,20.8803 200.0374,20.5923 C199.7614,20.3033 199.6234,19.9673 199.6234,19.5843 C199.6234,19.0553 199.8254,18.6343 200.2294,18.3183 C200.6334,18.0023 201.1714,17.8433 201.8434,17.8433 C202.2674,17.8433 202.6614,17.9123 203.0254,18.0483 C203.3894,18.1843 203.6914,18.3803 203.9314,18.6353 L203.6554,19.2003 C203.1034,18.7193 202.4994,18.4803 201.8434,18.4803 C201.3784,18.4803 201.0194,18.5723 200.7634,18.7563 C200.5064,18.9403 200.3794,19.1963 200.3794,19.5243 C200.3794,19.7963 200.4614,20.0153 200.6254,20.1833 C200.7894,20.3513 201.0434,20.4763 201.3874,20.5553 L202.4194,20.8073 C203.4994,21.0483 204.0394,21.5803 204.0394,22.4043 C204.0394,22.9083 203.8314,23.3143 203.4154,23.6223 C202.9994,23.9293 202.4394,24.0843 201.7354,24.0843 C200.7594,24.0843 199.9874,23.8163 199.4194,23.2803" id="Fill-10" fill="#000000"></path>
                    <path d="M205.3472,23.2803 L205.6112,22.7163 C205.9302,22.9803 206.2532,23.1683 206.5772,23.2803 C206.9012,23.3923 207.2752,23.4483 207.6992,23.4483 C208.1952,23.4483 208.5732,23.3623 208.8332,23.1903 C209.0932,23.0173 209.2232,22.7683 209.2232,22.4403 C209.2232,22.1683 209.1372,21.9543 208.9652,21.7983 C208.7932,21.6413 208.5112,21.5153 208.1192,21.4203 L207.0992,21.1923 C206.6192,21.0803 206.2412,20.8803 205.9652,20.5923 C205.6892,20.3033 205.5512,19.9673 205.5512,19.5843 C205.5512,19.0553 205.7532,18.6343 206.1572,18.3183 C206.5612,18.0023 207.0992,17.8433 207.7712,17.8433 C208.1952,17.8433 208.5892,17.9123 208.9532,18.0483 C209.3172,18.1843 209.6192,18.3803 209.8592,18.6353 L209.5832,19.2003 C209.0312,18.7193 208.4272,18.4803 207.7712,18.4803 C207.3062,18.4803 206.9472,18.5723 206.6912,18.7563 C206.4342,18.9403 206.3072,19.1963 206.3072,19.5243 C206.3072,19.7963 206.3892,20.0153 206.5532,20.1833 C206.7172,20.3513 206.9712,20.4763 207.3152,20.5553 L208.3472,20.8073 C209.4272,21.0483 209.9672,21.5803 209.9672,22.4043 C209.9672,22.9083 209.7592,23.3143 209.3432,23.6223 C208.9272,23.9293 208.3672,24.0843 207.6632,24.0843 C206.6872,24.0843 205.9152,23.8163 205.3472,23.2803" id="Fill-12" fill="#000000"></path>
                    <path d="M212.7153,18.9424 C212.3713,19.2744 212.1553,19.7404 212.0673,20.3394 L215.8833,20.3394 C215.8353,19.7234 215.6553,19.2544 215.3433,18.9294 C215.0313,18.6064 214.6033,18.4444 214.0593,18.4444 C213.5073,18.4444 213.0593,18.6104 212.7153,18.9424 Z M212.0193,20.9044 L212.0193,20.9404 C212.0193,21.7484 212.2053,22.3664 212.5773,22.7944 C212.9493,23.2214 213.4913,23.4354 214.2033,23.4354 C214.9233,23.4354 215.5833,23.1884 216.1833,22.6924 L216.4713,23.2674 C216.2073,23.5154 215.8713,23.7134 215.4633,23.8624 C215.0553,24.0094 214.6353,24.0844 214.2033,24.0844 C213.2913,24.0844 212.5713,23.8074 212.0433,23.2554 C211.5153,22.7044 211.2513,21.9444 211.2513,20.9754 C211.2513,20.3604 211.3693,19.8144 211.6053,19.3384 C211.8403,18.8624 212.1713,18.4944 212.5953,18.2344 C213.0193,17.9744 213.5073,17.8434 214.0593,17.8434 C214.8513,17.8434 215.4693,18.1004 215.9133,18.6124 C216.3573,19.1244 216.5793,19.8364 216.5793,20.7484 L216.5793,20.9044 L212.0193,20.9044 Z" id="Fill-14" fill="#000000"></path>
                    <path d="M219.1592,18.5762 L219.1592,22.1522 C219.1592,22.6322 219.2512,22.9642 219.4352,23.1482 C219.6192,23.3322 219.8912,23.4242 220.2512,23.4242 C220.4752,23.4242 220.6912,23.3882 220.8992,23.3162 L220.8992,23.9752 C220.6432,24.0402 220.3832,24.0722 220.1192,24.0722 C219.5912,24.0722 219.1772,23.9242 218.8772,23.6282 C218.5772,23.3322 218.4272,22.8882 218.4272,22.2962 L218.4272,18.5762 L217.2392,18.5762 L217.2392,17.9882 L218.4272,17.9882 L218.4272,16.3912 L219.1592,16.1162 L219.1592,17.9882 L220.9352,17.9882 L220.9352,18.5762 L219.1592,18.5762 Z" id="Fill-16" fill="#000000"></path>
                    <path d="M221.8232,23.2803 L222.0872,22.7163 C222.4062,22.9803 222.7292,23.1683 223.0532,23.2803 C223.3772,23.3923 223.7512,23.4483 224.1752,23.4483 C224.6712,23.4483 225.0492,23.3623 225.3092,23.1903 C225.5692,23.0173 225.6992,22.7683 225.6992,22.4403 C225.6992,22.1683 225.6132,21.9543 225.4412,21.7983 C225.2692,21.6413 224.9872,21.5153 224.5952,21.4203 L223.5752,21.1923 C223.0952,21.0803 222.7172,20.8803 222.4412,20.5923 C222.1652,20.3033 222.0272,19.9673 222.0272,19.5843 C222.0272,19.0553 222.2292,18.6343 222.6332,18.3183 C223.0372,18.0023 223.5752,17.8433 224.2472,17.8433 C224.6712,17.8433 225.0652,17.9123 225.4292,18.0483 C225.7932,18.1843 226.0952,18.3803 226.3352,18.6353 L226.0592,19.2003 C225.5072,18.7193 224.9032,18.4803 224.2472,18.4803 C223.7822,18.4803 223.4232,18.5723 223.1672,18.7563 C222.9102,18.9403 222.7832,19.1963 222.7832,19.5243 C222.7832,19.7963 222.8652,20.0153 223.0292,20.1833 C223.1932,20.3513 223.4472,20.4763 223.7912,20.5553 L224.8232,20.8073 C225.9032,21.0483 226.4432,21.5803 226.4432,22.4043 C226.4432,22.9083 226.2352,23.3143 225.8192,23.6223 C225.4032,23.9293 224.8432,24.0843 224.1392,24.0843 C223.1632,24.0843 222.3912,23.8163 221.8232,23.2803" id="Fill-18" fill="#000000"></path>
                    <path d="M235.3589,22.7764 C235.7109,22.3364 235.8869,21.7244 235.8869,20.9404 C235.8869,20.1644 235.7109,19.5594 235.3589,19.1284 C235.0069,18.6964 234.5149,18.4804 233.8829,18.4804 C233.2509,18.4804 232.7629,18.6964 232.4189,19.1284 C232.0749,19.5594 231.9029,20.1724 231.9029,20.9644 C231.9029,21.7554 232.0749,22.3664 232.4189,22.7944 C232.7629,23.2214 233.2549,23.4354 233.8949,23.4354 C234.5189,23.4354 235.0069,23.2154 235.3589,22.7764 M235.3829,18.2274 C235.7909,18.4844 236.1049,18.8434 236.3249,19.3074 C236.5449,19.7724 236.6549,20.3164 236.6549,20.9404 C236.6549,21.5644 236.5429,22.1144 236.3189,22.5894 C236.0949,23.0664 235.7809,23.4344 235.3769,23.6944 C234.9729,23.9544 234.5069,24.0844 233.9789,24.0844 C233.4829,24.0844 233.0569,23.9754 232.7009,23.7594 C232.3449,23.5444 232.0789,23.2324 231.9029,22.8244 L231.9029,24.0004 L231.1709,24.0004 L231.1709,15.1684 L231.8909,15.1684 L231.8909,19.1164 C232.0669,18.7004 232.3349,18.3834 232.6949,18.1684 C233.0549,17.9524 233.4829,17.8434 233.9789,17.8434 C234.5069,17.8434 234.9749,17.9714 235.3829,18.2274" id="Fill-20" fill="#000000"></path>
                    <path d="M243.3145,17.9883 L240.4825,24.6243 C240.2025,25.2803 239.8525,25.7613 239.4325,26.0703 C239.0125,26.3783 238.4865,26.5953 237.8545,26.7233 L237.7105,26.1483 C238.2865,26.0113 238.7205,25.8363 239.0125,25.6203 C239.3045,25.4043 239.5505,25.0633 239.7505,24.5993 L240.0025,24.0113 L237.4345,17.9883 L238.2145,17.9883 L240.3865,23.2673 L242.5705,17.9883 L243.3145,17.9883 Z" id="Fill-22" fill="#000000"></path>
                    <path d="M248.522,23.7002 C248.098,23.4442 247.77,23.0822 247.538,22.6142 C247.306,22.1462 247.19,21.6042 247.19,20.9882 C247.19,20.3642 247.306,19.8142 247.538,19.3382 C247.77,18.8622 248.102,18.4942 248.534,18.2342 C248.966,17.9742 249.466,17.8442 250.034,17.8442 C250.442,17.8442 250.832,17.9142 251.204,18.0542 C251.576,18.1942 251.882,18.3882 252.122,18.6362 L251.834,19.2122 C251.522,18.9562 251.224,18.7702 250.94,18.6542 C250.656,18.5382 250.362,18.4802 250.058,18.4802 C249.41,18.4802 248.898,18.7022 248.522,19.1462 C248.146,19.5902 247.958,20.2042 247.958,20.9882 C247.958,21.7562 248.144,22.3562 248.516,22.7882 C248.888,23.2202 249.402,23.4352 250.058,23.4352 C250.362,23.4352 250.656,23.3782 250.94,23.2622 C251.224,23.1462 251.522,22.9642 251.834,22.7162 L252.122,23.2802 C251.866,23.5282 251.548,23.7232 251.168,23.8682 C250.788,24.0122 250.402,24.0842 250.01,24.0842 C249.442,24.0842 248.946,23.9562 248.522,23.7002" id="Fill-24" fill="#000000"></path>
                    <polygon id="Fill-26" fill="#000000" points="253.454 24 254.174 24 254.174 15.168 253.454 15.168"></polygon>
                    <path d="M256.19,24 L256.91,24 L256.91,17.988 L256.19,17.988 L256.19,24 Z M256.083,16.441 L257.055,16.441 L257.055,15.504 L256.083,15.504 L256.083,16.441 Z" id="Fill-28" fill="#000000"></path>
                    <polygon id="Fill-29" fill="#000000" points="263.9541 24 262.9581 24 259.6461 21.072 259.6461 24 258.9261 24 258.9261 15.168 259.6461 15.168 259.6461 20.784 262.6701 17.988 263.6181 17.988 260.4741 20.88"></polygon>
                    <path d="M264.902,24 L265.622,24 L265.622,17.988 L264.902,17.988 L264.902,24 Z M264.794,16.441 L265.766,16.441 L265.766,15.504 L264.794,15.504 L264.794,16.441 Z" id="Fill-30" fill="#000000"></path>
                    <path d="M272.6055,20.1719 L272.6055,23.9999 L271.8735,23.9999 L271.8735,20.2199 C271.8735,19.6199 271.7515,19.1799 271.5075,18.9009 C271.2635,18.6199 270.8815,18.4809 270.3615,18.4809 C269.7615,18.4809 269.2775,18.6639 268.9095,19.0319 C268.5415,19.4009 268.3575,19.8969 268.3575,20.5199 L268.3575,23.9999 L267.6375,23.9999 L267.6375,19.6559 C267.6375,19.0319 267.6055,18.4759 267.5415,17.9879 L268.2375,17.9879 L268.3335,19.0919 C268.5175,18.6839 268.7935,18.3739 269.1615,18.1619 C269.5295,17.9499 269.9535,17.8439 270.4335,17.8439 C271.8815,17.8439 272.6055,18.6199 272.6055,20.1719" id="Fill-31" fill="#000000"></path>
                    <path d="M278.4556,22.5361 C278.8116,22.1201 278.9896,21.5521 278.9896,20.8321 C278.9896,20.1041 278.8116,19.5301 278.4556,19.1101 C278.0996,18.6901 277.6096,18.4801 276.9856,18.4801 C276.3536,18.4801 275.8576,18.6901 275.4976,19.1101 C275.1376,19.5301 274.9576,20.1041 274.9576,20.8321 C274.9576,21.5601 275.1376,22.1301 275.4976,22.5421 C275.8576,22.9541 276.3536,23.1601 276.9856,23.1601 C277.6096,23.1601 278.0996,22.9521 278.4556,22.5361 Z M279.7216,17.9881 L279.7216,24.0241 C279.7216,24.8951 279.5056,25.5561 279.0736,26.0041 C278.6416,26.4521 278.0056,26.6761 277.1656,26.6761 C276.2696,26.6761 275.4896,26.4601 274.8256,26.0281 L274.9696,25.3911 C275.3616,25.6241 275.7216,25.7881 276.0496,25.8841 C276.3776,25.9801 276.7536,26.0281 277.1776,26.0281 C277.7776,26.0281 278.2316,25.8641 278.5396,25.5361 C278.8476,25.2081 279.0016,24.7271 279.0016,24.0961 L279.0016,22.5481 C278.8176,22.9561 278.5456,23.2701 278.1856,23.4901 C277.8256,23.7101 277.3936,23.8201 276.8896,23.8201 C276.3616,23.8201 275.8936,23.6941 275.4856,23.4421 C275.0776,23.1901 274.7596,22.8381 274.5316,22.3861 C274.3036,21.9341 274.1896,21.4161 274.1896,20.8321 C274.1896,20.2401 274.3036,19.7181 274.5316,19.2651 C274.7596,18.8141 275.0776,18.4641 275.4856,18.2161 C275.8936,17.9681 276.3616,17.8441 276.8896,17.8441 C277.3936,17.8441 277.8236,17.9481 278.1796,18.1561 C278.5356,18.3641 278.8056,18.6681 278.9896,19.0681 L278.9896,17.9881 L279.7216,17.9881 Z" id="Fill-32" fill="#000000"></path>
                    <path d="M288.6313,22.7939 C288.9793,22.3659 289.1533,21.7559 289.1533,20.9639 C289.1533,20.1799 288.9773,19.5699 288.6253,19.1339 C288.2733,18.6979 287.7853,18.4809 287.1613,18.4809 C286.5293,18.4809 286.0373,18.6979 285.6853,19.1339 C285.3333,19.5699 285.1573,20.1799 285.1573,20.9639 C285.1573,21.7639 285.3293,22.3759 285.6733,22.7999 C286.0173,23.2249 286.5093,23.4359 287.1493,23.4359 C287.7893,23.4359 288.2833,23.2219 288.6313,22.7939 M285.7033,23.6999 C285.2833,23.4439 284.9593,23.0799 284.7313,22.6079 C284.5033,22.1359 284.3893,21.5879 284.3893,20.9639 C284.3893,20.3399 284.5033,19.7919 284.7313,19.3199 C284.9593,18.8479 285.2833,18.4839 285.7033,18.2279 C286.1233,17.9719 286.6093,17.8439 287.1613,17.8439 C287.7053,17.8439 288.1853,17.9719 288.6013,18.2279 C289.0173,18.4839 289.3393,18.8479 289.5673,19.3199 C289.7953,19.7919 289.9093,20.3399 289.9093,20.9639 C289.9093,21.5879 289.7953,22.1359 289.5673,22.6079 C289.3393,23.0799 289.0173,23.4439 288.6013,23.6999 C288.1853,23.9559 287.7053,24.0839 287.1613,24.0839 C286.6093,24.0839 286.1233,23.9559 285.7033,23.6999" id="Fill-33" fill="#000000"></path>
                    <path d="M296.4854,20.1719 L296.4854,23.9999 L295.7534,23.9999 L295.7534,20.2199 C295.7534,19.6199 295.6314,19.1799 295.3874,18.9009 C295.1434,18.6199 294.7614,18.4809 294.2414,18.4809 C293.6414,18.4809 293.1574,18.6639 292.7894,19.0319 C292.4214,19.4009 292.2374,19.8969 292.2374,20.5199 L292.2374,23.9999 L291.5174,23.9999 L291.5174,19.6559 C291.5174,19.0319 291.4854,18.4759 291.4214,17.9879 L292.1174,17.9879 L292.2134,19.0919 C292.3974,18.6839 292.6734,18.3739 293.0414,18.1619 C293.4094,17.9499 293.8334,17.8439 294.3134,17.8439 C295.7614,17.8439 296.4854,18.6199 296.4854,20.1719" id="Fill-34" fill="#000000"></path>
                    <path d="M302.5332,18.5762 L302.5332,22.1522 C302.5332,22.6322 302.6252,22.9642 302.8092,23.1482 C302.9932,23.3322 303.2652,23.4242 303.6252,23.4242 C303.8492,23.4242 304.0652,23.3882 304.2732,23.3162 L304.2732,23.9752 C304.0172,24.0402 303.7572,24.0722 303.4932,24.0722 C302.9652,24.0722 302.5512,23.9242 302.2512,23.6282 C301.9512,23.3322 301.8012,22.8882 301.8012,22.2962 L301.8012,18.5762 L300.6132,18.5762 L300.6132,17.9882 L301.8012,17.9882 L301.8012,16.3912 L302.5332,16.1162 L302.5332,17.9882 L304.3092,17.9882 L304.3092,18.5762 L302.5332,18.5762 Z" id="Fill-35" fill="#000000"></path>
                    <path d="M310.5249,20.1719 L310.5249,23.9999 L309.7929,23.9999 L309.7929,20.2199 C309.7929,19.6199 309.6709,19.1799 309.4269,18.9009 C309.1829,18.6199 308.8009,18.4809 308.2809,18.4809 C307.6809,18.4809 307.1969,18.6639 306.8289,19.0319 C306.4609,19.4009 306.2769,19.8969 306.2769,20.5199 L306.2769,23.9999 L305.5569,23.9999 L305.5569,15.1679 L306.2769,15.1679 L306.2769,19.0319 C306.4689,18.6399 306.7449,18.3439 307.1049,18.1439 C307.4649,17.9439 307.8809,17.8439 308.3529,17.8439 C309.8009,17.8439 310.5249,18.6199 310.5249,20.1719" id="Fill-36" fill="#000000"></path>
                    <path d="M313.5732,18.9424 C313.2292,19.2744 313.0132,19.7404 312.9252,20.3394 L316.7412,20.3394 C316.6932,19.7234 316.5132,19.2544 316.2012,18.9294 C315.8892,18.6064 315.4612,18.4444 314.9172,18.4444 C314.3652,18.4444 313.9172,18.6104 313.5732,18.9424 Z M312.8772,20.9044 L312.8772,20.9404 C312.8772,21.7484 313.0632,22.3664 313.4352,22.7944 C313.8072,23.2214 314.3492,23.4354 315.0612,23.4354 C315.7812,23.4354 316.4412,23.1884 317.0412,22.6924 L317.3292,23.2674 C317.0652,23.5154 316.7292,23.7134 316.3212,23.8624 C315.9132,24.0094 315.4932,24.0844 315.0612,24.0844 C314.1492,24.0844 313.4292,23.8074 312.9012,23.2554 C312.3732,22.7044 312.1092,21.9444 312.1092,20.9754 C312.1092,20.3604 312.2272,19.8144 312.4632,19.3384 C312.6982,18.8624 313.0292,18.4944 313.4532,18.2344 C313.8772,17.9744 314.3652,17.8434 314.9172,17.8434 C315.7092,17.8434 316.3272,18.1004 316.7712,18.6124 C317.2152,19.1244 317.4372,19.8364 317.4372,20.7484 L317.4372,20.9044 L312.8772,20.9044 Z" id="Fill-37" fill="#000000"></path>
                    <path d="M326.2568,22.7939 C326.6088,22.3659 326.7848,21.7639 326.7848,20.9879 C326.7848,20.2039 326.6088,19.5899 326.2568,19.1469 C325.9048,18.7019 325.4168,18.4809 324.7928,18.4809 C324.1528,18.4809 323.6608,18.6959 323.3168,19.1279 C322.9728,19.5599 322.8008,20.1719 322.8008,20.9639 C322.8008,21.7479 322.9728,22.3569 323.3168,22.7879 C323.6608,23.2199 324.1488,23.4359 324.7808,23.4359 C325.4128,23.4359 325.9048,23.2219 326.2568,22.7939 M326.2748,18.2339 C326.6788,18.4939 326.9928,18.8619 327.2168,19.3379 C327.4408,19.8149 327.5528,20.3639 327.5528,20.9879 C327.5528,21.6119 327.4428,22.1559 327.2228,22.6199 C327.0028,23.0839 326.6888,23.4439 326.2808,23.6999 C325.8728,23.9559 325.4048,24.0839 324.8768,24.0839 C324.3728,24.0839 323.9428,23.9749 323.5868,23.7539 C323.2308,23.5339 322.9648,23.2159 322.7888,22.7999 L322.7888,26.5919 L322.0688,26.5919 L322.0688,19.6559 C322.0688,19.0319 322.0368,18.4759 321.9728,17.9879 L322.6688,17.9879 L322.7648,19.1639 C322.9408,18.7399 323.2108,18.4139 323.5748,18.1859 C323.9388,17.9579 324.3728,17.8439 324.8768,17.8439 C325.4048,17.8439 325.8708,17.9749 326.2748,18.2339" id="Fill-38" fill="#000000"></path>
                    <polygon id="Fill-39" fill="#000000" points="329.161 24 329.881 24 329.881 15.168 329.161 15.168"></polygon>
                    <path d="M336.7324,17.9883 L336.7324,24.0003 L336.0244,24.0003 L336.0244,22.9083 C335.8324,23.2923 335.5604,23.5843 335.2084,23.7843 C334.8564,23.9843 334.4524,24.0843 333.9964,24.0843 C333.2924,24.0843 332.7604,23.8873 332.4004,23.4963 C332.0404,23.1043 331.8604,22.5243 331.8604,21.7563 L331.8604,17.9883 L332.5804,17.9883 L332.5804,21.7083 C332.5804,22.3003 332.7004,22.7363 332.9404,23.0153 C333.1804,23.2963 333.5524,23.4353 334.0564,23.4353 C334.6484,23.4353 335.1204,23.2503 335.4724,22.8783 C335.8244,22.5063 336.0004,22.0113 336.0004,21.3963 L336.0004,17.9883 L336.7324,17.9883 Z" id="Fill-40" fill="#000000"></path>
                    <path d="M338.3647,23.2803 L338.6287,22.7163 C338.9477,22.9803 339.2707,23.1683 339.5947,23.2803 C339.9187,23.3923 340.2927,23.4483 340.7167,23.4483 C341.2127,23.4483 341.5907,23.3623 341.8507,23.1903 C342.1107,23.0173 342.2407,22.7683 342.2407,22.4403 C342.2407,22.1683 342.1547,21.9543 341.9827,21.7983 C341.8107,21.6413 341.5287,21.5153 341.1367,21.4203 L340.1167,21.1923 C339.6367,21.0803 339.2587,20.8803 338.9827,20.5923 C338.7067,20.3033 338.5687,19.9673 338.5687,19.5843 C338.5687,19.0553 338.7707,18.6343 339.1747,18.3183 C339.5787,18.0023 340.1167,17.8433 340.7887,17.8433 C341.2127,17.8433 341.6067,17.9123 341.9707,18.0483 C342.3347,18.1843 342.6367,18.3803 342.8767,18.6353 L342.6007,19.2003 C342.0487,18.7193 341.4447,18.4803 340.7887,18.4803 C340.3237,18.4803 339.9647,18.5723 339.7087,18.7563 C339.4517,18.9403 339.3247,19.1963 339.3247,19.5243 C339.3247,19.7963 339.4067,20.0153 339.5707,20.1833 C339.7347,20.3513 339.9887,20.4763 340.3327,20.5553 L341.3647,20.8073 C342.4447,21.0483 342.9847,21.5803 342.9847,22.4043 C342.9847,22.9083 342.7767,23.3143 342.3607,23.6223 C341.9447,23.9293 341.3847,24.0843 340.6807,24.0843 C339.7047,24.0843 338.9327,23.8163 338.3647,23.2803" id="Fill-41" fill="#000000"></path>
                    <path d="M350.436,16.6797 L350.436,17.7117 L349.416,17.7117 L349.416,16.9447 C349.416,16.6397 349.462,16.3627 349.554,16.1107 C349.645,15.8587 349.804,15.6197 350.028,15.3967 L350.424,15.6837 C350.264,15.8677 350.15,16.0377 350.082,16.1947 C350.014,16.3497 349.972,16.5117 349.956,16.6797 L350.436,16.6797 Z M348.564,16.6797 L348.564,17.7117 L347.544,17.7117 L347.544,16.9447 C347.544,16.6397 347.59,16.3627 347.682,16.1107 C347.774,15.8587 347.932,15.6197 348.156,15.3967 L348.552,15.6837 C348.392,15.8677 348.278,16.0377 348.21,16.1947 C348.142,16.3497 348.1,16.5117 348.084,16.6797 L348.564,16.6797 Z" id="Fill-42" fill="#000000"></path>
                    <polygon id="Fill-43" fill="#FA5153" points="357.7959 20.2559 357.7959 20.8679 355.1439 20.8679 355.1439 23.5199 354.5439 23.5199 354.5439 20.8679 351.8919 20.8679 351.8919 20.2559 354.5439 20.2559 354.5439 17.6039 355.1439 17.6039 355.1439 20.2559"></polygon>
                    <path d="M362.1641,15.4561 L362.1641,16.2241 C362.1641,16.5281 362.1161,16.8061 362.0201,17.0581 C361.9241,17.3101 361.7641,17.5521 361.5401,17.7841 L361.1561,17.4841 C361.4281,17.1801 361.5801,16.8521 361.6121,16.5001 L361.1441,16.5001 L361.1441,15.4561 L362.1641,15.4561 Z M360.2921,15.4561 L360.2921,16.2241 C360.2921,16.5281 360.2441,16.8061 360.1481,17.0581 C360.0521,17.3101 359.8921,17.5521 359.6681,17.7841 L359.2841,17.4841 C359.5561,17.1801 359.7081,16.8521 359.7401,16.5001 L359.2721,16.5001 L359.2721,15.4561 L360.2921,15.4561 Z" id="Fill-44" fill="#000000"></path>
                    <path d="M367.036,24 L367.756,24 L367.756,17.988 L367.036,17.988 L367.036,24 Z M366.928,16.441 L367.9,16.441 L367.9,15.504 L366.928,15.504 L366.928,16.441 Z" id="Fill-45" fill="#000000"></path>
                    <path d="M370.7192,23.7002 C370.2952,23.4442 369.9672,23.0822 369.7352,22.6142 C369.5032,22.1462 369.3872,21.6042 369.3872,20.9882 C369.3872,20.3642 369.5032,19.8142 369.7352,19.3382 C369.9672,18.8622 370.2992,18.4942 370.7312,18.2342 C371.1632,17.9742 371.6632,17.8442 372.2312,17.8442 C372.6392,17.8442 373.0292,17.9142 373.4012,18.0542 C373.7732,18.1942 374.0792,18.3882 374.3192,18.6362 L374.0312,19.2122 C373.7192,18.9562 373.4212,18.7702 373.1372,18.6542 C372.8532,18.5382 372.5592,18.4802 372.2552,18.4802 C371.6072,18.4802 371.0952,18.7022 370.7192,19.1462 C370.3432,19.5902 370.1552,20.2042 370.1552,20.9882 C370.1552,21.7562 370.3412,22.3562 370.7132,22.7882 C371.0852,23.2202 371.5992,23.4352 372.2552,23.4352 C372.5592,23.4352 372.8532,23.3782 373.1372,23.2622 C373.4212,23.1462 373.7192,22.9642 374.0312,22.7162 L374.3192,23.2802 C374.0632,23.5282 373.7452,23.7232 373.3652,23.8682 C372.9852,24.0122 372.5992,24.0842 372.2072,24.0842 C371.6392,24.0842 371.1432,23.9562 370.7192,23.7002" id="Fill-46" fill="#000000"></path>
                    <path d="M379.5093,22.7939 C379.8573,22.3659 380.0313,21.7559 380.0313,20.9639 C380.0313,20.1799 379.8553,19.5699 379.5033,19.1339 C379.1513,18.6979 378.6633,18.4809 378.0393,18.4809 C377.4073,18.4809 376.9153,18.6979 376.5633,19.1339 C376.2113,19.5699 376.0353,20.1799 376.0353,20.9639 C376.0353,21.7639 376.2073,22.3759 376.5513,22.7999 C376.8953,23.2249 377.3873,23.4359 378.0273,23.4359 C378.6673,23.4359 379.1613,23.2219 379.5093,22.7939 M376.5813,23.6999 C376.1613,23.4439 375.8373,23.0799 375.6093,22.6079 C375.3813,22.1359 375.2673,21.5879 375.2673,20.9639 C375.2673,20.3399 375.3813,19.7919 375.6093,19.3199 C375.8373,18.8479 376.1613,18.4839 376.5813,18.2279 C377.0013,17.9719 377.4873,17.8439 378.0393,17.8439 C378.5833,17.8439 379.0633,17.9719 379.4793,18.2279 C379.8953,18.4839 380.2173,18.8479 380.4453,19.3199 C380.6733,19.7919 380.7873,20.3399 380.7873,20.9639 C380.7873,21.5879 380.6733,22.1359 380.4453,22.6079 C380.2173,23.0799 379.8953,23.4439 379.4793,23.6999 C379.0633,23.9559 378.5833,24.0839 378.0393,24.0839 C377.4873,24.0839 377.0013,23.9559 376.5813,23.6999" id="Fill-47" fill="#000000"></path>
                    <path d="M387.3633,20.1719 L387.3633,23.9999 L386.6313,23.9999 L386.6313,20.2199 C386.6313,19.6199 386.5093,19.1799 386.2653,18.9009 C386.0213,18.6199 385.6393,18.4809 385.1193,18.4809 C384.5193,18.4809 384.0353,18.6639 383.6673,19.0319 C383.2993,19.4009 383.1153,19.8969 383.1153,20.5199 L383.1153,23.9999 L382.3953,23.9999 L382.3953,19.6559 C382.3953,19.0319 382.3633,18.4759 382.2993,17.9879 L382.9953,17.9879 L383.0913,19.0919 C383.2753,18.6839 383.5513,18.3739 383.9193,18.1619 C384.2873,17.9499 384.7113,17.8439 385.1913,17.8439 C386.6393,17.8439 387.3633,18.6199 387.3633,20.1719" id="Fill-48" fill="#000000"></path>
                    <g id="Group-57">
                        <polygon id="Stroke-49" stroke="#000000" points="0 42 54 42 54 0 0 0"></polygon>
                        <g id="Group-53" transform="translate(8.000000, 9.000000)">
                            <mask id="mask-2" fill="white">
                                <use xlink:href="#path-1"></use>
                            </mask>
                            <g id="Clip-52"></g>
                            <polygon id="Fill-51" fill="#000000" mask="url(#mask-2)" points="-4.569 16.138 16.569 16.138 16.569 -5 -4.569 -5"></polygon>
                        </g>
                        <g id="Group-56" transform="translate(3.000000, 15.000000)">
                            <mask id="mask-4" fill="white">
                                <use xlink:href="#path-3"></use>
                            </mask>
                            <g id="Clip-55"></g>
                            <polygon id="Fill-54" fill="#000000" mask="url(#mask-4)" points="-4 28 53 28 53 -5 -4 -5"></polygon>
                        </g>
                    </g>
                </g>
            </g>
        </g>
    </g>
</svg>