<?xml version="1.0" encoding="UTF-8"?>
<svg width="323px" height="214px" viewBox="0 0 323 214" version="1.1" xmlns="http://www.w3.org/2000/svg" xmlns:xlink="http://www.w3.org/1999/xlink">
    <!-- Generator: Sketch 52.2 (67145) - http://www.bohemiancoding.com/sketch -->
    <title>empty zone</title>
    <desc>Created with Sketch.</desc>
    <g id="Page-1" stroke="none" stroke-width="1" fill="none" fill-rule="evenodd">
        <g id="Artboard" transform="translate(-222.000000, -364.000000)">
            <g id="empty-zone" transform="translate(222.000000, 364.000000)">
                <g id="Group-2">
                    <path d="M94.0235294,131.172566 C91.538248,131.172566 89.5235294,133.187285 89.5235294,135.672566 L89.5235294,148.39823 C89.5235294,150.883511 91.538248,152.89823 94.0235294,152.89823 L267.752941,152.89823 C270.238223,152.89823 272.252941,150.883511 272.252941,148.39823 L272.252941,135.672566 C272.252941,133.187285 270.238223,131.172566 267.752941,131.172566 L94.0235294,131.172566 Z" id="Rectangle-93" stroke="#979797"></path>
                    <path d="M94.0235294,161.473451 C91.538248,161.473451 89.5235294,163.48817 89.5235294,165.973451 L89.5235294,178.699115 C89.5235294,181.184396 91.538248,183.199115 94.0235294,183.199115 L267.752941,183.199115 C270.238223,183.199115 272.252941,181.184396 272.252941,178.699115 L272.252941,165.973451 C272.252941,163.48817 270.238223,161.473451 267.752941,161.473451 L94.0235294,161.473451 Z" id="Rectangle-93-Copy" stroke="#979797"></path>
                    <path d="M94.0235294,191.774336 C91.538248,191.774336 89.5235294,193.789055 89.5235294,196.274336 L89.5235294,209 C89.5235294,211.485281 91.538248,213.5 94.0235294,213.5 L267.752941,213.5 C270.238223,213.5 272.252941,211.485281 272.252941,209 L272.252941,196.274336 C272.252941,193.789055 270.238223,191.774336 267.752941,191.774336 L94.0235294,191.774336 Z" id="Rectangle-93-Copy-2" stroke="#979797"></path>
                    <path d="M107.49063,139.19469 L148.215252,139.19469 C150.045612,139.19469 151.529412,140.67849 151.529412,142.50885 L151.529412,142.50885 C151.529412,144.339209 150.045612,145.823009 148.215252,145.823009 L107.49063,145.823009 C105.66027,145.823009 104.176471,144.339209 104.176471,142.50885 L104.176471,142.50885 C104.176471,140.67849 105.66027,139.19469 107.49063,139.19469 Z" id="Rectangle-94" fill="#D8D8D8"></path>
                    <path d="M168.102395,139.19469 L208.827017,139.19469 C210.657377,139.19469 212.141176,140.67849 212.141176,142.50885 L212.141176,142.50885 C212.141176,144.339209 210.657377,145.823009 208.827017,145.823009 L168.102395,145.823009 C166.272035,145.823009 164.788235,144.339209 164.788235,142.50885 L164.788235,142.50885 C164.788235,140.67849 166.272035,139.19469 168.102395,139.19469 Z" id="Rectangle-94-Copy-3" fill="#D8D8D8"></path>
                    <path d="M236.29063,139.19469 L246.70937,139.19469 C248.53973,139.19469 250.023529,140.67849 250.023529,142.50885 L250.023529,142.50885 C250.023529,144.339209 248.53973,145.823009 246.70937,145.823009 L236.29063,145.823009 C234.46027,145.823009 232.976471,144.339209 232.976471,142.50885 L232.976471,142.50885 C232.976471,140.67849 234.46027,139.19469 236.29063,139.19469 Z" id="Rectangle-94-Copy-6" fill="#FA5151"></path>
                    <path d="M236.29063,168.548673 L246.70937,168.548673 C248.53973,168.548673 250.023529,170.032472 250.023529,171.862832 L250.023529,171.862832 C250.023529,173.693191 248.53973,175.176991 246.70937,175.176991 L236.29063,175.176991 C234.46027,175.176991 232.976471,173.693191 232.976471,171.862832 L232.976471,171.862832 C232.976471,170.032472 234.46027,168.548673 236.29063,168.548673 Z" id="Rectangle-94-Copy-8" fill="#FA5151"></path>
                    <path d="M236.29063,198.849558 L246.70937,198.849558 C248.53973,198.849558 250.023529,200.333357 250.023529,202.163717 L250.023529,202.163717 C250.023529,203.994076 248.53973,205.477876 246.70937,205.477876 L236.29063,205.477876 C234.46027,205.477876 232.976471,203.994076 232.976471,202.163717 L232.976471,202.163717 C232.976471,200.333357 234.46027,198.849558 236.29063,198.849558 Z" id="Rectangle-94-Copy-9" fill="#FA5151"></path>
                    <path d="M107.49063,168.548673 L148.215252,168.548673 C150.045612,168.548673 151.529412,170.032472 151.529412,171.862832 L151.529412,171.862832 C151.529412,173.693191 150.045612,175.176991 148.215252,175.176991 L107.49063,175.176991 C105.66027,175.176991 104.176471,173.693191 104.176471,171.862832 L104.176471,171.862832 C104.176471,170.032472 105.66027,168.548673 107.49063,168.548673 Z" id="Rectangle-94-Copy" fill="#D8D8D8"></path>
                    <path d="M168.102395,168.548673 L208.827017,168.548673 C210.657377,168.548673 212.141176,170.032472 212.141176,171.862832 L212.141176,171.862832 C212.141176,173.693191 210.657377,175.176991 208.827017,175.176991 L168.102395,175.176991 C166.272035,175.176991 164.788235,173.693191 164.788235,171.862832 L164.788235,171.862832 C164.788235,170.032472 166.272035,168.548673 168.102395,168.548673 Z" id="Rectangle-94-Copy-4" fill="#D8D8D8"></path>
                    <path d="M107.49063,198.849558 L148.215252,198.849558 C150.045612,198.849558 151.529412,200.333357 151.529412,202.163717 L151.529412,202.163717 C151.529412,203.994076 150.045612,205.477876 148.215252,205.477876 L107.49063,205.477876 C105.66027,205.477876 104.176471,203.994076 104.176471,202.163717 L104.176471,202.163717 C104.176471,200.333357 105.66027,198.849558 107.49063,198.849558 Z" id="Rectangle-94-Copy-2" fill="#D8D8D8"></path>
                    <path d="M168.102395,198.849558 L208.827017,198.849558 C210.657377,198.849558 212.141176,200.333357 212.141176,202.163717 L212.141176,202.163717 C212.141176,203.994076 210.657377,205.477876 208.827017,205.477876 L168.102395,205.477876 C166.272035,205.477876 164.788235,203.994076 164.788235,202.163717 L164.788235,202.163717 C164.788235,200.333357 166.272035,198.849558 168.102395,198.849558 Z" id="Rectangle-94-Copy-5" fill="#D8D8D8"></path>
                    <path d="M45.58401,186.199846 C13.8730791,184.00743 -16.4492483,147.354685 10.2521052,118.203531 C22.7918349,104.513303 42.6156153,109.257948 58.677554,107.369799 C68.0830746,106.26414 76.7342463,94.7667005 76.7342463,86.1681416" id="Path-2" stroke="#979797" stroke-dasharray="1,1,1,22"></path>
                    <path d="M89.0235294,60.6029342 C103.563736,44.6950147 111.05686,38.840548 133.966133,34.3149825 C151.849722,30.7822055 150.446781,38.1041555 157.820053,24.619469" id="Path-3" stroke="#979797" stroke-dasharray="1,1,1,22"></path>
                    <path d="M190.358824,12.3097345 C219.754972,18.0656166 251.715128,28.6355166 268.693702,55.5823011" id="Path-4" stroke="#979797" stroke-dasharray="1,1,1,22"></path>
                    <path d="M290.100235,88.0619469 C299.546729,97.1606734 336.295812,102.872736 315.656226,160.427799 C312.189507,170.095009 289.482506,193.335074 279.382353,193.335074" id="Path-5" stroke="#979797" stroke-dasharray="1,1,1,22"></path>
                    <ellipse id="Oval-8-Copy" fill="#7F7B87" cx="141.585294" cy="63.9159292" rx="2.36764706" ry="2.36725664"></ellipse>
                    <ellipse id="Oval-8-Copy-4" fill="#7F7B87" cx="211.667647" cy="44.9778761" rx="2.36764706" ry="2.36725664"></ellipse>
                    <ellipse id="Oval-8-Copy-2" fill="#7F7B87" cx="234.397059" cy="98.9513274" rx="2.36764706" ry="2.36725664"></ellipse>
                    <polygon id="Triangle-2" fill="#FA5151" points="204.564706 94.2168142 199.829412 96.5840708 199.829412 91.8495575"></polygon>
                    <polygon id="Triangle-2-Copy-2" fill="#FA5151" points="123.117647 103.685841 118.382353 106.053097 118.382353 101.318584"></polygon>
                    <g id="video-player" transform="translate(170.771539, 18.068330) rotate(-17.000000) translate(-170.771539, -18.068330) translate(154.771539, 4.568330)" fill-rule="nonzero">
                        <path d="M19.7006808,12.6824929 L13.7695017,8.675567 C13.6034287,8.56394549 13.3931415,8.55650405 13.2200589,8.6566772 C13.0480547,8.75742277 12.9407543,8.94975521 12.9407543,9.15868778 L12.9407543,17.1725396 C12.9407543,17.3814721 13.0480547,17.5738046 13.2205981,17.6745502 C13.3014778,17.7214884 13.3904455,17.7449576 13.4799523,17.7449576 C13.5807824,17.7449576 13.6816124,17.7146194 13.7695017,17.6556604 L19.7006808,13.6487345 C19.8559698,13.5434095 19.9503295,13.3613806 19.9503295,13.1656137 C19.9503295,12.9698467 19.8559698,12.7878178 19.7006808,12.6824929 Z M14.0191504,16.1301664 L14.0191504,10.2010609 L18.4066053,13.1656137 L14.0191504,16.1301664 Z" id="Shape" fill="#FA5151"></path>
                        <path d="M30.7342913,0 L25.3423104,0 L5.93117903,0 L0.539198094,0 C0.241560746,0 0,0.25587084 0,0.572417986 L0,6.86901583 L0,13.1656137 L0,19.4622115 L0,25.7588094 C0,26.0753565 0.241560746,26.3312274 0.539198094,26.3312274 L5.93117903,26.3312274 L25.3423104,26.3312274 L30.7342913,26.3312274 C31.0319287,26.3312274 31.2734894,26.0753565 31.2734894,25.7588094 L31.2734894,19.4622115 L31.2734894,13.1656137 L31.2734894,6.86901583 L31.2734894,0.572417986 C31.2734894,0.25587084 31.0319287,0 30.7342913,0 Z M5.39198094,12.5931957 L1.07839619,12.5931957 L1.07839619,7.44143382 L5.39198094,7.44143382 L5.39198094,12.5931957 Z M1.07839619,13.7380317 L5.39198094,13.7380317 L5.39198094,18.8897935 L1.07839619,18.8897935 L1.07839619,13.7380317 Z M6.47037713,19.4622115 L6.47037713,13.1656137 L6.47037713,6.86901583 L6.47037713,1.14483597 L24.8031123,1.14483597 L24.8031123,6.86901583 L24.8031123,13.1656137 L24.8031123,19.4622115 L24.8031123,25.1863914 L6.47037713,25.1863914 L6.47037713,19.4622115 Z M30.1950933,12.5931957 L25.8815085,12.5931957 L25.8815085,7.44143382 L30.1950933,7.44143382 L30.1950933,12.5931957 Z M25.8815085,13.7380317 L30.1950933,13.7380317 L30.1950933,18.8897935 L25.8815085,18.8897935 L25.8815085,13.7380317 Z M30.1950933,1.14483597 L30.1950933,6.29659785 L25.8815085,6.29659785 L25.8815085,1.14483597 L30.1950933,1.14483597 Z M1.07839619,1.14483597 L5.39198094,1.14483597 L5.39198094,6.29659785 L1.07839619,6.29659785 L1.07839619,1.14483597 Z M1.07839619,25.1863914 L1.07839619,20.0346295 L5.39198094,20.0346295 L5.39198094,25.1863914 L1.07839619,25.1863914 Z M30.1950933,25.1863914 L25.8815085,25.1863914 L25.8815085,20.0346295 L30.1950933,20.0346295 L30.1950933,25.1863914 Z" id="Shape" fill="#7F7B87"></path>
                    </g>
                    <g id="picture" transform="translate(78.663230, 73.851151) rotate(17.000000) translate(-78.663230, -73.851151) translate(63.663230, 61.351151)" fill-rule="nonzero">
                        <path d="M29.0296571,0 L0.50929223,0 C0.228162919,0 0,0.241679324 0,0.540669628 L0,24.3301332 C0,24.6291236 0.228162919,24.8708029 0.50929223,24.8708029 L29.0296571,24.8708029 C29.3107864,24.8708029 29.5389493,24.6291236 29.5389493,24.3301332 L29.5389493,0.540669628 C29.5389493,0.241679324 29.3107864,0 29.0296571,0 Z M28.5203649,23.7894636 L1.01858446,23.7894636 L1.01858446,1.08133926 L28.5203649,1.08133926 L28.5203649,23.7894636 Z" id="Shape" fill="#7F7B87"></path>
                        <path d="M8.14867568,11.9693442 C9.71271212,11.9693442 10.9849241,10.6187515 10.9849241,8.95889573 C10.9849241,7.29795864 9.71271212,5.94736591 8.14867568,5.94736591 C6.58463924,5.94736591 5.31242725,7.29795864 5.31242725,8.95835506 C5.31242725,10.6187515 6.58463924,11.9693442 8.14867568,11.9693442 Z M8.14867568,7.02870516 C9.15096279,7.02870516 9.96633965,7.8948579 9.96633965,8.95835506 C9.96633965,10.0218522 9.15096279,10.888005 8.14867568,10.888005 C7.14638857,10.888005 6.33101171,10.0223929 6.33101171,8.95889573 C6.33101171,7.89539857 7.14638857,7.02870516 8.14867568,7.02870516 Z" id="Shape" fill="#FA5151"></path>
                        <path d="M3.56504561,21.6267851 C3.68421999,21.6267851 3.80441296,21.5824502 3.90117848,21.4921584 L12.2092626,13.7270612 L17.4559912,19.296499 C17.6551244,19.5079008 17.9769971,19.5079008 18.1761304,19.296499 C18.3752637,19.0850972 18.3752637,18.743394 18.1761304,18.5319922 L15.7279627,15.9329933 L20.4037746,10.4971008 L26.1389144,16.0784334 C26.3461964,16.2801032 26.6685783,16.2649644 26.8585443,16.0449119 C27.0485103,15.8248593 27.0347595,15.4826155 26.8269682,15.2809457 L20.7154615,9.33357978 C20.6156402,9.23679992 20.4827149,9.18868032 20.3487711,9.19192434 C20.2138086,9.19841238 20.0864856,9.26167072 19.9953222,9.36764197 L15.0073141,15.1674051 L12.5917411,12.603009 C12.4012658,12.4013393 12.096709,12.3910665 11.8950293,12.5792196 L3.22840345,20.6800726 C3.01704717,20.877417 2.99667548,21.2191202 3.18256715,21.4434981 C3.28340701,21.5651488 3.42397166,21.6267851 3.56504561,21.6267851 Z" id="Shape" fill="#FA5151"></path>
                    </g>
                    <g id="Group" transform="translate(256.652941, 49.238938)" fill-rule="nonzero">
                        <g id="file-(1)" transform="translate(18.812391, 20.183923) rotate(-21.000000) translate(-18.812391, -20.183923) translate(5.812391, 3.683923)" fill="#7F7B87">
                            <path d="M17.5339654,0 L0.266360294,0 L0.266360294,32.1946903 L25.3042279,32.1946903 L25.3042279,7.8265292 L17.5339654,0 Z M17.8461397,1.83187788 L23.4855199,7.5120944 L17.8461397,7.5120944 L17.8461397,1.83187788 Z M1.33180147,31.1215339 L1.33180147,1.07315634 L16.7806985,1.07315634 L16.7806985,8.58525074 L24.2387868,8.58525074 L24.2387868,31.1215339 L1.33180147,31.1215339 Z" id="Shape"></path>
                        </g>
                        <g id="settings" transform="translate(19.416538, 21.054376) rotate(-20.000000) translate(-19.416538, -21.054376) translate(12.416538, 14.054376)" fill="#FA5151">
                            <path d="M13.0378442,3.53510324 L12.5848367,3.53510324 C12.5360003,2.84840944 12.2633118,2.22402183 11.8377057,1.73352625 L12.0894011,1.48187109 C12.175804,1.39548201 12.175804,1.25584543 12.0894011,1.16945634 C12.0029982,1.08306726 11.8633393,1.08306726 11.7769364,1.16945634 L11.525241,1.4211115 C11.034667,0.995573451 10.4099586,0.722928614 9.72337594,0.6741 L9.72337594,0.220943953 C9.72337594,0.0987619469 9.62437722,0 9.50239665,0 C9.38041608,0 9.28141736,0.0987619469 9.28141736,0.220943953 L9.28141736,0.6741 C8.59461374,0.722928614 7.97012628,0.995573451 7.47955227,1.4211115 L7.22785686,1.16945634 C7.14145396,1.08306726 7.00179505,1.08306726 6.91539215,1.16945634 C6.82898925,1.25584543 6.82898925,1.39548201 6.91539215,1.48187109 L7.16708756,1.73352625 C6.74148145,2.22402183 6.46879301,2.84863038 6.41995659,3.53510324 L5.9665071,3.53510324 C5.84452653,3.53510324 5.74552781,3.63386519 5.74552781,3.7560472 C5.74552781,3.8782292 5.84452653,3.97699115 5.9665071,3.97699115 L6.41973561,3.97699115 C6.46857204,4.66368496 6.74126047,5.28807257 7.16686658,5.77856814 L6.91517117,6.0302233 C6.89042149,6.05496903 6.87473196,6.08457552 6.86434594,6.11550767 C6.60800996,5.88307463 6.32250473,5.6833413 6.01224981,5.52337788 L6.16870314,5.17141416 C6.2182025,5.05983746 6.16804021,4.92925959 6.05644567,4.87976814 C5.94463015,4.83049764 5.81447335,4.88065192 5.76475301,4.99200767 L5.6080787,5.34441327 C5.16921384,5.17737965 4.69543425,5.08171091 4.19867281,5.08171091 C3.76820516,5.08171091 3.35453194,5.15263392 2.96582938,5.2796767 L2.85777051,5.0017292 C2.81357465,4.88794307 2.68518568,4.83138142 2.57182331,4.87601209 C2.45801898,4.91997994 2.40166926,5.04812743 2.44586512,5.16191357 L2.55458693,5.44184956 C1.73917336,5.81391917 1.07181592,6.45178437 0.66278326,7.24585693 L0.310763258,7.08942861 C0.199168718,7.04015811 0.0687909396,7.09031239 0.0190706003,7.20166814 C-0.0304287597,7.31324484 0.0197335382,7.44382271 0.131328077,7.49331416 L0.483790038,7.64974248 C0.316729698,8.08853717 0.221045668,8.562241 0.221045668,9.05870206 C0.221045668,9.48910088 0.291980018,9.90292891 0.419043108,10.2913484 L0.141051166,10.39939 C0.0272468339,10.4435788 -0.029102884,10.5715053 0.0150929732,10.6852914 C0.0491237832,10.7727853 0.132653953,10.8262537 0.221266647,10.8262537 C0.247784161,10.8262537 0.274964613,10.8216139 0.301261148,10.8112295 L0.581241903,10.7025251 C0.953371021,11.5178083 1.59133822,12.1852799 2.38553777,12.5942472 L2.22908444,12.9462109 C2.17958508,13.0577876 2.22974738,13.1883655 2.34134191,13.2378569 C2.3702902,13.2506717 2.40078534,13.2566372 2.43083853,13.2566372 C2.51547359,13.2566372 2.59635201,13.2075876 2.63303457,13.1253965 L2.78970889,12.7729909 C3.22835277,12.9402454 3.70213236,13.0356932 4.19867281,13.0356932 C4.62914046,13.0356932 5.04281368,12.9647702 5.43151625,12.8377274 L5.53957512,13.1156749 C5.57360593,13.2031687 5.6571361,13.2566372 5.74552781,13.2566372 C5.77226631,13.2566372 5.79922578,13.2519973 5.82552231,13.241613 C5.93932665,13.1976451 5.99567636,13.0694976 5.95148051,12.9557115 L5.8427587,12.6757755 C6.65817226,12.3037059 7.32552971,11.6658407 7.73456236,10.8717681 L8.08658237,11.0281965 C8.11575163,11.0412322 8.14624677,11.0471976 8.17629996,11.0471976 C8.26093502,11.0471976 8.34181344,10.9981481 8.378496,10.9159569 C8.42799536,10.8043802 8.37783306,10.6738024 8.26623853,10.6243109 L7.91377656,10.4678826 C8.0808369,10.0290879 8.17629996,9.55538407 8.17629996,9.05870206 C8.17629996,8.62830324 8.10536561,8.21447522 7.97830252,7.82605575 L8.25629446,7.71801416 C8.37009879,7.67382537 8.42644851,7.54589882 8.38225265,7.43211268 C8.33827777,7.31832655 8.2109937,7.26154395 8.09630545,7.30639558 L7.8163247,7.4151 C7.64484477,7.03927434 7.41657317,6.69592743 7.14233788,6.39367611 C7.17327498,6.3830708 7.2028862,6.36738378 7.22763588,6.342859 L7.47933129,6.09120383 C7.9699053,6.51674189 8.59461374,6.78938673 9.28119639,6.83821534 L9.28119639,7.29115044 C9.28119639,7.41333245 9.38019511,7.5120944 9.50217567,7.5120944 C9.62415624,7.5120944 9.72315496,7.41333245 9.72315496,7.29115044 L9.72315496,6.8379944 C10.4099586,6.78916578 11.034446,6.51652094 11.5250201,6.09098289 L11.7897532,6.35567375 C11.8328442,6.39875782 11.8894149,6.42041032 11.9459856,6.42041032 C12.0025563,6.42041032 12.059127,6.39875782 12.1022179,6.35567375 C12.1886208,6.26928466 12.1886208,6.12964808 12.1022179,6.043259 L11.8374848,5.77856814 C12.2630909,5.28807257 12.5357793,4.66346401 12.5846157,3.97699115 L13.0378442,3.97699115 C13.1598248,3.97699115 13.2588235,3.8782292 13.2588235,3.7560472 C13.2588235,3.63386519 13.1600458,3.53510324 13.0378442,3.53510324 Z M4.19867281,5.52359882 C4.63157123,5.52359882 5.04458152,5.60556903 5.42842254,5.74851976 L4.34341424,8.18950855 C4.29612468,8.18177552 4.24817217,8.17492625 4.19867281,8.17492625 C3.71119251,8.17492625 3.31475567,8.57129971 3.31475567,9.05870206 C3.31475567,9.09383215 3.32116407,9.12719469 3.3251417,9.161441 L0.830506538,10.131385 C0.722447667,9.79289882 0.663004239,9.43276018 0.663004239,9.05870206 C0.663004239,7.10953451 2.24919355,5.52359882 4.19867281,5.52359882 Z M3.78853526,9.22043304 C3.78831428,9.21977021 3.78853526,9.21910737 3.7880933,9.21844454 C3.78787232,9.2182236 3.78765134,9.21800265 3.78743036,9.21756077 C3.76842614,9.16806932 3.75671424,9.11482183 3.75671424,9.05870206 C3.75671424,8.81500088 3.95493266,8.61681416 4.19867281,8.61681416 C4.26032603,8.61681416 4.31888554,8.62962891 4.37236253,8.65260708 C4.37435134,8.65349086 4.37567722,8.65547935 4.37766603,8.65636313 C4.37854995,8.65680501 4.37943387,8.65658407 4.38031778,8.65680501 C4.53345643,8.72640236 4.64063138,8.87995841 4.64063138,9.05870206 C4.64063138,9.30240324 4.44241296,9.50058997 4.19867281,9.50058997 C4.01216629,9.50058997 3.85328219,9.38415251 3.78853526,9.22043304 Z M0.99381023,10.5418988 L3.48358384,9.57372242 C3.64423578,9.79621298 3.90410742,9.94247788 4.19867281,9.94247788 C4.23380852,9.94247788 4.26717639,9.9360705 4.30142818,9.93209351 L5.27152724,12.4263298 C4.93298698,12.5343714 4.57279074,12.5938053 4.19867281,12.5938053 C2.77932286,12.5938053 1.55598153,11.751346 0.99381023,10.5418988 Z M5.68232774,12.2632732 L4.71399651,9.77389764 C4.93630167,9.61305044 5.08258996,9.3534413 5.08258996,9.05870206 C5.08258996,8.77920796 4.94956042,8.53263451 4.74648046,8.37046165 L5.83281463,5.92682153 C6.96135584,6.51806755 7.73434138,7.69901298 7.73434138,9.05870206 C7.73434138,10.4778251 6.89196835,11.7009708 5.68232774,12.2632732 Z M9.50217567,6.40737463 C8.03995574,6.40737463 6.85042424,5.21803333 6.85042424,3.7560472 C6.85042424,2.29406106 8.04017672,1.10471976 9.50217567,1.10471976 C10.9641746,1.10471976 12.1539271,2.29406106 12.1539271,3.7560472 C12.1539271,5.21803333 10.9643956,6.40737463 9.50217567,6.40737463 Z" id="Shape"></path>
                            <path d="M9.35916955,3.11920875 C8.92903772,3.11920875 8.57923875,3.46895003 8.57923875,3.89901093 C8.57923875,4.32907184 8.92903772,4.67881312 9.35916955,4.67881312 C9.78930138,4.67881312 10.1391003,4.32907184 10.1391003,3.89901093 C10.1391003,3.46895003 9.78930138,3.11920875 9.35916955,3.11920875 Z M9.35916955,4.28891202 C9.14410363,4.28891202 8.96920415,4.11404138 8.96920415,3.89901093 C8.96920415,3.68398048 9.14410363,3.50910984 9.35916955,3.50910984 C9.57423547,3.50910984 9.74913495,3.68398048 9.74913495,3.89901093 C9.74913495,4.11404138 9.57423547,4.28891202 9.35916955,4.28891202 Z" id="Shape"></path>
                        </g>
                    </g>
                </g>
            </g>
        </g>
    </g>
</svg>