<?xml version="1.0" encoding="UTF-8"?>
<svg width="153px" height="164px" viewBox="0 0 153 164" version="1.1" xmlns="http://www.w3.org/2000/svg" xmlns:xlink="http://www.w3.org/1999/xlink">
    <!-- Generator: Sketch 49.3 (51167) - http://www.bohemiancoding.com/sketch -->
    <title>rocket (2)</title>
    <desc>Created with Sketch.</desc>
    <defs></defs>
    <g id="Page-1" stroke="none" stroke-width="1" fill="none" fill-rule="evenodd">
        <g id="Custom-Preset-Copy-27" transform="translate(-399.000000, -309.000000)" fill-rule="nonzero">
            <g id="rocket-(2)" transform="translate(399.000000, 309.000000)">
                <path d="M88.9314072,100.545335 C88.5361045,99.9678261 87.7382256,99.8294513 87.1724684,100.224356 C86.5965914,100.619262 86.4533337,101.409072 86.8511663,101.981526 C86.9229533,102.085149 93.624757,112.202934 78.8002737,128.145094 C77.8566071,124.142336 75.6087579,116.53678 71.8144846,114.715162 C71.1867439,114.414086 70.4309252,114.675671 70.1244865,115.30752 C69.8231078,115.934629 70.0874862,116.689687 70.7174406,116.995502 C73.5535002,118.353028 75.9594705,126.284302 76.8092131,130.963769 C76.8930173,131.42723 77.2266527,131.802547 77.6763491,131.945661 C77.7996835,131.980413 77.9283941,132 78.0542585,132 C78.385364,132 78.7063498,131.871735 78.9489075,131.630369 C97.3725427,113.240112 89.2846497,101.053657 88.9314072,100.545335 Z" id="Shape" fill="#7F7B87"></path>
                <path d="M65.4545602,76.0950715 C64.9486145,75.7343333 52.7642286,67.5438116 34.3698484,86.2233187 C34.0369728,86.5590458 33.9185398,87.055101 34.0565537,87.5107534 C34.1970942,87.9667266 34.5745006,88.3072635 35.0384421,88.392558 C38.2702415,88.9886579 47.0627066,91.2229904 48.9055239,94.3737584 C49.1423899,94.7745787 49.5621164,95 49.9913176,95 C50.2108134,95 50.4353623,94.9397166 50.637488,94.8194706 C51.2372326,94.4587323 51.4346209,93.6724833 51.0767954,93.0613125 C48.9674249,89.4542508 41.7218526,87.2955931 37.8536732,86.3737065 C53.6671617,71.4388226 63.5896354,77.9061378 64.0238897,78.2091579 C64.5964737,78.6026031 65.380658,78.4621557 65.7754347,77.8785614 C66.172422,77.2975323 66.029355,76.498457 65.4545602,76.0950715 Z" id="Shape" fill="#7F7B87"></path>
                <path d="M43.4870087,122.461384 C41.5316639,120.513732 38.1244423,120.513732 36.1694209,122.45623 C36.0051551,122.622454 20.4429125,139.587904 23.3654207,142.501651 C23.5953281,142.728115 24.0043757,143 24.6559418,143 C28.4602467,143 43.3502283,129.879923 43.4844218,129.74398 C44.4619326,128.772409 45,127.479021 45,126.099944 C45,124.721189 44.4619326,123.432633 43.4870087,122.461384 Z M41.6555099,127.921962 C39.7865016,129.784248 29.9454292,137.740759 25.9849425,139.89007 C28.1420626,135.94419 36.1290011,126.140211 37.9980094,124.278248 C38.485633,123.79504 39.1342889,123.528309 39.826598,123.528309 C40.5189071,123.528309 41.1678863,123.79504 41.6580968,124.283402 C42.1457204,124.766611 42.4134607,125.410889 42.4134607,126.100266 C42.4134607,126.789644 42.1457204,127.439076 41.6555099,127.921962 Z" id="Shape" fill="#F95151"></path>
                <path d="M49.2127608,116.793848 C46.7672353,114.345348 43.514845,113 40.0571769,113 C36.5995087,113 33.3497087,114.345348 30.9064496,116.793848 C28.5315086,119.166581 23.6650649,125.904652 19.9470761,132.652437 C14.9747557,141.671933 13.7657537,147.266701 16.2520758,149.755675 C17.0793388,150.580044 18.2727993,151 19.7978126,151 C27.8483285,151 45.2519354,139.071898 49.2202078,135.106118 C54.2637602,130.057584 54.2585797,121.842382 49.2127608,116.793848 Z M47.3892205,133.275085 C43.2363924,137.42316 26.5839598,148.410327 19.7978126,148.410327 C18.9835008,148.410327 18.4068451,148.248432 18.0830631,147.924642 C17.0136111,146.852249 17.453307,142.5371 22.2158167,133.902267 C25.708777,127.558896 30.4764671,120.881697 32.7374369,118.625204 C34.6924327,116.66757 37.289812,115.59032 40.0568531,115.59032 C42.8238941,115.59032 45.4238637,116.66757 47.3817735,118.625528 C51.4180401,122.662543 51.4232206,129.238395 47.3892205,133.275085 Z" id="Shape" fill="#F95151"></path>
                <path d="M144.476891,20.1502259 C141.921668,17.539796 135.833544,17.6637017 130.996543,18.6491236 C124.340909,20.0059389 118.135729,23.2181038 113.972825,27.4661588 L44,98.8309582 L45.7938903,100.660427 L115.767033,29.2956273 C119.585434,25.401496 125.317001,22.4445832 131.492044,21.1861159 C137.188716,20.0237322 141.433464,20.706022 142.682367,21.9796944 C144.003279,23.3268044 145.016486,27.2714037 144.122237,32.745251 C143.544893,36.2828705 141.656471,43.1568839 135.506171,49.4291624 L65.5333455,120.791374 C65.0378448,121.296702 65.0378448,122.115514 65.5333455,122.620842 C65.7807787,122.873506 66.105614,123 66.4301321,123 C66.7549674,123 67.0794855,122.87383 67.3275531,122.621166 L137.300378,51.2589544 C148.803482,39.5280337 148.481184,24.233936 144.476891,20.1502259 Z" id="Shape" fill="#7F7B87"></path>
                <path d="M141.618986,24.2217627 C139.002135,22.0952613 130.800976,22.5685785 121.629639,27.042164 C121.014942,27.3425992 120.816873,27.9911702 121.185041,28.4892602 C121.428968,28.8186847 121.860882,29 122.300601,29 C122.529242,29 122.760485,28.9504545 122.970913,28.8495189 C132.170546,24.3617023 138.628763,24.7817845 139.779775,25.7123429 C140.287794,26.1239919 141.110967,26.1239919 141.618986,25.7123429 C142.127005,25.3004305 142.127005,24.6334116 141.618986,24.2217627 Z" id="Shape" fill="#7F7B87"></path>
                <path d="M77.629277,88.3707596 C77.1352962,87.8764135 76.334041,87.8764135 75.8397437,88.3707596 L54.370723,109.839372 C53.8764257,110.333718 53.8764257,111.135052 54.370723,111.629399 C54.6178716,111.876255 54.941918,112 55.2656479,112 C55.5893778,112 55.9131077,111.876572 56.1602563,111.629399 L77.629277,90.16047 C78.1235743,89.6664403 78.1235743,88.8651058 77.629277,88.3707596 Z" id="Shape" fill="#7F7B87"></path>
                <path d="M52.6174069,106.770448 L45.2294252,99.3825868 C44.7193011,98.8724711 43.8927172,98.8724711 43.3825931,99.3825868 C42.872469,99.892376 42.872469,100.719273 43.3825931,101.229389 L50.7705748,108.61725 C51.0256368,108.872308 51.3597322,109 51.6938276,109 C52.0279229,109 52.3620183,108.872308 52.6174069,108.61725 C53.127531,108.107134 53.127531,107.280564 52.6174069,106.770448 Z" id="Shape" fill="#7F7B87"></path>
                <path d="M67.6176067,120.771612 L60.2282609,113.382387 C59.7184032,112.872538 58.8922509,112.872538 58.3823933,113.382387 C57.8725356,113.89191 57.8725356,114.718375 58.3823933,115.228225 L65.7717391,122.61745 C66.0263416,122.872374 66.3605888,123 66.6945097,123 C67.028757,123 67.3626779,122.872701 67.6176067,122.61745 C68.1274644,122.1076 68.1274644,121.281462 67.6176067,120.771612 Z" id="Shape" fill="#7F7B87"></path>
                <path d="M115.363964,49.561233 C111.964214,46.1458252 106.035786,46.1458252 102.636357,49.5638165 C100.936643,51.2715204 100,53.5421078 100,55.9586638 C100,58.3729592 100.936643,60.6432237 102.636357,62.3512505 C104.336071,64.0589544 106.593464,65 108.998714,65 C111.401393,65 113.663607,64.0563709 115.363964,62.348667 C117.063679,60.6406402 118,58.3700528 118,55.9534968 C118,53.5392013 117.063679,51.2689369 115.363964,49.561233 Z M113.545964,60.5217984 C111.115643,62.9638667 106.879857,62.9612832 104.454357,60.524382 C103.239036,59.3033478 102.571429,57.6815458 102.571429,55.9583409 C102.571429,54.2331982 103.239036,52.6110733 104.454357,51.3900392 C105.669679,50.169328 107.283893,49.4956763 109.001286,49.4956763 C110.718357,49.4956763 112.330643,50.1670674 113.545964,51.3871327 C114.761286,52.6084898 115.429214,54.2302918 115.429214,55.9531738 C115.429214,57.6789623 114.761286,59.3007643 113.545964,60.5217984 Z" id="Shape" fill="#F95151"></path>
                <path d="M98.3633133,68.560837 C94.9631382,65.1438036 89.0320397,65.1489726 85.6366867,68.560837 C83.93676,70.2666077 83,72.5380611 83,74.9555387 C83,77.3707549 83.93676,79.6418852 85.6366867,81.3502403 C87.3343632,83.0589186 89.5942886,84 92.0001607,84 C94.4031397,84 96.6633865,83.0589186 98.3633133,81.3502403 C100.06324,79.6418852 101,77.3704318 101,74.9555387 C101,72.5406456 100.06324,70.2695153 98.3633133,68.560837 Z M96.545086,79.5233212 C94.111889,81.9685822 89.877824,81.9637363 87.454914,79.5233212 C86.2394406,78.3018214 85.5714286,76.6790778 85.5714286,74.9555387 C85.5714286,73.229092 86.2394406,71.6063484 87.454914,70.3877562 C88.6678156,69.1662564 90.2822317,68.4949323 92.0001607,68.4949323 C93.7151965,68.4949323 95.3296126,69.1662564 96.545086,70.3877562 C97.7602379,71.609256 98.42825,73.2319996 98.42825,74.9555387 C98.42825,76.6790778 97.7602379,78.3018214 96.545086,79.5233212 Z" id="Shape" fill="#F95151"></path>
                <path d="M139.004976,125 L138.983578,125 C138.435432,125 138,125.449306 138,125.999875 C138,126.554694 138.45484,127 139.004976,127 C139.553123,127 140,126.554694 140,125.999875 C140,125.449306 139.553123,125 139.004976,125 Z" id="Shape" fill="#7F7B87"></path>
                <path d="M39.0047275,0 L38.9833292,0 C38.4354317,0 38,0.447305913 38,0.999874984 C38,1.55269409 38.4548395,2 39.0047275,2 C39.5528738,2 40,1.55269409 40,0.999874984 C40,0.447305913 39.5528738,0 39.0047275,0 Z" id="Shape" fill="#7F7B87"></path>
                <path d="M96.0049764,6 L95.983578,6 C95.4354317,6 95,6.44730591 95,6.99987498 C95,7.55269409 95.4548395,8 96.0049764,8 C96.5531227,8 97,7.55269409 97,6.99987498 C97,6.44730591 96.5531227,6 96.0049764,6 Z" id="Shape" fill="#7F7B87"></path>
                <path d="M1.00472754,35 L0.983329186,35 C0.435431699,35 0,35.4473059 0,35.999875 C0,36.5526941 0.454590694,37 1.00472754,37 C1.55287385,37 2,36.5526941 2,35.999875 C2,35.4473059 1.55287385,35 1.00472754,35 Z" id="Shape" fill="#7F7B87"></path>
                <path d="M22.0049764,105 L21.983578,105 C21.4354317,105 21,105.445306 21,106.000125 C21,106.550694 21.4548395,107 22.0049764,107 C22.5528738,107 23,106.550694 23,106.000125 C23,105.445306 22.5528738,105 22.0049764,105 Z" id="Shape" fill="#7F7B87"></path>
                <path d="M85.0048513,158 L84.9834557,158 C84.4353775,158 84,158.445306 84,158.999875 C84,159.550694 84.4547829,160 85.0048513,160 C85.5531783,160 86,159.550694 86,158.999875 C86,158.445306 85.5529295,158 85.0048513,158 Z" id="Shape" fill="#7F7B87"></path>
                <path d="M147.004728,162 L146.983329,162 C146.435432,162 146,162.449056 146,162.999875 C146,163.554694 146.45484,164 147.004728,164 C147.552874,164 148,163.554694 148,162.999875 C148,162.449056 147.552874,162 147.004728,162 Z" id="Shape" fill="#7F7B87"></path>
                <path d="M119.004728,92 L118.983329,92 C118.435183,92 118,92.4451113 118,93 C118,93.5508877 118.454591,94 119.004728,94 C119.552874,94 120,93.5508877 120,93 C120,92.4451113 119.552874,92 119.004728,92 Z" id="Shape" fill="#7F7B87"></path>
                <path d="M148.004976,82 L147.983578,82 C147.435432,82 147,82.4473059 147,82.999875 C147,83.5526941 147.45484,84 148.004976,84 C148.552874,84 149,83.5526941 149,82.999875 C149,82.4473059 148.552874,82 148.004976,82 Z" id="Shape" fill="#7F7B87"></path>
                <path d="M133.004976,117 L132.983578,117 C132.435432,117 132,117.449306 132,117.999875 C132,118.554694 132.45484,119 133.004976,119 C133.553123,119 134,118.554444 134,117.999875 C134,117.449306 133.553123,117 133.004976,117 Z" id="Shape" fill="#7F7B87"></path>
                <path d="M140,108 C132.834804,108 127.0026,113.828511 127,120.997563 C127.0026,128.161415 132.834804,133.9948 140.0026,134 C147.170396,133.9948 153,128.161415 153,120.997563 C153,113.828836 147.167796,108 140,108 Z M140.0026,131.400812 C134.269534,131.395613 129.602925,126.729879 129.600325,120.997563 C129.602925,115.265246 134.266933,110.599513 140,110.599513 C145.735992,110.599513 150.4,115.260371 150.4,120.997563 C150.4,126.729879 145.735992,131.395613 140.0026,131.400812 Z" id="Shape" fill="#7F7B87"></path>
                <path d="M143.498973,113 C141.570467,113 140,114.567613 140,116.500146 C140.002334,118.427428 141.575136,120 143.505976,120 C144.442362,120 145.322431,119.635371 145.983358,118.969996 C146.64195,118.308997 147.002323,117.429804 146.999989,116.500146 C146.999989,114.57228 145.429521,113 143.498973,113 Z M144.32856,117.324791 C144.10971,117.543568 143.818202,117.666667 143.505976,117.666667 L143.501307,117.666667 C142.847092,117.666667 142.336442,117.151519 142.334108,116.495479 C142.334108,115.852857 142.856138,115.333333 143.496639,115.333333 C144.141517,115.333333 144.665881,115.857524 144.665881,116.504521 C144.665881,116.81431 144.54741,117.106013 144.32856,117.324791 Z" id="Shape" fill="#7F7B87"></path>
                <path d="M108.996007,137.29935 C108.996007,136.583554 108.549595,136 107.997879,136 C107.446413,136 107,136.583554 107,137.29935 L107.003993,147.70065 C107.003993,148.416121 107.450405,149 108.001871,149 C108.553587,149 109,148.416121 109,147.70065 L108.996007,137.29935 Z" id="Shape" fill="#7F7B87"></path>
                <path d="M110.833479,141 L106.166813,141 C105.521857,141 105,141.445306 105,142.000125 C105,142.550694 105.521857,143 106.166813,143 L110.833479,143 C111.478143,143 112,142.550694 112,142.000125 C112,141.445306 111.478143,141 110.833479,141 Z" id="Shape" fill="#7F7B87"></path>
                <path d="M57.000125,146 C56.4473059,146 56,146.578897 56,147.300163 L56,157.699837 C56,158.415902 56.4473059,159 57.000125,159 C57.5529441,159 58,158.415902 58,157.699837 L58,147.300163 C58,146.578897 57.5529441,146 57.000125,146 Z" id="Shape" fill="#7F7B87"></path>
                <path d="M58.8330902,151 L54.1672016,151 C53.5220309,151 53,151.445306 53,151.999875 C53,152.550694 53.5220309,153 54.1672016,153 L58.8330902,153 C59.4782609,153 60,152.550694 60,151.999875 C60,151.445306 59.4782609,151 58.8330902,151 Z" id="Shape" fill="#7F7B87"></path>
                <path d="M27.001124,18 C26.4488572,18 26.0019983,18.5814977 26.0019983,19.2998375 L26,29.6998375 C26,30.4185023 26.446859,31 26.9991258,31 C27.5511428,31 27.9980017,30.4188274 27.9980017,29.6998375 L28,19.2998375 C28,18.5814977 27.553141,18 27.001124,18 Z" id="Shape" fill="#7F7B87"></path>
                <path d="M28.8334792,24 L24.1668125,24 C23.5218569,24 23,24.4473059 23,24.999875 C23,25.5526941 23.5218569,26 24.1668125,26 L28.8334792,26 C29.4781431,26 30,25.5526941 30,24.999875 C30,24.4473059 29.4781431,24 28.8334792,24 Z" id="Shape" fill="#7F7B87"></path>
                <path d="M78.0008742,10 C77.4488572,10 77.0019983,10.5814977 77.0019983,11.3001625 L77,21.7001625 C77,22.4185023 77.446859,23 77.998876,23 C78.5511428,23 78.9980017,22.4188274 78.9980017,21.7001625 L79,11.3001625 C79,10.5814977 78.553141,10 78.0008742,10 Z" id="Shape" fill="#7F7B87"></path>
                <path d="M80.8327984,15 L76.1669098,15 C75.5220309,15 75,15.4473059 75,16.000125 C75,16.5526941 75.5220309,17 76.1669098,17 L80.8327984,17 C81.4779691,17 82,16.5529441 82,16.000125 C82,15.4473059 81.4779691,15 80.8327984,15 Z" id="Shape" fill="#7F7B87"></path>
                <path d="M8.00187149,69 C7.45015596,69 7.00399251,69.5818082 7.00399251,70.30013 L7,80.69987 C7,81.4185169 7.44616344,82 7.99787898,82 C8.54959451,82 8.99600749,81.4185169 8.99600749,80.69987 L9,70.30013 C9,69.5814831 8.55358702,69 8.00187149,69 Z" id="Shape" fill="#7F7B87"></path>
                <path d="M10.8334306,74 L6.16656943,74 C5.52158693,74 5,74.44725 5,75 C5,75.55275 5.52158693,76 6.16656943,76 L10.8334306,76 C11.4784131,76 12,75.55275 12,75 C12,74.44725 11.4784131,74 10.8334306,74 Z" id="Shape" fill="#7F7B87"></path>
                <path d="M58.3610714,37.5630535 C54.9616429,34.1439266 49.0409286,34.1465107 45.6363571,37.5656377 C43.9363214,39.2711635 43,41.5419677 43,43.9568371 C43.0025714,46.3713836 43.9388929,48.6421878 45.6389286,50.3506207 C47.3412143,52.0587307 49.6008571,53 52.0012857,53 C54.4042857,53 56.6639286,52.0590537 58.3610714,50.3506207 C60.0636786,48.6425108 61,46.3717066 61,43.9568371 C61,41.5419677 60.0636786,39.2711635 58.3610714,37.5630535 Z M56.5437143,48.5239639 C54.1182143,50.9666127 49.8875714,50.9666127 47.4569286,48.5239639 C46.2416071,47.3026394 45.574,45.6801288 45.5714286,43.9568371 C45.5714286,42.2335455 46.2390357,40.6110348 47.4543571,39.3922945 C48.6693571,38.1709701 50.2838929,37.4974812 52.0012857,37.4974812 C53.7161071,37.4974812 55.3283929,38.168386 56.5437143,39.3897104 C57.7590357,40.6110348 58.4292143,42.2335455 58.4292143,43.9568371 C58.4292143,45.6804518 57.7590357,47.3029624 56.5437143,48.5239639 Z" id="Shape" fill="#7F7B87"></path>
                <path d="M60.4182555,36.3693356 C59.925763,35.8768881 59.1274333,35.8768881 58.6349408,36.3693356 C58.1966792,36.805035 58.1500154,37.4847513 58.4870669,37.9749919 C58.4400878,38.7852288 56.9181536,41.6541611 53.283105,45.2891928 C49.6499482,48.9191803 46.7832762,50.4412907 45.9754876,50.4879503 C45.4852022,50.1506143 44.8079462,50.1975891 44.3693694,50.6358107 C43.8768769,51.1282581 43.8768769,51.9265149 44.3693694,52.4189624 C44.775786,52.8250267 45.2928716,53 45.8768,53 C48.9528286,53 53.9401821,48.1978488 55.0661044,47.0723446 C56.4057975,45.7324586 62.964902,38.9157495 60.4182555,36.3693356 Z" id="Shape" fill="#7F7B87"></path>
                <path d="M135.618936,49.7790823 L117.220516,31.3810494 C116.71243,30.8729835 115.88915,30.8729835 115.381064,31.3810494 C114.872979,31.8894405 114.872979,32.7126893 115.381064,33.2207551 L133.779484,51.618788 C134.033527,51.8728209 134.366612,52 134.699373,52 C135.032458,52 135.364893,51.8731462 135.618936,51.6184627 C136.127021,51.1103969 136.127021,50.2871481 135.618936,49.7790823 Z" id="Shape" fill="#7F7B87"></path>
                <path d="M61.6312827,119.615068 C61.2082728,119.192031 60.5545588,119.133486 60.0676568,119.442894 C59.7283676,119.423064 57.8106598,119.354132 52.7288758,114.269823 C47.639538,109.180163 47.5413393,107.232746 47.5608532,106.93278 C47.8705568,106.445847 47.8142185,105.796499 47.3886907,105.368741 C46.8970676,104.877086 46.1004619,104.877086 45.6088388,105.368741 C44.6104851,106.367158 43.9788029,109.081643 50.9490239,116.049788 C55.6619332,120.765513 58.4275493,122 60.0333502,122 C60.8050915,122 61.3089894,121.714828 61.6312827,121.395347 C62.1229058,120.903693 62.1229058,120.106722 61.6312827,119.615068 Z" id="Shape" fill="#7F7B87"></path>
                <path d="M93.6374375,72.0015612 C92.2305153,70.6661463 89.7694847,70.6661463 88.3625625,72.0015612 C87.8791458,72.4611407 87.8791458,73.2020296 88.3625625,73.6569254 C88.8456698,74.114163 89.6292877,74.114163 90.1127044,73.6569254 C90.5911693,73.2043714 91.4085212,73.2043714 91.8869861,73.6569254 C92.1286945,73.8855442 92.4456079,74 92.7622118,74 C93.0791252,74 93.3954196,73.8855442 93.6374375,73.6569254 C94.1208542,73.2020296 94.1208542,72.4611407 93.6374375,72.0015612 Z" id="Shape" fill="#7F7B87"></path>
                <path d="M112.637456,53.0219223 C111.182329,51.6593592 108.817671,51.6593592 107.362544,53.0219223 C106.879152,53.4744682 106.879152,54.2080446 107.362544,54.6605906 C107.845936,55.1131365 108.629204,55.1131365 109.112595,54.6605906 C109.600939,54.2034091 110.398752,54.2034091 110.887095,54.6605906 C111.128791,54.8865738 111.445688,54.9998551 111.761966,54.9998551 C112.078554,54.9998551 112.395451,54.8865738 112.637456,54.6605906 C113.120848,54.2077549 113.120848,53.4744682 112.637456,53.0219223 Z" id="Shape" fill="#7F7B87"></path>
            </g>
        </g>
    </g>
</svg>