<svg xmlns="http://www.w3.org/2000/svg" xmlns:xlink="http://www.w3.org/1999/xlink" width="280" height="160" viewBox="0 0 280 160">
  <defs>
    <clipPath id="clip-bbc-mundo">
      <rect width="280" height="160"/>
    </clipPath>
  </defs>
  <g id="bbc-mundo" clip-path="url(#clip-bbc-mundo)">
    <rect width="280" height="160" fill="#9d0a0e"/>
    <g id="BBC_News" transform="translate(-140.381 -261.918)">
      <g id="g3444" transform="translate(146.128 215.091)">
        <path id="rect3442" d="M0,0H211.372V159.052H0Z" transform="translate(28.368 47.776)" fill="#9d0a0e"/>
        <g id="g3414" transform="translate(79.152 83.044)">
          <path id="path2436" d="M61.167,14.369a2.692,2.692,0,0,1-.908,2.1A5.575,5.575,0,0,1,56.5,17.513H52.616V11.292h3.707a6.458,6.458,0,0,1,3.725.9,2.543,2.543,0,0,1,1.119,2.179" transform="translate(-0.957 6.159)" fill="#fff"/>
          <path id="path2438" d="M58.024,11.919A2.661,2.661,0,0,0,59.1,9.559a2.4,2.4,0,0,0-.765-1.892,4.378,4.378,0,0,0-2.974-.83H52.616v5.9H54.5a6.1,6.1,0,0,0,3.525-.814" transform="translate(-0.957 1.16)" fill="#fff"/>
          <path id="path2440" d="M72.177,24.053c.01-2.876-1.9-5.062-4.97-5.9a5.608,5.608,0,0,0,1.962-1.569,4.944,4.944,0,0,0,.942-3.088,5.5,5.5,0,0,0-1.832-4.126,8.35,8.35,0,0,0-5.751-1.862H55.359V30.3h8.414a9.464,9.464,0,0,0,6.465-2.02,5.62,5.62,0,0,0,1.939-4.229M80.168,34.72H46.534V3.069H80.168Z" transform="translate(-7.782 -3.069)" fill="#fff"/>
          <path id="path2442" d="M39.762,11.919a2.669,2.669,0,0,0,1.077-2.36,2.4,2.4,0,0,0-.765-1.892,4.386,4.386,0,0,0-2.977-.83H34.355v5.9h1.883a6.1,6.1,0,0,0,3.524-.814" transform="translate(-21.449 1.16)" fill="#fff"/>
          <path id="path2444" d="M41.785,12.19a6.453,6.453,0,0,0-3.724-.9H34.355v6.221h3.879A5.573,5.573,0,0,0,42,16.472a2.688,2.688,0,0,0,.908-2.1,2.543,2.543,0,0,0-1.119-2.179" transform="translate(-21.449 6.159)" fill="#fff"/>
          <path id="path2446" d="M53.915,24.053c.01-2.876-1.908-5.062-4.969-5.9A5.6,5.6,0,0,0,50.9,16.583a4.946,4.946,0,0,0,.945-3.088,5.514,5.514,0,0,0-1.833-4.126,8.344,8.344,0,0,0-5.75-1.862H37.1V30.3H45.51a9.461,9.461,0,0,0,6.465-2.02,5.621,5.621,0,0,0,1.94-4.229M61.907,34.72H28.274V3.069H61.907Z" transform="translate(-28.274 -3.069)" fill="#fff"/>
          <path id="path2448" d="M91.75,24.2l-.54.33a15.7,15.7,0,0,1-8.01,2.442c-5.508-.021-9.135-3.285-9.149-8.034.006-4.647,3.794-8.087,9.009-8.1a15.814,15.814,0,0,1,7.923,2.256l.525.288V9.141l-.226-.089A21.822,21.822,0,0,0,83.1,7.215a13.939,13.939,0,0,0-9.479,3.394,11.442,11.442,0,0,0-3.754,8.62,11.15,11.15,0,0,0,3.13,7.489,13.183,13.183,0,0,0,9.9,3.881H82.9a18.411,18.411,0,0,0,8.647-1.982l.2-.1V24.2Zm6.679,10.52H64.8V3.069H98.429V34.72Z" transform="translate(12.711 -3.069)" fill="#fff"/>
        </g>
        <g id="g3431" transform="translate(58.322 131.804)">
          <path id="path2418" d="M51.427,51.017h5.084V88.39h-4.6L26.921,59.605V88.39H21.892V51.017h4.333l25.2,29.028V51.017Z" transform="translate(-21.892 -50.533)" fill="#fff"/>
          <path id="path2420" d="M42.749,51.017H63.938v4.76H48.1v11.4H63.4v4.789H48.1V83.576H64.446v4.762h-21.7V51.017Z" transform="translate(1.513 -50.533)" fill="#fff"/>
          <path id="path2422" d="M107,51.017h5.336L97.222,88.552H96.046L83.826,58.158,71.479,88.552H70.33L55.267,51.017h5.39l10.3,25.763,10.37-25.763h5.059L96.8,76.779,107,51.017Z" transform="translate(15.56 -50.533)" fill="#fff"/>
          <path id="path2424" d="M94.875,72.987l-4.066-2.471a18.465,18.465,0,0,1-5.445-4.6,8.716,8.716,0,0,1-1.62-5.2,9.185,9.185,0,0,1,3.065-7.169,11.444,11.444,0,0,1,7.96-2.757,15.077,15.077,0,0,1,8.589,2.629v6.074a12.386,12.386,0,0,0-8.7-3.886,7.2,7.2,0,0,0-4.309,1.214,3.68,3.68,0,0,0-1.686,3.1,4.783,4.783,0,0,0,1.242,3.144A15.553,15.553,0,0,0,93.9,66.143l4.087,2.419q6.838,4.086,6.837,10.4a9.534,9.534,0,0,1-3.009,7.3,11.013,11.013,0,0,1-7.827,2.807,16.43,16.43,0,0,1-10.085-3.4v-6.8q4.331,5.493,10.032,5.492a6.3,6.3,0,0,0,4.187-1.4A4.385,4.385,0,0,0,99.8,79.46q0-3.411-4.924-6.474" transform="translate(47.517 -50.789)" fill="#fff"/>
        </g>
      </g>
    </g>
  </g>
</svg>
