<svg xmlns="http://www.w3.org/2000/svg" xmlns:xlink="http://www.w3.org/1999/xlink" width="280" height="160" viewBox="0 0 280 160">
  <defs>
    <clipPath id="clip-huffpost">
      <rect width="280" height="160"/>
    </clipPath>
  </defs>
  <g id="huffpost" clip-path="url(#clip-huffpost)">
    <rect width="280" height="160"/>
    <g id="Layer_1" transform="translate(20 63.1)">
      <g id="Group_496" data-name="Group 496" transform="translate(0 2.9)">
        <g id="Group_489" data-name="Group 489" transform="translate(14.724 0.602)">
          <path id="Path_515" data-name="Path 515" d="M60.43,31.7h8.8l4.718-27h-8.8l-1.74,9.671H55.779L57.519,4.7h-8.8L44,31.7h8.8L54.574,21.6H62.2Z" transform="translate(-44 -4.7)" fill="#fff"/>
        </g>
        <g id="Group_490" data-name="Group 490" transform="translate(46.647 0.535)">
          <path id="Path_516" data-name="Path 516" d="M142.412,4.533l-2.677,15.025a17.256,17.256,0,0,0-.335,3.38c0,7.964,6.96,9.169,11.143,9.169,8.767,0,12.548-2.911,13.92-10.775L167.408,4.5h-8.8L156.1,18.621c-.8,4.417-1.372,6.726-4.651,6.726-2.142,0-3.179-1.138-3.179-3.48a18.157,18.157,0,0,1,.4-3.38L151.212,4.5h-8.8Z" transform="translate(-139.4 -4.5)" fill="#fff"/>
        </g>
        <g id="Group_491" data-name="Group 491" transform="translate(121.168 0.569)">
          <path id="Path_517" data-name="Path 517" d="M362.1,31.638h8.8l1.238-6.96h4.149c7.663,0,11.913-4.149,11.913-11.712,0-5.321-3.681-8.366-10.139-8.366H366.818Zm13.72-13.619h-2.543l1.171-6.358h2.376c1.941,0,2.978.97,2.978,2.744C379.8,16.647,378.3,18.018,375.82,18.018Z" transform="translate(-362.1 -4.6)" fill="#fff"/>
        </g>
        <g id="Group_492" data-name="Group 492" transform="translate(149.076)">
          <path id="Path_518" data-name="Path 518" d="M460.792,2.9c-9.57,0-15.292,6.191-15.292,16.6,0,7.228,4.551,11.578,12.18,11.578,9.57,0,15.292-6.191,15.292-16.6C473.006,7.217,468.455,2.9,460.792,2.9Zm-2.577,21.182c-2.275,0-3.614-1.64-3.614-4.384a14.989,14.989,0,0,1,.3-2.978c.669-3.547,1.807-6.793,5.387-6.793,2.275,0,3.614,1.64,3.614,4.384a14.987,14.987,0,0,1-.3,2.978C462.934,20.8,461.8,24.082,458.216,24.082Z" transform="translate(-445.5 -2.9)" fill="#fff"/>
        </g>
        <g id="Group_493" data-name="Group 493" transform="translate(203.553 0.602)">
          <path id="Path_519" data-name="Path 519" d="M611.914,31.7h8.8l3.48-19.776h6.626L632.092,4.7h-22.52L608.3,11.928h7.027Z" transform="translate(-608.3 -4.7)" fill="#fff"/>
        </g>
        <path id="Path_520" data-name="Path 520" d="M544.427,13.474c-2.777-.87-3.915-1.238-3.915-2.543,0-.87.569-1.907,2.242-1.907a2.81,2.81,0,0,1,2.677,1.74l7.763-2.108c-.9-3.815-4.183-5.756-9.838-5.756-10.641,0-11.478,7.128-11.478,9.3,0,4.417,2.342,7.128,7.429,8.533,1.339.368,2.878.77,2.878,2.242,0,1.171-.87,1.907-2.376,1.907a3.553,3.553,0,0,1-3.346-2.209L528.8,24.751c.837,4.016,4.618,6.291,10.541,6.291,4.517,0,12.08-1.2,12.08-9.37C551.454,17.59,549.145,14.913,544.427,13.474Z" transform="translate(-351.85 -2.9)" fill="#fff"/>
        <g id="Group_494" data-name="Group 494" transform="translate(0 0.602)">
          <path id="Path_521" data-name="Path 521" d="M9.8,31.7l4.752-27H0v27Z" transform="translate(0 -4.7)" fill="#0dbe98"/>
        </g>
        <g id="Group_495" data-name="Group 495" transform="translate(226.407 0.602)">
          <path id="Path_522" data-name="Path 522" d="M681.318,4.7l-4.718,27h14.556V4.7Z" transform="translate(-676.6 -4.7)" fill="#0dbe98"/>
        </g>
        <path id="Path_523" data-name="Path 523" d="M228.718,4.6,224,31.638h8.8l1.405-7.964h7.4l1.2-6.793h-7.4l.837-5.019h10.34L247.859,4.6Z" transform="translate(-149.044 -4.031)" fill="#fff"/>
        <path id="Path_524" data-name="Path 524" d="M297.718,4.6,293,31.638h8.8l1.372-7.964H310.6l1.2-6.793h-7.4l.837-5.019h10.34L316.859,4.6Z" transform="translate(-194.955 -4.031)" fill="#fff"/>
      </g>
    </g>
  </g>
</svg>
