<svg xmlns="http://www.w3.org/2000/svg" xmlns:xlink="http://www.w3.org/1999/xlink" width="280" height="160" viewBox="0 0 280 160">
  <defs>
    <clipPath id="clip-infobae">
      <rect width="280" height="160"/>
    </clipPath>
  </defs>
  <g id="infobae" clip-path="url(#clip-infobae)">
    <rect width="280" height="160" fill="#f68e1e"/>
    <g id="Group_510" data-name="Group 510" transform="translate(23.793 52.755)">
      <path id="Path_509" data-name="Path 509" d="M97.448,1061.764a6.189,6.189,0,0,1-4.158-1.644v38.1h8.316v-38.1a6.191,6.191,0,0,1-4.158,1.644Z" transform="translate(-92.806 -1045.23)" fill="#fff" fill-rule="evenodd"/>
      <ellipse id="Ellipse_1" data-name="Ellipse 1" cx="4.642" cy="4.738" rx="4.642" ry="4.738" transform="translate(0 2.804)" fill="#fff"/>
      <path id="Path_510" data-name="Path 510" d="M233.7,936.982h7.929v5.608l.194.194a14.446,14.446,0,0,1,4.932-5.028,12.717,12.717,0,0,1,6.768-1.838c4.158,0,7.446,1.064,9.766,3.288,2.417,2.128,3.578,5.415,3.578,9.766v26.3h-8.316V951.2c-.1-3-.774-5.221-1.934-6.575s-3-2.03-5.512-2.03a9.027,9.027,0,0,0-3.772.774,7.726,7.726,0,0,0-2.8,2.128,11.479,11.479,0,0,0-1.838,3.191,10.688,10.688,0,0,0-.677,3.964v22.627H233.7V936.982Zm35.876,0h6.189V933.79a16.867,16.867,0,0,1,.87-5.9,7.861,7.861,0,0,1,2.321-3.481,8.787,8.787,0,0,1,3.287-1.644,16.966,16.966,0,0,1,3.868-.387,26.129,26.129,0,0,1,5.8.483v6.576a5.057,5.057,0,0,0-1.74-.29c-.387,0-1.16-.1-1.934-.1a5.384,5.384,0,0,0-2.9.774,3.766,3.766,0,0,0-1.16,3.191v3.964h7.059v6.285h-7.059v32.008h-8.316V943.269h-6.189l-.1-6.285Zm41.774,39.355a19.177,19.177,0,0,1-8.026-1.547,17.209,17.209,0,0,1-9.767-10.54,26.87,26.87,0,0,1,0-16.246,17.466,17.466,0,0,1,3.772-6.382,16.668,16.668,0,0,1,6-4.158,20.817,20.817,0,0,1,8.026-1.547,19.176,19.176,0,0,1,8.026,1.547A17.208,17.208,0,0,1,329.144,948a24.266,24.266,0,0,1,1.257,8.123,23.88,23.88,0,0,1-1.257,8.123,17.209,17.209,0,0,1-9.767,10.54A19.177,19.177,0,0,1,311.352,976.337Zm0-6.672a9.674,9.674,0,0,0,4.834-1.16,10.407,10.407,0,0,0,3.385-3.094,12.736,12.736,0,0,0,1.934-4.351,21.237,21.237,0,0,0,0-9.863,12.726,12.726,0,0,0-1.934-4.351,10.371,10.371,0,0,0-3.385-3.094,10.654,10.654,0,0,0-9.669,0,10.407,10.407,0,0,0-3.385,3.094A12.727,12.727,0,0,0,301.2,951.2a21.238,21.238,0,0,0,0,9.863,12.728,12.728,0,0,0,1.934,4.351,10.374,10.374,0,0,0,3.385,3.094A9.666,9.666,0,0,0,311.352,969.665Zm23.981-47.285h8.316v19.533h.193a10.512,10.512,0,0,1,2.128-2.514,17.286,17.286,0,0,1,2.708-1.934,16.972,16.972,0,0,1,3.094-1.16,12.749,12.749,0,0,1,3.288-.387,17.54,17.54,0,0,1,7.736,1.547,15.344,15.344,0,0,1,5.512,4.351,20.456,20.456,0,0,1,3.287,6.479,26.626,26.626,0,0,1,1.064,7.93,27.1,27.1,0,0,1-.968,7.446,19.447,19.447,0,0,1-3,6.383,14.806,14.806,0,0,1-5.028,4.449,14.365,14.365,0,0,1-7.253,1.644,27.021,27.021,0,0,1-3.868-.29,15.783,15.783,0,0,1-3.674-.968,13.383,13.383,0,0,1-3.191-1.934,9.854,9.854,0,0,1-2.417-3.094h-.1v5.221h-7.929l.1-52.7Zm29.01,33.844a17.533,17.533,0,0,0-.677-5.028,14.876,14.876,0,0,0-1.934-4.351,9.431,9.431,0,0,0-7.832-4.158c-3.481,0-6.189,1.257-7.929,3.674a17,17,0,0,0-2.708,9.863,19.806,19.806,0,0,0,.677,5.415,11.728,11.728,0,0,0,2.128,4.255,11.3,11.3,0,0,0,3.287,2.8,10.245,10.245,0,0,0,9.283-.1,10.085,10.085,0,0,0,3.287-3.094,12.923,12.923,0,0,0,1.838-4.255,22.934,22.934,0,0,0,.581-5.028Zm44.674,10.54a4.344,4.344,0,0,0,.387,2.224,1.6,1.6,0,0,0,1.547.677h.87a4.809,4.809,0,0,0,1.16-.194v5.9a10.03,10.03,0,0,1-1.16.29l-1.451.29a7.5,7.5,0,0,1-1.451.194,5.974,5.974,0,0,1-1.257.1,8.158,8.158,0,0,1-4.255-1.064,5.26,5.26,0,0,1-2.224-3.674,14.777,14.777,0,0,1-6.092,3.578,22.58,22.58,0,0,1-6.962,1.064,16.887,16.887,0,0,1-4.932-.677,15.1,15.1,0,0,1-4.158-2.03,9.128,9.128,0,0,1-2.8-3.481,12.995,12.995,0,0,1,.194-10.734,9.726,9.726,0,0,1,3.385-3.481,14.141,14.141,0,0,1,4.642-1.838,48.976,48.976,0,0,1,5.221-.87c1.547-.29,2.9-.483,4.351-.677a12.378,12.378,0,0,0,3.578-.677,6.263,6.263,0,0,0,2.515-1.353,3.9,3.9,0,0,0,.87-2.8,4.945,4.945,0,0,0-.774-2.708,4.316,4.316,0,0,0-1.934-1.547,9.573,9.573,0,0,0-2.515-.774c-.968-.1-1.838-.194-2.611-.194a10.753,10.753,0,0,0-5.8,1.451,5.643,5.643,0,0,0-2.515,4.642h-8.316a14.174,14.174,0,0,1,1.741-6.189,13.736,13.736,0,0,1,3.868-3.964,15.728,15.728,0,0,1,5.415-2.03,32.469,32.469,0,0,1,6.092-.581,26.678,26.678,0,0,1,5.512.581,15.357,15.357,0,0,1,4.834,1.934,9.993,9.993,0,0,1,3.481,3.481,9.63,9.63,0,0,1,1.354,5.125v20.017h.193ZM400.7,956.128a9.8,9.8,0,0,1-4.642,1.547,53.938,53.938,0,0,0-5.512.774,19.176,19.176,0,0,0-2.514.677,8.077,8.077,0,0,0-2.224,1.16,3.873,3.873,0,0,0-1.451,1.838,6.31,6.31,0,0,0-.581,2.8,4,4,0,0,0,.774,2.417,5.954,5.954,0,0,0,1.934,1.547,6.968,6.968,0,0,0,2.514.774,13.1,13.1,0,0,0,5.415-.193,10.334,10.334,0,0,0,3-1.257,8.845,8.845,0,0,0,2.417-2.224,5.4,5.4,0,0,0,.967-3.385v-6.479h-.1Zm21.565,2.224a15.572,15.572,0,0,0,.581,4.255,11.912,11.912,0,0,0,1.838,3.675,9.845,9.845,0,0,0,3.094,2.514,10.857,10.857,0,0,0,4.545.968,10.1,10.1,0,0,0,5.9-1.547,9.13,9.13,0,0,0,3.287-4.738h7.929a17.915,17.915,0,0,1-2.224,5.609,15.852,15.852,0,0,1-3.868,4.158,18.856,18.856,0,0,1-5.028,2.514,19.779,19.779,0,0,1-5.9.87,20.337,20.337,0,0,1-7.929-1.451,15.921,15.921,0,0,1-5.8-4.158,17.134,17.134,0,0,1-3.578-6.383,27.474,27.474,0,0,1-1.16-8.123,22.774,22.774,0,0,1,1.257-7.736,19.447,19.447,0,0,1,3.674-6.479,18.542,18.542,0,0,1,5.7-4.448,17.4,17.4,0,0,1,7.639-1.644,16.97,16.97,0,0,1,8.026,1.934,17.426,17.426,0,0,1,5.9,5.028,19.6,19.6,0,0,1,3.385,7.155,24.044,24.044,0,0,1,.581,8.316h-27.85v-.29Zm19.436-5.608a13.216,13.216,0,0,0-.87-3.868,8.827,8.827,0,0,0-1.934-3.191,9.634,9.634,0,0,0-2.9-2.224,8.425,8.425,0,0,0-3.868-.87,10.327,10.327,0,0,0-3.964.774,9.821,9.821,0,0,0-3.094,2.127,9.971,9.971,0,0,0-2.03,3.191,13.849,13.849,0,0,0-.87,3.964l19.533.1Z" transform="translate(-218.037 -922.38)" fill="#fff" fill-rule="evenodd"/>
    </g>
  </g>
</svg>
