<svg xmlns="http://www.w3.org/2000/svg" xmlns:xlink="http://www.w3.org/1999/xlink" width="280" height="160" viewBox="0 0 280 160">
  <defs>
    <clipPath id="clip-news-com-au">
      <rect width="280" height="160"/>
    </clipPath>
  </defs>
  <g id="news-com-au" clip-path="url(#clip-news-com-au)">
    <rect width="280" height="160" fill="#fff"/>
    <g id="News-com-au_logo" transform="translate(22 41)">
      <path id="Path_684" data-name="Path 684" d="M84.923,11.357a2.511,2.511,0,0,1-2.5,2.508H73.648a2.509,2.509,0,0,1-2.508-2.508V2.508A2.512,2.512,0,0,1,73.648,0h8.771a2.508,2.508,0,0,1,2.5,2.508Z" transform="translate(-38.575)" fill="#d20f3b"/>
      <path id="Path_685" data-name="Path 685" d="M84.923,150.742a2.507,2.507,0,0,1-2.5,2.5H73.648a2.508,2.508,0,0,1-2.508-2.5v-8.848a2.508,2.508,0,0,1,2.508-2.5h8.771a2.5,2.5,0,0,1,2.5,2.5Z" transform="translate(-38.575 -75.584)" fill="#0795a0"/>
      <path id="Path_686" data-name="Path 686" d="M34.608,123.108a2.509,2.509,0,0,1,0,3.548l-6.2,6.2a2.5,2.5,0,0,1-3.543,0L18.614,126.6a2.506,2.506,0,0,1,0-3.538l6.2-6.2a2.5,2.5,0,0,1,3.543,0Z" transform="translate(-9.697 -62.968)" fill="#23b0e7"/>
      <path id="Path_687" data-name="Path 687" d="M133.017,24.687a2.511,2.511,0,0,1,0,3.543l-6.2,6.2a2.509,2.509,0,0,1-3.548,0l-6.257-6.257a2.506,2.506,0,0,1,0-3.538l6.207-6.2a2.511,2.511,0,0,1,3.543,0Z" transform="translate(-63.054 -9.599)" fill="#f28a14"/>
      <path id="Path_688" data-name="Path 688" d="M34.852,24.687a2.511,2.511,0,0,1,0,3.543l-6.2,6.2a2.509,2.509,0,0,1-3.548,0l-6.253-6.257a2.506,2.506,0,0,1,0-3.538l6.2-6.2a2.511,2.511,0,0,1,3.543,0Z" transform="translate(-9.827 -9.599)" fill="#c33c8e"/>
      <path id="Path_689" data-name="Path 689" d="M133.454,123.287a2.517,2.517,0,0,1,0,3.548l-6.2,6.2a2.5,2.5,0,0,1-3.543,0l-6.253-6.257a2.5,2.5,0,0,1,0-3.543l6.2-6.2a2.511,2.511,0,0,1,3.543,0Z" transform="translate(-63.294 -63.065)" fill="#cad526"/>
      <path id="Path_690" data-name="Path 690" d="M156.074,85.067a2.5,2.5,0,0,1-2.5,2.508H144.8a2.5,2.5,0,0,1-2.5-2.508V76.218a2.506,2.506,0,0,1,2.508-2.508h8.766a2.505,2.505,0,0,1,2.5,2.508v8.848Z" transform="translate(-77.162 -39.969)" fill="#889aa4"/>
      <path id="Path_691" data-name="Path 691" d="M13.778,85.067a2.5,2.5,0,0,1-2.5,2.508H2.5A2.505,2.505,0,0,1,0,85.067V76.218A2.508,2.508,0,0,1,2.5,73.71h8.775a2.5,2.5,0,0,1,2.5,2.508Z" transform="translate(0 -39.969)" fill="#5a3b8f"/>
      <path id="Path_692" data-name="Path 692" d="M199.816,159.746H192.73V152.66h7.086Z" transform="translate(-104.507 -82.779)" fill="#c2c2c2"/>
      <path id="Path_693" data-name="Path 693" d="M232.426,128.918c-1.282,6.8-5.612,9.846-11.65,9.846-7.846,0-12.176-5.374-12.176-12.936,0-7.7,4.66-13.128,12.6-13.128,5.182,0,10.652,3.14,10.986,9.274l-6.752.284a4.124,4.124,0,0,0-4.376-3.8c-4,0-5.182,3.616-5.182,7.04,0,3.378.952,7.324,5.04,7.324a4.538,4.538,0,0,0,4.71-4.234Z" transform="translate(-113.113 -61.111)" fill="#c2c2c2"/>
      <path id="Path_694" data-name="Path 694" d="M274.82,138.764c-7.7,0-12.51-5.328-12.51-12.89,0-7.988,5.182-13.174,13.174-13.174,7.562,0,12.318,5.566,12.318,12.936C287.8,133.249,282.474,138.764,274.82,138.764Zm.33-20.452c-4.234,0-5.658,3.616-5.658,7.278,0,3.566,1.332,7.466,5.566,7.466,4.33,0,5.566-4.042,5.566-7.7C280.62,121.832,279.288,118.312,275.15,118.312Z" transform="translate(-142.237 -61.111)" fill="#c2c2c2"/>
      <path id="Path_695" data-name="Path 695" d="M348.74,138.218V125.282c0-2.664-.238-5.9-3.566-5.9-3.662,0-3.8,3.14-3.8,5.9v12.936h-7.04V124.284c0-2.092-.522-4.9-3.616-4.9-3.566,0-3.9,3.378-3.9,5.708v13.128H319.87V113.582h6.944v3.282c1.474-2.76,3.712-3.854,6.8-3.854a6.654,6.654,0,0,1,6.564,4.234,8.375,8.375,0,0,1,7.37-4.184,9.181,9.181,0,0,1,5.516,1.762c2.614,2.142,2.664,4.756,2.664,7.846v15.554h-6.99Z" transform="translate(-173.449 -61.279)" fill="#c2c2c2"/>
      <path id="Path_696" data-name="Path 696" d="M407.136,159.686H400.05V152.6h7.086Z" transform="translate(-216.926 -82.747)" fill="#c2c2c2"/>
      <path id="Path_697" data-name="Path 697" d="M433.754,135.8c-2.33,1.524-3.758,2.948-7.7,2.948-4.518,0-8.61-2.71-8.61-7.942,0-5.374,4.184-7.228,8.8-7.9l3.328-.476c2.092-.284,3.8-.476,3.8-2.046,0-2.046-2.618-2.284-3.758-2.284-2.568,0-4.326.952-4.326,3.09h-6.468c.426-8.18,8.226-8.514,10.51-8.514,6.706,0,11.178,1.95,11.178,9.274v10.652c0,2.522.192,4.138.81,5.232l.142.188h-7.37Zm-.192-9.558a14.167,14.167,0,0,1-1.712.572c-1.95.522-7.324.572-7.324,3.758,0,2.046,1.854,2.664,3.282,2.664a6.635,6.635,0,0,0,5.754-3.186Z" transform="translate(-226.356 -61.1)" fill="#c2c2c2"/>
      <path id="Path_698" data-name="Path 698" d="M484.808,138.936v-2.71c-1.369,2.234-4.431,3.328-6.93,3.328-7.64,0-8.157-6.23-8.157-10.89V114.3h6.93v14.126c0,2.71.517,5.328,3.822,5.328,3.488,0,4.2-2.9,4.2-6.61V114.3h6.743v24.636h-6.605Z" transform="translate(-254.704 -61.979)" fill="#c2c2c2"/>
      <path id="Path_699" data-name="Path 699" d="M229.193,52.878V32.852c0-3.282-1.245-6.5-5.054-6.5-4.6,0-5.841,4.069-5.841,7.681V52.878H208.58V18.867h9.453v3.941a11.458,11.458,0,0,1,9.389-4.729,11.592,11.592,0,0,1,7.155,2.234c3.873,2.957,4.532,7.091,4.532,11.686V52.878Z" transform="translate(-113.102 -9.804)"/>
      <path id="Path_700" data-name="Path 700" d="M287.9,38.469c.59,4.2,2.888,7.287,7.352,7.287a6.5,6.5,0,0,0,6.367-3.612l9.718.659c-2.426,7.287-8.862,10.835-16.351,10.835-10.766,0-17.2-7.553-17.2-17.99,0-10.176,6.761-17.99,17.2-17.99,11.361,0,16.745,8.665,16.745,19.171v1.643H287.9Zm13.659-7.356a6.17,6.17,0,0,0-6.3-5.841c-4.138,0-6.239,1.968-7.287,5.846h13.591Z" transform="translate(-150.625 -9.576)"/>
      <path id="Path_701" data-name="Path 701" d="M395.16,19.8l-9.851,34.011h-8.995L370.6,30.832l-5.649,22.979h-9.128L345.91,19.8h9.915l5.186,21.272L366.33,19.8h8.537l5.255,21.272L385.309,19.8Z" transform="translate(-187.569 -10.736)"/>
      <path id="Path_702" data-name="Path 702" d="M458.666,40.693c.59,4.4,2.888,5.644,7.223,5.644,2.1,0,4.857-.458,4.857-3.149,0-6.106-20.224-1.181-20.224-14.772,0-8.011,7.287-10.766,14.181-10.766,7.484,0,14.511,3.218,14.9,11.554l-9.063.458c-.2-3.612-3.149-4.925-5.974-4.925-1.84,0-4.729.33-4.729,2.888,0,5.186,20.745,1.117,20.745,14.575,0,8.8-7.942,11.426-15.362,11.426-7.223,0-15.756-3.218-15.756-12.213v-.394Z" transform="translate(-243.724 -9.571)"/>
    </g>
  </g>
</svg>
