<svg xmlns="http://www.w3.org/2000/svg" xmlns:xlink="http://www.w3.org/1999/xlink" width="280" height="160" viewBox="0 0 280 160">
  <defs>
    <clipPath id="clip-notice-board">
      <rect width="280" height="160"/>
    </clipPath>
  </defs>
  <g id="notice-board" clip-path="url(#clip-notice-board)">
    <rect width="280" height="160" fill="#f7d047"/>
    <rect id="Rectangle_50" data-name="Rectangle 50" width="114" height="67" transform="translate(83 35)" fill="#fff" opacity="0.61"/>
    <g id="painting" transform="translate(81 21)">
      <path id="Path_664" data-name="Path 664" d="M56,56V95.968a5.709,5.709,0,0,0,5.71,5.71h0a5.709,5.709,0,0,0,5.71-5.71V88.355a5.709,5.709,0,0,1,5.71-5.71h0a5.709,5.709,0,0,1,5.71,5.71v22.839a5.709,5.709,0,0,0,5.71,5.71h0a5.709,5.709,0,0,0,5.71-5.71V73.129a5.7,5.7,0,0,1,5.814-5.708h0a5.749,5.749,0,0,1,5.6,5.708V88.355a5.709,5.709,0,0,0,5.71,5.71h0a5.709,5.709,0,0,0,5.71-5.71V56Z" transform="translate(-42.677 -42.677)" fill="#f0bc5e"/>
      <path id="Path_665" data-name="Path 665" d="M118,11.419H100.871V5.71a5.71,5.71,0,0,0-11.419,0v5.71H0V83.742H35.423L24,118H39.435l3.806-11.419H74.755L78.561,118H93.993L82.573,83.742H118ZM93.721,49.484H96.6a6.179,6.179,0,0,1,6.17,6.172v1.439a6.205,6.205,0,0,1-.651,2.76L96.345,72.409c-1.4-4.282-3.789-9.19-6.989-12.389a6.172,6.172,0,0,1,4.364-10.536ZM96.6,45.677H93.719c-.158,0-.306.04-.462.048V41.871h3.806v3.854C96.908,45.717,96.76,45.677,96.6,45.677ZM95.161,3.806a1.906,1.906,0,0,1,1.9,1.9V38.065H93.258V5.71A1.906,1.906,0,0,1,95.161,3.806ZM37.692,115.194H28.285L38.437,83.742h9.407ZM67.144,83.742,70.95,96.161H47.05l3.806-12.419ZM44.511,103.774l1.269-4.806H72.22l1.269,4.806Zm45.2,11.419H80.308L70.158,83.742h9.407Zm25.478-34.258H2.806V14.226H89.452V46.675a9.941,9.941,0,0,0-2.786,16.037,24.883,24.883,0,0,1,6.547,11.564l.462,1.854h4.566l7.287-14.573a10.028,10.028,0,0,0,1.052-4.461V55.656a9.965,9.965,0,0,0-5.71-8.981V14.226h14.323v66.71Z" fill="#2e323d"/>
    </g>
  </g>
</svg>
