<svg xmlns="http://www.w3.org/2000/svg" xmlns:xlink="http://www.w3.org/1999/xlink" width="280" height="160" viewBox="0 0 280 160">
  <defs>
    <clipPath id="clip-ty-times">
      <rect width="280" height="160"/>
    </clipPath>
  </defs>
  <g id="ty-times" clip-path="url(#clip-ty-times)">
    <rect width="280" height="160"/>
    <path id="NewYorkTimes" d="M19.669,3.963C19.669,1.113,16.961.4,14.823.4V.828c1.283,0,2.28.428,2.28,1.425a1.509,1.509,0,0,1-1.71,1.425,18.47,18.47,0,0,1-4.7-1.14A15.15,15.15,0,0,0,5.7,1.255,4.661,4.661,0,0,0,.855,5.816,3.3,3.3,0,0,0,2.993,8.952l.143-.285a1.708,1.708,0,0,1-.713-1.425,1.8,1.8,0,0,1,2-1.568A21.06,21.06,0,0,1,9.692,6.956,40.277,40.277,0,0,0,14.966,8.1v4.418l-2.138,1.853v.143l2.138,1.853v6.129a6.582,6.582,0,0,1-3.563.855,7.026,7.026,0,0,1-5.559-2.281l5.844-2.851V8.382L4.561,11.517A7.276,7.276,0,0,1,8.267,7.527L8.124,7.1C3.848,8.239,0,12.23,0,17.076a10,10,0,0,0,9.977,9.977,9.272,9.272,0,0,0,9.407-9.265H19.1a9.546,9.546,0,0,1-3.706,4.418V16.363l2.281-1.853v-.143l-2.281-1.853V8.1A4.073,4.073,0,0,0,19.669,3.963ZM7.269,19.642l-1.71.855a8.456,8.456,0,0,1-1.568-5.416,10.184,10.184,0,0,1,.285-2.993L7.269,10.8ZM22.377,22.92l-1.853,1.425.285.285.855-.713L24.8,26.768l4.276-2.851-.143-.285-1.14.713L26.368,22.92V13.228l1.14-.855,2.423,2v8.694c0,5.416-1.14,6.271-3.563,7.127v.428c3.991.143,7.7-1.14,7.7-8.124V13.085l1.283-1-.285-.285-1.14.855L30.359,9.665l-3.991,2.993V.97h-.285L21.095,4.391v.285A2.009,2.009,0,0,1,22.52,6.814L22.377,22.92Zm26.083-1.568L44.9,24.06,41.334,21.21V19.5l6.7-4.561V14.8L44.612,9.665,37.2,13.655v9.407L35.775,24.2l.285.285,1.283-1,4.846,3.563L48.6,21.922l-.143-.57Zm-7.127-2.423V11.945l.285-.143,3.136,4.989-3.421,2.138ZM75.684,2.68A4.162,4.162,0,0,0,75.4,1.4h-.285a2.226,2.226,0,0,1-2.423,1.71,3.769,3.769,0,0,1-2.708-1.283l-4.133,4.7.285.285L67.56,5.531a5.2,5.2,0,0,0,3.563,1.425v11.83l-8.409-14.4C62,3.251,61,1.683,59.008,1.683c-2.28,0-4.276,2-3.991,5.131h.428c.143-.855.57-1.853,1.568-1.853.713,0,1.425.713,1.853,1.425v4.7c-2.566,0-4.276,1.14-4.276,3.278a3.262,3.262,0,0,0,2.28,3.278v-.285a1.294,1.294,0,0,1-.428-1c0-.713.57-1.283,1.568-1.283h.713v5.986c-2.993,0-5.416,1.71-5.416,4.561,0,2.708,2.28,3.991,4.846,3.848v-.285c-1.568-.143-2.28-.855-2.28-1.853a1.762,1.762,0,0,1,2-1.853,3.872,3.872,0,0,1,2.851,1.568l4.133-4.561-.285-.285-1,1.14a6.845,6.845,0,0,0-4.276-2.138V6.956L70.7,26.911h.855V6.956A4.36,4.36,0,0,0,75.684,2.68Zm10.4,18.672L82.526,24.06,78.962,21.21V19.5l6.7-4.561V14.8L82.241,9.665l-7.412,3.991v9.407L73.4,24.2l.285.285,1.283-1,4.846,3.563,6.414-5.131-.143-.57Zm-7.127-2.423V11.945l.285-.143,3.136,4.989-3.421,2.138Zm30.359-7.7-1,.713-2.708-2.28-3.136,2.851,1.283,1.283v10.69l-3.421-2.138V13.513l1.14-.713L98.2,9.665l-3.136,2.851L96.351,13.8V24.06l-.428.285L92.93,22.207V13.655c0-2-1-2.566-2.138-3.278-1-.713-1.568-1.14-1.568-2.138,0-.855.855-1.283,1.283-1.568V6.386c-1.14,0-4.133,1.14-4.133,3.848A3.408,3.408,0,0,0,87.8,12.943a3.355,3.355,0,0,1,1.425,2.566v8.267l-1.568,1.14.285.285,1.425-1.14,3.278,2.851,3.563-2.423,3.991,2.423,7.554-4.418v-9.55l1.853-1.425-.285-.285Zm26.511-7.839-1.425,1.283-3.136-2.851-4.7,3.421V2.11h-.428l.143,23.09a15.4,15.4,0,0,1-2.708-.57L123.29,5.389a3.391,3.391,0,0,0-3.563-3.421,4.144,4.144,0,0,0-4.276,3.991h.428c.143-.855.57-1.568,1.425-1.568s1.568.57,1.568,2.423v5.559c-2.566.143-4.133,1.568-4.133,3.421,0,1.14.57,2.851,2.28,2.851v-.285a1.13,1.13,0,0,1-.713-1c0-.855.713-1.14,1.853-1.14h.57v8.837a4.011,4.011,0,0,0-2.993,3.991c0,2.423,1.853,4.133,4.7,4.133a21.638,21.638,0,0,0,5.416-.713,31.518,31.518,0,0,1,4.133-.713c1.14,0,1.568.57,1.568,1.283,0,1-.428,1.425-1,1.568v.285c2.281-.428,3.706-1.853,3.706-3.991s-2.138-3.421-4.418-3.421a45.5,45.5,0,0,0-5.274.713,33.121,33.121,0,0,1-4.561.713c-1,0-2.138-.428-2.138-1.853,0-1.14,1-2.138,3.421-2.138a17.087,17.087,0,0,1,4.418.57,20.611,20.611,0,0,0,4.7.855c2.138,0,3.991-.713,3.991-3.706V5.1l1.71-1.425-.285-.285Zm-5.844,8.694a2.485,2.485,0,0,1-1.71.855,2.221,2.221,0,0,1-1.71-.855V5.816l1.425-1,2,1.853v5.416Zm0,4.276a2.409,2.409,0,0,0-3.421,0V12.658a2.409,2.409,0,0,0,3.421,0Zm0,6.7a2.164,2.164,0,0,1-2.281,2.281h-1.14V16.934a2.723,2.723,0,0,1,1.71-.713,3.129,3.129,0,0,1,1.71.713v6.129Zm19.527-10.12-4.561-3.278-6.984,3.991V22.92l-1.425,1.14.143.285,1.14-.855,4.561,3.421,7.127-4.276V12.943Zm-7.7,8.979V11.66l3.563,2.566v10.12l-3.563-2.423ZM163.056,9.95h-.285a2.561,2.561,0,0,1-1.283.57,2.042,2.042,0,0,1-1.568-.713h-.285l-2.423,2.708-2.423-2.708-4.276,2.851.143.285,1.14-.713,1.425,1.568v8.979L151.368,24.2l.285.285.855-.713,3.421,2.851,4.418-2.993-.143-.285-1.283.713-1.71-1.425V12.658a3.911,3.911,0,0,0,2.566,1.425c2,.143,3.136-1.853,3.278-4.133Zm17.1,13.683-4.846,3.278-6.556-9.977,4.7-7.269h.285a3.551,3.551,0,0,0,2.423,1.14,2.67,2.67,0,0,0,2.138-1.14h.285c-.143,2.851-2.138,4.561-3.563,4.561a5.745,5.745,0,0,1-2.993-1.14l-.428.713,7.127,10.547,1.425-.855Zm-15.678-.713-1.853,1.425.285.285.855-.713,3.136,2.851,4.276-2.851-.285-.285-1.14.713-1.425-1.425V.97h-.143l-5.131,3.421v.285a1.893,1.893,0,0,1,1.425,2.138ZM203.82,3.963c0-2.851-2.708-3.563-4.846-3.563V.828c1.283,0,2.28.428,2.28,1.425a1.509,1.509,0,0,1-1.71,1.425,18.47,18.47,0,0,1-4.7-1.14,18.922,18.922,0,0,0-4.989-1.14,4.661,4.661,0,0,0-4.846,4.561,3.3,3.3,0,0,0,2.138,3.136l.143-.285a1.5,1.5,0,0,1-.855-1.425,1.8,1.8,0,0,1,2-1.568A21.06,21.06,0,0,1,193.7,7.1a40.277,40.277,0,0,0,5.274,1.14v4.418l-2.138,1.853v.143l2.138,1.853v6.129a6.582,6.582,0,0,1-3.563.855,7.026,7.026,0,0,1-5.559-2.281l5.844-2.851V8.382l-7.127,3.136a9.528,9.528,0,0,1,3.706-4.133l-.143-.285c-4.276,1.14-8.124,4.989-8.124,9.835a10,10,0,0,0,9.977,9.977,9.272,9.272,0,0,0,9.407-9.265h-.285a9.546,9.546,0,0,1-3.706,4.418V16.221l2.281-1.853v-.143l-2.138-1.853V8.1A4.073,4.073,0,0,0,203.82,3.963Zm-12.4,15.678-1.71.855a8.456,8.456,0,0,1-1.568-5.416,10.129,10.129,0,0,1,.428-2.993l2.993-1.283Zm17.389-17.1h-.143l-2.851,2.423V5.1l2.423,2.708h.285l2.851-2.423V5.246l-2.566-2.708Zm4.276,21.095-1.14.713-1.425-1.425V13.085l1.425-1-.285-.285-1,.855L208.1,9.665l-4.133,2.851.285.428,1-.713,1.283,1.568v9.265l-1.853,1.425.143.285,1-.713,3.136,2.851,4.276-2.851-.143-.428Zm23.8-.143-1,.713-1.568-1.425V13.085l1.425-1.14-.285-.285-1.14,1-3.278-2.993-4.276,2.993-3.278-2.993L219.5,12.658l-2.566-2.993L212.8,12.515l.143.428,1-.713,1.425,1.568v9.265l-1.14,1.14,3.278,2.708,3.136-2.851-1.283-1.283V13.085l1.283-.855,2.138,2v8.552l-1.14,1.14,3.278,2.708,3.136-2.851-1.283-1.283V13.085l1.14-.713,2.281,2V22.92l-1,1,3.278,2.993,4.418-2.993V23.49Zm12.4-2.138-3.563,2.708-3.563-2.851V19.5l6.7-4.561V14.8l-3.421-5.131-7.412,3.991v9.692l4.989,3.563,6.414-5.131-.143-.428Zm-7.127-2.423V11.945l.285-.143,3.136,4.989-3.421,2.138Zm20.1-1.283-2.708-2.138a7.084,7.084,0,0,0,2.566-5.131V9.522h-.285a2.052,2.052,0,0,1-2,1.425,3.185,3.185,0,0,1-2.566-1.425l-6.414,3.563v5.131l2.423,1.853c-2.423,2.138-2.851,3.563-2.851,4.7a2.846,2.846,0,0,0,1.853,2.851l.143-.285a1.274,1.274,0,0,1-.57-1.14c0-.428.57-1.14,1.71-1.14a3.766,3.766,0,0,1,2.708,1.425l6.129-3.706V17.646h-.143ZM260.69,13.37a15.623,15.623,0,0,1-4.418,4.276L254.7,16.364V11.375a4.218,4.218,0,0,0,3.706,2.566A3.886,3.886,0,0,0,260.69,13.37Zm-2.423,11.4a4.729,4.729,0,0,0-4.133-2.708,4.973,4.973,0,0,0-2.708.713,15.9,15.9,0,0,1,4.989-4.561l1.71,1.425.143,5.131Z" transform="translate(9 62.6)" fill="#fff"/>
  </g>
</svg>
