<svg xmlns="http://www.w3.org/2000/svg" xmlns:xlink="http://www.w3.org/1999/xlink" viewBox="0 0 280 160">
  <defs>
    <style>
      .cls-1 {
        clip-path: url(#clip-slack);
      }

      .cls-19, .cls-2 {
        fill: #38ba91;
      }

      .cls-3 {
        fill: #eaa822;
      }

      .cls-4 {
        fill: #18947e;
      }

      .cls-5 {
        fill: #6fcbdd;
      }

      .cls-6 {
        fill: #66861d;
      }

      .cls-7 {
        fill: #ce0e0d;
      }

      .cls-8 {
        fill: #e11665;
      }

      .cls-9 {
        fill: #311039;
      }

      .cls-10 {
        fill: #ffc107;
      }

      .cls-11 {
        fill: #4caf50;
      }

      .cls-12 {
        fill: #ec407a;
      }

      .cls-13 {
        fill: #472a49;
      }

      .cls-14 {
        fill: #cc2027;
      }

      .cls-15 {
        fill: #2196f3;
      }

      .cls-16 {
        fill: #1a937d;
      }

      .cls-17 {
        fill: #65863a;
      }

      .cls-18, .cls-19 {
        stroke: none;
      }

      .cls-20 {
        fill: #fff;
      }
    </style>
    <clipPath id="clip-slack">
      <rect width="280" height="160"/>
    </clipPath>
  </defs>
  <g id="slack" class="cls-1">
    <rect class="cls-20" width="280" height="160"/>
    <g id="Path_572" data-name="Path 572" class="cls-2" transform="translate(-3.359 78.5)">
      <path class="cls-18" d="M -1.874355435371399 104.7909164428711 L 0.5009333491325378 0.4646800458431244 L 79.22090911865234 -26.28832244873047 L 110.9023818969727 65.54263305664063 L -1.874355435371399 104.7909164428711 Z"/>
      <path class="cls-19" d="M 78.91056823730469 -25.65476989746094 L 0.9928436279296875 0.825592041015625 L -1.358070373535156 104.0818176269531 L 110.26708984375 65.23429107666016 L 78.91056823730469 -25.65476989746094 M 79.53125 -26.92188262939453 L 111.5376663208008 65.85093688964844 L -2.390617370605469 105.4999923706055 L 0.0090179443359375 0.1037750244140625 L 79.53125 -26.92188262939453 Z"/>
    </g>
    <path id="Path_573" data-name="Path 573" class="cls-3" d="M.009.1,79.531-26.922l32.006,92.773L-2.391,105.5Z" transform="translate(279.788 85.078) rotate(180)"/>
    <g id="Group_497" data-name="Group 497">
      <path id="Path_569" data-name="Path 569" class="cls-4" d="M0,0H58.6L76.2,51.6,0,77.6Z"/>
      <path id="Path_570" data-name="Path 570" class="cls-5" d="M0,0,104.25-.125l6.625,19.688-92.7,31.906Z" transform="translate(58 0.125)"/>
      <path id="Path_571" data-name="Path 571" class="cls-6" d="M-.521-.781,62.651-.7,6.151,19Z" transform="translate(162.708 0.703)"/>
    </g>
    <g id="Group_498" data-name="Group 498" transform="translate(280.359 160) rotate(180)">
      <path id="Path_569-2" data-name="Path 569" class="cls-7" d="M0,0,63.609-.25,79.776,48.083,0,75Z"/>
      <path id="Path_570-2" data-name="Path 570" class="cls-8" d="M5.276-.375l103.5.417,5.583,15.5L21.693,47.708Z" transform="translate(58 0.125)"/>
      <path id="Path_571-2" data-name="Path 571" class="cls-9" d="M-.836-.719H50.273L4.539,15.047Z" transform="translate(167.586 0.703)"/>
    </g>
    <g id="slack-2" data-name="slack" transform="translate(105 44.991)">
      <path id="Path_561" data-name="Path 561" class="cls-10" d="M255.056,4.265a6.159,6.159,0,0,0-11.714,3.807l15.923,49a6.16,6.16,0,0,0,11.71-3.8C270.936,53.14,255.056,4.265,255.056,4.265Z" transform="translate(-210.221 0)"/>
      <path id="Path_562" data-name="Path 562" class="cls-11" d="M72.328,63.644a6.159,6.159,0,0,0-11.714,3.807l15.923,48.992a6.159,6.159,0,0,0,11.71-3.8C88.208,112.519,72.328,63.644,72.328,63.644Z" transform="translate(-52.166 -51.359)"/>
      <path id="Path_563" data-name="Path 563" class="cls-12" d="M116.237,255.063a6.159,6.159,0,0,0-3.807-11.714l-49,15.927a6.159,6.159,0,0,0,3.8,11.71C67.362,270.943,116.237,255.063,116.237,255.063Z" transform="translate(-51.357 -210.219)"/>
      <path id="Path_564" data-name="Path 564" class="cls-13" d="M140.673,335.142l11.71-3.807c-1.037-3.189-2.372-7.3-3.807-11.71l-11.71,3.807Z" transform="translate(-118.385 -276.458)"/>
      <path id="Path_565" data-name="Path 565" class="cls-14" d="M323.425,275.722c4.429-1.439,8.543-2.774,11.71-3.807-1.037-3.189-2.372-7.3-3.807-11.714l-11.71,3.807Z" transform="translate(-276.459 -225.058)"/>
      <path id="Path_566" data-name="Path 566" class="cls-15" d="M56.861,72.343a6.159,6.159,0,1,0-3.807-11.714L4.062,76.552a6.159,6.159,0,0,0,3.8,11.71Z" transform="translate(0 -52.172)"/>
      <path id="Path_567" data-name="Path 567" class="cls-16" d="M81.308,152.39l11.714-3.807c-1.439-4.425-2.774-8.538-3.807-11.71l-11.71,3.807Z" transform="translate(-67.04 -118.383)"/>
      <path id="Path_568" data-name="Path 568" class="cls-17" d="M264.033,93c4.429-1.439,8.543-2.774,11.714-3.807-1.439-4.429-2.778-8.543-3.807-11.714l-11.714,3.807Z" transform="translate(-225.087 -67.011)"/>
    </g>
  </g>
</svg>
