<svg xmlns="http://www.w3.org/2000/svg" xmlns:xlink="http://www.w3.org/1999/xlink" viewBox="0 0 441.72 340.15"><defs><style>.cls-1,.cls-12,.cls-2,.cls-4{fill:none;}.cls-2{clip-rule:evenodd;}.cls-3{isolation:isolate;}.cls-4{stroke:#dbe4e2;stroke-width:9px;}.cls-12,.cls-4{stroke-miterlimit:10;}.cls-5{clip-path:url(#clip-path);}.cls-6{clip-path:url(#clip-path-2);}.cls-7{fill:#737373;}.cls-8{fill:#d85252;}.cls-9{fill:#e3e3e3;}.cls-10{fill:#d0cfcf;}.cls-11{fill:#fff;}.cls-12{stroke:#c1c5c4;stroke-width:4px;}.cls-13{fill:#898989;}.cls-14{fill:#4a4a4a;}.cls-15{fill:#797979;}.cls-16{fill:#d74025;}.cls-17{fill:#de5e3e;}.cls-18{fill:#ab0d16;}.cls-19{fill:#525252;}.cls-20{fill:#272525;}.cls-21{fill:#2c3c4c;}.cls-22{fill:#cc4732;}.cls-23{fill:#b4dfe1;}.cls-24{fill:#c1d8db;}.cls-25{fill:#2f3131;}.cls-26{fill:#d31214;}.cls-27{fill:#c1c5c4;}.cls-28{fill:#dbe4e2;}.cls-29{fill:#d99fb5;opacity:0.21;}.cls-29,.cls-34,.cls-36,.cls-39{mix-blend-mode:multiply;}.cls-30{fill:#efc73e;}.cls-31{fill:#f5de85;}.cls-32{fill:#f3d35a;}.cls-33{fill:#db919f;}.cls-34,.cls-36{opacity:0.27;}.cls-35{font-size:14.89px;letter-spacing:0.1em;}.cls-35,.cls-36{fill:#b85467;font-family:BebasNeueBold, Bebas Neue;font-weight:700;}.cls-36{font-size:13.99px;letter-spacing:0.01em;}.cls-37{fill:#654d43;}.cls-38{fill:#cf808f;}.cls-39{fill:#b77a85;opacity:0.29;}.cls-40{fill:#fbf6df;}.cls-41{fill:#57423a;}.cls-42{fill:#efd1de;}.cls-43{fill:#41192d;}.cls-44{fill:#db853e;}.cls-45{fill:#edc699;}.cls-46{fill:#e9b983;}.cls-47{fill:#e29e41;}.cls-48{fill:#dd8c3e;}.cls-49{fill:#d6723a;}.cls-50{fill:#ecbf45;}.cls-51{fill:#f7e580;}.cls-52{fill:#562a3f;}.cls-53{fill:#703a52;}.cls-54{clip-path:url(#clip-path-3);}.cls-55{clip-path:url(#clip-path-4);}.cls-56{clip-path:url(#clip-path-5);}.cls-57{clip-path:url(#clip-path-6);}.cls-58{clip-path:url(#clip-path-7);}.cls-59{clip-path:url(#clip-path-8);}.cls-60{clip-path:url(#clip-path-9);}.cls-61{clip-path:url(#clip-path-10);}.cls-62{clip-path:url(#clip-path-11);}.cls-63{clip-path:url(#clip-path-12);}.cls-64{clip-path:url(#clip-path-13);}.cls-65{clip-path:url(#clip-path-14);}.cls-66{clip-path:url(#clip-path-15);}.cls-67{clip-path:url(#clip-path-16);}.cls-68{clip-path:url(#clip-path-17);}.cls-69{clip-path:url(#clip-path-18);}.cls-70{clip-path:url(#clip-path-19);}.cls-71{clip-path:url(#clip-path-20);}.cls-72{clip-path:url(#clip-path-21);}.cls-73{clip-path:url(#clip-path-22);}.cls-74{clip-path:url(#clip-path-23);}.cls-75{clip-path:url(#clip-path-24);}.cls-76{clip-path:url(#clip-path-25);}.cls-77{clip-path:url(#clip-path-26);}.cls-78{clip-path:url(#clip-path-27);}.cls-79{clip-path:url(#clip-path-28);}.cls-80{clip-path:url(#clip-path-29);}.cls-81{clip-path:url(#clip-path-30);}.cls-82{clip-path:url(#clip-path-31);}.cls-83{clip-path:url(#clip-path-32);}.cls-84{clip-path:url(#clip-path-33);}.cls-85{clip-path:url(#clip-path-34);}.cls-86{clip-path:url(#clip-path-35);}.cls-87{clip-path:url(#clip-path-36);}.cls-88{clip-path:url(#clip-path-37);}.cls-89{clip-path:url(#clip-path-38);}.cls-90{clip-path:url(#clip-path-39);}.cls-91{clip-path:url(#clip-path-40);}.cls-92{clip-path:url(#clip-path-41);}.cls-93{clip-path:url(#clip-path-42);}.cls-94{clip-path:url(#clip-path-43);}.cls-95{clip-path:url(#clip-path-44);}.cls-96{clip-path:url(#clip-path-45);}.cls-97{clip-path:url(#clip-path-46);}.cls-98{clip-path:url(#clip-path-47);}.cls-99{clip-path:url(#clip-path-48);}.cls-100{clip-path:url(#clip-path-49);}.cls-101{clip-path:url(#clip-path-50);}.cls-102{clip-path:url(#clip-path-51);}.cls-103{clip-path:url(#clip-path-52);}.cls-104{clip-path:url(#clip-path-53);}.cls-105{clip-path:url(#clip-path-54);}</style><clipPath id="clip-path"><rect class="cls-1" x="207.86" y="68.54" width="130.24" height="188.93"/></clipPath><clipPath id="clip-path-2"><rect class="cls-1" x="95.14" y="-142.48" width="368.68" height="923.22"/></clipPath><clipPath id="clip-path-3"><rect class="cls-1" x="89.2" y="-374.75" width="247.28" height="143.25"/></clipPath><clipPath id="clip-path-4"><rect class="cls-1" x="96.75" y="-366.54" width="230.92" height="128.11"/></clipPath><clipPath id="clip-path-5"><path class="cls-2" d="M303.93-235a1.55,1.55,0,0,1-1.52,1.58,1.55,1.55,0,0,1-1.52-1.58,1.55,1.55,0,0,1,1.52-1.58,1.55,1.55,0,0,1,1.52,1.58"/></clipPath><clipPath id="clip-path-6"><path class="cls-2" d="M311.61-235a1.55,1.55,0,0,1-1.52,1.58,1.55,1.55,0,0,1-1.52-1.58,1.55,1.55,0,0,1,1.52-1.58,1.55,1.55,0,0,1,1.52,1.58"/></clipPath><clipPath id="clip-path-7"><path class="cls-2" d="M319.39-235a1.58,1.58,0,0,1-1.57,1.58,1.58,1.58,0,0,1-1.57-1.58,1.58,1.58,0,0,1,1.57-1.58,1.58,1.58,0,0,1,1.57,1.58"/></clipPath><clipPath id="clip-path-8"><path class="cls-2" d="M211.28-296.07l3.07,7.55-7.73-.64s-.91-5.33,2-6.91Z"/></clipPath><clipPath id="clip-path-9"><polygon class="cls-2" points="204.79 -289.58 198.27 -289 200.66 -296.07 204.79 -296.07 204.79 -289.58"/></clipPath><clipPath id="clip-path-10"><rect class="cls-1" x="368.81" y="-90.29" width="72.91" height="48.68"/></clipPath><clipPath id="clip-path-11"><path class="cls-2" d="M120.3-170.79s11.1,1,13.83,6.06h-15Z"/></clipPath><clipPath id="clip-path-12"><path class="cls-2" d="M152.8-170.79s11.1,1,13.83,6.06h-15Z"/></clipPath><clipPath id="clip-path-13"><polygon class="cls-2" points="134.58 -123.73 124.36 -69.97 132.62 -68.64 153.01 -113.23 134.58 -123.73"/></clipPath><clipPath id="clip-path-14"><path class="cls-2" d="M91-215.49l3.15.69,2.79-8.86,2.66-1.52-1.73-2-.54-14.37-3.18,2.93-.55,6.93-1.68.31s-2.33-4-3.89-2.67-.41,3.7,1.56,5.27L88.5-224Z"/></clipPath><clipPath id="clip-path-15"><polygon class="cls-2" points="61.78 -208.19 58.55 -198.32 69.13 -141.4 96.52 -143.71 103.69 -188.8 116.87 -174.14 151.59 -164.73 152.8 -170.79 122.19 -182.94 103.87 -208.21 61.78 -208.19"/></clipPath><clipPath id="clip-path-16"><path class="cls-2" d="M69.13-141.4S62.91-114.25,85.47-114l53-7.35,6.28,58.37,7.39-1.21,3.23-70.62-58.9-8.95"/></clipPath><clipPath id="clip-path-17"><path class="cls-2" d="M94.15-208.21s-10.45,25.87-20.9,0Z"/></clipPath><clipPath id="clip-path-18"><polyline class="cls-2" points="82.75 -187.11 120.3 -170.79 119.09 -164.73 77.16 -176.96"/></clipPath><clipPath id="clip-path-19"><path class="cls-2" d="M66.82-220c.61-3,2.83-5.17,1.41-8.2-3.84-7.49-2.63-15.48,5-20.34,5.46-3.47,20.9-3.55,24.09,7l-3.18,2.93-.55,6.93-1.68.31s-2.33-4-3.89-2.67-.41,3.7,1.56,5.27L88.49-224,91-215.5l.62.14a12.22,12.22,0,0,0-1,5.71c.2,2.63.61,5.06-1.21,7.29-1.62,2-4.24,1.42-5.85,3-2,2-.81,4-4.44,4.86a9.15,9.15,0,0,1-8.48-3.44c-2.22-3.24-.2-4.86-.4-8.1-.4-3-2.62-3.24-4-5.47-1.41-2.63,0-5.67.61-8.5"/></clipPath><clipPath id="clip-path-20"><polygon class="cls-2" points="153.9 -64.42 154.61 -49.54 170.35 -41.65 149.86 -41.65 148.15 -44.99 147.64 -41.65 145.83 -41.65 143.41 -62.7 153.9 -64.42"/></clipPath><clipPath id="clip-path-21"><polygon class="cls-2" points="133.63 -68.47 129.61 -54.13 142.06 -41.65 122.62 -48.15 122.05 -51.86 120.52 -48.85 118.79 -49.43 123.14 -70.17 133.63 -68.47"/></clipPath><clipPath id="clip-path-22"><polygon class="cls-2" points="340.72 -196.21 331.47 -196.21 331.47 -209.72 340.72 -207.29 340.72 -196.21"/></clipPath><clipPath id="clip-path-23"><path class="cls-2" d="M363-124.23s-5.66,10.16-13.43,10.87-52.88-2.36-52.88-2.36L287.9-47h-8.55L278-132.23l54.13-4.94L350-134.63Z"/></clipPath><clipPath id="clip-path-24"><polygon class="cls-2" points="324.09 -139.83 277.81 -137.17 271.68 -132.03 296.15 -47.04 304.7 -47.04 292.41 -123.46 351.54 -121.64 355.78 -128.49 334.21 -144.32 324.09 -139.83"/></clipPath><clipPath id="clip-path-25"><path class="cls-2" d="M323.19-233.8l5.83,26h16.92s12.51-18.44,5.8-29c-7.92-12.49-26.58-9-28.55,2.57"/></clipPath><clipPath id="clip-path-26"><path class="cls-2" d="M336.09-207.79H326l-1.52-9.37h-2.17l.86-16.64L326-233l-.22,6.47h2s1.27-4.8,3.51-3.25c1.46,1,1.28,5.2-.55,6.67l1.51,10.7Z"/></clipPath><clipPath id="clip-path-27"><polygon class="cls-2" points="340.72 -205.63 331.47 -207.78 340.71 -207.78 340.72 -205.63"/></clipPath><clipPath id="clip-path-28"><polygon class="cls-2" points="304.7 -47.04 304.7 -39.65 300.71 -39.65 300.71 -41.47 298.22 -39.65 279.63 -39.65 296.15 -47.04 304.7 -47.04"/></clipPath><clipPath id="clip-path-29"><polygon class="cls-2" points="287.9 -47.04 287.9 -39.65 283.91 -39.65 283.91 -41.47 281.42 -39.65 262.83 -39.65 279.36 -47.04 287.9 -47.04"/></clipPath><clipPath id="clip-path-30"><path class="cls-2" d="M276-172.78c-2.12-8-4.19-1.28-4.19-1.28s-9-.61-9.52,1.47c-.75,2.86,12.19,5.4,12.19,5.4Z"/></clipPath><clipPath id="clip-path-31"><polygon class="cls-2" points="384.04 -172.41 377.69 -172.41 375.57 -111.75 378.62 -111.61 384.04 -172.41"/></clipPath><clipPath id="clip-path-32"><polygon class="cls-2" points="320.94 -114.34 322.8 -108.88 378.62 -108.88 378.62 -111.61 320.94 -114.34"/></clipPath><clipPath id="clip-path-33"><polygon class="cls-2" points="377.46 -108.88 397.01 -39.65 394.65 -39.65 372.74 -108.88 377.46 -108.88"/></clipPath><clipPath id="clip-path-34"><polygon class="cls-2" points="326.45 -108.88 306.9 -39.65 309.26 -39.65 331.17 -108.88 326.45 -108.88"/></clipPath><clipPath id="clip-path-35"><polygon class="cls-2" points="57.54 -173.69 63.89 -173.69 66.01 -113.03 62.96 -112.89 57.54 -173.69"/></clipPath><clipPath id="clip-path-36"><polygon class="cls-2" points="120.64 -115.62 118.78 -110.16 62.96 -110.16 62.96 -112.89 120.64 -115.62"/></clipPath><clipPath id="clip-path-37"><polygon class="cls-2" points="64.13 -110.16 44.57 -40.93 46.93 -40.93 68.84 -110.16 64.13 -110.16"/></clipPath><clipPath id="clip-path-38"><polygon class="cls-2" points="115.13 -110.16 134.68 -40.93 132.32 -40.93 110.42 -110.16 115.13 -110.16"/></clipPath><clipPath id="clip-path-39"><polygon class="cls-2" points="313.99 -164.73 312.69 -158.35 108.56 -158.35 107.15 -164.73 313.99 -164.73"/></clipPath><clipPath id="clip-path-40"><polygon class="cls-2" points="302.44 -158.35 326 -40.93 322.82 -40.93 296.32 -158.35 302.44 -158.35"/></clipPath><clipPath id="clip-path-41"><polygon class="cls-2" points="112.41 -158.35 88.85 -40.93 92.03 -40.93 118.54 -158.35 112.41 -158.35"/></clipPath><clipPath id="clip-path-42"><polygon class="cls-2" points="276.02 -172.78 300.48 -174.45 319.74 -201.99 362.09 -201.99 382.27 -171.94 355.78 -150.75 353.04 -156.68 366.53 -174.45 362.32 -181.12 362.96 -124.23 324.08 -139.83 322.57 -182.12 303.21 -164.72 274.5 -167.19 276.02 -172.78"/></clipPath><clipPath id="clip-path-43"><rect class="cls-1" x="165.95" y="-179.14" width="11.07" height="14.41"/></clipPath><clipPath id="clip-path-44"><path class="cls-2" d="M176-167.89c.19-.11,4.77-2.64,5.55-5.78a3.6,3.6,0,0,0-.5-2.94c-1.46-2.25-4.38-1.55-5.71-.86l.64,1.26c.11-.06,2.75-1.37,3.89.38a2.2,2.2,0,0,1,.31,1.82c-.53,2.1-3.69,4.24-4.86,4.88Z"/></clipPath><clipPath id="clip-path-45"><polygon class="cls-2" points="284.92 -164.73 284.92 -168 250.06 -169.34 251.23 -164.73 284.92 -164.73"/></clipPath><clipPath id="clip-path-46"><polygon class="cls-2" points="132.95 -164.73 132.95 -168 167.81 -169.34 166.64 -164.73 132.95 -164.73"/></clipPath><clipPath id="clip-path-47"><rect class="cls-1" x="234.04" y="-179.14" width="11.07" height="14.41"/></clipPath><clipPath id="clip-path-48"><path class="cls-2" d="M235.11-167.89l.68-1.24c-1.17-.65-4.34-2.78-4.86-4.88a2.2,2.2,0,0,1,.31-1.82c1.14-1.75,3.86-.39,3.89-.38l.64-1.26c-1.34-.68-4.25-1.38-5.71.86a3.6,3.6,0,0,0-.5,2.94c.78,3.14,5.36,5.67,5.55,5.78"/></clipPath><clipPath id="clip-path-49"><polygon class="cls-2" points="190.34 -171.94 224.97 -173.35 224.97 -164.73 190.34 -164.73 190.34 -171.94"/></clipPath><clipPath id="clip-path-50"><polygon class="cls-2" points="193.87 -176.96 221.43 -175.54 221.43 -170.79 193.87 -171.94 193.87 -176.96"/></clipPath><clipPath id="clip-path-51"><polygon class="cls-2" points="309.85 -187.84 316.82 -176.96 322.57 -182.12 324.09 -139.83 362.96 -124.23 362.32 -181.12 364.95 -176.96 373.9 -184.41 362.09 -201.99 319.74 -201.99 309.85 -187.84"/></clipPath><clipPath id="clip-path-52"><rect class="cls-1" x="0.62" y="-145.04" width="32.81" height="104.96"/></clipPath><clipPath id="clip-path-53"><polygon class="cls-2" points="18.4 -99.58 0.62 -239.63 2.7 -239.99 18.61 -114.69 37.15 -233.97 39.22 -233.54 18.4 -99.58"/></clipPath><clipPath id="clip-path-54"><rect class="cls-1" x="15" y="-254.62" width="2.42" height="140.74" transform="translate(2.13 0.18) rotate(-0.66)"/></clipPath></defs><title>vector sign up</title><g class="cls-3"><g id="OBJECTS"><rect class="cls-4" x="33.3" y="10.22" width="329.24" height="286.84"/><g class="cls-5"><g class="cls-6"><rect class="cls-7" x="205.23" y="61.94" width="135.51" height="202.12"/></g></g><rect class="cls-8" x="29.3" y="296.14" width="337.59" height="30.77"/><rect class="cls-9" x="41.99" y="296.14" width="124.83" height="15.39"/><rect class="cls-10" x="41.99" y="311.53" width="124.83" height="15.38"/><rect class="cls-11" x="212.01" y="73.41" width="122.12" height="178.49"/><rect class="cls-12" x="52.16" y="45.02" width="104.49" height="246.13"/><rect class="cls-13" x="1.36" y="326.91" width="391.7" height="11.2"/><path class="cls-14" d="M358.34,206.43l-1.53-1.12a18.47,18.47,0,0,0,2.33-4.33,2.91,2.91,0,0,0,1.95-1.87c.08-.21.25-.84.48-1.75C361.74,198.42,362,201.87,358.34,206.43Z"/><path class="cls-15" d="M435.81,255l-1.15.14c0-.1-1.34-10.51-6.39-14.16a6.72,6.72,0,0,0-9.54,1.89c-3.27,5.3-.53,15.42-.51,15.52l-1.12.31c-.12-.43-2.9-10.72.64-16.44A7.89,7.89,0,0,1,429,240C434.41,244,435.76,254.52,435.81,255Z"/><polygon class="cls-16" points="441.13 252.25 441.23 255.81 438.39 254.11 441.13 252.25"/><polygon class="cls-16" points="413.97 254.8 411.23 256.66 411.13 253.1 413.97 254.8"/><polygon class="cls-17" points="438.39 254.11 441.23 255.81 442.12 287.18 412.12 288.04 411.23 256.66 413.97 254.8 411.13 253.1 441.13 252.25 438.39 254.11"/><polygon class="cls-18" points="438.39 254.11 441.23 255.81 411.23 256.66 413.97 254.8 411.13 253.1 441.13 252.25 438.39 254.11"/><circle class="cls-18" cx="417.39" cy="260.52" r="1.86" transform="translate(-7.2 11.91) rotate(-1.62)"/><circle class="cls-19" cx="417.38" cy="260.06" r="1.15" transform="translate(-7.18 11.89) rotate(-1.62)"/><circle class="cls-18" cx="435.3" cy="260.01" r="1.86" transform="translate(-7.2 12.45) rotate(-1.63)"/><circle class="cls-19" cx="435.29" cy="259.55" r="1.15" transform="translate(-7.18 12.45) rotate(-1.62)"/><path class="cls-19" d="M435.88,260l-1.16-.07c0-.12.37-12.56-4-17.84a6,6,0,0,0-9.72.28c-4.09,5.53-3,17.92-3,18l-1.16.13c0-.53-1.13-13.11,3.28-19.09a7.07,7.07,0,0,1,11.43-.32C436.27,246.89,435.9,259.51,435.88,260Z"/><path class="cls-20" d="M379.69,163.3c0-6.25,9.26-13.45,16.07-8.13,3,2.32,4.94.22,7.5,3.76,1.8,2.49-.46,5.64,2.09,8.29a4.46,4.46,0,0,1,1.28,4.2c-.35,1.77-2.21,2.76-2.56,4.31-.46,2.1,2.09,3.43.35,5.75-.93,1.22-2.9,2-3.37,3.32-.23.66.12,1.22,0,1.88-.35,2.32-2.44,5.08-5.35,4.42l-8.33.1V174.82Z"/><path class="cls-8" d="M332,181.21l-7.87-5.32c-.66,1,3.57,4.63,3.57,4.63s-2.33,2.48,2,4.06Z"/><polygon class="cls-8" points="329.63 184.57 331.95 181.21 352.96 192.74 373.28 189.41 403.74 189.17 419.57 206.93 425.62 236.2 422.06 236.81 412.5 213.66 404.76 204.28 401.51 234.28 375.84 234.28 371.11 200.05 350.38 201.22 329.63 184.57"/><path class="cls-21" d="M401.51,234.28A18.12,18.12,0,0,1,409,248.46c.85,15.68-6.1,84.07-6.1,84.07h-5.14l-7.3-80.73-40,80.73h-5.14l30.51-98.25Z"/><path class="cls-8" d="M391.73,183H381.66l-2.06-5.63-2-1.12,1.28-2.36.77-10.58,7.31,2,2.65,5.73,1.24.23s1.72-2.92,2.87-2,.3,2.72-1.15,3.88l.54,3.84Z"/><rect class="cls-8" x="384.35" y="182.48" width="6.08" height="10.76"/><path class="cls-21" d="M350.47,332.54v7.64h-1.13l-.8-3.21-2,3.21H335.31a14.62,14.62,0,0,0,10-7.64Z"/><path class="cls-21" d="M402.87,332.54v7.64h-1.13l-.8-3.21-2,3.21H387.7a14.62,14.62,0,0,0,10-7.64Z"/><polygon class="cls-22" points="390.43 184.82 384.35 183.52 384.35 182.99 390.43 182.99 390.43 184.82"/><polygon class="cls-23" points="373.28 189.41 365.79 190.64 367.47 200.26 371.11 200.05 375.84 234.28 401.51 234.28 404.76 204.28 405.94 205.71 410.91 197.21 403.74 189.17 373.28 189.41"/><polygon class="cls-8" points="380.57 189.33 387.6 201.22 395.19 189.24 380.57 189.33"/><path class="cls-8" d="M422.06,236.81c-4,3.31.39,2.71.39,2.71s2,5.25,3.36,5c1.82-.33-.18-8.33-.18-8.33Z"/><rect class="cls-24" x="133.45" y="158.62" width="6.31" height="33.02"/><path class="cls-25" d="M351.54,206.56l-1-.94a64.06,64.06,0,0,0,4.58-5.27l1.08.82A64.4,64.4,0,0,1,351.54,206.56Z"/><path class="cls-17" d="M356.15,210.64,339.5,232.46l-12.93-15.74s17.67-18.56,17.9-18.82Z"/><polygon class="cls-26" points="356.16 210.64 357.37 210.79 344.47 197.9 356.16 210.64"/><polygon class="cls-26" points="339.5 232.46 345.38 233.19 356.81 210.72 356.16 210.64 339.5 232.46"/><path class="cls-27" d="M362.87,210.11,349,233.82l-14.77-14s15.25-20.6,15.43-20.89Z"/><polygon class="cls-28" points="349.04 233.82 354.97 233.82 364.09 210.11 362.87 210.11 349.04 233.82"/><path class="cls-14" d="M358.29,192.76l0,1.76s-.78.05-1.66,1.26-1.8,3.41-2.32,7.73l-1.42-1.32C354.26,192.6,357.87,192.71,358.29,192.76Z"/><path class="cls-14" d="M353.42,193c-.88.33-3.83,1.81-6.76,7.19l-1.14-1.34c3-5.34,6.08-7,7.3-7.46C353,191.93,353.22,192.47,353.42,193Z"/><path class="cls-24" d="M.63,266.4c0,1.21,6,2.19,13.33,2.19s13.33-1,13.33-2.19-6-2.19-13.33-2.19S.63,265.19.63,266.4"/><path class="cls-24" d="M.63,328.71c0,1.21,6,2.19,13.33,2.19s13.33-1,13.33-2.19-6-2.19-13.33-2.19S.63,327.5.63,328.71"/><rect class="cls-24" x="0.63" y="266.4" width="26.66" height="62.31"/><path class="cls-24" d="M16.79,272.57h.87c0-.31-.28-30.85,8.81-49.6l-.78-.38c-9.17,18.94-8.9,49.68-8.89,50"/><path class="cls-24" d="M29.29,206.5l-4.65-3.16a55.92,55.92,0,0,1,7.45-13.1H34.4l-1-1.67A81.85,81.85,0,0,1,42,179.42a135.57,135.57,0,0,1-2.3,17.13H36l3.35,1.53c-.43,2-.93,4.13-1.51,6.24l-4.34-.81,3.69,3.09c-2.77,9.21-7.09,18.25-13.79,22.49,0,0-4.16-9.42.27-23.1Z"/><path class="cls-24" d="M14.89,275.08c0-.37.34-37.45-10.72-60.3l-.78.38C14.36,237.82,14,274.69,14,275.06Z"/><path class="cls-24" d="M11.68,189.67l6.75-.64a67.43,67.43,0,0,0-.29-18.18L15.7,169.5l2-1.17a98.46,98.46,0,0,0-3.8-14.69,163.5,163.5,0,0,0-7.5,19.47l3.88,2.13-4.44-.32c-.72,2.4-1.41,4.91-2,7.48l5.07,1.66-5.7,1.12C.82,196.53.15,208.6,4.79,217c0,0,9.87-7.55,13.11-24.6Z"/><path class="cls-29" d="M274.43,155.29l-2.06,1.09,3.22-.6-.58-1.32,1.92-.22-.6-1.42L274,154.14Zm.29-3-1.86-1.16,2.23-1.93-2-1.26-1.85,3.72,1.58,1-1.65,3.13Zm1.57,11.43,1.24-3.48h-2v-1.54H273v-1.43h-2.94V133.9l-2-1.17v-6.21H257.3l-8.77-5.06-8.77,5.06H229v6.21l-2,1.17v23.39h-2.63v1.43h-2.5v1.54H219.7l1.24,3.48-1.24,3.51,1.24,3.72-1.24,3.27H229v6.05h9.61l9.9,4.74,9.9-4.74H268v-6.05h9.48L276.29,171l1.24-3.72Zm-46.65,15.93V176l7.7,3.69Zm0-47.31v-5.23h9.06Zm37.79,47.31h-7.7l7.7-3.69Zm0-47.31-9.06-5.23h9.06Zm-45.64,23.4,3.22.6L223,155.29l.48-1.14L221,152.81l-.6,1.42,1.92.22Zm.87-3.45,3.53,3.53-1.65-3.13,1.58-1L224.26,148l-2,1.26,2.23,1.93Z"/><polygon class="cls-30" points="278.61 173.63 271.22 173.63 271.22 159.64 278.61 159.64 277.38 163.13 278.61 166.63 277.38 170.35 278.61 173.63"/><rect class="cls-31" x="268.13" y="158.1" width="7.4" height="13.98"/><polygon class="cls-31" points="273.02 170.35 268.13 172.08 268.13 170.35 273.02 170.35"/><polygon class="cls-32" points="271.22 173.63 271.22 172.08 275.52 172.08 271.22 173.63"/><polygon class="cls-30" points="218.77 173.63 226.16 173.63 226.16 159.64 218.77 159.64 220.01 163.13 218.77 166.63 220.01 170.35 218.77 173.63"/><rect class="cls-31" x="221.86" y="158.1" width="7.4" height="13.98" transform="translate(451.11 330.18) rotate(180)"/><polygon class="cls-31" points="224.36 170.35 229.25 172.08 229.25 170.35 224.36 170.35"/><polygon class="cls-32" points="226.16 173.63 226.16 172.08 221.86 172.08 226.16 173.63"/><polygon class="cls-33" points="238.7 126.52 229.64 131.75 229.64 173.83 238.7 179.06 258.37 179.06 267.43 173.83 267.43 131.75 258.37 126.52 238.7 126.52"/><g class="cls-34"><text class="cls-35" transform="translate(235.58 154.47)">SALE</text></g><text class="cls-36" transform="translate(235.38 141.23)">FLASH</text><path class="cls-11" d="M237,135.32h2v1.4h-2v4h-1.54V131h4.07v1.4H237Z"/><path class="cls-11" d="M240.43,131H242v8.39h2.53v1.4h-4.07Z"/><path class="cls-11" d="M250.29,140.76h-1.55l-.27-1.78h-1.89l-.27,1.78H244.9l1.57-9.79h2.25Zm-3.51-3.11h1.48l-.74-5Z"/><path class="cls-11" d="M253.21,130.86c1.5,0,2.27.9,2.27,2.46v.31H254v-.41c0-.7-.28-1-.77-1s-.77.27-.77,1c0,2,3,2.39,3,5.19,0,1.57-.78,2.46-2.29,2.46s-2.29-.9-2.29-2.46v-.6h1.46v.7c0,.7.31,1,.8,1s.8-.25.8-1c0-2-3-2.39-3-5.19C250.95,131.75,251.72,130.86,253.21,130.86Z"/><path class="cls-11" d="M258.05,140.76h-1.54V131h1.54v4.2h1.75V131h1.57v9.79H259.8v-4.2h-1.75Z"/><polygon class="cls-33" points="248.53 120.84 239.77 125.9 257.3 125.9 248.53 120.84"/><polygon class="cls-33" points="226.99 133.28 226.99 172.3 229.02 173.47 229.02 132.1 226.99 133.28"/><polygon class="cls-33" points="248.53 184.74 257.3 179.68 239.77 179.68 248.53 184.74"/><polygon class="cls-33" points="270.08 133.28 268.05 132.1 268.05 173.47 270.08 172.3 270.08 133.28"/><polygon class="cls-37" points="229.64 179.06 229.64 173.83 229.02 173.47 229.02 179.68 239.77 179.68 238.7 179.06 229.64 179.06"/><polygon class="cls-37" points="267.43 126.52 267.43 131.75 268.05 132.1 268.05 125.9 257.3 125.9 258.37 126.52 267.43 126.52"/><polygon class="cls-37" points="267.43 179.06 258.37 179.06 257.3 179.68 268.05 179.68 268.05 173.47 267.43 173.83 267.43 179.06"/><polygon class="cls-37" points="229.64 126.52 238.7 126.52 239.77 125.9 229.02 125.9 229.02 132.1 229.64 131.75 229.64 126.52"/><polygon class="cls-38" points="267.43 131.75 267.43 173.83 268.05 173.47 268.05 132.1 267.43 131.75"/><polygon class="cls-37" points="238.7 179.06 239.77 179.68 257.3 179.68 258.37 179.06 238.7 179.06"/><polygon class="cls-37" points="258.37 126.52 257.3 125.9 239.77 125.9 238.7 126.52 258.37 126.52"/><polygon class="cls-38" points="229.64 131.75 229.02 132.1 229.02 173.47 229.64 173.83 229.64 131.75"/><rect class="cls-39" x="226.99" y="170.35" width="43.09" height="0.99"/><rect class="cls-40" x="224.36" y="156.66" width="48.66" height="13.69"/><path class="cls-41" d="M227.9,161.64c.52,0,.79.31.79.86v.11h-.51v-.14c0-.24-.1-.34-.27-.34s-.27.09-.27.34c0,.7,1,.83,1,1.81,0,.54-.27.86-.8.86s-.8-.31-.8-.86v-.21h.51v.24c0,.24.11.33.28.33s.28-.09.28-.33c0-.7-1-.83-1-1.81C227.11,162,227.38,161.64,227.9,161.64Z"/><path class="cls-41" d="M230.78,165.09h-.54l-.09-.62h-.66l-.09.62h-.49l.54-3.41h.78ZM229.56,164h.52l-.26-1.72Z"/><path class="cls-41" d="M231.77,164.46l.41-2.78h.49l-.53,3.41h-.8l-.53-3.41h.54Z"/><path class="cls-41" d="M233.5,163.12h.73v.49h-.73v1h.92v.49H233v-3.41h1.46v.49h-.92Z"/><path class="cls-41" d="M236.12,161.68v2.63c0,.24.11.33.28.33s.28-.09.28-.33v-2.63h.51v2.59c0,.54-.27.86-.8.86s-.8-.31-.8-.86v-2.59Z"/><path class="cls-41" d="M239.18,162.52V163c0,.54-.26.84-.8.84h-.25v1.28h-.54v-3.41h.79C238.91,161.68,239.18,162,239.18,162.52Zm-1.05-.35v1.15h.25c.17,0,.26-.08.26-.32v-.51c0-.24-.09-.32-.26-.32Z"/><path class="cls-41" d="M240.14,161.68h1.66v.49h-.56v2.92h-.54v-2.92h-.56Z"/><path class="cls-41" d="M242,162.5a.81.81,0,1,1,1.63,0v1.77a.81.81,0,1,1-1.62,0Zm.54,1.81c0,.24.11.33.28.33s.28-.09.28-.33v-1.84c0-.24-.11-.34-.28-.34s-.28.09-.28.34Z"/><path class="cls-41" d="M260.79,162.2a.52.52,0,1,1,1,0v1.12a.52.52,0,1,1-1,0Zm.34,1.14c0,.15.06.21.18.21s.17-.06.17-.21v-1.17c0-.15-.07-.21-.17-.21s-.18.06-.18.21Zm1.52-1.67H263l-1.34,3.41h-.32Zm-.17,1.77a.52.52,0,1,1,1,0v1.12a.52.52,0,1,1-1,0Zm.34,1.14c0,.15.06.21.17.21s.18-.06.18-.21v-1.17c0-.15-.07-.21-.18-.21s-.17.06-.17.21Z"/><path class="cls-41" d="M264.68,162.5a.81.81,0,1,1,1.63,0v1.77a.81.81,0,1,1-1.62,0Zm.54,1.81c0,.24.11.33.28.33s.28-.09.28-.33v-1.84c0-.24-.11-.34-.28-.34s-.28.09-.28.34Z"/><path class="cls-41" d="M267.23,163.2h.69v.49h-.69v1.41h-.54v-3.41h1.42v.49h-.88Z"/><path class="cls-41" d="M269,163.2h.69v.49H269v1.41h-.54v-3.41h1.42v.49H269Z"/><path class="cls-33" d="M252.4,165.33c0,1.34-.61,2.07-1.91,2.07s-1.87-.73-1.87-2v-.21h1.18v.28c0,.57.25.79.65.79s.69-.22.69-1v-1.46a1.19,1.19,0,0,1-1.16.71c-.92,0-1.39-.65-1.39-1.82v-1.46a1.9,1.9,0,1,1,3.8,0Zm-1.25-2.72v-1.43c0-.57-.25-.77-.65-.77s-.65.21-.65.77v1.43c0,.57.25.79.65.79S251.15,163.18,251.15,162.61Z"/><path class="cls-33" d="M253.24,161.25a1.9,1.9,0,1,1,3.8,0v4.14a1.9,1.9,0,1,1-3.8,0Zm1.25,4.22c0,.57.25.79.65.79s.65-.22.65-.79v-4.3c0-.57-.25-.79-.65-.79s-.65.22-.65.79Z"/><path class="cls-41" d="M241,174.24h.29v1.57h.47v.26H241Z"/><path class="cls-41" d="M241.9,174.24h.29v1.83h-.29Z"/><path class="cls-41" d="M243,175.53l.2-1.3h.4v1.83h-.27v-1.31l-.2,1.31h-.27l-.21-1.29v1.29h-.25v-1.83h.4Z"/><path class="cls-41" d="M243.86,174.24h.29v1.83h-.29Z"/><path class="cls-41" d="M244.3,174.24h.89v.26h-.3v1.57h-.29V174.5h-.3Z"/><path class="cls-41" d="M245.63,175H246v.26h-.39v.54h.5v.26h-.78v-1.83h.78v.26h-.5Z"/><path class="cls-41" d="M246.33,174.24h.45c.29,0,.43.16.43.45v.92c0,.29-.14.45-.43.45h-.45Zm.29.26v1.3h.16c.09,0,.15,0,.15-.18v-.95c0-.13-.05-.18-.15-.18Z"/><path class="cls-41" d="M247.77,174.24h.89v.26h-.3v1.57h-.29V174.5h-.3Z"/><path class="cls-41" d="M248.81,174.24h.29v1.83h-.29Z"/><path class="cls-41" d="M249.94,175.53l.2-1.3h.4v1.83h-.27v-1.31l-.2,1.31h-.27l-.21-1.29v1.29h-.25v-1.83h.4Z"/><path class="cls-41" d="M251.06,175h.39v.26h-.39v.54h.5v.26h-.78v-1.83h.78v.26h-.5Z"/><path class="cls-41" d="M252.17,174.67a.44.44,0,1,1,.87,0v.95a.44.44,0,1,1-.87,0Zm.29,1c0,.13.06.18.15.18s.15,0,.15-.18v-1c0-.13-.06-.18-.15-.18s-.15,0-.15.18Z"/><path class="cls-41" d="M253.51,174.74v1.32h-.26v-1.83h.36l.29,1.09v-1.09h.26v1.83h-.29Z"/><path class="cls-41" d="M254.39,174.24h.29v1.57h.47v.26h-.76Z"/><path class="cls-41" d="M255.41,175.46l-.36-1.22h.3l.22.83.22-.83h.27l-.36,1.22v.61h-.29Z"/><path class="cls-42" d="M224.71,125.29h-1.65a.53.53,0,0,1-.53-.53h0a.53.53,0,0,1,.53-.53h1.5a.87.87,0,0,0,.87-.87h0a.87.87,0,0,0-.87-.87h-9.89a.87.87,0,0,0-.87.87h0a.87.87,0,0,0,.87.87h6.45a.53.53,0,0,1,.53.53h0a.53.53,0,0,1-.53.53h-1.69a2.35,2.35,0,0,0-2.36,2,2.32,2.32,0,0,0,2.29,2.59h5.41a2.32,2.32,0,0,0,2.29-2.59A2.35,2.35,0,0,0,224.71,125.29Z"/><path class="cls-42" d="M224.71,187.9h-1.65a.53.53,0,0,1-.53-.53h0a.53.53,0,0,1,.53-.53h1.5a.87.87,0,0,0,.87-.87h0a.87.87,0,0,0-.87-.87h-9.89a.87.87,0,0,0-.87.87h0a.87.87,0,0,0,.87.87h6.45a.53.53,0,0,1,.53.53h0a.53.53,0,0,1-.53.53h-1.69a2.35,2.35,0,0,0-2.36,2,2.32,2.32,0,0,0,2.29,2.59h5.41a2.32,2.32,0,0,0,2.29-2.59A2.35,2.35,0,0,0,224.71,187.9Z"/><path class="cls-42" d="M280.64,129.19H277a.38.38,0,0,1-.38-.38h0a.38.38,0,0,1,.38-.38h.6a3.33,3.33,0,0,0,3.32-3.32h0a3.33,3.33,0,0,0-3.32-3.32h-4.41a3.33,3.33,0,0,0-3.32,3.32h0a3.33,3.33,0,0,0,3.32,3.32h2.63a.38.38,0,0,1,.38.38h0a.38.38,0,0,1-.38.38H275a.74.74,0,0,0-.75.64.72.72,0,0,0,.71.79h5.7a.72.72,0,0,0,.71-.79A.74.74,0,0,0,280.64,129.19Z"/><path class="cls-42" d="M280.28,192h-3.62a.38.38,0,0,1-.38-.38h0a.38.38,0,0,1,.38-.38h.6a3.33,3.33,0,0,0,3.32-3.32h0a3.33,3.33,0,0,0-3.32-3.32h-4.41a3.33,3.33,0,0,0-3.32,3.32h0a3.33,3.33,0,0,0,3.32,3.32h2.63a.38.38,0,0,1,.38.38h0a.38.38,0,0,1-.38.38h-.84a.74.74,0,0,0-.75.64.72.72,0,0,0,.71.79h5.7a.72.72,0,0,0,.71-.79A.74.74,0,0,0,280.28,192Z"/><polygon class="cls-33" points="275.09 148.93 273.12 147.66 271.27 151.39 272.85 152.41 271.2 155.54 274.72 152.01 272.86 150.86 275.09 148.93"/><polygon class="cls-11" points="276.94 153.92 276.34 152.5 273.95 153.84 274.43 154.98 272.37 156.06 275.6 155.46 275.01 154.14 276.94 153.92"/><polygon class="cls-33" points="222.3 148.93 224.26 147.66 226.12 151.39 224.53 152.41 226.19 155.54 222.66 152.01 224.52 150.86 222.3 148.93"/><polygon class="cls-11" points="220.44 153.92 221.04 152.5 223.43 153.84 222.95 154.98 225.01 156.06 221.79 155.46 222.37 154.14 220.44 153.92"/><path class="cls-33" d="M239.53,123.19h0a.26.26,0,0,1-.26-.26v-2a.26.26,0,0,1,.26-.26h0a.26.26,0,0,1,.26.26v2A.26.26,0,0,1,239.53,123.19Z"/><path class="cls-33" d="M238.28,121.94h0a.26.26,0,0,1,.26-.26h2a.26.26,0,0,1,.26.26h0a.26.26,0,0,1-.26.26h-2A.26.26,0,0,1,238.28,121.94Z"/><path class="cls-37" d="M219.7,182.17h0a.19.19,0,0,1-.19-.19v-1.5a.19.19,0,0,1,.19-.19h0a.19.19,0,0,1,.19.19V182A.19.19,0,0,1,219.7,182.17Z"/><path class="cls-37" d="M218.76,181.23h0a.19.19,0,0,1,.19-.19h1.5a.19.19,0,0,1,.19.19h0a.19.19,0,0,1-.19.19h-1.5A.19.19,0,0,1,218.76,181.23Z"/><path class="cls-30" d="M276.56,142.48h0a.19.19,0,0,1-.19-.19v-1.46a.19.19,0,0,1,.19-.19h0a.19.19,0,0,1,.19.19v1.46A.19.19,0,0,1,276.56,142.48Z"/><path class="cls-30" d="M275.65,141.56h0a.19.19,0,0,1,.19-.19h1.46a.19.19,0,0,1,.19.19h0a.19.19,0,0,1-.19.19h-1.46A.19.19,0,0,1,275.65,141.56Z"/><circle class="cls-33" cx="273.02" cy="178.52" r="0.58"/><circle class="cls-11" cx="278.61" cy="181.18" r="1.03"/><circle class="cls-33" cx="281.68" cy="148.18" r="0.52"/><circle class="cls-30" cx="261.89" cy="121.07" r="0.79"/><circle class="cls-30" cx="220.45" cy="136.16" r="0.7"/><circle class="cls-11" cx="216.69" cy="145.44" r="0.6"/><circle class="cls-38" cx="267.74" cy="138.93" r="0.92"/><circle class="cls-38" cx="267.74" cy="141.82" r="0.59"/><circle class="cls-38" cx="229.33" cy="143.64" r="0.57"/><circle class="cls-38" cx="229.31" cy="146.29" r="0.8"/><path class="cls-43" d="M308.58,106.86c.77,4.55,3.59,8.91,2,12.69s.58,11.28,2.11,14,1.41,10.89-1.09,12.56c0,0,0-3.2-1.54-5.06,0,0-2.11,11-6.28,12.69,0,0-4.1-7-5.45-11.15,0,0-2.5,5-4.68,5.32a6.92,6.92,0,0,0-.92-4.66,9.72,9.72,0,0,1-2.54,3s-1.6-3.52-1.41-6c0,0-1.92,4.74-4.17,5,0,0,1.73-7,.83-11.34s-.83-15.44.64-20.76,4.1-6,6.41-9.55,2.56-10.32,2.56-10.32l7-.7,6.28,5.77-.32,3.78Z"/><path class="cls-44" d="M300.38,227.92c-1-.06-1.73.13-1.92,1.54s.77,2.82.64,5.13-1,7.29,1.09,8.52,3,1,3.91-1.6.7-8.27,0-9.48A33.44,33.44,0,0,0,300.38,227.92Z"/><path class="cls-44" d="M281.15,227.4c-.44-.09-1.35.32-2.31,1.6s-4.42,7.56-4.29,10.32,1.28,3.08,2.82,2.76,5.13-8.33,5.77-9.87S283.85,228,281.15,227.4Z"/><path class="cls-45" d="M300.35,108.08c-3.34-.84-7.21-3.27-9.52-2.88s-4.61,4.42-5.19,7.79-2,18.17-2.6,20.57,2.4,9.61,4.23,13.75,3.46,8.94,3.65,11.53-1,5.48-2,6.44-2,1.44-2.21,2.11.64.29,1-.13a7.67,7.67,0,0,1-1.22,1.12c-.54.38.51,1,1.31.1a4.74,4.74,0,0,1-.8,1.09c-.38.32.67.77,2-1.12,0,0-.68,1-.48,1.19.74.67,2.69-2.34,3-3.75.18-.72.29.19.16,1.28s.35,1.12.7.67.45-2.37.93-3.3a10,10,0,0,0,.19-6.71c-.91-3.22-2.45-10.72-3.46-15.48s-2.6-6.87-2.69-8.12,2.45-14.95,3.12-17.06c0,0,0,4.81,2.11,6.82s2.64,3.12,3.08,7.5.14,17.3-.58,20.43,6.17,32.62,5.91,34.67-7.95,8.33-10.38,16.66a108.1,108.1,0,0,1-6.41,16.92c-2.44,5.51-6.41,10.77-7.69,13.84s-1.92,5.64-.26,6.41,7.43-9.74,8.46-14.48,10-16.15,12.3-19.87,9.1-14.1,10.51-16.28-.64-17.43-.9-19c0,0-2.31,12.18-2.05,16.53s-2.69,13.46-2.31,20,0,12.94-.64,15.64-1.92,3.72-2.56,5.9,1,2.31.77,5.77-.13,7.31,1.79,7.69,2.31-2.05,2.56-8.07.38-11.41,1.15-14,5.38-19,6-23.84.26-10.89,1.41-15a156.49,156.49,0,0,0,4.61-26.53c.77-10.64-6-17.17-7.95-19.74s-4.74-8.07-3.84-9.74,1.92-2.44,2.56-4.74a26.33,26.33,0,0,0-2.82,11.53c-.26,7.18,4.49,8.46,4.49,8.46s.26-9.87,1.41-14.1,2.18-14.23,1.54-16S305.7,109.43,300.35,108.08Z"/><path class="cls-46" d="M301,186.58c.88-1.43.5-31.86.45-32.65l-4.51,11C298.76,174.27,301.18,185.35,301,186.58Z"/><path class="cls-46" d="M295.88,205.6c-2.74,2.64-10.81,17.25-11.53,18.94s-2.64,7.45-4.9,11.58c-1.58,2.89-3,3.62-3.77,3.79a1.59,1.59,0,0,0,.62.5c1.67.77,7.43-9.74,8.46-14.48s10-16.15,12.3-19.87c1.31-2.11,4.06-6.36,6.45-10h0l4.06-6.24C307,190.46,298.62,203,295.88,205.6Z"/><path class="cls-46" d="M304.92,196.9c1.15-2,3.17-5.72,3.56-7.59s.69-31.34.69-31.34l-3.44-.36s2.25,25.73,2.33,28a10.93,10.93,0,0,1-.49,4.13c-.16.36-4.06,6.23-4.06,6.24-.69,3.78-1.4,7.9-1.2,11.32.38,6.54,0,12.94-.64,15.64s-1.92,3.72-2.56,5.9,1,2.31.77,5.77-.13,7.31,1.79,7.69c-1.76-.8-1.17-6.74-1-8.91s-.43-3.12,0-4.18.91-4.09,1.63-6.2.87-8.31.87-11.53S303.76,198.92,304.92,196.9Z"/><path class="cls-46" d="M289.49,146c1,3.84,3.56,11,3.46,14.13a71.14,71.14,0,0,1-1,8,.61.61,0,0,0,.41-.27c.35-.45.45-2.37.93-3.3a10,10,0,0,0,.19-6.71c-.91-3.22-2.45-10.72-3.46-15.48s-2.6-6.87-2.69-8.12,2.45-14.95,3.12-17.06c0,0,0,4.81,2.11,6.82s2.64,3.12,3.08,7.5.14,17.3-.58,20.43c-.36,1.55,1.16,9.58,2.74,17.54l3.71-7.49-.1-4.57,7.24-20s-.29-5.29-.19-8.07,1.06-6,1.92-9.42-.58-5.58-1.06-4.71c-1.21,2.18-6.73,4.81-8.36,3.17s-1.25-4-1.54-3.27c-.91,2.42-3.56,3.27-6.25.58s-1.73-5.29-2.11-5c-1.58,1.18-2.79,5.58-2.79,8.56s-2.31,13.84-2.5,15a4,4,0,0,0,.87,3.17C287.47,138.55,288.53,142.11,289.49,146Zm16.15-20.51c.48-.88,1-1.52,1.46-2.26a28,28,0,0,0-1.3,4.93A3.92,3.92,0,0,1,305.64,125.45Z"/><path class="cls-45" d="M298.59,99s.83,3.08,0,4.93a3.31,3.31,0,0,1-3.89,2c-1.17-.41,1.69,2.74,1.69,2.74l4.93,1.67h4.45l1.15-1.36a6.87,6.87,0,0,1-3-4.67,11.64,11.64,0,0,1,.26-5.32Z"/><path class="cls-46" d="M303.74,102.58s-1.17,1.84-2.41,1.84c-1.43,0-2.42-1.74-2.42-1.74Z"/><path class="cls-45" d="M301.86,86.55c-6.49-.18-6.76,7.37-5.48,11.36s3.06,5.88,4.81,5.88,6.14-3.52,6.61-8.18S306.86,86.68,301.86,86.55Z"/><path class="cls-46" d="M305.83,109.57c.3-.25-2.55-.48-3.12-.34a2,2,0,0,0-1.39,1.15c-.1.48.86-.43,1.25-.58S305.2,110.1,305.83,109.57Z"/><path class="cls-46" d="M295.83,107.64c-.18-.34,2.54.51,3,.86a2,2,0,0,1,.86,1.59c-.09.48-.64-.72-.94-1S296.21,108.37,295.83,107.64Z"/><path class="cls-44" d="M276.73,233.49A6.24,6.24,0,0,0,281,235.8s-1.79,4.93-3.91,5.32-2.5-1.22-2.05-3.2A22.14,22.14,0,0,1,276.73,233.49Z"/><path class="cls-47" d="M276.22,235.22a2.11,2.11,0,0,0-.34,1.13.13.13,0,0,0,.22.09,2.11,2.11,0,0,0,.56-1A.24.24,0,0,0,276.22,235.22Z"/><path class="cls-47" d="M275.76,239.39a6.42,6.42,0,0,1,.07-2,.11.11,0,0,0-.19-.08,4.18,4.18,0,0,0-.44,2.13c0,.58.07,1.42.65,1.7A.13.13,0,0,0,276,241,15.32,15.32,0,0,0,275.76,239.39Z"/><path class="cls-44" d="M299.67,235.16s3.65-.32,4.68,1.79c0,0-.13,4.29-1.35,5.45s-2.82,0-3.33-1.6S299.67,235.16,299.67,235.16Z"/><path class="cls-47" d="M304.08,239c0-.09-.13-.14-.18,0-.32.67-.46,1.42-.73,2.12a7.07,7.07,0,0,1-.48,1c-.17.3-.46.46-.64.74a.13.13,0,0,0,.11.19c.65,0,1-.74,1.24-1.25A6.21,6.21,0,0,0,304.08,239Z"/><path class="cls-47" d="M304.15,238a.55.55,0,0,0-.21-.33.15.15,0,0,0-.21.09c-.06.2.11.69.37.44A.2.2,0,0,0,304.15,238Z"/><path class="cls-47" d="M297.11,186.71c1.15-3.94-2.21-21.63-2.6-27.68a57.55,57.55,0,0,1,.77-15.76c1.06-5.86-.19-15.38-2.31-17.78a15.19,15.19,0,0,1-3.17-10.77,21.49,21.49,0,0,1,3-9.23c.48-.48,1.06-.29,1.06.19s-2.79,7.31-2,8a21.36,21.36,0,0,0,7.21,2.69c2.6.38,6,.77,7.11-.48s1.25-6.63,1.35-7.11.84-.28,1,.1c1.06,3.36,1.25,11.15-1.25,14.9-1.6,2.4-.77,5.86,1.83,10.09s7,6.82,8.94,14.23,1.73,33.16.48,40.28-4.77,27.25-6.25,27.68a20.3,20.3,0,0,1-4.3.76c1.37-6.3,5.67-27.39,4.78-33.16,0,0-5.16,26.86-8.58,33.13-11-.9-21.47-8.42-21.32-9.19C284.43,199.36,296,190.65,297.11,186.71Z"/><path class="cls-44" d="M295.59,140.67a40.17,40.17,0,0,0-.56-9.44,21.34,21.34,0,0,0,5.72.74,11.21,11.21,0,0,0,5.34-1.07,7.18,7.18,0,0,0,1.07-.71,23.2,23.2,0,0,0,1.86,3.65,39.15,39.15,0,0,0,3.75,4.74,28.68,28.68,0,0,1-3.45,3.62c-1,.95-2.7,2.66-4.08,3s-3-1-4.16-1.58C299.25,142.7,297.34,141.8,295.59,140.67Zm5.78-10.08a17.76,17.76,0,0,0,5.47-1.32c-.08-.24-.14-.48-.2-.71a16.36,16.36,0,0,1-2.9.8,19.74,19.74,0,0,1-4.27.52,22.39,22.39,0,0,1-4.89-.66q.13.51.25,1.06A18.23,18.23,0,0,0,301.38,130.59Zm3.94-14.2c1.12.24,2-1.41,2.21-2.36.47-1.74,1-3.79.4-5.56a.36.36,0,0,0-.44.28c-.1.48-.19,5.86-1.35,7.11A2.16,2.16,0,0,1,305.32,116.39Zm-13.49-2.74c-.77-.67,2-7.5,2-8a.46.46,0,0,0-.15-.34,21.26,21.26,0,0,0-1.21,2.67,15.29,15.29,0,0,0-1.28,3.38c-.13,1-.16,2.17.86,2.45Zm7,95.59a45.5,45.5,0,0,0,7.63,1.3l.34-1.14a39.13,39.13,0,0,1-7.65-1.28,39.91,39.91,0,0,1-13.51-6.77c-.26.39-.5.79-.74,1.19A39.15,39.15,0,0,0,298.79,209.24Zm-15.3-4a57,57,0,0,0,5.1,3.32,45.13,45.13,0,0,0,8.44,4.16,37.26,37.26,0,0,0,8,1.91q.23-.59.46-1.25a30.24,30.24,0,0,1-8.77-2.06,46.41,46.41,0,0,1-8.07-4.19c-1.53-1-3-2.26-4.49-3.37C283.92,204.28,283.69,204.77,283.49,205.26Zm5-7.81-.66.81c3.41,4,8.86,6.84,13.48,8.43a31.67,31.67,0,0,0,5.78,1.44l.33-1.19a26.56,26.56,0,0,1-5.79-1.39C297,203.84,292,201.21,288.51,197.45Zm14.22,4.35a37.47,37.47,0,0,1-12.84-6l-.78.91a36.56,36.56,0,0,0,13.31,6.18,46.07,46.07,0,0,0,5.81,1l.28-1.13A34.77,34.77,0,0,1,302.73,201.8Zm13.1.8a33.55,33.55,0,0,1-4.35.28l-.83,0-.21,1.17a29.1,29.1,0,0,0,5.15-.23Zm-2.74,11.73c.12-.35.24-.75.37-1.19a38.64,38.64,0,0,1-4.85.37l-.28,1.33A21.74,21.74,0,0,0,313.09,214.33Zm1.1-4,.27-1.14a44.63,44.63,0,0,1-5,.36l-.23,1.16A29.3,29.3,0,0,0,314.19,210.29Zm-2.43-1.95c.9-.06,1.91-.13,2.94-.27l.29-1.36a21.5,21.5,0,0,1-4.54.44l-.59,0-.24,1.23A21.16,21.16,0,0,0,311.76,208.34Z"/><path class="cls-48" d="M282.79,207.57c1.64-8.21,13.17-16.92,14.32-20.86s-2.21-21.63-2.6-27.68a57.55,57.55,0,0,1,.77-15.76c1.06-5.86-.19-15.38-2.31-17.78a15.19,15.19,0,0,1-3.17-10.77c0-.45.08-.9.15-1.34-.2,2.67-.13,5.81,1,7.49a4.64,4.64,0,0,0,6.63,1.63c.87-.48.38,1.06-1.15,2.21s-.19,6.34.48,8.84,1.54,10.57.48,13.84.77,23.36,2.88,30,.67,12.59-.77,14.8-11.73,12.11-12.69,18.46l0,.09C284.27,209.18,282.73,207.87,282.79,207.57Z"/><path class="cls-49" d="M294.14,198.47l-.79.95a38,38,0,0,1-4.24-2.7h0l.77-.9h0A36.18,36.18,0,0,0,294.14,198.47Z"/><path class="cls-49" d="M294.85,130.28h0q-.12-.55-.25-1.06l1.39.29c.06.35.13.69.2,1C295.73,130.48,295.29,130.39,294.85,130.28Z"/><path class="cls-49" d="M284.17,203.79c1.36,1,2.67,2.12,4,3.06q-.3.59-.55,1.16a45.42,45.42,0,0,1-4.15-2.75c.07-.18.15-.36.23-.54l.08-.19Q284,204.15,284.17,203.79Z"/><path class="cls-49" d="M284.86,202.53c.23-.4.48-.79.74-1.19a44.53,44.53,0,0,0,4.21,2.81c-.26.39-.51.78-.74,1.16A35.74,35.74,0,0,1,284.86,202.53Z"/><path class="cls-49" d="M288.51,197.45a24.83,24.83,0,0,0,3.78,3.29l-.72.93a22.51,22.51,0,0,1-3.72-3.41Z"/><path class="cls-49" d="M296.92,133.55a43.73,43.73,0,0,1,1,8.45c-.78-.42-1.55-.85-2.29-1.33a37.44,37.44,0,0,0,0-4.73v-.05q0-.57-.09-1.14v-.1q-.05-.55-.11-1.1v-.1c0-.37-.09-.73-.14-1.08v-.05c-.06-.37-.11-.73-.18-1.08.46.12.91.23,1.37.33C296.59,132.31,296.77,133,296.92,133.55Z"/><path class="cls-48" d="M319.18,179.9a75.47,75.47,0,0,1-.73,8.44c-1.25,7.11-4.77,27.25-6.25,27.68-.58.17-1.17.31-1.75.42,1.68-3.27,3.49-15.64,5.31-20.22C317,193.2,318.3,185.58,319.18,179.9Zm-13.13-49.43a12.16,12.16,0,0,0,3.56,4.25c-.2-.29-.4-.58-.58-.88-2.6-4.23-3.43-7.69-1.83-10.09s2.14-6.84,1.95-10.43c-.21,3.42-1,10.15-4.16,10.72-4.23.77-4.13-1.15-4.52-1.25s.29,2.11,1.92,2.6S305.09,128.27,306.05,130.48Z"/><path class="cls-49" d="M306.23,130.83a7.6,7.6,0,0,0,.94-.64h0c.1.26.22.53.34.8l.08.18.32.66.12.24.35.64.13.24c.17.29.34.59.52.88s.36.55.54.82l0,.06A12.76,12.76,0,0,1,306.23,130.83Z"/><path class="cls-49" d="M311.14,214.66c.13-.4.25-.84.38-1.3.64-.06,1.29-.13,1.94-.22h0l-.18.61h0l-.18.55h0C312.45,214.48,311.79,214.58,311.14,214.66Z"/><path class="cls-49" d="M306.65,128.56c.06.23.12.47.2.71h0a7.13,7.13,0,0,1-1.12.47l-.34-.75a9.5,9.5,0,0,0,1.26-.43Z"/><path class="cls-49" d="M312.22,210.53l.27-1.18,2-.2-.26,1.13h0C313.54,210.4,312.89,210.47,312.22,210.53Z"/><path class="cls-49" d="M312.74,208.27,313,207q1-.11,2-.31l-.29,1.35h0C314,208.16,313.37,208.22,312.74,208.27Z"/><path class="cls-49" d="M315.83,202.6l-.24,1.2c-.63.09-1.27.14-1.92.19l.27-1.2q.95-.08,1.88-.19Z"/><path class="cls-50" d="M305.51,122.56c.35-.68.95-1.19,1.29-1.9a6.88,6.88,0,0,0,.85-2.9c0-.1.14-.1.16,0a6,6,0,0,1-.57,3.08c-.28.71-.75,1.76-1.57,1.93A.15.15,0,0,1,305.51,122.56Z"/><path class="cls-50" d="M303.72,123.31a3,3,0,0,1,.3-.06,1,1,0,0,0,.42-.14.87.87,0,0,1,.66-.15.15.15,0,0,1,.09.22c-.28.4-1.3,1-1.58.31A.12.12,0,0,1,303.72,123.31Z"/><path class="cls-50" d="M290.72,116a.07.07,0,0,1,.14,0,11.39,11.39,0,0,0,.23,2.6c.2.78.69,1.4,1,2.15,0,.09-.09.2-.18.14C290.6,119.95,290.18,117.46,290.72,116Z"/><path class="cls-50" d="M292.6,121.44l.47.37a1.66,1.66,0,0,1,.38.34.07.07,0,0,1,0,.1.76.76,0,0,1-.6-.11,1.1,1.1,0,0,1-.44-.51A.15.15,0,0,1,292.6,121.44Z"/><path class="cls-50" d="M313.6,141c1.45,2.09,3.47,5.11,3,7.8,0,.17-.25.13-.31,0-.46-1.12-.54-2.4-1-3.56a30.35,30.35,0,0,0-2.11-4A.22.22,0,0,1,313.6,141Z"/><path class="cls-50" d="M316.58,150.09l0-.18c0-.09.06-.14.07-.23a.19.19,0,0,1,.36,0l.06.16a1.54,1.54,0,0,1,0,.24c0,.15,0,.29,0,.44s0,.53-.3.53-.3-.33-.3-.53A4.11,4.11,0,0,1,316.58,150.09Z"/><path class="cls-47" d="M291,157.18a3.68,3.68,0,0,0,1.54-.5c.34-.19.59-.5,1-.5a.19.19,0,0,1,.19.19c.07.66-.78,1.14-1.28,1.41a3.92,3.92,0,0,1-2.29.43.55.55,0,0,1-.5-.38C289.32,157,290.57,157.2,291,157.18Z"/><path class="cls-44" d="M289.79,155.75a8.47,8.47,0,0,0,1.69-.3c.52-.22.86-.66,1.35-.91.14-.07.38,0,.36.2-.16,1.34-2.34,2.26-3.49,1.74A.41.41,0,0,1,289.79,155.75Z"/><path class="cls-47" d="M289.2,153.78a4,4,0,0,0,1.5-.12c.61-.23,1.13-.72,1.75-.89a.2.2,0,0,1,.23.3c-.4.88-3.23,2.61-3.74,1.05A.27.27,0,0,1,289.2,153.78Z"/><path class="cls-44" d="M289.8,152c.94.07,1.61-.88,2.42-1.18.19-.07.35.17.25.33a4.24,4.24,0,0,1-1.73,1.56c-.53.26-1.43.41-1.78-.18S289.52,151.95,289.8,152Z"/><path class="cls-47" d="M289.08,150.24c1.06-.07,1.83-.86,2.8-1.16.19-.06.41.19.28.36a4.89,4.89,0,0,1-1.94,1.34c-.4.17-1.63.63-1.95.09S288.74,150.27,289.08,150.24Z"/><path class="cls-44" d="M288.06,148.46c1.38.4,2.36-.86,3.65-1.07a.19.19,0,0,1,.18.31,6.88,6.88,0,0,1-2,1.39,2.77,2.77,0,0,1-2,.22A.44.44,0,0,1,288.06,148.46Z"/><path class="cls-47" d="M286.87,146.59a4.51,4.51,0,0,0,2.45-.16c.68-.23,1.2-.89,1.91-.94a.19.19,0,0,1,.16.28c-.89,1.58-3.15,2-4.77,1.71C286,147.37,286.29,146.46,286.87,146.59Z"/><path class="cls-50" d="M300.27,111l.13-.83c0-.29.54-.22.51.07l-.09.77v0a.73.73,0,1,1-.54,0Z"/><path class="cls-47" d="M296.64,105.19c.67,1.89,1.57,3.51,3.54,4.27,1.77.68,4.37-.71,5.72-1.75a.14.14,0,0,1,.22.17,6,6,0,0,1-5.55,2.47c-2.58-.52-4-2.56-4.65-5C295.77,104.91,296.48,104.73,296.64,105.19Z"/><path class="cls-51" d="M300.51,111.39a.38.38,0,0,1,0,.76A.38.38,0,0,1,300.51,111.39Z"/><path class="cls-52" d="M296.15,86.29a8.22,8.22,0,0,1,12-.38c4,3.65,3.52,11.47,2.24,14a28.53,28.53,0,0,0-1.86,7.24s-1.86-3-1-5.25c.83-2.06-.26-5.77-1.6-7.82s-.38-3.4-.38-3.4-2.11,2.56-4.74,2.24-5.7,3.2-6,6.34-1.09,3.59-2.37,4.29c0,0,1.41-4,.7-6.6S293.91,88.79,296.15,86.29Z"/><path class="cls-53" d="M308.6,87.49c1,1.35,2.42,4,1.32,5.65a.11.11,0,0,1-.2-.05,13.68,13.68,0,0,0-.24-2.81,19.67,19.67,0,0,0-1.2-2.6A.19.19,0,0,1,308.6,87.49Z"/><path class="cls-53" d="M309.89,95.31c0-.28,0-.56.08-.84a.23.23,0,0,1,.44,0,2.2,2.2,0,0,1-.23,1.56c0,.09-.21.08-.23,0A2.79,2.79,0,0,1,309.89,95.31Z"/><path class="cls-53" d="M296.72,87A16.25,16.25,0,0,1,300,84.28c.23-.14.49.19.29.37-.94.85-2,1.58-2.87,2.48a10.27,10.27,0,0,0-1.23,1.51,7.78,7.78,0,0,1-.9,1.47A.17.17,0,0,1,295,90C294.88,88.89,296,87.73,296.72,87Z"/><path class="cls-53" d="M294.28,92.22c0-.21.12-.41.16-.62a1.75,1.75,0,0,1,.15-.56.22.22,0,0,1,.38,0,1.44,1.44,0,0,1,0,1c-.07.29-.24.73-.58.74S294.25,92.35,294.28,92.22Z"/><path class="cls-31" d="M237.87,143.85c1.59,0,2.41,1,2.41,2.62v.33h-1.55v-.43c0-.74-.3-1-.82-1s-.82.28-.82,1c0,2.14,3.2,2.55,3.2,5.53,0,1.67-.83,2.62-2.44,2.62s-2.44-1-2.44-2.62v-.64H237V152c0,.74.33,1,.85,1s.85-.27.85-1c0-2.14-3.2-2.55-3.2-5.53C235.45,144.81,236.27,143.85,237.87,143.85Z"/><path class="cls-31" d="M248,154.4h-1.65l-.28-1.89h-2l-.28,1.89h-1.5L244,144h2.4Zm-3.74-3.31h1.58l-.79-5.27Z"/><path class="cls-31" d="M250.27,144h1.64v8.94h2.7v1.49h-4.33Z"/><path class="cls-31" d="M258.44,148.37h2.25v1.49h-2.25v3.05h2.83v1.49h-4.47V144h4.47v1.49h-2.83Z"/></g></g></svg>