<svg xmlns="http://www.w3.org/2000/svg" xmlns:xlink="http://www.w3.org/1999/xlink" viewBox="0 0 441.72 340.15"><defs><style>.cls-1{fill:none;}.cls-2{isolation:isolate;}.cls-3{clip-path:url(#clip-path);}.cls-4{opacity:0.5;}.cls-5{clip-path:url(#clip-path-2);}.cls-6{fill:#dbe4e2;}.cls-7{fill:#fff;}.cls-8{fill:#737373;}.cls-9{fill:#d4fbfc;}.cls-10{fill:#a0ad51;}.cls-11{fill:#b6c75b;}.cls-12{fill:#4b4b4b;}.cls-13{fill:#8d5b42;}.cls-14{fill:#393939;}.cls-15{fill:#e8ae4b;}.cls-16{mix-blend-mode:multiply;}.cls-17{fill:#bbb;}.cls-18{fill:#636363;}.cls-19{fill:#323232;}.cls-20{fill:silver;}.cls-21{fill:#8a8a8a;}.cls-22{fill:#2d2d2d;}.cls-23{fill:#555;}.cls-24{fill:#e27a51;}.cls-25{fill:#888;}.cls-26,.cls-33{fill:#c1d8db;}.cls-27{fill:#272525;}.cls-28{fill:#2c3c4c;}.cls-29{fill:#b5e0e2;}.cls-30{fill:#d85252;}.cls-31{fill:#d44731;}.cls-32{fill:#cc4732;}.cls-33{stroke:#c1d8db;stroke-miterlimit:10;}.cls-34{fill:#c6c6c6;}.cls-35{fill:#5adb78;}.cls-36{font-size:1.88px;fill:#6d6e70;font-family:CooperHewitt-MediumItalic, CooperHewitt MediumItalic;font-style:italic;letter-spacing:0.5em;}.cls-37{letter-spacing:0.5em;}.cls-38{letter-spacing:0.52em;}.cls-39{letter-spacing:0.5em;}.cls-40{clip-path:url(#clip-path-3);}.cls-41{clip-path:url(#clip-path-4);}</style><clipPath id="clip-path"><rect class="cls-1" x="207.86" y="-311.05" width="130.24" height="188.93"/></clipPath><clipPath id="clip-path-2"><rect class="cls-1" x="1.36" y="5.59" width="438.31" height="256.7" transform="translate(0.18 -0.3) rotate(0.08)"/></clipPath><clipPath id="clip-path-3"><rect class="cls-1" x="75.95" y="387.23" width="247.28" height="143.25"/></clipPath><clipPath id="clip-path-4"><rect class="cls-1" x="83.5" y="395.43" width="230.92" height="128.11"/></clipPath></defs><title>vector sign up</title><g class="cls-2"><g id="OBJECTS"><g class="cls-4"><g class="cls-5"><path class="cls-6" d="M608.61,113.83l-.13,96h-3.6l.09-65-19.71,0-.09,65-31.76,0L553.55,107l-23.65,0-.14,102.77h-5l.17-123.83c0-6.93-4.9-12.59-11.09-13L513.17,40,512.4,72.9c-6.2.4-11.12,6-11.13,13l-.17,123.83-30.79,0,.13-92.52-23.65,0-.13,92.52-19.32,0,.1-72.72-27,0-.1,72.72-15.25,0L385.27,83H375.05l-.81-39.57L373.32,83l-13.59,0,0,25.44-16.84,0-8.32-15.94-8.36,15.91h-1.69l0-15-23.79,0-.16,116.07h-4.61l.07-52.11-10.93,0,0-15.79-18.21,0,0-11-19.43,0,0,18.2h-8.74l.12-90.46h-6.29a14.54,14.54,0,0,0-12.18-10l-.87-42.66-1,42.64c-5.73.32-10.57,4.34-12.58,9.95h-5l-.21,151.13h-4.61l.13-93.06-22.58,0-.13,93.06h-7.28l.13-93.06-15.95,0L134.86,86.28l-15.69,29.85-15.4,0-.13,93.06H100l.07-47.61-24.77,0-.07,47.61H69.89l.05-37.66-12.38,0-.05,37.66-11.17,0,.09-63.94-18.69,0-.09,63.94H26.43l.06-42L14.1,167v-5.62l-12.38,0L1.67,209H-2l.1-71.65-17.48,0,0-21.41-12.61,0-.95-46.21L-34,115.92h-5.2l-.2,146,667,.92.21-149Z"/></g></g><rect class="cls-7" x="85.69" y="84.61" width="265.81" height="130.44"/><path class="cls-8" d="M351.5,85.47V215.05H85.7V85.47H351.5M355,79.81H82.22A2.17,2.17,0,0,0,80,82V218.53a2.17,2.17,0,0,0,2.17,2.17H355a2.17,2.17,0,0,0,2.17-2.17V82A2.17,2.17,0,0,0,355,79.81Z"/><path class="cls-9" d="M319.41,128a1.78,1.78,0,0,1,1.14-2.6,4.54,4.54,0,0,1,6.2-5.39,9,9,0,0,1,17.52-4.43,6.77,6.77,0,0,1,7.23,3.15v11.73h-42Z"/><path class="cls-9" d="M164.55,130.42a1.15,1.15,0,0,0-.73-1.67,2.92,2.92,0,0,0-4-3.47,5.82,5.82,0,0,0-5.69-7.05,5.78,5.78,0,0,0-2.15.41,7.24,7.24,0,0,0-7.18-2.57,9.68,9.68,0,0,0-18.76,4.75,4.86,4.86,0,0,0-6.63,5.77,1.91,1.91,0,0,0-1.22,2.78L107.61,132h63.31Z"/><path class="cls-9" d="M286.33,113.42a1.15,1.15,0,0,0-.73-1.67,2.92,2.92,0,0,0-4-3.47,5.82,5.82,0,0,0-5.69-7.05,5.79,5.79,0,0,0-2.15.41,7.24,7.24,0,0,0-7.18-2.57,9.68,9.68,0,0,0-18.76,4.75,4.86,4.86,0,0,0-6.63,5.77,1.91,1.91,0,0,0-1.22,2.78L229.39,115H292.7Z"/><path class="cls-10" d="M224.78,158.46a11.66,11.66,0,0,1,11.66,11.66H213.12A11.66,11.66,0,0,1,224.78,158.46Z"/><path class="cls-11" d="M213.12,162a8.16,8.16,0,0,1,8.16,8.16H205A8.16,8.16,0,0,1,213.12,162Z"/><path class="cls-11" d="M244.55,165.94a4.19,4.19,0,0,1,4.19,4.18h-8.37A4.19,4.19,0,0,1,244.55,165.94Z"/><path class="cls-10" d="M309,158.46a11.66,11.66,0,0,1,11.66,11.66H297.29A11.66,11.66,0,0,1,309,158.46Z"/><path class="cls-11" d="M297.29,162a8.16,8.16,0,0,1,8.16,8.16H289.13A8.16,8.16,0,0,1,297.29,162Z"/><path class="cls-11" d="M328.72,165.94a4.19,4.19,0,0,1,4.19,4.18h-8.37A4.19,4.19,0,0,1,328.72,165.94Z"/><rect class="cls-12" x="85.06" y="170.11" width="266.44" height="14.55"/><circle class="cls-10" cx="138.2" cy="141.23" r="6.07" transform="matrix(0.05, -1, 1, 0.05, -9.53, 272.46)"/><circle class="cls-10" cx="120" cy="144.24" r="6.07" transform="translate(-29.85 257.15) rotate(-87.24)"/><circle class="cls-11" cx="129.57" cy="128.82" r="12.18" transform="translate(-5.35 252.02) rotate(-87.23)"/><path class="cls-13" d="M131.09,167.17l0-.12c0-.08,0-.2.05-.35,0-.31.09-.76.12-1.32s.05-1.24.05-2,0-1.64-.06-2.56v-.33c0-.1,0-.23,0-.35s0-.48,0-.73l0-1.54.08-3.35c0-.58,0-1.18,0-1.78v-.91c0-.31,0-.61,0-.92,0-.62,0-1.24,0-1.87q0-.47,0-.94c0-.31-.05-.63-.08-.94-.12-1.25-.26-2.48-.4-3.7l-.41-3.55c-.25-2.3-.46-4.45-.54-6.29s-.07-3.38,0-4.45l.07-1.25c0-.14,0-.25,0-.33v-.11c.06-.62-.05-1.1-.24-1.06s-.34.46-.42,1l0,.11c0,.08,0,.19,0,.33l-.15,1.26c-.09,1.09-.21,2.65-.2,4.53s.09,4.06.26,6.38c.08,1.16.18,2.36.28,3.58s.19,2.45.27,3.67c0,.3,0,.61,0,.91s0,.61,0,.91v1.81c0,.3,0,.6,0,.9s0,.6,0,.9c0,.59,0,1.18-.06,1.76l-.16,3.34q0,.8-.07,1.56l0,.74v.18c0,.06,0,.12,0,.19v.38c0,.94,0,1.77,0,2.51s0,1.38-.07,1.89-.08.92-.12,1.19,0,.24,0,.3l0,.1c-.07.42-.14.82-.2,1.16s-.12.63-.18.85l0,.09,0,.07c0,.05,0,.11,0,.15l0,.14,0,.12,0,.06,0,.06,0,.11a.5.5,0,0,0,0,.22c0,.13.15.24.4.25a1.45,1.45,0,0,0,.91-.37,3.15,3.15,0,0,0,.8-1.07,5.5,5.5,0,0,0,.44-1.41Z"/><path class="cls-13" d="M130.53,139.45l.07-.45c0-.14.07-.32.11-.52s0-.21.07-.32l.09-.35c0-.12.06-.25.1-.38l.13-.41c.08-.28.19-.57.29-.88.21-.61.46-1.25.71-1.9s.51-1.3.74-1.92.43-1.2.58-1.71.26-.94.33-1.23l.09-.48c0-.18,0-.32-.11-.32s-.17.1-.22.24l-.14.45c-.1.28-.24.69-.44,1.17s-.44,1-.7,1.63l-.86,1.86c-.29.64-.58,1.28-.83,1.9-.12.31-.24.61-.34.9l-.15.42c0,.14-.08.27-.12.4l-.11.37c0,.12-.06.23-.08.34s-.1.4-.13.56l-.09.49c0,.07,0,.13,0,.2a1.66,1.66,0,0,0,0,.19,1.32,1.32,0,0,0,.07.33c.07.19.18.31.32.32a.45.45,0,0,0,.38-.24,1.21,1.21,0,0,0,.14-.28,1.58,1.58,0,0,0,0-.17c0-.06,0-.12,0-.18Z"/><path class="cls-13" d="M129.75,135.17v-.09a2,2,0,0,0,0-.25l-.09-.38-.16-.48-.22-.54c-.09-.18-.17-.38-.27-.58-.2-.39-.43-.8-.67-1.2s-.48-.79-.72-1.15l-.64-1-.44-.7-.16-.27a.19.19,0,0,0-.25-.09.19.19,0,0,0-.05.24l.12.3c.08.19.19.45.35.76s.32.68.52,1.06.4.79.59,1.2.39.82.55,1.2c.08.19.15.38.22.56l.17.5.12.42.07.32a1.38,1.38,0,0,1,0,.21v.07a.72.72,0,0,0,.06.21.58.58,0,0,0,.11.17.53.53,0,0,0,.35.19.39.39,0,0,0,.35-.18.72.72,0,0,0,.11-.23.73.73,0,0,0,0-.28Z"/><path class="cls-13" d="M130.41,152.3a6.9,6.9,0,0,0-.43-.54,17.39,17.39,0,0,0-1.22-1.26l-.85-.78-1-.84c-.68-.57-1.41-1.17-2.15-1.75s-1.49-1.16-2.19-1.7L120.67,144l-1.35-1-.5-.4c-.18-.15-.35-.21-.4-.14s0,.24.18.38l.48.45c.31.28.75.67,1.29,1.13l1.84,1.57,2.1,1.79c.71.61,1.42,1.23,2.07,1.82l.93.85.81.78c.49.49.88.91,1.13,1.21a5.67,5.67,0,0,1,.37.48,6.26,6.26,0,0,0,.46.59c.05.05.1.09.14.14a.81.81,0,0,0,.12.17.19.19,0,0,0,.23,0,.55.55,0,0,0,.21-.39,1.25,1.25,0,0,0-.06-.54,2,2,0,0,0-.26-.51Z"/><path class="cls-13" d="M131.69,148.85l.32-.31c.1-.1.23-.21.38-.34l.24-.21.27-.23.29-.25.32-.26.71-.56c.49-.39,1-.8,1.54-1.25.26-.22.51-.46.75-.69l.35-.36c.11-.12.23-.24.33-.36l.31-.36c.1-.12.18-.25.27-.37l.25-.35.21-.35.19-.32.14-.3c.09-.19.17-.35.22-.49l.16-.44c.06-.16,0-.31-.06-.32s-.18.07-.24.2l-.2.41c-.06.13-.16.27-.26.45L138,142l-.2.29-.22.31-.26.31c-.09.1-.18.22-.28.32l-.31.32c-.1.11-.22.21-.34.32l-.36.32c-.25.2-.5.42-.76.61-.52.4-1.07.78-1.58,1.15l-.74.53-.34.25-.32.24-.29.23-.25.21c-.16.14-.3.25-.41.36l-.35.33-.13.14-.1.15a1.24,1.24,0,0,0-.13.29.42.42,0,0,0,.07.44.44.44,0,0,0,.44,0,1.11,1.11,0,0,0,.27-.13,2.38,2.38,0,0,0,.27-.22Z"/><path class="cls-13" d="M126.09,148.71l-.35-.24c-.23-.14-.55-.35-1-.56-.2-.11-.42-.22-.66-.33s-.49-.22-.74-.34c-.52-.22-1.08-.45-1.64-.66l-1.65-.61-1.43-.54-1-.41-.37-.17c-.14-.06-.26-.08-.26,0s.07.12.19.18l.37.2c.24.12.57.29,1,.47l1.42.61,1.63.67c.55.23,1.1.47,1.61.7.25.12.5.23.72.35s.44.22.63.34c.39.21.7.41.91.55l.33.23a2.94,2.94,0,0,0,.5.29c.14.06.26.07.31,0s0-.15-.07-.28a1.6,1.6,0,0,0-.17-.21l-.11-.11-.14-.1Z"/><path class="cls-13" d="M123.85,146.39l-.14-.23c-.08-.15-.19-.37-.33-.62l-.1-.2-.1-.22-.21-.48c-.07-.17-.13-.35-.2-.53s-.14-.36-.19-.55l-.17-.56c-.06-.18-.1-.37-.15-.55-.1-.36-.17-.69-.23-1s-.1-.53-.13-.7l0-.27c0-.1-.07-.17-.11-.15s-.06.09-.05.17l0,.27c0,.17,0,.42.08.72s.08.64.16,1c0,.18.07.38.11.57l.15.58c0,.2.11.39.17.57s.12.38.18.55l.2.51.09.23.1.21c.13.27.24.5.33.66l.14.24c.16.27.38.42.5.35s.09-.34-.06-.59Z"/><path class="cls-13" d="M135.17,145.91a2.23,2.23,0,0,0,.2-.24,4.27,4.27,0,0,0,.39-.69c.07-.15.13-.31.2-.48s.12-.35.18-.54c.11-.38.21-.78.29-1.19s.14-.82.19-1.2.09-.74.11-1.05,0-.57.05-.75v-.28c0-.11,0-.18-.08-.18s-.08.08-.09.16l0,.28c0,.18-.06.43-.11.73s-.11.66-.18,1-.16.77-.25,1.17-.21.78-.33,1.14c-.06.18-.12.35-.19.51s-.13.31-.2.44a4,4,0,0,1-.36.6,1.81,1.81,0,0,1-.16.2c0,.05-.09.1-.12.15a.85.85,0,0,0-.09.14.26.26,0,0,0,0,.23c0,.06.11.09.23.07l.19-.08a1,1,0,0,0,.19-.16Z"/><path class="cls-10" d="M127,165.38a4.74,4.74,0,0,1,4.74,4.74h-9.48A4.74,4.74,0,0,1,127,165.38Z"/><path class="cls-11" d="M122.31,166.8a3.32,3.32,0,0,1,3.32,3.32H119A3.32,3.32,0,0,1,122.31,166.8Z"/><path class="cls-11" d="M135.08,168.42a1.7,1.7,0,0,1,1.7,1.7h-3.4A1.7,1.7,0,0,1,135.08,168.42Z"/><path class="cls-10" d="M158.88,158.46a11.66,11.66,0,0,1,11.66,11.66H147.22A11.66,11.66,0,0,1,158.88,158.46Z"/><path class="cls-11" d="M147.22,162a8.16,8.16,0,0,1,8.16,8.16H139.06A8.16,8.16,0,0,1,147.22,162Z"/><path class="cls-11" d="M178.65,165.94a4.18,4.18,0,0,1,4.18,4.18h-8.37A4.19,4.19,0,0,1,178.65,165.94Z"/><rect class="cls-14" x="259.91" y="178.85" width="23.41" height="1.53" rx="0.74" ry="0.74"/><rect class="cls-14" x="178.47" y="178.85" width="23.41" height="1.53" rx="0.74" ry="0.74"/><polygon class="cls-14" points="157.53 163.79 157.53 171.96 164.2 171.57 163.92 166.22 157.53 163.79"/><path class="cls-15" d="M226.49,129c-2.27,0-12.08-.49-19.19,3.07s-21.32,12.27-22,12.27a44.49,44.49,0,0,0-4.5.38c-7.3,1-18.32,5.07-20.27,7.4s-1.64,5.15-2.31,6.25-1.66,1-1.66,2.82v2.33c0,.52-.09,1.38,1.1,1.38s4,2.39,4,4-.93,1.55-1.55,1.55h-3.59c-.27,0-.58.49-.37,1.32a3.15,3.15,0,0,0,3.28,2.21H253s8.77-2.27,11.9-2.27h7c.74,0,2-1.59,2.67-3.65s1.26-6.62,1-7.27-2.15-1.66-2.15-3V146.15c0-.49-9.29-12-9.38-12s.89-.64.52-1-17.06-4.22-22.76-4.22Z"/><g class="cls-16"><path class="cls-17" d="M227,172H199.8c-1.71,0-2.18-.47-2.18-2.18v-19c0-6.3,4-9,4-9.07l.15.23s-3.92,2.7-3.92,8.85v19c0,1.56.34,1.9,1.9,1.9H227c1.17,0,2.13-.16,2.13-2.15V151.21a20.67,20.67,0,0,1,1.11-6.36l.26.08a20.41,20.41,0,0,0-1.1,6.27v18.33C229.45,171.78,228.26,172,227,172Z"/></g><path class="cls-18" d="M261.14,159.71A11.15,11.15,0,0,0,250,170.85V174h3s8.77-2.27,11.9-2.27h7a.8.8,0,0,0,.35-.1v-.74A11.15,11.15,0,0,0,261.14,159.71Z"/><path class="cls-18" d="M190.81,170.85a11.14,11.14,0,0,0-22.28,0V174h22.28Z"/><circle class="cls-14" cx="179.67" cy="170.85" r="9.54"/><circle class="cls-19" cx="179.67" cy="170.85" r="7.41"/><circle class="cls-20" cx="179.67" cy="170.85" r="6.68"/><circle class="cls-21" cx="179.67" cy="170.85" r="5.85"/><circle class="cls-22" cx="179.67" cy="170.85" r="5.25"/><circle class="cls-20" cx="179.67" cy="170.85" r="1.2"/><polygon class="cls-20" points="180.77 170.49 178.58 170.49 179.08 164.52 180.26 164.52 180.77 170.49"/><polygon class="cls-20" points="179.67 169.69 178.99 171.77 173.47 169.45 173.83 168.33 179.67 169.69"/><polygon class="cls-20" points="178.57 170.49 180.34 171.78 176.43 176.31 175.47 175.62 178.57 170.49"/><polygon class="cls-20" points="179 171.78 180.77 170.49 183.87 175.62 182.91 176.31 179 171.78"/><polygon class="cls-20" points="180.35 171.78 179.67 169.69 185.51 168.33 185.87 169.45 180.35 171.78"/><circle class="cls-14" cx="261.14" cy="170.85" r="9.54"/><circle class="cls-19" cx="261.14" cy="170.85" r="7.41"/><circle class="cls-20" cx="261.14" cy="170.85" r="6.68"/><circle class="cls-21" cx="261.14" cy="170.85" r="5.85"/><circle class="cls-22" cx="261.14" cy="170.85" r="5.25"/><circle class="cls-20" cx="261.14" cy="170.85" r="1.2"/><polygon class="cls-20" points="262.24 170.49 260.05 170.49 260.55 164.52 261.73 164.52 262.24 170.49"/><polygon class="cls-20" points="261.14 169.69 260.46 171.77 254.94 169.45 255.3 168.33 261.14 169.69"/><polygon class="cls-20" points="260.04 170.49 261.81 171.78 257.89 176.31 256.94 175.62 260.04 170.49"/><polygon class="cls-20" points="260.46 171.78 262.24 170.49 265.33 175.62 264.38 176.31 260.46 171.78"/><polygon class="cls-20" points="261.82 171.78 261.14 169.69 266.98 168.33 267.34 169.45 261.82 171.78"/><path class="cls-23" d="M273.2,145.66h-1.61c-2.27,0-2.54-.37-3.1-1s-4-6.74-4.75-8.28-.46-1.93.58-1.93h.07C265.77,136.15,271.82,143.64,273.2,145.66Zm-16.07-8.81c.32-.69.3-2.14-2.76-2.81a171.81,171.81,0,0,0-24.88-1.56c-3.17,0-8.74-.6-15.91,2.21s-13.47,8.19-13.7,9.29-.32,2.48,2.12,2.48h46.86a4.54,4.54,0,0,0,4.32-2.39C254.37,142,256.81,137.54,257.13,136.85Zm-68.79,8.42a5.45,5.45,0,0,0,4.87-1.06c1.79-1.33,8.32-6.21,11-7.73s5.33-3.14,6-3.45.58-1.1-.55-1.29a11.77,11.77,0,0,0-1.6-.08l-.76.36c-7.11,3.56-21.32,12.27-22,12.27C186.48,144.7,187.72,145.11,188.34,145.26Z"/><path class="cls-22" d="M226,146.46h6.36l1.67-13.93c-1.2,0-2.42,0-3.67,0Z"/><path class="cls-7" d="M176.29,149s-8.78,1-11.22,2.16-4.41,4.27-4.55,5.51.51,1.57,1.75,1,8.28-3.69,9.24-4.22S177.83,148.79,176.29,149Z"/><path class="cls-24" d="M166,156c2.34-1.06,5-2.26,5.55-2.56,1-.52,6.32-4.67,4.78-4.48,0,0-3.26.38-6.36.93A27.26,27.26,0,0,0,166,156Z"/><path class="cls-24" d="M270.93,146.46a1.2,1.2,0,0,0-1.2,1.2V154a1.2,1.2,0,0,0,1.2,1.2h2.55v-8.74Z"/><g class="cls-16"><path class="cls-17" d="M261.23,153.13a3.08,3.08,0,1,1,3.08-3.08A3.08,3.08,0,0,1,261.23,153.13Zm0-5.89A2.81,2.81,0,1,0,264,150,2.81,2.81,0,0,0,261.23,147.24Z"/></g><path class="cls-25" d="M214.89,146.46l6.72-13.79a32.21,32.21,0,0,0-8,2c-.67.26-1.33.55-2,.85l-5.32,10.93Z"/><path class="cls-25" d="M229.48,132.48c-1.16,0-2.63-.08-4.38,0l-6.83,14h4.4Z"/><path class="cls-25" d="M253.42,133.88c-1.55-.23-4.43-.55-8.21-.83l-6.53,13.41h8.61Z"/><path class="cls-26" d="M319.32,254.23l-.08-.11-.21.06C319,254.27,319.23,254.26,319.32,254.23Z"/><path class="cls-26" d="M316.62,249.16h0S316.62,249.14,316.62,249.16Z"/><path class="cls-26" d="M336,237.57a.79.79,0,0,0,.08-.18A.47.47,0,0,0,336,237.57Z"/><path class="cls-26" d="M338.18,241.69a.07.07,0,0,0-.11,0l.11.06A.58.58,0,0,0,338.18,241.69Z"/><path class="cls-26" d="M348.42,259.4a.07.07,0,0,1,.06-.07,2.29,2.29,0,0,0-.4-.26c-.13-.09-.24-.18-.37-.27s0-.07-.09-.09a.52.52,0,0,1-.24.26c-.07,0-.2.05-.23.13a.62.62,0,0,0,.11.15.76.76,0,0,1-.46,0c-.06,0-.24-.1-.31,0s0,.34,0,.45c-.11.35-.54.31-.79.45,0,.29-.11.66-.47.68-.09-.15.16-.16,0-.31s-.12,0-.17-.08a1.45,1.45,0,0,1-.25-.38c-.09-.17-.06-.24,0-.41s.1-.21.14-.32a.81.81,0,0,0,.22.14c.25.06.34-.18.38-.39s.12-.33,0-.42a.78.78,0,0,0-.33-.12.28.28,0,0,0,0-.08.56.56,0,0,0,.17-.26c0-.14,0-.07,0-.18s-.07-.12-.1-.18-.06-.09-.16-.2-.07-.12-.15-.16-.22-.07-.32-.13-.46-.31-.17-.44c0-.08-.06-.13-.07-.21s.51.07.61.17.08.2.18.23c.29.1.24-.19.34-.35s.25-.12.44,0a.68.68,0,0,0,.46.06c.28-.09.19-.39.34-.57s.33,0,.5-.09.47-.36.47-.47-.36-.39-.61-.4c.26,0,.45-.46.44-.71a.8.8,0,0,0-.63.12.42.42,0,0,0-.18-.31c-.2-.14-.5-.1-.67-.28a.68.68,0,0,1,.23,0c.24,0,.48-.07.73-.08s.33,0,.45,0a.79.79,0,0,0,.22-.49c0-.15-.09-.28,0-.45s.32-.43,0-.41c0-.12.05-.32-.15-.32.09-.17.32-.25.46-.38-.24-.06-.66.18-.86.06s-.11-.12-.25-.17a1,1,0,0,1-.69-.78.44.44,0,0,0-.43-.33c-.09,0-.33.13-.41.08s-.09-.41-.13-.54c-.23-.08-.53.2-.73.3,0-.43.62-.66.3-1.09-.17-.23-.48-.31-.47-.65a.59.59,0,0,1,.41-.56c.13,0,.29,0,.33-.16.1-.34-.44-.36-.42-.55.24-.09.54.08.77-.06s.29-.48.5-.65a.09.09,0,0,0,.09.06,1,1,0,0,0-.24-1.55.59.59,0,0,0-.21-.09.09.09,0,0,1-.12,0,1.4,1.4,0,0,1-.4-.11c-.34,0-.49,0-.53.39a2.59,2.59,0,0,0,0,.44c0-.22-.3-.57-.48-.61s-.4.36-.55.43-.42-.1-.63-.22-.22-.08-.25-.2a3.07,3.07,0,0,0,.79-.23c.45-.24,0-.34-.07-.65a1.61,1.61,0,0,1,.16-.76c.09-.26,0-.28-.14-.47s-.16-.31-.33-.3-.26.41-.51.4-.5-.42-.77-.52-.44.14-.58.36a8.45,8.45,0,0,1-.74-1.27,2.12,2.12,0,0,0-.16-.47.93.93,0,0,0-.67-.23c0,.4-.26.48-.64.53a2,2,0,0,1-.73.08c0,.19-.07.51-.22.58a1.38,1.38,0,0,0-.09-.33c0-.07-.24-.25-.25-.32s.33-.32.44-.4.51-.24.47-.45-.31-.34-.43-.44-.44-.33-.66-.51-.14-.13-.29,0-.25.27-.35.08a1,1,0,0,0-.21.71c.06.32.39.5.52.79l0,.07c-.11.18-.21.37-.31.56l-.08.15a1.62,1.62,0,0,0,.08-.22c.06-.23.25-.46,0-.63s-.25-.06-.4-.11,0-.14-.16-.09c0-.14,0-.3-.13-.4a.22.22,0,0,0-.16,0,.71.71,0,0,0,0-.16,2.88,2.88,0,0,0,.42-.31.45.45,0,0,0,.16-.44.52.52,0,0,0-.22-.31c-.09,0-.19,0-.28.05a.72.72,0,0,0,0-.24s0-.05,0-.08l.07-.07c.16-.13.44,0,.51-.2s-.68-.85-.84-.58a2.59,2.59,0,0,0,.25-.68l0-.15c-.09.16-.22.3-.31.46s-.08.35-.19.47l-.09,0h0c-.25-.21-.06-.39-.05-.63a.54.54,0,0,1-.49.14c-.12-.06-.14-.27-.3-.35,0-.09.09-.09.15-.15s0-.12,0-.24a1.47,1.47,0,0,0-.12-.54c-.08-.15-.18-.33-.37-.14s-.09.29-.15.4-.17.15-.26.1a2,2,0,0,1,0-.55c0-.2.13-.58,0-.74a1,1,0,0,0-1,.43l-.06.19c-.07-.08-.15-.14-.21-.09s.29.42,0,.48-.36-.22-.43,0a2.58,2.58,0,0,0-.4-.09c-.27,0-.34.07-.5.27s-.08.13-.23.14-.37-.06-.4.09c-.28.06-.52.23-.79.29-.08,0-.18,0-.26,0-.25.07-.31.4-.43.59-.17-.13-.37-.43-.59-.47s-.39.12-.56.15a4.77,4.77,0,0,1-.7.05H327c-.18.16.16.33.25.44a.44.44,0,0,1,.18.28l-.06.21c0,.24.1.26.23.43s0,.43-.23.54l-.13,0a.29.29,0,0,0-.14.07,1.51,1.51,0,0,1-.42,0,4.61,4.61,0,0,0,.71.48c.3.24.59.12.93.21a.89.89,0,0,1-.07.59c-.11.27-.2.23-.48.25a1.61,1.61,0,0,1-.8,0c-.16-.08-.23-.28-.41-.34a1.43,1.43,0,0,1-.13.26c-.15,0-.28,0-.34-.16,0,.18-.51.26-.55.29s-.15-.15-.23-.23c.15,0,.41-.32.21-.4a1.31,1.31,0,0,0-.6,0,1.62,1.62,0,0,0-.54.18.92.92,0,0,0,0,.65.85.85,0,0,0-.26.17.47.47,0,0,1-.44.16,3,3,0,0,0-.44,0c-.23,0-.17.1,0,.24-.06.17-.21.19-.34.28s-.12.12-.12.28,0,.23-.12.31-.16,0-.2.16a1.28,1.28,0,0,0-.08.36c0,.21.34.2.47.3s.12.25,0,.38-.25.18,0,.31a4.17,4.17,0,0,0,.49.24l.48.24c.18.08.53.24.43.52a.59.59,0,0,1-.11-.11.59.59,0,0,0,.11.11c0,.1-.16.13-.24.2s-.13.24-.21.34a4.94,4.94,0,0,0,.93.38c.36.18,0,.33-.08.54.29.05.48.21.32.47a2.69,2.69,0,0,1,.93.67c.12.16.05.31.15.48a.9.9,0,0,0,.34.28,1.39,1.39,0,0,1,.23.12c.09.09,0,.51.07.63a1.48,1.48,0,0,0,.12.33,1.85,1.85,0,0,1,.06.28.24.24,0,0,0,.1.15.55.55,0,0,1-.23,0l0-.24a.3.3,0,0,0-.29.07,1.21,1.21,0,0,0-.27.19c-.06,0-.06,0-.11-.06-.32-.14,0-1.05,0-1.3a.08.08,0,0,0-.06,0c-.13-.06-.32.11-.46.18a.3.3,0,0,1,0-.19.27.27,0,0,0-.2,0c-.09-.14,0-.36,0-.51l-.06-.2c0-.13-.06-.25-.09-.39-.17,0-.12-.13-.22-.22l-.16-.07a1,1,0,0,0-.24-.22c-.18-.1-.43,0-.58-.15s-.06-.22-.12-.33-.33-.19-.44-.43a3.9,3.9,0,0,0-.32-.61.57.57,0,0,0-.24-.24.22.22,0,0,1-.14,0,.37.37,0,0,0-.11-.15c-.21-.17-.44,0-.65,0s-.34.2-.53.23-.28-.06-.42,0-.34.83-.61.87-.35-.16-.48-.19a1.12,1.12,0,0,1-.38-.14c-.05.23-.19.78,0,1,0,.09-.26.24-.33.28a.61.61,0,0,1-.54-.06c-.23-.13-.32-.47-.65-.38-.1,0-.24.14-.22.22a1.31,1.31,0,0,0-.53.54.39.39,0,0,0,0,.31c0,.1.15.38.11.47s-.54.11-.55.39c0,0,0,.11,0,.29-.06-.21-.62-.32-.8-.32s-.2,0-.24-.07,0-.21-.07-.34a.79.79,0,0,0-.65-.47c-.2,0-.2.18-.36.24s-.19,0-.29,0a.56.56,0,0,0-.37.39c-.09.38.16.35.39.5s.16.19.26.29.11,0,.14.17a.61.61,0,0,1,0,.31c0,.07-.13.07-.14.16a.36.36,0,0,0,.21,0c-.18.06-.32.44-.29.62,0,0-.06-.07-.09-.11,0,.21-.08.39-.07.6.16.1.54,0,.72,0s.24,0,.31.24a1.55,1.55,0,0,0,.06.18s.07.13.08.16,0,.27.26.2.37-.22.47-.07,0,.18,0,.24.17,0,.23,0c.29,0,.23.28.32.5s.25.15.46.09c-.14.13-.7.24-.69.45a4,4,0,0,0,1,0h.34a.44.44,0,0,0,.26,0c.06,0,0-.09.1-.11,0,.19.14.73.33.8s.26,0,.36-.09.23,0,.34.12a3.5,3.5,0,0,1,.41-.11c.14,0,.61-.2.72-.08s-.09.5-.13.63a4.07,4.07,0,0,0-.25.71c.25,0,.57-.23.81-.29s.34.12.58.25.68,0,.69.13-.66.24-.78.41c.43.27.75-.18,1.15-.07.05.19.11.37.17.55s.2.28.11.37c-.14-.22-1-.22-1,.1l.15,0c0,.12.08.11.13.2s0,.22.06.34.23,0,.35,0a1.42,1.42,0,0,1,.36.22c.15.15,0,.25-.08.38s-.4.26-.4.35.41.28.46.49a1.66,1.66,0,0,1,0,.45h-.21c-.15,0-.15,0-.24-.12s-.08-.18-.28-.2a1.12,1.12,0,0,1-.36-.09c-.23-.11-.32-.48,0-.49.17-.39-.56-.16-.75-.27s-.19-.42-.36-.51-.18.27-.39.22a1.72,1.72,0,0,0-.27-.63c-.12,0-.22.21-.34.24a1.07,1.07,0,0,1-.37,0c-.13,0-.16-.11-.32-.09s-.48.05-.48.24a.44.44,0,0,1,.3,0c-.06.37-.59.5-.46,1s1,.59,1.1,1c-.16,0-.28.19-.4.19s-.21-.13-.38-.22-.68,0-.67-.39c-.41.18-.47.25-.64-.18a1.25,1.25,0,0,1-.13-.48c0-.09.06-.38,0-.46s-.71.12-.93.14a.69.69,0,0,1-.49-.08c-.11-.08-.09-.25-.16-.32s-.26,0-.48-.08-.16-.16-.31-.18c-.43-.05-.35.33-.33.65s.36.67-.07.8c-.14,0-.34-.11-.4.09a.32.32,0,0,0,.09.27c-.16-.18-.5-.31-.5-.51-.32,0-.19-.44-.46-.42s-.28.37-.17.54,0,.09.17.11.26,0,.31,0-.14.57-.16.76-.3-.21-.46-.09,0,.09-.08.12-.18,0-.24,0a1.09,1.09,0,0,0,.43.55c.16,0,.2-.26.21-.39s.23,0,.35,0,.1-.13.13-.27a.44.44,0,0,1,.29,0s0,.13.09.17.22.09.25.29,0,.47.19.56a1.12,1.12,0,0,0,.6-.18c0-.14-.17-.2-.15-.38s.13-.24.32-.24.31.05.3.22c0,0-.06.17-.07.18a.59.59,0,0,0,0,.23c.13,0,.26,0,.39,0s.14.07.24.07.12-.06.19-.07a.53.53,0,0,1,.32.05c.2.07.32.08.26.31s-.22.39-.13.65a2.54,2.54,0,0,0,1.1-.18c.11,0,.25-.12.33,0s0,.26,0,.35c.14.43.65.49,1,.48a1.37,1.37,0,0,1,.47.06.25.25,0,0,0,.26,0c.24-.16.32-.53.7-.41s.48.37.76.3.41-.24.64-.24.54.38.84.47.58-.12.82-.21.28-.05.38-.09.07-.12.15-.2.29,0,.45,0l.1.08a1.89,1.89,0,0,0,.82.35l.15,0h0a4.49,4.49,0,0,0,.5.2,1.86,1.86,0,0,0,.55.1,6.41,6.41,0,0,0,1.07-.13l.26,0h0a1.08,1.08,0,0,0,.23,0l.09,0,.08,0,.12,0h.11l.21,0c.15,0,.29,0,.42.08l.19.07.19.08h0l.18.22.36.42a1.87,1.87,0,0,1,.27.45,10.3,10.3,0,0,0,.24,1c.1.34.22.66.34,1l.19.48c.07.16.12.31.18.48.1.32.19.65.27,1v0l.06.58,0,.31v1.57l0,.12c0,.21-.06.42-.08.64-.08.85-.11,1.7-.11,2.55v1.09l0,.91c0,.05,0,.1,0,.16-.08.47-.16.94-.24,1.4l0,.21c-.09.29-.2.58-.29.88s-.12,4.57-.17,4.78h-.17c-.06.2-.13-.17-.22,0H331c.11-.22.19.21.25,0h.1c0-.08,0,.08,0,0h0c0,.09,0-.09,0,0h0c0,.16-.06-.16-.09,0s-.06-.09-.09,0h-.11c-.07.21-.14-.25-.15,0h.26c0,.18,0-.18,0,0,0,.41,0-.46,0,0h.56s0,.07,0,0h.08c0-.24.09.26.14,0h.25c.05-.19.08.19.1,0h.12c.09-.07.17.11.23,0s.09.1.1,0c0,.12,0-.12,0,0h.56c0-.22,0,.21-.06,0s-.08.19-.11,0,0,0-.06,0h.15c0-.46,0,.43,0,0,0-.11,0-4.53,0-4.63s0-.21,0-.31.05-.42.09-.63c.08-.42.18-.85.26-1.28a9.3,9.3,0,0,0,.15-1.33c0-.22,0-.44,0-.67v-.5c0-.06,0-.12,0-.17a4.87,4.87,0,0,0-.08-.62V273a12.48,12.48,0,0,0,.06-1.46c0-.47,0-.95,0-1.43a12.86,12.86,0,0,0-.05-1.46c-.05-.47-.09-.94-.14-1.42,0-.23,0-.46.06-.69s.11-.64.14-1l.18-.77a.75.75,0,0,1,.12-.22l.11-.12.14-.14.14-.12a1.73,1.73,0,0,1,.33-.19l.34-.14h.13l.21,0a2,2,0,0,0,.41-.09l.19-.08.18-.08.37-.16.37-.18.35-.22.17-.11.09,0,.09-.06a3.41,3.41,0,0,0,.32-.26l.08-.06.08-.07.15-.14,0,0h0l.34-.29.09,0a.33.33,0,0,1,.18,0l.2.06h.07a1.09,1.09,0,0,1,0,.14c.06.23-.15.25-.15.46s.32.05.49.2.06.26.11.36.17.12.24.2.06.22.11.32,0,.11.21.12h.32c.1,0,.17.07.25.08.26,0,.26-.38.37-.55a3.86,3.86,0,0,1,.38.33c.12.09.37.31.52.3s.15-.32.12-.48a.93.93,0,0,0-.16-.44l.11,0a1.36,1.36,0,0,0,.37.06c.08,0,.11,0,.18-.07s.18,0,.23,0l0,0,.2,0c.09,0,.12.09.23.09s.21-.19.26-.36.2-.76.5-.68c.14,0,.13.21.21.3a.65.65,0,0,0,.32.19c.15,0,.3-.14.43-.14s.1,0,.23.09a.81.81,0,0,0,.36,0c.17,0,.17.1.31.15s.64-.12.82-.26.37-.3.27-.43a2.13,2.13,0,0,0-.29-.14c-.14,0-.19,0-.35,0s-.18,0-.23-.05,0-.2,0-.3a.58.58,0,0,0-.18-.21c-.17-.12-.35,0-.51-.09s-.14-.42-.1-.55.18-.2.25-.29a1.22,1.22,0,0,1,.26-.32.46.46,0,0,1,.21.3c0,.18,0,.09-.06.2a1.62,1.62,0,0,0,0,.58c.25.09.48-.1.68-.22s.08,0,.2-.15a1.29,1.29,0,0,0,.14-.38c0-.21.07-.32.31-.41s.46.25.53.54C348.22,260.25,348.77,259.61,348.42,259.4Zm-9.65,2.41-.12.07a2.71,2.71,0,0,0-.31.27l0,0-.23.17-.34.2-.36.17-.37.16-.71.36c-.23.11-.5.13-.76.26l-.35.14H335l.21-.2.33-.27.17-.14.17-.15.16-.15a.72.72,0,0,1,.16-.11,3.28,3.28,0,0,0,.4-.2,2.07,2.07,0,0,0,.35-.29,1.38,1.38,0,0,0,.15-.18l.06-.1.05-.09a1.05,1.05,0,0,0,.12-.2c0-.07,0-.15.07-.21a.66.66,0,0,1,.08-.18l.12-.17a3.27,3.27,0,0,1,.28-.32l0,0a.91.91,0,0,1,.12.3c0,.14,0,.53.17.61s.28,0,.37,0h.52l-.1.05A2,2,0,0,0,338.78,261.81Zm-10.78.43a.77.77,0,0,0-.24,0h-1.85l-.09,0-.48-.23,0,0,.11,0c.21-.06.17-.31.16-.48s-.1-.32-.36-.32c-.1,0-.3,0-.35-.11s.08-.23.12-.33c.11-.31-.11-.14-.28-.12s-.21,0-.25-.08,0-.12,0-.17-.06-.11-.07-.16.18-.16.27-.35-.1-.34-.29-.49a1.61,1.61,0,0,1-.42-.39l0,0c.06-.08.11-.27.2-.32s.37.06.5.08.26,0,.36.23c.12,0,.12-.19.14-.27s.07-.19.25-.24.29-.09.4,0,.08.4.06.54a1.11,1.11,0,0,1,.83-.81l0,.08a4.06,4.06,0,0,0,.3.48,1.77,1.77,0,0,0,.37.37,2.3,2.3,0,0,0,.33.51,1.43,1.43,0,0,0,.24.22l.12.09.12.09c.15.12.3.26.45.39l.07.06a1.5,1.5,0,0,1,.13.27c.06.16.09.34.15.53l0,.13,0,.13.06.27a2.74,2.74,0,0,0,.17.56,2.31,2.31,0,0,0,.11.22H329l-.06,0-.26-.06-.28,0h-.3Zm2,.36-.08,0v0a3,3,0,0,1-.28-.45,2.45,2.45,0,0,1-.16-.5l-.07-.27,0-.14,0-.13c0-.13-.08-.28-.12-.42h0a2,2,0,0,1,.42.38c.13.15.24.31.37.47l.19.24.09.11.08.12,0,.06c0,.07,0,.15,0,.22a1.17,1.17,0,0,1,0,.23c0,.14,0,.29,0,.46l-.08,0A2.41,2.41,0,0,0,330,262.6Zm4.59-1.48c0,.09,0,.11-.1.16l.1-.16Zm-1.16,9q0,.15,0,.31v-.62l0-.25Q333.42,269.8,333.41,270.08Zm-4.32-9.83-.15-.11-.1-.14-.16-.23a2.34,2.34,0,0,0-.18-.23l-.06-.06.21.16c.28.21.57.39.83.61l.19.17.09.09.08.09a4.1,4.1,0,0,1,.25.44l.07.11.05.11,0,.1,0,0c-.12-.16-.25-.32-.39-.48a2.23,2.23,0,0,0-.48-.42l-.13-.08Zm5-10.47h.06c0,.14.08.28.12.42l.06.16v0c0,.22,0,.44,0,.66s0,.22,0,.32v0a.63.63,0,0,1-.27.06c0-.07,0-.14,0-.21s0-.11,0-.17v-.35a.82.82,0,0,0,0-.19l0-.16,0-.17-.06-.29v-.51s0-.05,0-.08l.2-.09.07.29C334.06,249.66,334,249.74,334.1,249.78Zm-3.5,12,0,0c0-.11-.05-.22-.07-.34a1.11,1.11,0,0,0-.09-.27l-.07-.12-.07-.11a4.12,4.12,0,0,0-.27-.46l-.09-.11-.1-.09-.2-.17c-.28-.22-.57-.41-.85-.6a4.17,4.17,0,0,1-.77-.66c-.23-.25-.44-.53-.68-.78l-.26-.3a.29.29,0,0,0,0-.06c0-.23,0-.17.16-.24a1.25,1.25,0,0,1,.36-.08c.21,0,.19,0,.33.12a1.13,1.13,0,0,0,.91.28c.21,0,.11-.09.26-.23a.64.64,0,0,1,.3-.1c.12,0,.22,0,.32,0a3.25,3.25,0,0,0,.28-.33,1.37,1.37,0,0,0,.42-.6h0l.12.08.07.06,0,0,.17.22a2.21,2.21,0,0,1,.15.23c.09.16.16.33.24.5a4.53,4.53,0,0,0,.26.51l0,0,0,0c-.16.09-.24.49-.45.52s-.13-.12-.21-.16a.38.38,0,0,1-.5.23c-.11,0-.19-.2-.28-.27a.66.66,0,0,0-.47-.21,2.59,2.59,0,0,0-.8,0c-.06,0-.08.11-.12.17a3.54,3.54,0,0,0-.28.42c-.11.29.18.34.41.39a1.21,1.21,0,0,1,.51.28,3.49,3.49,0,0,0,1.1.45,2.38,2.38,0,0,0,.74.05V260a.83.83,0,0,0,.14.46c.13.19.41.24.6.33a1.82,1.82,0,0,0,.38.17l.17,0v0c-.06.22-.11.45-.16.67l-.16.67c0,.23-.08.46-.11.69l-.09.68c0,.18,0,.36-.06.54l0,0-.1-.27-.2-.57,0-.14-.05-.15c0-.1-.08-.19-.12-.29l-.15-.28-.08-.13-.08-.13C330.81,262.14,330.71,262,330.59,261.78Zm0-9.43c0-.13,0-.24.17-.19Zm.07.24a.52.52,0,0,1-.06-.16A.42.42,0,0,1,330.67,252.6Zm4.83-1.86c.27.12.19.23.16.47a.58.58,0,0,0,.13.45l0,0-.21.24-.11.08-.15.07h0l-.14-.06-.2-.12-.05,0c0-.14,0-.28,0-.43l0-.16,0,0c.14-.13.3-.25.45-.38Zm3.14,6.21,0-.06.1-.13.06-.06-.09.16Zm-5.88,1.21a2.39,2.39,0,0,1,0-.3,3.29,3.29,0,0,0,.06-.32c0-.12,0-.23,0-.32a.87.87,0,0,1,.05-.23v0a2.57,2.57,0,0,1,0,.32v1.19h0a.51.51,0,0,0-.15,0C332.75,258.38,332.75,258.27,332.75,258.16Zm-2.24-6.33a.45.45,0,0,0-.26-.07,3.1,3.1,0,0,1,.26-.31c.15-.13.11,0,.25-.08s.2,0,.23-.2-.18-.3-.23-.49.08-.27.07-.42c-.19-.1-.43.2-.56,0s0-.29,0-.4a1.35,1.35,0,0,0-.21-.41l0-.07,0,0a2,2,0,0,0,.5.42c.21.13.44.24.65.35s.22.33.33.5l.18.28,0,0,0,0,.06.07.09.1c-.12,0-.21.08-.36.12a6.22,6.22,0,0,1-.64,0c-.18,0-.14,0-.23.22s-.12.16-.17.26Zm2.17-3c.21,0,.46-.17.63,0a2,2,0,0,1-.18.67c.06.1.23.08.43,0l0,.13.09.39v.79c0,.12,0,.24,0,.35s0,.11,0,.17a.55.55,0,0,0-.27-.14l-.07-.21c-.06-.19-.12-.39-.2-.58a2.13,2.13,0,0,0-.31-.55c-.13-.17-.29-.3-.42-.45a2.91,2.91,0,0,1-.33-.5c-.11-.18-.23-.34-.34-.51v0a.28.28,0,0,0-.06-.11l0-.11c.18-.1.4-.38.52-.44.13.37.55.36.88.28C332.88,248.23,332.66,248.54,332.67,248.81Zm1.81,2.42v-.16q0-.18,0-.35l0,.11c0,.13,0,.26,0,.4s0,.19,0,.29l0,.1-.06-.11v-.09A1.28,1.28,0,0,0,334.48,251.23Zm-2.4-.08A1.1,1.1,0,0,0,332,251l0-.06,0,0,0,0-.19-.28-.16-.23.13.1.11.1.1.11.19.25.21.26h-.16ZM330.38,249l0,0c.14.16.24.36.39.54s.17.16.22.24l0,.06,0,0c-.15-.07-.3-.15-.44-.23a1.87,1.87,0,0,1-.47-.39,1.68,1.68,0,0,1-.14-.19A.61.61,0,0,1,330.38,249Zm.92,1-.08-.14,0-.07,0-.08a3,3,0,0,0-.23-.25c-.13-.15-.22-.34-.36-.5.17,0,.33-.07.39-.2.29.19.6.24.74-.16l0-.05,0,.07a2.11,2.11,0,0,0,.22.57,3.81,3.81,0,0,0,.39.47,5.81,5.81,0,0,1,.36.47l.16.25a2.56,2.56,0,0,1,.15.26,1.76,1.76,0,0,1,.1.27,1.79,1.79,0,0,1,0,.29h0c-.09.07-.13.15-.31.1s-.2-.11-.32-.14-.21-.26-.31-.38l-.2-.25-.11-.12-.13-.11a3,3,0,0,0-.43-.27Zm7.55,6.22a2,2,0,0,0-.17.23l-.07.11c0-.17.05-.35,0-.43s-.21,0-.32,0a.83.83,0,0,1-.42-.27l.36-.13a2.06,2.06,0,0,1,.78-.15,1.76,1.76,0,0,1,.49.13l.1.06h0a2.23,2.23,0,0,0-.5.29l-.11.1Zm-5,4.84v0h0Zm-.21,0,0,0v0a1.29,1.29,0,0,1,0,.22l-.08.1-.12.14q0-.09,0-.17c0-.09,0-.19,0-.28l0-.11h.12Zm-1.39,3.67V264c0-.1,0-.21,0-.31a4.82,4.82,0,0,1,.1-.53v.21a1.5,1.5,0,0,0-.06.29c0,.05,0,.12,0,.16v1Zm.78-8.95c0,.09,0,.17,0,.26l.06.27c0,.12,0,.24-.06.37v-.06c0-.05,0-.1,0-.16s0-.12,0-.17S333,256,333,255.82Zm4.11-2.38c.27-.31.23-.66.33-1a1.35,1.35,0,0,0,.07-.48c.46-.15.52.27.75.51a.87.87,0,0,1-.11.3,1.4,1.4,0,0,1-.33.36,2.72,2.72,0,0,0-.37.33,3.21,3.21,0,0,0-.29.41l-.11.18a1.41,1.41,0,0,1-.31-.27A1.87,1.87,0,0,0,337.14,253.44Zm-3.66.89h0c0,.18-.06.37-.09.55s0,.21-.05.32,0,.22,0,.32l0,.22v0a2.56,2.56,0,0,1,0-.29c0-.1,0-.2,0-.3v-.6a1.3,1.3,0,0,1,0-.2A.58.58,0,0,1,333.48,254.33Zm2.14,2,0,0,0,0a1,1,0,0,0-.5,0,.76.76,0,0,0,.15.61l-.12.2a2.08,2.08,0,0,1-.29.38l-.18.19h-.12a1.4,1.4,0,0,1-.46-.07c0,.19.12.25,0,.46a.73.73,0,0,1-.22.23l0-.09h0l.06-.11c0-.11.07-.2.1-.32l.07-.32a1.28,1.28,0,0,1,.09-.28l.07-.15,0-.08v-.08c.06-.19.15-.39.23-.59a3.19,3.19,0,0,0,.16-.64c0-.12,0-.21,0-.32h0l0,0,.07-.07a.43.43,0,0,0,0-.09l0-.07a1.4,1.4,0,0,0,.3-.05l.4.18a.69.69,0,0,0,.43.09.92.92,0,0,0,.24-.09l-.37.66Zm-.26.91,0,0v0Zm-.59.53.13-.13.09-.1-.1.26Zm-.29-2.43-.08.15c0,.1-.08.21-.11.31l-.1.28V256a.87.87,0,0,1,0-.14l0-.15.07-.3,0-.15,0-.15.08-.27.07,0h0s0,.08,0,.12,0,.21,0,.31h0Zm.66,2.45.09-.13.16-.21a.4.4,0,0,1-.16.34l-.11,0Zm.8-1.85c.14-.26.28-.53.43-.78l.2-.14.11-.07a1.26,1.26,0,0,1,.3,0l0,0a1.74,1.74,0,0,1-.22.19l-.25.18a4.43,4.43,0,0,0-.4.47l-.14.16Zm-.15.52.07-.09c.12-.16.25-.31.38-.46a4.63,4.63,0,0,1,.37-.46l.23-.18.12-.1.11-.11,0,0-.26.39c-.1.15-.21.3-.32.44s-.24.28-.36.41l-.21.22Zm3-2.88a1,1,0,0,1-.23,0c-.22-.05-.26-.18-.48-.08a1.79,1.79,0,0,0-.56.42c-.1.1-.2.23-.31.34v0c0-.13,0-.11-.11-.18l.11-.19a3.19,3.19,0,0,1,.28-.41,2.7,2.7,0,0,1,.36-.34,1.43,1.43,0,0,0,.33-.37.88.88,0,0,0,.1-.29l0,0c.08.06.15.05.17.17s-.1.24-.17.31.36.25.48.3l.32.12ZM336,252.1h0l.06-.05Zm-2.3,9.63,0,.07c0,.09,0,.17-.07.25s0,.16-.07.24l0,.12,0,.13v0c0-.08,0-.16,0-.24h0c0-.07,0-.13,0-.2a1.79,1.79,0,0,0,0-.27l.18-.24h0Zm3.4-5.45c-.17,0-.32-.15-.48-.05a.32.32,0,0,0-.15.32.79.79,0,0,1-.31,0l.14-.16c.12-.14.25-.28.36-.42s.22-.3.32-.46l.27-.44c0,.19-.12.38-.15.56s0,.31.16.36a.85.85,0,0,0,.36,0C337.43,256.12,337.35,256.33,337.06,256.28Zm2.72-2.6a2.3,2.3,0,0,1-.31-.09,2.06,2.06,0,0,0-.37,0h0l.23-.17h.07c.23,0,.39-.23.63-.24a1.23,1.23,0,0,1,.53.12l0,0A1,1,0,0,1,339.78,253.68ZM336,251.76a.55.55,0,0,1,0,.11l-.31.27,0,0h-.05l0-.06.29-.33Zm-2,2.8h.06l0,.11c0,.19-.07.39-.11.58s-.15.68-.22,1l-.09.3v-.14l0-.3c0-.1,0-.2,0-.31a5.36,5.36,0,0,0,0-.62c0-.08,0-.15,0-.22l.17-.45Zm-2.25-5.85.15.25a3,3,0,0,0,.34.52c.14.16.29.29.41.45a2,2,0,0,1,.28.52l0,.06-.08-.12-.17-.25a5.85,5.85,0,0,0-.37-.48,3.78,3.78,0,0,1-.39-.45A1.87,1.87,0,0,1,331.79,248.7Zm.47,16.58,0,.07V266C332.27,265.73,332.26,265.51,332.26,265.29Zm6.75-9-.09.08,0,0,.09-.1.1-.09.14-.1-.17.15Zm3.18-2.67a1.27,1.27,0,0,1,0,.76l0,.05a.22.22,0,0,1-.13,0c-.15-.09-.18-.29-.27-.42a.82.82,0,0,1-.14-.19,2.58,2.58,0,0,0,.5-.29A.76.76,0,0,1,342.18,253.66Zm-8.36-2.23h0v0Zm-3.42.49-.07,0h0Zm2.52,2.46v.54s0,.06,0,.09,0,.11,0,.16,0,.08,0,.13h0a1.17,1.17,0,0,0,0-.33c0-.1-.06-.21-.1-.31l-.1-.27A.9.9,0,0,0,332.93,254.38Zm-.79,4.18-.15-.24-.3-.5-.14-.25a2.35,2.35,0,0,1-.12-.26l-.07-.16.44.36a1.77,1.77,0,0,1,.38.41,1.29,1.29,0,0,1,.17.52v.12Zm-.82,5.74.1.09c.1.29.2.57.3.85l0,.05c0,.09,0,.18,0,.27v0l-.18-.39a2.94,2.94,0,0,1-.14-.39c-.05-.17-.1-.36-.15-.54Zm2.61-2.64v-.06s0-.08,0-.12v-.1a1.31,1.31,0,0,1,.13-.19l.07-.11h.11c-.08.12-.16.25-.23.38h0Zm4.9-4.72a3.19,3.19,0,0,1,.25-.43,2,2,0,0,1,.34-.35l.13-.1.15,0,.12,0,0,0c.17.1.46.19.33.47-.18.08-.36-.15-.57,0s-.43.56-.7.6h-.12Zm2.81-3.15v0c0-.12-.06-.24-.1-.36l0-.06h0c.11,0,.23-.14.34-.11a.45.45,0,0,1,.3.3A2.56,2.56,0,0,1,341.64,253.79Zm-6.41-3L335,251l-.2.17a3,3,0,0,0-.1-.39l-.05-.14v-.08a4.81,4.81,0,0,1,0-.57,2.12,2.12,0,0,0,.16.41c.15.22.41.22.63.29Zm-6.34.56c-.06.12-.16.24-.12.37a.6.6,0,0,0,.31.3,1.4,1.4,0,0,0,.4,0,.8.8,0,0,0,.62-.17l.21.07.12,0a.25.25,0,0,0,0,.06.71.71,0,0,0,.14.3.89.89,0,0,0-.22.5,1,1,0,0,0,.1.38c.16.21.62.19.82.29s.12.31.32.4.21,0,.32.07a2.13,2.13,0,0,1,.34.21l.17.09,0,.09.11.3c0,.1.07.2.1.3a2.09,2.09,0,0,1,.06.6c0,.21,0,.42,0,.64a3.33,3.33,0,0,1,0,.61l0,.15a.75.75,0,0,0,0,.18c0,.12,0,.22,0,.31s0,.19-.06.3a1.1,1.1,0,0,0,0,.18v.08a1.28,1.28,0,0,0-.13-.28,2,2,0,0,0-.44-.46l-.47-.37-.45-.39-.43-.41-.07-.07a1,1,0,0,0,.05-.57,2.55,2.55,0,0,1-.14-.29,1.45,1.45,0,0,1,.12-.67c-.15,0-.11-.12-.23-.26a.56.56,0,0,0-.71-.09c.06-.4.34-.79.18-1.18-.07-.15-.4-.22-.55-.29l-.29-.1a.45.45,0,0,1-.19-.17c-.15-.09-.47-.07-.56-.23a1,1,0,0,1-.05-.21,1,1,0,0,0,.17-.11A5.11,5.11,0,0,0,328.89,251.39Zm-1.61,6.83c.2.23.39.48.6.72l.23.25c-.16-.12-.33-.23-.49-.34s-.18-.35-.28-.53Zm3.69,5.31a1.39,1.39,0,0,0-.23-.37l0-.18a2.45,2.45,0,0,1,0-.4l0,0,.07.13.13.26c0,.09.08.18.11.27l0,.14,0,.14.09.26-.07-.07-.16-.17ZM334.38,250l0-.16h.07Zm-.16-.61,0-.13.09,0A.44.44,0,0,1,334.21,249.35ZM326.93,258l0,.07,0,0,0,0Zm7.54,5.89-.18.11-.09,0-.1.05-.11.07-.06.06c0-.26,0-.51,0-.75a2.14,2.14,0,0,1,0-.23c0-.07,0-.15,0-.24a1.65,1.65,0,0,0,0-.28c0-.08,0-.17,0-.25a1.4,1.4,0,0,1,0-.23c0-.07,0-.15.07-.23a4.5,4.5,0,0,1,.2-.45l.13-.23a.14.14,0,0,0,0,.07c0,.06.12.06.14.12s0,.11,0,.16.12.06.28.16a.4.4,0,0,1,.14.26c.09,0,.16,0,.23.05s.06.2.13.25a.94.94,0,0,0,.5,0l.46,0h.08l-.24.11a.91.91,0,0,0-.2.13l-.16.15-.16.13-.17.13-.35.28A8.37,8.37,0,0,1,334.46,263.89Zm2.18-2.37c-.15,0-.94.09-.85-.24.35,0,.4-.66.6-.89a.88.88,0,0,1,.6-.25c.21,0,.3.07.47.16a1.66,1.66,0,0,1,.42.26l0,0a3.41,3.41,0,0,0-.3.33l-.13.18-.06.1,0,.11c0,.07,0,.14-.07.2a.91.91,0,0,1-.11.17l-.06.1-.05.09-.13.16-.13.12C336.86,261.93,336.92,261.59,336.65,261.52Zm-11.71.39.18.12-.22-.12Zm11.85-19.81c.09-.19.2-.38.3-.57l0-.06,0,.08a2.37,2.37,0,0,0,.08.5,1.62,1.62,0,0,1,.17.68,3.31,3.31,0,0,1,0,.76c0,.16.05.15-.18.28a.71.71,0,0,1-.74,0c-.36-.27-.18-.73,0-1.15C336.59,242.45,336.69,242.28,336.78,242.1Zm-.89-1.36h-.1a.44.44,0,0,1,.11-.13A.74.74,0,0,1,335.89,240.74Zm-4.71-3.31a6,6,0,0,1,1.07.12,1.3,1.3,0,0,1,0,.35.55.55,0,0,1-.27.06,1,1,0,0,0-.45-.4c-.25-.07-.29.34-.56.3-.1-.18-.17-.37-.26-.54A2.31,2.31,0,0,0,331.18,237.43Zm-3.9,2.27h.12l-.26.08A.29.29,0,0,1,327.28,239.7Zm-.05,10.8.15.08a2.36,2.36,0,0,0,.33.07,1,1,0,0,1,0,.23.78.78,0,0,0,.06.26,2.59,2.59,0,0,1,0,.53,3,3,0,0,1-.4.08c-.17-.19-.14-.58-.15-.81s0-.38-.14-.48Zm-.86,11.88s.05-.08.08-.08l.87-.08h0c-.18,0-.36.14-.54.14A1.56,1.56,0,0,1,326.37,262.38Zm5.05,20.83h0Zm4.48-19.65-.19.05.34-.11Zm1.11-.48-.36.17-.17.07.57-.31.33-.15,0,0Zm2.24-1.22-.19-.06-.11,0,.11-.06.1-.06.11.21Z"/><rect class="cls-8" x="111.11" y="218.9" width="13.86" height="89.32"/><rect class="cls-8" x="313.51" y="218.9" width="13.86" height="89.32"/><path class="cls-27" d="M42,269.06,41,266.53l.74-1.06-.09.61a16.19,16.19,0,0,1,5.64-3.26,8.72,8.72,0,0,1-.91,1.28,18.48,18.48,0,0,1,2.51-1.39s.89,3.07,0,5.23C48.87,267.94,45.25,270.85,42,269.06Z"/><polygon class="cls-28" points="41.71 292.58 38.85 321.42 40.6 321.42 47.37 294.67 51.58 321.42 53.33 321.42 53.04 291.29 41.71 292.58"/><polygon class="cls-29" points="41.71 292.58 41.3 282.55 38.43 284.71 38.56 292.23 37.45 292.63 34.75 283.6 41.36 276.49 66.24 269.79 66.65 271.25 53.83 278.07 53.04 291.29 41.71 292.58"/><path class="cls-30" d="M49,268.25c-.09-.53-.56-.3-.7-.21l-.11-1.51-6,1,.43,1.49c-.16,0-.73-.13-.64.41.12.69.91,1.1,1.1,1.18l1.24,3.3,3.79-.74.33-3.47A1.94,1.94,0,0,0,49,268.25Z"/><path class="cls-31" d="M46.44,270.14a4,4,0,0,0-1-1.59,3.94,3.94,0,0,0,.32,1.83c0,.12.11.27.14.35l0,0s0,0,0,.06l-.25.14a1.66,1.66,0,0,0-.37.28,1.67,1.67,0,0,0,.46.05,2.38,2.38,0,0,0,.32,0l.64-.12-.2-.62Z"/><polyline class="cls-30" points="45.29 275.44 45.04 273.79 47.16 273.38 47.37 274.87"/><path class="cls-30" d="M45,275.51l2.76-.74a1.39,1.39,0,0,1-1.09,2A1.32,1.32,0,0,1,45,275.51Z"/><path class="cls-30" d="M66.24,269.79l3.39-1c.29.48-2.19,1.6-2.19,1.6s1.17,1.31-.79.9Z"/><path class="cls-30" d="M38.56,292.23c1.66.29.34.83.34.83s.28,1.82-.13,2c-.57.2-1.31-2.39-1.31-2.39Z"/><polygon class="cls-28" points="40.6 321.42 40.6 322.93 39.79 322.93 39.79 322.56 39.27 322.93 35.47 322.93 35.47 322.93 38.85 321.42 40.6 321.42"/><polygon class="cls-28" points="51.58 321.42 51.58 322.93 52.4 322.93 52.4 322.56 52.91 322.93 56.71 322.93 56.71 322.93 53.33 321.42 51.58 321.42"/><polygon class="cls-32" points="45.15 274.49 47.2 273.64 47.16 273.38 45.04 273.79 45.15 274.49"/><polyline class="cls-8" points="111.11 308.22 104.28 313.63 131.48 313.63 124.97 308.22"/><polyline class="cls-8" points="313.87 308.22 307.03 313.63 334.24 313.63 327.72 308.22"/><path class="cls-33" d="M40.16,259.38l-.12.11v0A.41.41,0,0,0,40.16,259.38Z"/><path class="cls-33" d="M36.82,260.67a.18.18,0,0,0,0,.07A.28.28,0,0,1,36.82,260.67Z"/><path class="cls-33" d="M44.82,257.65c0-.06,0-.21,0-.26s-.07,0-.13,0-.08,0-.07-.12.14-.27.12-.43-.34.27-.39,0c0-.06,0-.14,0-.19s-.09,0-.12-.07.22-.43.12-.6-.3.06-.42,0-.09-.08-.09-.18a2.21,2.21,0,0,0,0-.33.72.72,0,0,0-.08-.32,1,1,0,0,0-.33-.21.51.51,0,0,1-.19-.21.48.48,0,0,0-.2-.15.71.71,0,0,1-.28-.27c-.06-.09-.07-.16-.17-.21a1.51,1.51,0,0,0-.28-.18.64.64,0,0,0-.18,0s0-.08,0-.12,0-.21,0-.32,0-.14,0-.17-.15,0-.21-.06,0-.1,0-.18.12-.27,0-.27c0-.07.12-.11.15-.19s-.11,0-.16,0,0-.15.08-.19.22-.13.22-.31,0-.16,0-.19-.08,0-.13,0,.05-.36,0-.47l-.06,0c.15-.2.38-.44.36-.68-.11,0-.22,0-.34,0a.14.14,0,0,1,0-.14h0a1.09,1.09,0,0,0,.43-.18c.07,0,.24-.21.34-.21s0,.09,0,.13a2.72,2.72,0,0,0,.39-.39,1.88,1.88,0,0,1,.4-.41.16.16,0,0,1-.06.08c.06,0,.11-.11.16-.17s.18-.19.18-.31-.11,0-.17,0,.12-.24.19-.32.23-.23.24-.37-.14,0-.21,0,.12-.21.09-.34-.29.19-.46.17.19-.3,0-.38a3.55,3.55,0,0,0-.42.22c-.09.05-.27.25-.39.25a.16.16,0,0,1,0,0h0c0-.14.16-.28.07-.43s-.28,0-.35,0,0-.26,0-.36a2.36,2.36,0,0,0-.55.13c-.1,0-.29.1-.38,0s0-.12-.09-.17a.69.69,0,0,0-.13-.06h0a.89.89,0,0,0,.06-.22.74.74,0,0,1,0-.15c.08,0,.12,0,.16-.07a.52.52,0,0,0,0-.22c0-.1,0-.11.1-.19s.14-.19,0-.18,0-.12,0-.16-.2,0-.27,0,.19-.21.25-.33,0-.08,0-.11.15-.15.17-.24,0-.14,0-.23a.62.62,0,0,1,.15-.28c0,.08,0,.17,0,.26a.8.8,0,0,0,.14-.49c0-.21-.16-.14-.25-.25s0-.12,0-.19a.23.23,0,0,0,0-.17c0-.08-.05-.13-.15-.15s-.08,0-.13,0,0-.11-.07-.14a.28.28,0,0,0,.3-.15c-.12-.11-.63.06-.43-.24s.45-.37.51-.67h-.08c0-.11,0-.23,0-.34s-.3,0-.44,0a1.7,1.7,0,0,1-.13-.42c0-.09,0-.19-.14-.22a.32.32,0,0,0-.17,0c-.26.09-.53.35-.81.19a2.18,2.18,0,0,1-.4-.29.86.86,0,0,0-.45-.29.4.4,0,0,0-.34.13,1.76,1.76,0,0,1-.34.18q-.13-.07,0-.22a.64.64,0,0,0,.07-.34c-.1-.06-.25,0-.36,0s-.08-.1-.11-.23-.14,0-.21,0c-.07-.24.18-.48.16-.72-.11,0-.2,0-.3-.06s-.12-.12-.28-.13-.35.07-.45-.05a.46.46,0,0,1,0-.26.79.79,0,0,0,0-.2c0-.07,0-.06-.08-.09a.68.68,0,0,0-.15-.09c-.15,0-.32.17-.41.26s-.08.07-.18.06a.59.59,0,0,0-.18,0l-.13,0c-.14,0-.17-.07-.23-.17-.19-.28-.57-.24-.87-.23a.88.88,0,0,0-.27.14l-.12-.13s-.15-.13-.17-.19,0-.05.08-.08.37-.2.39-.37a1,1,0,0,0-.13-.74c-.18-.18-.4-.07-.6-.13,0-.11-.1-.14-.19-.19a.47.47,0,0,0-.49,0c-.08,0-.19.13-.28.12s-.25-.23-.3-.32a6.36,6.36,0,0,1-.29-.84.29.29,0,0,0-.18-.16c-.11,0-.19.06-.29.08a1.57,1.57,0,0,0-.5-.69c-.17-.1-.25,0-.31.17a.93.93,0,0,0-.06.3.18.18,0,0,1,0,.13c-.15.21-.48.35-.49.65-.34,0-.51-.52-.83-.59a.48.48,0,0,0-.3,0,2.84,2.84,0,0,1-.24.19,2.93,2.93,0,0,1-.61.19.61.61,0,0,0-.34.27,3.34,3.34,0,0,0-.3.43l0,.1h-.19a.65.65,0,0,1-.22-.06,1.42,1.42,0,0,1-.23-.1,1.63,1.63,0,0,1-.16-.15c-.05,0,0,0-.09,0l-.12.07h-.11a2.27,2.27,0,0,1-.36,0,2.43,2.43,0,0,1-.27,0c-.15,0-.19-.3-.34-.38s-.15.15-.26.17-.25-.1-.39-.13a1.14,1.14,0,0,0-.21,0c-.1,0-.17-.09-.25-.08s0,.07-.09.08a.44.44,0,0,0-.17-.07h-.2c-.1,0-.17,0-.25,0s-.13-.2-.25-.25c-.11.11-.16.59-.32.56A1.53,1.53,0,0,1,23,237c-.05,0-.19-.17-.25-.16s0,.08,0,.12a.59.59,0,0,0-.2-.12l-.22,0a.62.62,0,0,0-.26,0c-.1,0-.11.18-.22.17l-.22-.13a.92.92,0,0,0-.24-.12.1.1,0,0,0,0,.07.5.5,0,0,0-.31.18.89.89,0,0,1-.29.16l-.27.11a.93.93,0,0,0-.19.16c-.08.06-.07.06-.16,0s-.22-.09-.3,0,0,.15,0,.21a.24.24,0,0,1-.09.14.34.34,0,0,0-.18,0,.48.48,0,0,0-.19.15.61.61,0,0,0-.13.32c-.08.33-.49.53-.75.69s-.57.27-.52.47.08.1.09.17-.08.19-.13.27a1.17,1.17,0,0,0-.14.37,2.77,2.77,0,0,0-.68.09c0,.17.12.28-.07.37s-.11,0-.15.1,0,.14,0,.2c-.17,0-.24,0-.3.22a.37.37,0,0,1-.17-.05s-.07-.1-.13-.07-.08.62.11.72A.54.54,0,0,1,16,242c-.12,0-.28-.12-.37-.06s-.06.18-.11.22-.05,0-.07,0-.14.16-.25.17-.26-.08-.38-.09a.36.36,0,0,0-.36.17c-.13.18-.28.06-.46,0s0,.23,0,.31,0,.1.08.37c-.08,0-.37-.24-.48-.17h0a.22.22,0,0,0-.18-.08h-.07a.9.9,0,0,0-.25,0,.9.9,0,0,1,.25,0h0c-.07,0-.08.11-.11.2s-.1.21-.06.26.13-.06.15-.08c-.15.31.11.45.36.48,0,0-.07.09-.09.12a.78.78,0,0,0-.14.19.32.32,0,0,0,0,.17c0,.07.07,0,.08.09a.39.39,0,0,0-.16.06c0,.08,0,.19.12.26s-.1.17-.08.23.06,0,.08.09a.23.23,0,0,1,0,.13l-.11-.06s.06.11.07.16-.08.14-.07.22.15.16.22.2.22,0,.25.09-.14.18-.13.28.35.16.43.16h.12a.06.06,0,0,1,.05,0h.09c.09,0,.16-.1.25,0a.77.77,0,0,1,.1.38.51.51,0,0,0,.24,0c.06,0,.14-.11.22-.07s.05.11.14.15.07,0,.1,0,0,.08,0,.1.14,0,.22,0,.3-.17.43-.13.14.37.17.51.19.12.29.08h0a.57.57,0,0,1-.27,0c-.17,0-.38-.13-.48.07l0,.06-.12-.09c-.12-.07-.41-.3-.53-.11a.68.68,0,0,0-.11-.22.75.75,0,0,0-.43-.23.44.44,0,0,0-.34,0c-.09.08-.09.23-.12.33a.38.38,0,0,0-.72,0c0,.06,0,.41-.12.41l-.17-.1a1.13,1.13,0,0,0-.32-.08c-.23,0-.34.19-.42.39s0,.26-.13.25-.16-.12-.26,0-.14.29-.18.43c-.12,0-.17-.14-.32-.12a.18.18,0,0,0-.15.1c0,.06,0,.2-.08.25s-.05,0-.13,0-.05.14,0,.14,0,0,.22.16a.85.85,0,0,0-.62.15c-.07.05-.12.07-.14.14a.25.25,0,0,0-.31,0c-.08.07-.37.43-.23.54-.13,0-.11.15-.11.25a.43.43,0,0,0,.17.39.12.12,0,0,0,.19,0,.75.75,0,0,0,.09.19.5.5,0,0,0,.5.22.68.68,0,0,0,.57-.6c.07,0,.1.15.14.21l0,.05-.09.12-.1.14h0s0,0,0,0l-.12.12a.41.41,0,0,1-.16.09.4.4,0,0,1-.19,0,.79.79,0,0,1-.18-.06l-.16-.1.16.11a.8.8,0,0,0,.18.06.42.42,0,0,0,.19,0,.43.43,0,0,0,.18-.09l.11-.1c0,.09,0,.16.06.25l-.07,0A2,2,0,0,0,11,251a.29.29,0,0,0-.07.2,2.16,2.16,0,0,1,0,.27v0a.16.16,0,0,1-.1,0H11c0,.07,0,.13-.05.2l-.07-.06a.4.4,0,0,0-.53.21c0,.05,0,.17-.06.2s-.07-.1-.14,0a.44.44,0,0,0-.09.21c-.09-.05-.25-.15-.35,0s0,.07,0,.08-.07,0-.1,0-.09.12-.17.13-.08-.07-.15-.09a.81.81,0,0,0-.22,0c-.17,0-.24.24-.43.18s-.26-.38-.38-.26,0,.2,0,.25-.17-.08-.21-.09a.29.29,0,0,0-.21,0c-.1,0-.09.08-.08.16a.89.89,0,0,0,.08.36l-.06,0c-.08,0-.14,0-.15.06s.2.31.3.41c-.3.21-.28.3-.1.34s.33,0,.48,0c0,.11-.18.19-.24.28a.41.41,0,0,0,.38.07.28.28,0,0,0,.18-.27l.09.07a.31.31,0,0,0,.08.14l.1,0a.5.5,0,0,0,.24.15A.23.23,0,0,1,9,254H9s.07-.07.11-.06,0,.09,0,.12a.29.29,0,0,1-.07.26c.13,0,.12,0,.11.15a.24.24,0,0,0,.16.28c-.09,0-.09.1,0,.15a.12.12,0,0,0,.19,0c0,.13.18.21.3.13v0c0,.09,0,.12.09.18a.15.15,0,0,0,.15.06h.1l0,0a.27.27,0,0,0,0,.28.15.15,0,0,0,.09.08.33.33,0,0,0,.05.26,1.29,1.29,0,0,0,.65.21h0c.22,0,1,0,.77-.39,0-.05-.09-.11-.13-.17l.08,0s0-.09.09-.07.06.06.09.08h0c0,.08,0,.15,0,.24a4.07,4.07,0,0,0,0,.59.46.46,0,0,0,.1.28.18.18,0,0,1,.16.09s0,.07.08.09a.06.06,0,0,1,0-.08l.1.07s.08,0,.11,0,.08.28,0,.32-.1,0-.13,0,0,.1,0,.14.28.29.23.37c.12,0,.55,0,.34.21a.33.33,0,0,0,.19,0c.07,0,0-.06.11,0a.91.91,0,0,1,.24.32s0,.07,0,.1.27.21.37.34,0,.09,0,.21a1,1,0,0,1,.26.19c.08.09,0,.13,0,.24s.1.09.21.09a.61.61,0,0,0,.32-.08c.06,0,.11-.1.17-.13s.11.05.2.07,0,0,.05,0H15a.47.47,0,0,0,.21,0c.11-.05.12-.14.19-.23s.11,0,.18-.05.08-.21.2-.25a.22.22,0,0,1,.28.11c.05.13,0,.29-.1.39s-.17.32-.07.45.09.09.09.2a1.91,1.91,0,0,0,0,.3,1.05,1.05,0,0,0,.24,0,2.23,2.23,0,0,1,.57.09c.16,0,.47.08.44.31s-.51.52-.53.86c0,.08,0,.1.06.14a1.47,1.47,0,0,0,.44.12l.29.06c-.06.38,0,.92.33.82-.41.29.53.52.7.52a3.07,3.07,0,0,1,.57,0c.09,0,.1.13.2.13s.24-.11.37-.13c.16.25.28.66.67.48s.25-.46.64-.5.59,0,.91-.39.31-.49.75-.53c.16-.84.65-1.86-.43-2.24l-.09,0,0-.14a.82.82,0,0,1,0-.25,2.51,2.51,0,0,1,0-.52.56.56,0,0,1,.1-.22.27.27,0,0,1,.19-.1v0l.16,0,.14.08a.27.27,0,0,1,.07.09s0,.08,0,.11l0,.09s-.06,0-.06,0h.09v0s0,.08,0,.16,0,.11,0,.19a1.18,1.18,0,0,0,0,.13l0,.07v.06l0,.12c0,.08.05.18.09.3l0,.12v.07c0,.06,0,.12,0,.19a1.79,1.79,0,0,0,0,.21l0,.16.06.28.05.26c0,.06,0,.14,0,.24s0,.11,0,.18l0,.1,0,.06c0,.07,0,.14,0,.22l0,.13v.09l0,.11a3,3,0,0,0,.12.34l.06.14.06.14.05.13s0,.06,0,.09v.1s0,0,0,.07v.08c0,.2.06.32.07.37v0h0a.2.2,0,0,0,0,0s0,.06,0,.12a1.59,1.59,0,0,0,0,.18l0,.09h0l0,.11a1.86,1.86,0,0,0,.08.27c0,.1.07.17.09.21s0,0,0,0h0v0l0,.05,0,.09,0,.11,0,.1.06.24.06.25,0,.12V266l0,.09c.06.24.13.45.18.63l.05.17s0,0,0,.08,0,.17,0,.3,0,.39,0,.52a.65.65,0,0,1,0,.13h0l0,.09,0,.06v.09a1.14,1.14,0,0,0,0,.26,1.09,1.09,0,0,0,0,.33l0,.08,0,.07,0,.06v.35h0v0s0,0,0,0v.07a1.11,1.11,0,0,0,0,.15v.14l0,.09v0a1,1,0,0,0,0,.12V270s0,.07,0,.1a1.48,1.48,0,0,0,0,.19v.5c0,.05,0,.11,0,.17v.11c0,.06,0,.12,0,.16s0,.13,0,.14h0v.05a1.7,1.7,0,0,0,0,.17l0,.07s0,0,0,0l0,.11,0,.12h0s0,0,0,0,0,.06,0,.11v.08l0,.08v.06l0,.08a.08.08,0,0,1,0,0h-.06v.07c0,.18.05,2.57.06,2.63s0,0,0,0,0,0,0,0h0c0,.19,0-.06,0,0s0,0,0,0,0,0,0,0,0,0,0,0,0-.19,0,0h2.34c0,.19,0,0,0,0h1.35c0-.19,0,.19,0,0h.21c0-.19,0,.09-.07,0s0,0-.06,0,0,0,0,0h0s0,0,0,0,0,0,0,0,0,0,0,0,0,0,0,0,0,0,0,0,0,.06,0,0,0,0,0,0h0s0,.05-.06,0,0,0,0,0,0-2.66,0-2.76l0-.07v0l0-.06,0-.11c0-.14-.09-.23-.12-.3l0-.08,0-.08,0-.16v-.11l0-.2-.07-.29,0-.09v0h0v0a5.52,5.52,0,0,0-.15-.67l0-.13,0-.12c0-.08,0-.17,0-.26s0-.19-.05-.29l0-.16c0-.06,0-.1,0-.18l-.05-.15h0a1.1,1.1,0,0,0,0-.14v-.05a.47.47,0,0,1,0-.07s0-.06,0-.11v-.15s0-.09,0-.12v0a.14.14,0,0,1,0,0,1.46,1.46,0,0,1,0-.2l0-.13s0-.1,0-.17l0-.11v-.12c0-.07,0-.12,0-.18s0-.19,0-.27v-.14l0-.09,0,0v-.1a.72.72,0,0,0,0-.1v0s0,0,0-.08a.84.84,0,0,0,0-.1.79.79,0,0,0,0-.1l0-.06s0,0,0-.06v-.34s0-.07,0-.1a1.62,1.62,0,0,1,0-.21c0-.07,0-.15.06-.23l.08-.28.07-.24,0-.1,0-.09.13-.24.08-.15,0-.08,0,0,.16.06c.34.1,1-.15,1.27.18s-.08.55.28.42c.19-.07.32-.42.42-.56.25.12.24.09.48,0s.27-.13.4-.21A2,2,0,0,0,31,264c.7-.17,1.5-.47,1.52-1.27a5.9,5.9,0,0,0,0-1.17l0-.16a1.61,1.61,0,0,1,.32-.16c.11.16.11.34.36.31s.31-.07.47-.09a2.54,2.54,0,0,0,.6-.23c.12,0,.2,0,.26-.15a2.17,2.17,0,0,0,.13-.27,1.36,1.36,0,0,0,0-.61c-.08,0-.18,0-.27,0s0-.16-.07-.2-.15,0-.22,0,0-.15-.06-.19-.21,0-.29,0,0-.2-.15-.21l.12,0a1.18,1.18,0,0,1,.28.05.39.39,0,0,1,.16.1.22.22,0,0,1,0,.18.22.22,0,0,0,0-.18.39.39,0,0,0-.16-.1,1.12,1.12,0,0,0-.24-.06l.79-.19c0,.11-.25.22-.3.3a1.53,1.53,0,0,1,1.24.05c.12.08.25.11.35.19s.14.09.16.15-.11.36-.22.44a.45.45,0,0,0,.37.07c.23-.05.4-.35.64-.34.08.08,0,.24,0,.36a.14.14,0,0,1,.25,0c0-.12.11-.16.2-.2a4,4,0,0,0,.46-.24s.1-.09.14-.12.13,0,.23.08.4-.17.52-.28a.29.29,0,0,1,.22-.09c.21,0,.4-.18.63-.16a.22.22,0,0,1,0,.21c.19.1.42-.18.59-.35a1.6,1.6,0,0,1,0-.26,1.68,1.68,0,0,0,.12-.22c0-.06.13-.19.09-.27l-.12,0c0-.16.16-.3.23-.46h0c.23.1.32.34.6.32a1.62,1.62,0,0,0,.55-.16c.14-.07.28-.25.44-.23s.15.27.29.29a.71.71,0,0,0,.13,0,.64.64,0,0,0,.26-.08c.16-.08.37-.16.39-.35s0-.3.12-.3c.15.28.52.21.79.21s.27,0,.41,0a1.23,1.23,0,0,1,.27,0c0,.14.13.06.17,0A1.07,1.07,0,0,0,44.82,257.65ZM13.55,242.93v0h0ZM10.9,256.14h0Zm.75-5.43-.18.1a2.24,2.24,0,0,1-.05-.27l.11-.14.09-.11a.36.36,0,0,0,.16.14l.11,0A.47.47,0,0,1,11.65,250.72Zm2.59,4.12,0,0a.54.54,0,0,1,0-.18c.05,0,.09.06.14.08Zm.2-.45s0-.09,0-.12l.14,0a.42.42,0,0,0-.05-.26,1.4,1.4,0,0,1-.08-.26h.08a1.81,1.81,0,0,1,.48.19,1.59,1.59,0,0,1-.31.37l-.09.06h0s0,0,0,0,0,0-.06,0Zm0,0h0Zm.54-.15s-.08,0-.11,0-.07.09-.1.12-.2.2-.31.29l0-.07a.41.41,0,0,0,0-.18l.07,0h0l0,0,.08-.06a1.63,1.63,0,0,0,.33-.37h0a.2.2,0,0,0,0,0A1.12,1.12,0,0,1,15,254.25Zm.57-2.74c0,.1-.09.32-.22.34s-.13-.06-.17-.14l.45-.45A2.6,2.6,0,0,1,15.58,251.51ZM19,261v-.06h.1Zm9.48,14.09s0,0,0,0h0s0,0,0,0Zm-.07,0h0s0,0,0,0S28.42,275.09,28.42,275.07Zm-.15,0s0,0,0,0,0,0,0,0,0,0,0,0S28.28,275.06,28.28,275.07Zm-1-6.36h0Zm0-2.36h0Zm0-.34h0S27.3,266,27.3,266Zm1.18-4.78c0-.16.08-.3.11-.41v0l0,0,0-.12c0-.08,0-.15.06-.22l0-.2v0l.18-.32.19-.37a.57.57,0,0,1,.16.17,2.06,2.06,0,0,1,.14.48c0,.11.07.24.12.36h0a.67.67,0,0,0-.22.07.38.38,0,0,0-.15.19.6.6,0,0,1-.1.17,1,1,0,0,1-.16.13l-.18.13-.16.14-.17.13h0A1.72,1.72,0,0,0,28.47,261.22Zm-.06-1.93,0-.07h0v0Zm.15-4.22,0,.15,0,.11-.08.26c0,.11,0,.17-.08.26s-.06.18-.09.29a3,3,0,0,0-.05.31l0,.12v-.74c0-.15,0-.3,0-.45s0-.29,0-.44,0-.32.06-.48,0-.3.07-.45v0a.64.64,0,0,1,.22,0c0,.18-.12.22-.2.37a.59.59,0,0,1,.34.15l0,.1,0,.14C28.61,254.87,28.59,255,28.57,255.07Zm-3.42-4.39,0,.49-.08-.12-.3-.44-.15-.22-.14-.21,0-.05a1.93,1.93,0,0,1,.25-.27s0,.08,0,.13A1.11,1.11,0,0,0,25.15,250.69Zm-4.06,8.79,0-.08,0,0v.07a.67.67,0,0,0,0,.07Zm1-.88a.66.66,0,0,0-.1.27,2.57,2.57,0,0,0,0,.54.88.88,0,0,0,0,.27l0,.12a2.87,2.87,0,0,0-.74-.07c0-.07,0-.13,0-.18l0,0h0a.49.49,0,0,1,0-.09v-.18a.13.13,0,0,1,0-.07l.06-.07a2.78,2.78,0,0,1,.24-.28l.14-.12.07-.05,0,0,0,0,.17,0,.09,0h0Zm.48-.15a.88.88,0,0,0-.4,0l-.1,0-.09,0a.86.86,0,0,0-.19.06l0,0,0,0-.08.06-.14.13a2.86,2.86,0,0,0-.24.29l-.06.08a.21.21,0,0,0,0,.09l0,0a.32.32,0,0,0-.07.1l0,.1,0,.09a.66.66,0,0,1-.3-.25c-.06-.1-.06-.26-.15-.34a1,1,0,0,0-.39.22c-.07.05-.16.14-.26.1.11-.14.21-.31.32-.44a4.09,4.09,0,0,1,.6-.52c.13-.11.23-.32.38-.42a1.1,1.1,0,0,0,.44.34.72.72,0,0,0,.48,0l.14,0c.21.06.28,0,.44-.06l0,.14c0,.09,0,.17,0,.24h0ZM23,260.2h0S23,260.23,23,260.2Zm.68-5.46v0c-.07-.28,0-.19-.25-.26l-.13,0-.05,0a.21.21,0,0,0-.15,0l-.17,0,0-.09-.06-.27,0-.15,0-.07,0-.07,0-.14,0-.09,0-.05,0,0,0-.05a.43.43,0,0,1,.1-.21l-.14-.06V253l0-.14s0-.05,0-.11a.93.93,0,0,0-.06-.23.65.65,0,0,0-.08-.14,1.1,1.1,0,0,1,.09-.24l.09.19c.06.15.12.31.18.48l.1.26,0,.06,0,0,0,.12a2.31,2.31,0,0,0,.11.28l.08.14.08.13.18.24,0,0,0,0,.07.07.13.11.2.15.06.06,0,0,0,0,.06.05.11.09h-.19A.7.7,0,0,1,23.67,254.74Zm.89,15.67h0v0h0Zm0-.3v0Zm0-.89h0v0h0Zm0-8.85,0,0h0Zm.1,9.76h0Zm.23-10.59-.05.25v0l-.06.1,0,.05,0,0,0,.08-.07.17,0,0-.06.07,0,0,0,0-.08.15a1.93,1.93,0,0,0-.1.24h0l0-.1-.07-.25,0-.11v-.07s0-.05,0-.09v-.11s0,0,0-.07a.91.91,0,0,0,0-.21,1,1,0,0,0-.05-.13l0-.08-.08-.23-.06-.15h0s0,0,0,0a.62.62,0,0,1,0-.08s0-.06,0-.12,0-.07,0-.11v-.1a2.91,2.91,0,0,0,.31.32.92.92,0,0,0,.78.22Zm-1-.31h0Zm1.43-2v.05s0,.1,0,.16a.94.94,0,0,1-.37-.28,13.83,13.83,0,0,1-.76-1.33l-.1-.15a.86.86,0,0,0,.32.06,1.75,1.75,0,0,0,.41,0v0l0,.1,0,.07,0,.06,0,0s.05.12.12.23l0,0h0v0l0,.07a1.9,1.9,0,0,1,.05.2l.05.25a1.42,1.42,0,0,1,0,.2s0,.07,0,.11ZM25,256h0Zm.55-.59h0Zm0-.2v.19h0l0,0,0-.07v-.05l0,0-.08-.12,0-.05,0,0-.07-.13-.06-.09,0,0,0,0-.09-.09-.16-.18-.07-.09,0,0,0,0-.07-.07c-.09-.08-.17-.14-.23-.18l0,0h0l0,0-.13-.11-.22-.16-.08-.06,0,0,0,0,0,0-.14-.18-.06-.09-.05-.09a1.68,1.68,0,0,1-.09-.2L23.5,253l0-.07,0-.06-.1-.23c-.06-.16-.13-.33-.21-.5l-.13-.26,0-.07a6,6,0,0,0,.83-.14c.27-.11.18.06.26-.25a2,2,0,0,0,0-.25,2,2,0,0,1,.17-.64l.07.12.14.23.27.46c.13.22.27.44.4.66s0,.28,0,.43,0,.21,0,.32,0,.11,0,.16V253s0,.11,0,.18l0,.12v0h0v0l0,.13,0,.09,0,.08a6,6,0,0,0,.16.6l0,.08,0,.07.06.14,0,.08s0,.05,0,.08a2.75,2.75,0,0,0,0,.3c0,.09,0,.17,0,.23S25.58,255.24,25.58,255.26Zm.47-4.22h.06a1,1,0,0,0-.06.16Zm.11,1.75,0-.09,0-.12c0-.08,0-.16,0-.25s0-.18,0-.28a1.69,1.69,0,0,0,.28.49,1.52,1.52,0,0,1-.19.3Zm.11,10.44s0-.09,0-.13h0a.83.83,0,0,1,0,.11Zm.1-9.82s0,.09,0,.14l-.07-.23,0-.05,0-.05h.12Zm.92,6.56c-.07.32-.11.63-.18.9l-.06.2,0,.09,0,.06,0,.07a4.17,4.17,0,0,0-.11.4c0-.1,0-.2,0-.28s0-.06,0-.09V261c0-.07,0-.14,0-.2l0-.22,0-.24v-.09l0-.09c0-.07,0-.15.05-.25l0-.23,0-.28a1.17,1.17,0,0,0,.43,0Zm.46-5.58c0,.16,0,.31-.07.46s-.05.33-.07.49,0,.33,0,.49v.47l0,.94v.71a.82.82,0,0,1-.27-.1l-.14-.1s0-.1,0-.15a1.63,1.63,0,0,0,.05-.21l0-.12,0-.11.07-.28a3.26,3.26,0,0,0,.09-.71,2.42,2.42,0,0,0-.12-.77l-.07-.18,0-.09,0,0v-.31a1.23,1.23,0,0,1,0-.19c0-.07,0-.17,0-.23s0-.14,0-.22v-.06l.25,0,.33,0C27.78,254.17,27.76,254.27,27.75,254.38Zm1.18,8.21-.11-.05.14-.12h0A1.14,1.14,0,0,1,28.93,262.58Zm.52-.78a.42.42,0,0,0-.18,0c-.25.09-.28.28-.3.48l-.06,0a.82.82,0,0,0-.15.16,1.13,1.13,0,0,0-.57.06v-.3s0-.09,0-.15a1.12,1.12,0,0,0,0-.11v-.14l.23-.23.09-.07.17-.14.06-.06.09-.05.18-.08v.06l.18,0,0,0a.13.13,0,0,1,.09,0,.28.28,0,0,1,.11.06.42.42,0,0,1,.09.11l0,.06a.47.47,0,0,1,0,.07A.36.36,0,0,1,29.45,261.8Zm.37.2a.94.94,0,0,0-.24-.17.49.49,0,0,0,0-.19v0l.24.28Zm-.26-.56a.58.58,0,0,0-.11-.14.46.46,0,0,0-.17-.11h0l.21,0h0a.75.75,0,0,1,.18.12,1.14,1.14,0,0,1,.15.16h-.29Zm.41,0h0l0-.09a.59.59,0,0,0-.16-.21l-.12-.07-.08,0a.46.46,0,0,0-.26,0V261h-.06l-.21,0,.13-.12a.68.68,0,0,0,.1-.21.29.29,0,0,1,.11-.15.59.59,0,0,1,.19-.07h0a2.47,2.47,0,0,0,.18.39c.11.17.24.26.24.48Zm.1-2.69v0a2.64,2.64,0,0,0-.53-.17v0a1.21,1.21,0,0,1,.1-.17l.13-.19A2.1,2.1,0,0,1,30,258l.19,0,.23,0v.06c0,.09.1.17.12.26S30.2,258.61,30.06,258.73ZM30,257.45l0-.08,0,0,0,.09h0Zm.77-1.51.06-.08.09-.12a1.29,1.29,0,0,0,.08-.13.2.2,0,0,1,.06-.07A1.57,1.57,0,0,1,30.75,255.94Zm.24-.53a.33.33,0,0,0-.12.13l-.07.12-.09.1-.1.12,0,0,0,0,0,0-.1.1-.05.05,0,.05-.21.19-.21.2a1.54,1.54,0,0,0-.19.24.9.9,0,0,0-.07.14l0,0-.07.12-.21.38-.09.18,0,0,0,0-.06.09a1.47,1.47,0,0,0-.12.23l0,0,0,0,0,.07-.1.15-.28-.11c0-.22.05-.43.09-.64s.05-.38.07-.57,0-.18,0-.27l0-.13c0-.05,0-.11,0-.16s0-.18,0-.24,0-.15.07-.25l0-.15,0-.13c0-.08,0-.17.07-.28s0-.11,0-.16l0-.13c0-.08,0-.17.05-.25h0a6.26,6.26,0,0,1,1.13-.46,2,2,0,0,1,.83-.08.28.28,0,0,1,.33.21C31.49,254.72,31,255.18,31,255.42Zm.53,1.6.1-.05a.58.58,0,0,0,.14-.12,1.39,1.39,0,0,0,.17-.3l0-.08,0-.08a.84.84,0,0,1,.06-.16s0,0,.06,0h.09l.16-.05v0h0l-.16,0h-.13l0,0a.85.85,0,0,0-.07.16l0,.07,0,.07a1.33,1.33,0,0,1-.19.27.49.49,0,0,1-.12.1l-.05,0a1.64,1.64,0,0,0,0-.18c0-.12,0-.19.07-.28s.32-.17.43-.31a.22.22,0,0,1,.1-.16l.15-.06a1,1,0,0,1,.43,0,1.56,1.56,0,0,1,.4.19l.32.15a.12.12,0,0,1,.13.1c-.13.14-.31.18-.45.3a.89.89,0,0,1,.08.3.28.28,0,0,1-.09.13,2.35,2.35,0,0,1-.42,0h-.48l-.48,0-.18,0S31.52,257,31.52,257Zm1.69,1.08-.06.08,0,0,0,0-.1,0a.78.78,0,0,1-.21,0h-.21l-.1,0-.09,0a.67.67,0,0,1-.17-.12,2,2,0,0,0-.3-.32l-.18-.11q0-.08,0-.16a.34.34,0,0,0,0-.08h.06l.45,0h.69a.35.35,0,0,1,0,.18.15.15,0,0,0,0,.17c.09,0,.28-.08.32,0s-.09.24-.12.31Zm.42,1.31-.09.08,0,0c-.05-.05-.16,0-.22-.09s-.18-.15-.27-.21a.09.09,0,0,1-.08-.09.07.07,0,0,0,0-.11c-.11,0-.23.15-.36.11l0,0a.22.22,0,0,0-.19,0,.55.55,0,0,1-.45-.18c-.08-.08-.24-.25-.22-.39s.13-.25.16-.38a.8.8,0,0,0,0-.12l.06,0,.1.07a.82.82,0,0,1,.13.19,1.07,1.07,0,0,0,.15.21l0,0,0,0,0,0,.12,0,.24.06.24.05.12,0h.12v.12h0s-.08-.07-.12-.08-.08-.06-.12-.07l-.24-.08-.24-.08-.11,0,0,0,0,0,0,0a1,1,0,0,1-.13-.2h0l.13.08.1,0,.11,0h.22a.81.81,0,0,0,.22,0l.1,0,0,0,0,0,.06-.09a.36.36,0,0,1,.15.06c.07.05.09.16.17.2s.16,0,.19.17,0,.19,0,.26.16.07.22.13A.92.92,0,0,1,33.62,259.4Zm6.54-1.12a.11.11,0,0,1,0-.07.51.51,0,0,0,.09.08h0A.08.08,0,0,1,40.17,258.29Z"/><rect class="cls-34" y="322.93" width="441.72" height="17.4"/><path class="cls-1" d="M164.66,195.23a2.89,2.89,0,0,1-2.07,2.07v2.2a5.06,5.06,0,0,0,4.27-4.27Z"/><path class="cls-1" d="M161.14,197.3a2.89,2.89,0,0,1-2.07-2.07h-2.2a5.06,5.06,0,0,0,4.27,4.27Z"/><path class="cls-1" d="M159.09,193.79c.34-1,1.45-1.33,2.78-1.33s2.43.31,2.78,1.33h2.22a5,5,0,0,0-10,0Z"/><path class="cls-35" d="M174,199.56l2-3.38h-7a7.28,7.28,0,0,1-.46,1.36Z"/><path class="cls-35" d="M178,187.17l-5,2.25-3.89,3.63a7.35,7.35,0,0,1,0,3l6.92-1,1-3.38L170,194l7-3.47Z"/><path class="cls-35" d="M147.76,196.18l2,3.38,5.41-2a7.28,7.28,0,0,1-.46-1.36Z"/><path class="cls-35" d="M154.67,193.06l-3.89-3.63-5-2.25,1,3.38,7,3.47-7-2.34,1,3.38,6.92,1a7.35,7.35,0,0,1,0-3Z"/><path class="cls-35" d="M168.36,194.51a6.5,6.5,0,1,0-6.5,6.5A6.5,6.5,0,0,0,168.36,194.51Zm-6.5-5.05a5.06,5.06,0,0,1,5,4.33h-2.22c-.34-1-1.45-1.33-2.78-1.33s-2.43.31-2.78,1.33h-2.22A5.06,5.06,0,0,1,161.87,189.46Zm-5,5.77h2.2a2.89,2.89,0,0,0,2.07,2.07v2.2A5.06,5.06,0,0,1,156.87,195.23Zm5.72,4.27v-2.2a2.89,2.89,0,0,0,2.07-2.07h2.2A5.06,5.06,0,0,1,162.59,199.51Z"/><text class="cls-36" transform="translate(153.43 211.28)">G<tspan class="cls-37" x="2.16" y="0">et </tspan><tspan class="cls-38" x="6.95" y="0">I</tspan><tspan class="cls-39" x="8.36" y="0">t on`</tspan></text><path class="cls-8" d="M149.59,207.11h-.85v-3a.42.42,0,0,0,0-.17.45.45,0,0,0-.09-.13.41.41,0,0,0-.14-.09.43.43,0,0,0-.17,0,.43.43,0,0,0-.17,0,.42.42,0,0,0-.23.23.43.43,0,0,0,0,.17v3H147v-3a.41.41,0,0,0,0-.17.41.41,0,0,0-.09-.13.4.4,0,0,0-.13-.09.43.43,0,0,0-.33,0,.41.41,0,0,0-.14.09.42.42,0,0,0-.09.13.41.41,0,0,0,0,.17v3h-.85v-3a1.25,1.25,0,0,1,.1-.5,1.27,1.27,0,0,1,.68-.68,1.25,1.25,0,0,1,.5-.1,1.28,1.28,0,0,1,.46.08,1.25,1.25,0,0,1,.4.25,1.25,1.25,0,0,1,.39-.25,1.28,1.28,0,0,1,1.36.29,1.29,1.29,0,0,1,.27.41,1.25,1.25,0,0,1,.1.5Z"/><path class="cls-8" d="M153.31,207.11h-.2l-.32-.44-.25.19a1.76,1.76,0,0,1-.27.16,1.59,1.59,0,0,1-.29.11,1.19,1.19,0,0,1-.3,0,1.76,1.76,0,0,1-.63-.11,1.49,1.49,0,0,1-.52-.33,1.52,1.52,0,0,1-.35-.53,1.86,1.86,0,0,1-.13-.71,1.78,1.78,0,0,1,.13-.68,1.61,1.61,0,0,1,.35-.53,1.57,1.57,0,0,1,.52-.35,1.63,1.63,0,0,1,.63-.12,1.26,1.26,0,0,1,.31,0,1.61,1.61,0,0,1,.29.11,2,2,0,0,1,.27.16l.24.2.32-.38h.2Zm-.82-1.62a.85.85,0,0,0-.06-.32.93.93,0,0,0-.17-.28.84.84,0,0,0-.26-.19.69.69,0,0,0-.31-.07.86.86,0,0,0-.31.06.71.71,0,0,0-.26.17.79.79,0,0,0-.17.27,1.13,1.13,0,0,0,0,.74.78.78,0,0,0,.17.27.71.71,0,0,0,.26.17.86.86,0,0,0,.31.06.69.69,0,0,0,.31-.07.85.85,0,0,0,.26-.19.93.93,0,0,0,.17-.28A.85.85,0,0,0,152.49,205.49Z"/><path class="cls-8" d="M157,206.7a1.57,1.57,0,0,1-.13.63,1.64,1.64,0,0,1-.87.86,1.58,1.58,0,0,1-.63.13H155v-.81h.4a1,1,0,0,0,.32,0,.68.68,0,0,0,.23-.13.67.67,0,0,0,.15-.2,1.24,1.24,0,0,0,.09-.23.36.36,0,0,1-.14.13l-.2.08-.23,0h-.22a1.72,1.72,0,0,1-.63-.12,1.51,1.51,0,0,1-.87-.86,1.85,1.85,0,0,1-.13-.7,1.74,1.74,0,0,1,.13-.67,1.64,1.64,0,0,1,.35-.54,1.61,1.61,0,0,1,.52-.35,1.58,1.58,0,0,1,.63-.13,1.26,1.26,0,0,1,.31,0,1.61,1.61,0,0,1,.29.11,2,2,0,0,1,.27.16l.24.2.32-.38h.2Zm-.82-1.22a.85.85,0,0,0-.06-.32.93.93,0,0,0-.17-.28.84.84,0,0,0-.26-.19.69.69,0,0,0-.31-.07.86.86,0,0,0-.31.06.71.71,0,0,0-.26.17.79.79,0,0,0-.17.27,1,1,0,0,0-.06.37,1,1,0,0,0,.06.36.83.83,0,0,0,.17.27.74.74,0,0,0,.26.17.81.81,0,0,0,.31.06.69.69,0,0,0,.31-.07.85.85,0,0,0,.26-.19.93.93,0,0,0,.17-.28A.85.85,0,0,0,156.2,205.49Z"/><path class="cls-8" d="M158.59,203.06a.53.53,0,0,1,0,.21.55.55,0,0,1-.12.17.57.57,0,0,1-.17.12.55.55,0,0,1-.42,0,.54.54,0,0,1-.29-.29.51.51,0,0,1,0-.21.51.51,0,0,1,0-.21.54.54,0,0,1,.29-.29.55.55,0,0,1,.42,0,.55.55,0,0,1,.17.12.53.53,0,0,1,.16.38Zm-.14,4h-.82v-3.18h.82Z"/><path class="cls-8" d="M161.85,204.55l-.59.6a.79.79,0,0,0-.12-.22.81.81,0,0,0-.17-.17.73.73,0,0,0-.21-.1.76.76,0,0,0-.23,0,.73.73,0,0,0-.31.07.78.78,0,0,0-.26.19.94.94,0,0,0-.17.29,1.09,1.09,0,0,0-.06.38.79.79,0,0,0,.06.31.82.82,0,0,0,.17.26.8.8,0,0,0,.57.24.79.79,0,0,0,.23,0,.8.8,0,0,0,.21-.09.76.76,0,0,0,.17-.15.79.79,0,0,0,.12-.19l.59.6a1.62,1.62,0,0,1-.26.29,1.7,1.7,0,0,1-.32.22,1.62,1.62,0,0,1-.36.14,1.65,1.65,0,0,1-.39,0,1.6,1.6,0,0,1-.63-.13,1.65,1.65,0,0,1-.52-.35,1.62,1.62,0,0,1-.35-.51,1.57,1.57,0,0,1-.13-.63,1.82,1.82,0,0,1,.13-.68,1.74,1.74,0,0,1,.35-.55,1.65,1.65,0,0,1,.52-.37,1.53,1.53,0,0,1,1-.09,1.56,1.56,0,0,1,.37.15,1.6,1.6,0,0,1,.32.24A1.49,1.49,0,0,1,161.85,204.55Z"/><path class="cls-8" d="M167.43,206.67a2.21,2.21,0,0,1-2,.44,2.16,2.16,0,0,1-.52-.22,2.24,2.24,0,0,1-.45-.34,2.14,2.14,0,0,1-.34-.45,2.24,2.24,0,0,1-.22-.53,2.16,2.16,0,0,1-.08-.58,2.13,2.13,0,0,1,.08-.58,2.23,2.23,0,0,1,.22-.52,2.12,2.12,0,0,1,.34-.45,2.24,2.24,0,0,1,.45-.34,2.19,2.19,0,0,1,.52-.22,2.14,2.14,0,0,1,.58-.08,2.18,2.18,0,0,1,1.42.52l-.45.74a1.42,1.42,0,0,0-.45-.31,1.33,1.33,0,0,0-1.06,0,1.39,1.39,0,0,0-.43.29,1.37,1.37,0,0,0-.29.43,1.35,1.35,0,0,0,0,1.05,1.37,1.37,0,0,0,.72.72,1.3,1.3,0,0,0,.52.11,1.23,1.23,0,0,0,.31,0,1.45,1.45,0,0,0,.29-.11V205h.82Z"/><path class="cls-8" d="M169.26,206.33l.1,0h.09a.78.78,0,0,0,.23,0,.8.8,0,0,0,.21-.09.77.77,0,0,0,.3-.34l.59.6a1.62,1.62,0,0,1-.26.29,1.67,1.67,0,0,1-.32.22,1.63,1.63,0,0,1-.36.14,1.66,1.66,0,0,1-.39,0,1.61,1.61,0,0,1-.63-.12,1.59,1.59,0,0,1-.52-.35,1.61,1.61,0,0,1-.35-.53,1.75,1.75,0,0,1-.13-.68,1.81,1.81,0,0,1,.13-.69,1.56,1.56,0,0,1,.87-.87,1.63,1.63,0,0,1,.63-.12,1.58,1.58,0,0,1,.39,0,1.61,1.61,0,0,1,.36.14,1.59,1.59,0,0,1,.32.22,1.64,1.64,0,0,1,.26.29Zm.42-1.67-.11,0h-.11a.83.83,0,0,0-.31.06.75.75,0,0,0-.26.17.83.83,0,0,0-.17.27,1,1,0,0,0-.06.36s0,.06,0,.1,0,.08,0,.12l0,.11a.38.38,0,0,0,0,.09Z"/><path class="cls-8" d="M174.25,207.11h-.2l-.32-.44-.25.19a1.76,1.76,0,0,1-.27.16,1.59,1.59,0,0,1-.29.11,1.19,1.19,0,0,1-.3,0,1.76,1.76,0,0,1-.63-.11,1.49,1.49,0,0,1-.52-.33,1.52,1.52,0,0,1-.35-.53,1.86,1.86,0,0,1-.13-.71,1.78,1.78,0,0,1,.13-.68,1.61,1.61,0,0,1,.35-.53,1.57,1.57,0,0,1,.52-.35,1.63,1.63,0,0,1,.63-.12,1.26,1.26,0,0,1,.31,0,1.61,1.61,0,0,1,.29.11,2,2,0,0,1,.27.16l.24.2.32-.38h.2Zm-.82-1.62a.85.85,0,0,0-.06-.32.93.93,0,0,0-.17-.28.84.84,0,0,0-.26-.19.69.69,0,0,0-.31-.07.86.86,0,0,0-.31.06.71.71,0,0,0-.26.17.79.79,0,0,0-.17.27,1.13,1.13,0,0,0,0,.74.78.78,0,0,0,.17.27.71.71,0,0,0,.26.17.86.86,0,0,0,.31.06.69.69,0,0,0,.31-.07.85.85,0,0,0,.26-.19.93.93,0,0,0,.17-.28A.85.85,0,0,0,173.43,205.49Z"/><path class="cls-8" d="M175.68,207.11h-.81v-3.18h.2l.27.38a1.44,1.44,0,0,1,.45-.27,1.42,1.42,0,0,1,.52-.1H177v.81h-.72a.62.62,0,0,0-.24,0,.63.63,0,0,0-.2.13.62.62,0,0,0-.13.2.62.62,0,0,0,0,.24Z"/><path d="M200.61,198.56a1.8,1.8,0,0,1,.15-.73,1.91,1.91,0,0,1,.41-.6,1.93,1.93,0,0,1,.6-.41,1.82,1.82,0,0,1,.73-.15h2.89v1.26H202.5a.63.63,0,0,0-.45.18.63.63,0,0,0-.18.45.62.62,0,0,0,0,.25.61.61,0,0,0,.33.34.61.61,0,0,0,.25,0h1.26a1.85,1.85,0,0,1,.74.15,1.88,1.88,0,0,1,1,1,1.85,1.85,0,0,1,.15.74,1.83,1.83,0,0,1-.15.73,1.89,1.89,0,0,1-.4.6,1.93,1.93,0,0,1-.6.41,1.83,1.83,0,0,1-.74.15H201v-1.26h2.8a.62.62,0,0,0,.25,0,.62.62,0,0,0,.33-.33.66.66,0,0,0,0-.49.62.62,0,0,0-.33-.33.62.62,0,0,0-.25,0H202.5a1.8,1.8,0,0,1-.73-.15,1.91,1.91,0,0,1-1-1A1.82,1.82,0,0,1,200.61,198.56Z"/><path d="M208.63,203a2,2,0,0,1-.82-.17,2.12,2.12,0,0,1-1.12-1.12,2,2,0,0,1-.17-.82v-1.4h-.58v-1.2h.58v-1.88h1.2v1.88h1.82v1.2h-1.82v1.4a.89.89,0,0,0,.07.35.91.91,0,0,0,.19.29.94.94,0,0,0,.29.2.89.89,0,0,0,.36.07h.91V203Z"/><path d="M214.77,203h-.29l-.47-.65a3.47,3.47,0,0,1-.36.29,2.65,2.65,0,0,1-.4.23,2.5,2.5,0,0,1-.43.16,1.84,1.84,0,0,1-.45.06,2.59,2.59,0,0,1-.93-.17,2.22,2.22,0,0,1-.76-.49,2.27,2.27,0,0,1-.52-.78,2.75,2.75,0,0,1-.19-1,2.62,2.62,0,0,1,.19-1,2.39,2.39,0,0,1,.52-.79,2.31,2.31,0,0,1,.76-.51,2.39,2.39,0,0,1,.93-.18,1.86,1.86,0,0,1,.45.06,2.47,2.47,0,0,1,.44.16,2.83,2.83,0,0,1,.4.24,3.36,3.36,0,0,1,.36.29l.47-.56h.29Zm-1.21-2.39a1.24,1.24,0,0,0-.09-.48,1.36,1.36,0,0,0-.26-.41,1.29,1.29,0,0,0-.38-.29,1,1,0,0,0-.46-.11,1.29,1.29,0,0,0-.46.08,1.06,1.06,0,0,0-.38.25,1.18,1.18,0,0,0-.25.4,1.68,1.68,0,0,0,0,1.09,1.18,1.18,0,0,0,.25.4,1.06,1.06,0,0,0,.38.25,1.29,1.29,0,0,0,.46.08,1,1,0,0,0,.46-.11,1.29,1.29,0,0,0,.38-.29,1.36,1.36,0,0,0,.26-.41A1.24,1.24,0,0,0,213.56,200.58Z"/><path d="M216.88,203h-1.2v-4.71H216l.4.56a2.12,2.12,0,0,1,1.42-.55h1.06v1.2h-1.06a.9.9,0,0,0-.36.07.89.89,0,0,0-.29.19.91.91,0,0,0-.26.65Z"/><path d="M221.77,203a2,2,0,0,1-.82-.17,2.12,2.12,0,0,1-1.12-1.12,2,2,0,0,1-.17-.82v-1.4h-.58v-1.2h.58v-1.88h1.2v1.88h1.82v1.2h-1.82v1.4a.89.89,0,0,0,.07.35.91.91,0,0,0,.19.29.94.94,0,0,0,.29.2.89.89,0,0,0,.36.07h.91V203Z"/><path d="M225.94,203h-2.74v-1.2h2.74a.3.3,0,0,0,.3-.3.16.16,0,0,0-.09-.17.51.51,0,0,0-.21,0h-1.25a1.44,1.44,0,0,1-.58-.12,1.48,1.48,0,0,1-.47-.32,1.51,1.51,0,0,1-.32-.48,1.49,1.49,0,0,1,.79-2,1.46,1.46,0,0,1,.58-.12h2.43v1.2h-2.43a.3.3,0,0,0-.3.3.3.3,0,0,0,.09.22.28.28,0,0,0,.21.09h1.25a1.63,1.63,0,0,1,.58.1,1.48,1.48,0,0,1,.47.29,1.35,1.35,0,0,1,.32.44,1.33,1.33,0,0,1,.12.57,1.41,1.41,0,0,1-.12.58,1.53,1.53,0,0,1-.32.47,1.48,1.48,0,0,1-1.05.44Z"/><path d="M235.68,203h-1.26v-1.26H231.9V203h-1.26v-3.78a2.46,2.46,0,0,1,.2-1,2.58,2.58,0,0,1,.54-.8,2.51,2.51,0,0,1,.8-.54,2.53,2.53,0,0,1,2,0,2.53,2.53,0,0,1,.8.54,2.57,2.57,0,0,1,.54.8,2.48,2.48,0,0,1,.2,1Zm-1.26-2.52v-1.26a1.23,1.23,0,0,0-.1-.49,1.26,1.26,0,0,0-.67-.67,1.26,1.26,0,0,0-1,0,1.26,1.26,0,0,0-.67.67,1.23,1.23,0,0,0-.1.49v1.26Z"/><path d="M239,203a2,2,0,0,1-.82-.17,2.12,2.12,0,0,1-1.12-1.12,2,2,0,0,1-.17-.82v-1.4h-.58v-1.2h.58v-1.88h1.2v1.88h1.82v1.2H238.1v1.4a.89.89,0,0,0,.07.35.91.91,0,0,0,.19.29.94.94,0,0,0,.29.2.89.89,0,0,0,.36.07h.91V203Z"/><path d="M245.16,197.86h1v1h-1.95a.23.23,0,0,0-.17.07.22.22,0,0,0-.07.16.24.24,0,0,0,.24.24h1a1.29,1.29,0,0,1,.46.08,1.18,1.18,0,0,1,.38.23,1.1,1.1,0,0,1,.26.36,1.07,1.07,0,0,1,.09.45,1.19,1.19,0,0,1-.35.85,1.26,1.26,0,0,1-.38.25,1.16,1.16,0,0,1-.46.09h-.08V203h-.81v-1.35H243v-1h2.2a.22.22,0,0,0,.16-.07.25.25,0,0,0,.07-.17.13.13,0,0,0-.07-.13.45.45,0,0,0-.16,0h-1a1.18,1.18,0,0,1-.85-.35,1.25,1.25,0,0,1-.25-.38,1.17,1.17,0,0,1-.09-.47,1.14,1.14,0,0,1,.09-.46,1.23,1.23,0,0,1,.25-.38,1.2,1.2,0,0,1,.38-.26,1.17,1.17,0,0,1,.47-.09h.11v-1.19h.81Z"/><path d="M249,203h-1.26v-5h-.63v-1.26H249Z"/><path d="M254.84,199a5.74,5.74,0,0,1-.12,1.18,5.39,5.39,0,0,1-.35,1.09,4.84,4.84,0,0,1-.56.95,4.11,4.11,0,0,1-.75.76h-1.7a5,5,0,0,0,.52-.38,5.77,5.77,0,0,0,.48-.45,5.39,5.39,0,0,0,.42-.51,4.67,4.67,0,0,0,.34-.55,2.47,2.47,0,0,1-.41.22,1.2,1.2,0,0,1-.45.09,2.49,2.49,0,0,1-1-.18,2.09,2.09,0,0,1-.73-.5,2.17,2.17,0,0,1-.46-.76,2.8,2.8,0,0,1-.16-1,2.56,2.56,0,0,1,.18-1,2.5,2.5,0,0,1,.5-.8,2.37,2.37,0,0,1,.76-.54,2.29,2.29,0,0,1,1-.2,2.42,2.42,0,0,1,1,.2,2.51,2.51,0,0,1,1.33,1.33A2.42,2.42,0,0,1,254.84,199Zm-1.35,0a1.32,1.32,0,0,0-.08-.46,1.24,1.24,0,0,0-.24-.4,1.14,1.14,0,0,0-.36-.27,1.06,1.06,0,0,0-.47-.1,1.08,1.08,0,0,0-.47.1,1.12,1.12,0,0,0-.36.27,1.15,1.15,0,0,0-.23.39,1.43,1.43,0,0,0-.08.48,1.39,1.39,0,0,0,.08.47,1.15,1.15,0,0,0,.23.39,1.06,1.06,0,0,0,.36.26,1.08,1.08,0,0,0,.47.1,1.12,1.12,0,0,0,.47-.1,1.05,1.05,0,0,0,.36-.26,1.17,1.17,0,0,0,.23-.39A1.35,1.35,0,0,0,253.49,199Z"/><path d="M256.93,202.52a2.55,2.55,0,0,1,0,.42,2.36,2.36,0,0,1-.12.44,2,2,0,0,1-.21.41,1.29,1.29,0,0,1-.31.33l-.48-.33a1.26,1.26,0,0,0,.18-.27,1.46,1.46,0,0,0,.1-.25.83.83,0,0,1-.25-.09.75.75,0,0,1-.2-.17.76.76,0,0,1-.13-.22.73.73,0,0,1,0-.27.71.71,0,0,1,.06-.29.74.74,0,0,1,.16-.24.8.8,0,0,1,.24-.16.7.7,0,0,1,.29-.06.74.74,0,0,1,.3.06.77.77,0,0,1,.24.16.72.72,0,0,1,.16.24A.76.76,0,0,1,256.93,202.52Z"/><path d="M262.21,199a5.74,5.74,0,0,1-.12,1.18,5.39,5.39,0,0,1-.35,1.09,4.84,4.84,0,0,1-.56.95,4.11,4.11,0,0,1-.75.76h-1.7a5,5,0,0,0,.52-.38,5.77,5.77,0,0,0,.48-.45,5.39,5.39,0,0,0,.42-.51,4.67,4.67,0,0,0,.34-.55,2.47,2.47,0,0,1-.41.22,1.2,1.2,0,0,1-.45.09,2.49,2.49,0,0,1-1-.18,2.09,2.09,0,0,1-.73-.5,2.17,2.17,0,0,1-.46-.76,2.8,2.8,0,0,1-.16-1,2.56,2.56,0,0,1,.18-1,2.5,2.5,0,0,1,.5-.8,2.37,2.37,0,0,1,.76-.54,2.29,2.29,0,0,1,1-.2,2.42,2.42,0,0,1,1,.2A2.51,2.51,0,0,1,262,198,2.42,2.42,0,0,1,262.21,199Zm-1.35,0a1.32,1.32,0,0,0-.08-.46,1.24,1.24,0,0,0-.24-.4,1.14,1.14,0,0,0-.36-.27,1.06,1.06,0,0,0-.47-.1,1.08,1.08,0,0,0-.47.1,1.12,1.12,0,0,0-.36.27,1.15,1.15,0,0,0-.23.39,1.43,1.43,0,0,0-.08.48,1.39,1.39,0,0,0,.08.47,1.15,1.15,0,0,0,.23.39,1.06,1.06,0,0,0,.36.26,1.08,1.08,0,0,0,.47.1,1.12,1.12,0,0,0,.47-.1,1.05,1.05,0,0,0,.36-.26,1.17,1.17,0,0,0,.23-.39A1.35,1.35,0,0,0,260.86,199Z"/><path d="M267.76,199a5.74,5.74,0,0,1-.12,1.18,5.39,5.39,0,0,1-.35,1.09,4.84,4.84,0,0,1-.56.95,4.11,4.11,0,0,1-.75.76h-1.7a5,5,0,0,0,.52-.38,5.77,5.77,0,0,0,.48-.45,5.39,5.39,0,0,0,.42-.51,4.67,4.67,0,0,0,.34-.55,2.47,2.47,0,0,1-.41.22,1.2,1.2,0,0,1-.45.09,2.49,2.49,0,0,1-1-.18,2.09,2.09,0,0,1-.73-.5,2.17,2.17,0,0,1-.46-.76,2.8,2.8,0,0,1-.16-1,2.56,2.56,0,0,1,.18-1,2.5,2.5,0,0,1,.5-.8,2.37,2.37,0,0,1,.76-.54,2.29,2.29,0,0,1,1-.2,2.42,2.42,0,0,1,1,.2,2.51,2.51,0,0,1,1.33,1.33A2.42,2.42,0,0,1,267.76,199Zm-1.35,0a1.32,1.32,0,0,0-.08-.46,1.24,1.24,0,0,0-.24-.4,1.14,1.14,0,0,0-.36-.27,1.06,1.06,0,0,0-.47-.1,1.08,1.08,0,0,0-.47.1,1.12,1.12,0,0,0-.36.27,1.15,1.15,0,0,0-.23.39,1.43,1.43,0,0,0-.08.48,1.39,1.39,0,0,0,.08.47,1.15,1.15,0,0,0,.23.39,1.06,1.06,0,0,0,.36.26,1.08,1.08,0,0,0,.47.1,1.12,1.12,0,0,0,.47-.1,1.05,1.05,0,0,0,.36-.26,1.17,1.17,0,0,0,.23-.39A1.35,1.35,0,0,0,266.41,199Z"/><path d="M273.31,199a5.74,5.74,0,0,1-.12,1.18,5.39,5.39,0,0,1-.35,1.09,4.84,4.84,0,0,1-.56.95,4.11,4.11,0,0,1-.75.76h-1.7a5,5,0,0,0,.52-.38,5.77,5.77,0,0,0,.48-.45,5.39,5.39,0,0,0,.42-.51,4.67,4.67,0,0,0,.34-.55,2.47,2.47,0,0,1-.41.22,1.2,1.2,0,0,1-.45.09,2.49,2.49,0,0,1-1-.18,2.09,2.09,0,0,1-.73-.5,2.17,2.17,0,0,1-.46-.76,2.8,2.8,0,0,1-.16-1,2.56,2.56,0,0,1,.18-1,2.5,2.5,0,0,1,.5-.8,2.37,2.37,0,0,1,.76-.54,2.29,2.29,0,0,1,1-.2,2.42,2.42,0,0,1,1,.2,2.51,2.51,0,0,1,1.33,1.33A2.42,2.42,0,0,1,273.31,199ZM272,199a1.32,1.32,0,0,0-.08-.46,1.24,1.24,0,0,0-.24-.4,1.14,1.14,0,0,0-.36-.27,1.06,1.06,0,0,0-.47-.1,1.08,1.08,0,0,0-.47.1,1.12,1.12,0,0,0-.36.27,1.15,1.15,0,0,0-.23.39,1.43,1.43,0,0,0-.08.48,1.39,1.39,0,0,0,.08.47,1.15,1.15,0,0,0,.23.39,1.06,1.06,0,0,0,.36.26,1.08,1.08,0,0,0,.47.1,1.12,1.12,0,0,0,.47-.1,1.05,1.05,0,0,0,.36-.26,1.17,1.17,0,0,0,.23-.39A1.35,1.35,0,0,0,272,199Z"/></g></g></svg>